<svg width="48" height="48" viewBox="0 0 48 48" fill="none" xmlns="http://www.w3.org/2000/svg">
<path d="M6.37109 16.1221C6.37109 16.6399 6.79114 17.0596 7.30859 17.0596H27.559C28.0768 17.0596 28.4965 16.6399 28.4965 16.1221C28.4965 15.6042 28.0768 15.1846 27.559 15.1846H7.30859C6.79114 15.1846 6.37109 15.6042 6.37109 16.1221Z" fill="black"/>
<path d="M27.3711 11.8105C27.8889 11.8105 28.3086 11.3909 28.3086 10.873C28.3086 10.3552 27.8889 9.93555 27.3711 9.93555H14.3882C13.8707 9.93555 13.4507 10.3552 13.4507 10.873C13.4507 11.3909 13.8707 11.8105 14.3882 11.8105H27.3711Z" fill="black"/>
<path d="M7.30859 22.3115H21.6567C22.1746 22.3115 22.5942 21.8918 22.5942 21.374C22.5942 20.8562 22.1746 20.4365 21.6567 20.4365H7.30859C6.79114 20.4365 6.37109 20.8562 6.37109 21.374C6.37109 21.8918 6.79114 22.3115 7.30859 22.3115Z" fill="black"/>
<path d="M7.30859 27.5615H26.0223C26.5402 27.5615 26.9598 27.1418 26.9598 26.624C26.9598 26.1062 26.5402 25.6865 26.0223 25.6865H7.30859C6.79114 25.6865 6.37109 26.1062 6.37109 26.624C6.37109 27.1418 6.79114 27.5615 7.30859 27.5615Z" fill="black"/>
<path d="M7.30859 32.8125H14.3885C14.9064 32.8125 15.3264 32.3928 15.3264 31.875C15.3264 31.3572 14.9064 30.9375 14.3885 30.9375H7.30859C6.79114 30.9375 6.37109 31.3572 6.37109 31.875C6.37109 32.3928 6.79114 32.8125 7.30859 32.8125Z" fill="black"/>
<path d="M27.5586 20.4365H26.022C25.5042 20.4365 25.0845 20.8562 25.0845 21.374C25.0845 21.8918 25.5042 22.3115 26.022 22.3115H27.5586C28.0764 22.3115 28.4961 21.8918 28.4961 21.374C28.4961 20.8562 28.0764 20.4365 27.5586 20.4365Z" fill="black"/>
<path d="M45.6262 19.7183C42.691 16.7831 38.0504 16.5718 34.8673 19.0803V2.8125C34.8673 1.2616 33.6057 0 32.0548 0H9.1875C9.17725 0 9.16663 0.00109864 9.15637 0.00146484C9.14539 0.00183105 9.13477 0.00256348 9.12415 0.00329589C9.08459 0.00585938 9.04541 0.0102539 9.00659 0.0179443C9.00586 0.0179443 9.00513 0.0179443 9.00439 0.0183105C8.96484 0.026001 8.92603 0.0373536 8.88831 0.0501709C8.87805 0.0534668 8.86853 0.0571289 8.85864 0.0607911C8.82275 0.0743408 8.7876 0.0893555 8.75391 0.106934C8.75171 0.108032 8.74915 0.108765 8.74695 0.109863C8.71143 0.128906 8.67737 0.150879 8.64404 0.174683C8.63562 0.180908 8.62756 0.186768 8.61914 0.193359C8.58618 0.218262 8.55432 0.244995 8.52466 0.274658L0.274658 8.52466C0.244995 8.55432 0.218262 8.58618 0.193359 8.61914C0.186768 8.62756 0.180542 8.63562 0.174683 8.64441C0.151245 8.67737 0.128906 8.71143 0.109863 8.74695C0.108765 8.74915 0.108032 8.75134 0.106934 8.75354C0.0889893 8.7876 0.0739746 8.82275 0.0607911 8.85864C0.0571289 8.86853 0.0534668 8.87805 0.0501709 8.88794C0.0373536 8.92603 0.026001 8.96484 0.0179443 9.00439C0.0179443 9.00513 0.0179443 9.00586 0.0175781 9.00659C0.0102539 9.04504 0.00585938 9.08459 0.00292969 9.12415C0.00219727 9.13477 0.00183105 9.14539 0.00146484 9.15601C0.00109864 9.16663 0 9.17725 0 9.1875V17.1555C0 17.6733 0.419678 18.093 0.9375 18.093C1.45532 18.093 1.875 17.6733 1.875 17.1555V10.125H7.44141C8.92126 10.125 10.125 8.92126 10.125 7.44177V1.875H32.0552C32.5719 1.875 32.9927 2.29578 32.9927 2.8125V20.8722L32.0094 21.8555C29.8535 24.0114 29.1244 27.1681 29.9971 29.9967C27.705 29.2899 25.1979 29.6345 23.1819 30.9379H19.2308C18.713 30.9379 18.2933 31.3575 18.2933 31.8754C18.2933 32.3932 18.713 32.8129 19.2308 32.8129H21.052L19.7179 34.147C17.4957 36.3695 16.8362 39.5698 17.7352 42.3754H2.8125C2.29541 42.3754 1.875 41.955 1.875 41.4379V25.593C1.875 25.0756 1.45532 24.6555 0.9375 24.6555C0.419678 24.6555 0 25.0756 0 25.593V41.4379C0 42.9888 1.2616 44.2504 2.8125 44.2504H18.6149C18.9261 44.7382 19.2924 45.2007 19.7179 45.6266C21.3007 47.209 23.3789 48.0004 25.4579 48C27.5361 48 29.6155 47.2086 31.1975 45.6266L33.3354 43.4886C35.4906 41.3331 36.2201 38.1768 35.3478 35.3481C36.1293 35.5891 36.936 35.7089 37.7399 35.7089C39.8445 35.7085 41.9293 34.8948 43.489 33.3351L45.6266 31.1975C48.7914 28.0327 48.7914 22.8831 45.6262 19.7183ZM8.25 7.44177C8.25 7.88745 7.88745 8.25 7.44141 8.25H3.20068L8.25 3.20105V7.44177ZM38.5063 26.8378C37.7714 26.1028 36.7291 25.8589 35.7891 26.1042C35.8557 26.0167 35.9282 25.9325 36.007 25.8534L38.1449 23.7158C38.6089 23.2518 39.2278 22.9958 39.8866 22.9958C40.5458 22.9958 41.1643 23.2518 41.6287 23.7162C42.5892 24.6764 42.5892 26.2394 41.6287 27.2L39.4911 29.3375C39.4127 29.4155 39.3296 29.4873 39.2428 29.5536C39.3032 29.3225 39.3347 29.0823 39.3347 28.8369C39.3344 28.0818 39.0403 27.3717 38.5063 26.8378ZM35.8345 28.1638C36.0201 27.9781 36.2637 27.8855 36.5076 27.8855C36.7515 27.8855 36.995 27.9781 37.1807 28.1638C37.3605 28.3436 37.4594 28.5824 37.4594 28.8369C37.4594 29.0911 37.3605 29.3302 37.1807 29.51L29.51 37.1807C29.3302 37.3605 29.0911 37.4597 28.8369 37.4597C28.5828 37.4597 28.3436 37.3605 28.1638 37.1807C27.984 37.0009 27.8851 36.7621 27.8851 36.5076C27.8851 36.2534 27.984 36.0143 28.1638 35.8345L28.7937 35.2046C28.9017 35.1343 28.9948 35.0416 29.0669 34.9318L35.8345 28.1638ZM26.8378 38.5063C27.3717 39.0403 28.0818 39.3344 28.8369 39.3344C29.0819 39.3344 29.3221 39.3029 29.5532 39.2428C29.4869 39.3296 29.4155 39.4127 29.3372 39.4907L27.1996 41.6287C26.239 42.5889 24.6764 42.5889 23.7158 41.6287C22.7552 40.6681 22.7552 39.1051 23.7158 38.1449L25.8534 36.007C25.9318 35.929 26.0149 35.8568 26.1017 35.7909C26.0413 36.022 26.0098 36.2626 26.0098 36.5076C26.0098 37.2627 26.3038 37.9728 26.8378 38.5063ZM32.0094 42.163L29.8718 44.3005C28.6545 45.5175 27.0564 46.1261 25.4579 46.1261C23.8594 46.1257 22.2605 45.5175 21.0439 44.3005C18.6101 41.8667 18.6101 37.9065 21.0439 35.4727L23.1815 33.3351C24.8621 31.6549 27.3336 31.1008 29.5316 31.8149L27.9225 33.4244C26.6671 33.3285 25.4297 33.7793 24.5277 34.6813L22.3901 36.8188C20.6986 38.5104 20.6986 41.2628 22.3901 42.9543C23.2357 43.8003 24.3468 44.2229 25.4579 44.2229C26.569 44.2229 27.6797 43.7999 28.5256 42.9543L30.6632 40.8168C31.5626 39.9174 32.0142 38.6774 31.9193 37.4231L33.5295 35.8129C34.2437 38.0112 33.6896 40.4828 32.0094 42.163ZM44.3005 29.8718L42.163 32.0094C40.4824 33.6896 38.0109 34.2437 35.8129 33.5295L37.4231 31.9189C37.533 31.9274 37.6421 31.9329 37.7512 31.9329C38.8916 31.9329 39.9954 31.4846 40.8168 30.6632L42.9543 28.5256C44.6459 26.8341 44.6459 24.0817 42.9543 22.3901C42.1362 21.5717 41.0464 21.1208 39.8866 21.1208C38.7268 21.1208 37.6373 21.5717 36.8188 22.3901L34.6813 24.5277C33.7819 25.4271 33.3307 26.6667 33.4252 27.9214L31.8149 29.5316C31.1008 27.3333 31.6549 24.8617 33.3351 23.1815L35.4727 21.0439C37.9065 18.6101 41.8667 18.6101 44.3005 21.0439C46.7344 23.4778 46.7344 27.438 44.3005 29.8718Z" fill="black"/>
<path d="M0.9375 22.3115C0.69104 22.3115 0.448975 22.2112 0.274658 22.0369C0.100342 21.8625 0 21.6205 0 21.374C0 21.1276 0.100342 20.8855 0.274658 20.7112C0.448975 20.5369 0.69104 20.4365 0.9375 20.4365C1.18396 20.4365 1.42603 20.5369 1.60034 20.7112C1.77466 20.8855 1.875 21.1276 1.875 21.374C1.875 21.6205 1.77466 21.8625 1.60034 22.0369C1.42603 22.2112 1.18396 22.3115 0.9375 22.3115Z" fill="black"/>
</svg>
