<svg height="512" viewBox="0 0 56 60" width="512" xmlns="http://www.w3.org/2000/svg"><g id="Page-1" fill="none" fill-rule="evenodd"><g id="049---Products" fill="rgb(0,0,0)" fill-rule="nonzero"><path id="Shape" d="m55.025 19.977c-.5688373-.6216215-1.372392-.9760562-2.215-.977h-9.879c-.4970725-.7928392-1.0773601-1.5303509-1.731-2.2-.9407849-.9359997-2.0201005-1.7215391-3.2-2.329v-2.471c-.0068148-1.8184116-1.2393149-3.40340667-3-3.858v-2.326c1.3765475-.48485233 2.2026937-1.89184415 1.9553873-3.33017801-.2473064-1.43833387-1.49595-2.48858739-2.9553873-2.48582199h-13c-1.6568542 0-3 1.34314575-3 3s1.3431458 3 3 3h8v2.142c-1.7606851.45459333-2.9931852 2.0395884-3 3.858v2.466c-4.2929837 2.247705-6.9879283 6.6882038-7 11.534v10h-12c-1.65685425 0-3 1.3431458-3 3v3.631l-.36.422c-1.39565364 1.5789573-2.3419088 3.503585-2.74 5.573-.37285531 2.0756527-.13918492 4.2147958.673 6.161.90039156 2.2264288 2.66575529 3.9921534 4.892 4.893.54943259.2201914 1.13715541.328966 1.729.32h41.806c1.6568542 0 3-1.3431458 3-3v-3.952l2.8-30.777c.0754361-.8395897-.2058437-1.672178-.775-2.294zm-1.476 1.349c.190381.2065518.2838384.4843783.257.764l-.174 1.91h-15.264l-.174-1.91c-.0253441-.280432.0687143-.5585539.2590676-.7660389.1903532-.2074851.4593598-.325104.7409324-.3239611h13.616c.2815297-.001587.5503652.1170062.739.326zm-2.462 30.674h-10.174l-2.363-26h14.9zm-31.087-49c0-.55228475.4477153-1 1-1h13c.5522847 0 1 .44771525 1 1s-.4477153 1-1 1h-13c-.5522847 0-1-.44771525-1-1zm13 3v2h-2v-2zm-3 4h4c1.1045695 0 2 .8954305 2 2v1.631c-2.6023118-.8285238-5.3976882-.8285238-8 0v-1.631c0-1.1045695.8954305-2 2-2zm-9 16c.0087082-4.3002862 2.5107878-8.2051532 6.414-10.01 2.9156586-1.3130341 6.2543414-1.3130341 9.17 0 1.1913493.5452772 2.2751901 1.2999014 3.2 2.228.244.244.464.514.686.783h-1.28c-.842979-.0006111-1.6473189.3534704-2.2161649.9755862-.568846.6221159-.8497035 1.4548556-.7738351 2.2944138l2.8 30.777v3.952c.0033144.3414397.0655622.679743.184 1h-11.006c.972285-.8956942 1.7382956-1.9919936 2.245-3.213.8121021-1.9458744 1.045773-4.0846742.673-6.16-.3967225-2.0693743-1.3415925-3.9943398-2.736-5.574l-.36-.422v-3.631c0-1.6568542-1.3431458-3-3-3h-4zm-1 32h-11.806c-.32809216.0078471-.65455221-.0485445-.961-.166-1.74330824-.6977397-3.12265234-2.082147-3.814-3.828-.6625115-1.5923072-.85140286-3.3419828-.544-5.039.33496916-1.7152911 1.12446809-3.3091395 2.286-4.615l.3-.352h2.539c.55228475 0 1-.4477153 1-1s-.44771525-1-1-1h-2v-3c0-.5522847.44771525-1 1-1h18c.5522847 0 1 .4477153 1 1v3h-13c-.5522847 0-1 .4477153-1 1s.4477153 1 1 1h13.539l.3.352c1.1617321 1.3061132 1.9512468 2.9003388 2.286 4.616.3073778 1.6966882.1184843 3.4460369-.544 5.038-.6922367 1.7463102-2.0726891 3.1307408-3.817 3.828-.3053509.1176457-.6308688.1740506-.958.166zm31-1c0 .5522847-.4477153 1-1 1h-8c-.5522847 0-1-.4477153-1-1v-3h10z"/><path id="Shape" d="m29.072 19.63c.3245758-.149337.5448259-.4604892.5777841-.8162486.0329583-.3557594-.1263824-.7020777-.418-.9085-.2916176-.2064224-.6712083-.2415884-.9957841-.0922514-3.1895352 1.4778645-5.2321662 4.6717185-5.236 8.187 0 .5522847.4477153 1 1 1s1-.4477153 1-1c.0028763-2.7345911 1.5912638-5.2193721 4.072-6.37z"/><path id="Shape" d="m23 48h-14c-.55228475 0-1 .4477153-1 1s.44771525 1 1 1h14c.5522847 0 1-.4477153 1-1s-.4477153-1-1-1z"/><path id="Shape" d="m20 52h-8c-.5522847 0-1 .4477153-1 1s.4477153 1 1 1h8c.5522847 0 1-.4477153 1-1s-.4477153-1-1-1z"/></g></g></svg>