<?xml version="1.0" encoding="iso-8859-1"?>
<!-- Generator: Adobe Illustrator 19.0.0, SVG Export Plug-In . SVG Version: 6.00 Build 0)  -->
<svg xmlns="http://www.w3.org/2000/svg" xmlns:xlink="http://www.w3.org/1999/xlink" version="1.1" id="Layer_1" x="0px" y="0px" viewBox="0 0 512 512" style="enable-background:new 0 0 512 512;" xml:space="preserve" width="512" height="512">
<g id="XMLID_967_">
	<g id="XMLID_80_">
		<path id="XMLID_97_" d="M462,452H335.582l168.824-168.824c10.103-10.103,10.103-26.54,0-36.642L305.462,47.589    c-4.894-4.894-11.4-7.589-18.321-7.589s-13.428,2.695-18.321,7.589L7.594,308.814c-4.894,4.894-7.589,11.4-7.589,18.321    c0,6.921,2.695,13.428,7.589,18.321L114.137,452H10c-5.523,0-10,4.477-10,10s4.477,10,10,10h452c5.523,0,10-4.477,10-10    S467.523,452,462,452z M142.421,452L21.736,331.314c-1.116-1.116-1.731-2.6-1.731-4.179s0.615-3.063,1.731-4.179L282.962,61.731    c1.116-1.116,2.6-1.731,4.179-1.731s3.063,0.615,4.179,1.731l198.944,198.944c2.305,2.304,2.305,6.053,0,8.358L307.297,452    H142.421z"/>
		<path id="XMLID_98_" d="M177.364,337.302c-2.396-4.977-8.374-7.067-13.348-4.672c-4.977,2.396-7.068,8.372-4.672,13.348    l20.698,42.988l-42.987-20.698c-4.977-2.396-10.953-0.303-13.348,4.672c-2.396,4.976-0.305,10.953,4.671,13.348l68.73,33.093    c1.384,0.666,2.866,0.99,4.335,0.99c2.596,0,5.155-1.011,7.074-2.929c3.005-3.005,3.783-7.581,1.939-11.409L177.364,337.302z"/>
		<path id="XMLID_101_" d="M250.627,295.004c-13.724-13.723-36.055-13.724-49.781,0c-13.724,13.725-13.724,36.056,0,49.781    l15.273,15.273c6.862,6.862,15.876,10.293,24.891,10.293c9.014,0,18.028-3.431,24.89-10.293c13.724-13.725,13.724-36.056,0-49.781    L250.627,295.004z M251.758,345.916c-5.926,5.927-15.57,5.926-21.496,0l-15.273-15.273c-5.927-5.926-5.927-15.569,0-21.496    c2.963-2.963,6.855-4.445,10.748-4.445c3.893,0,7.785,1.482,10.748,4.445l15.273,15.273    C257.685,330.347,257.685,339.99,251.758,345.916z"/>
		<path id="XMLID_813_" d="M372.213,225.46l-16.253,16.253c-0.901,0.903-2.368,0.902-3.271,0l-9.678-9.678l10.748-10.748    c3.905-3.905,3.905-10.237,0-14.143c-3.905-3.905-10.237-3.905-14.143,0l-10.748,10.748l-9.678-9.678    c-0.902-0.902-0.902-2.369,0-3.271l16.254-16.253c3.905-3.905,3.906-10.237,0-14.142c-3.906-3.905-10.237-3.905-14.142,0    l-16.254,16.254c-8.699,8.7-8.699,22.854,0,31.555l33.499,33.499c4.215,4.214,9.818,6.535,15.778,6.535    c5.959,0,11.563-2.321,15.777-6.535l16.253-16.253c3.905-3.905,3.905-10.237,0-14.143    C382.451,221.555,376.119,221.555,372.213,225.46z"/>
		<path id="XMLID_970_" d="M278.593,245.542l9.263-9.263c3.905-3.905,3.905-10.237,0-14.142s-10.237-3.905-14.142,0l-16.332,16.332    c-0.001,0.001-0.002,0.002-0.002,0.002s-0.001,0.002-0.002,0.003l-16.332,16.332c-3.905,3.905-3.905,10.237,0,14.142    c1.953,1.953,4.512,2.929,7.071,2.929s5.119-0.977,7.071-2.929l9.262-9.263l43.841,43.841c1.953,1.953,4.512,2.929,7.071,2.929    s5.119-0.976,7.071-2.929c3.905-3.905,3.905-10.237,0-14.143L278.593,245.542z"/>
		<path id="XMLID_971_" d="M509.07,454.93c-1.86-1.86-4.44-2.93-7.07-2.93c-2.63,0-5.21,1.07-7.07,2.93    c-1.86,1.86-2.93,4.44-2.93,7.07c0,2.63,1.07,5.21,2.93,7.07c1.86,1.86,4.44,2.93,7.07,2.93c2.63,0,5.21-1.07,7.07-2.93    S512,464.63,512,462C512,459.37,510.93,456.79,509.07,454.93z"/>
	</g>
</g>















</svg>
