<svg height="512" viewBox="0 0 64 64" width="512" xmlns="http://www.w3.org/2000/svg" xmlns:xlink="http://www.w3.org/1999/xlink"><linearGradient id="linear-gradient" gradientUnits="userSpaceOnUse" x1="3.25" x2="60.75" y1="32" y2="32"><stop offset="0" stop-color="#5bb4f6"/><stop offset=".61" stop-color="#2191e5"/><stop offset="1" stop-color="#007edb"/></linearGradient><g id="Layer_4" data-name="Layer 4"><rect fill="url(#linear-gradient)" height="57.5" rx="12.75" width="57.5" x="3.25" y="3.25"/><g fill="#fff"><path d="m48.67 44.3a20.75 20.75 0 1 0 -33.34 0 .79.79 0 0 0 .23.32 20.67 20.67 0 0 0 32.86 0 .79.79 0 0 0 .25-.32zm-16.67-31.55a19.24 19.24 0 0 1 16 30 20.73 20.73 0 0 0 -31.9 0 19.24 19.24 0 0 1 16-30zm0 38.5a19.21 19.21 0 0 1 -15-7.25 19.22 19.22 0 0 1 30 0 19.21 19.21 0 0 1 -15 7.25z"/><path d="m32 31.75a6.28 6.28 0 1 0 -6.27-6.27 6.27 6.27 0 0 0 6.27 6.27zm0-11a4.78 4.78 0 1 1 -4.77 4.78 4.78 4.78 0 0 1 4.77-4.83z"/></g></g></svg>