<svg height="512" viewBox="0 0 64 64" width="512" xmlns="http://www.w3.org/2000/svg" xmlns:xlink="http://www.w3.org/1999/xlink"><linearGradient id="linear-gradient" gradientUnits="userSpaceOnUse" x1="3.25" x2="60.75" y1="32" y2="32"><stop offset="0" stop-color="#5bb4f6"/><stop offset=".61" stop-color="#2191e5"/><stop offset="1" stop-color="#007edb"/></linearGradient><g id="Layer_71" data-name="Layer 71"><rect fill="url(#linear-gradient)" height="57.5" rx="12.75" width="57.5" x="3.25" y="3.25"/><g fill="#fff"><path d="m52.75 19.66a8.4 8.4 0 0 0 -16.49-2.26 18.28 18.28 0 0 0 -21.42 27.88.7.7 0 0 0 .23.31 18.24 18.24 0 0 0 29 0 .7.7 0 0 0 .23-.31 18.12 18.12 0 0 0 2.3-17.54 8.41 8.41 0 0 0 6.15-8.08zm-23.18 31.59a16.79 16.79 0 0 1 -13.08-6.25 16.8 16.8 0 0 1 26.16 0 16.78 16.78 0 0 1 -13.08 6.25zm16.82-16.82a16.69 16.69 0 0 1 -2.82 9.3 18.31 18.31 0 0 0 -28 0 16.79 16.79 0 0 1 20.43-24.83v.76a8.41 8.41 0 0 0 8.4 8.4h.76a16.75 16.75 0 0 1 1.23 6.37zm-2-7.87a6.91 6.91 0 1 1 6.91-6.9 6.91 6.91 0 0 1 -6.96 6.9z"/><path d="m29.57 23.1a5.6 5.6 0 1 0 5.6 5.6 5.6 5.6 0 0 0 -5.6-5.6zm0 9.7a4.1 4.1 0 1 1 4.1-4.1 4.11 4.11 0 0 1 -4.1 4.1z"/><path d="m47.25 16.73a.75.75 0 0 0 -1.06 0l-1.84 1.84-1.85-1.84a.75.75 0 1 0 -1.06 1.06l1.84 1.84-1.84 1.85a.75.75 0 0 0 0 1.06.79.79 0 0 0 .53.22.77.77 0 0 0 .53-.22l1.85-1.85 1.84 1.85a.77.77 0 0 0 .53.22.79.79 0 0 0 .53-.22.75.75 0 0 0 0-1.06l-1.84-1.85 1.84-1.84a.75.75 0 0 0 0-1.06z"/></g></g></svg>