<svg height="512" viewBox="0 0 64 64" width="512" xmlns="http://www.w3.org/2000/svg" xmlns:xlink="http://www.w3.org/1999/xlink"><linearGradient id="linear-gradient" gradientUnits="userSpaceOnUse" x1="3.25" x2="60.75" y1="32" y2="32"><stop offset="0" stop-color="#5bb4f6"/><stop offset=".61" stop-color="#2191e5"/><stop offset="1" stop-color="#007edb"/></linearGradient><g id="Layer_5" data-name="Layer 5"><rect fill="url(#linear-gradient)" height="57.5" rx="12.75" width="57.5" x="3.25" y="3.25"/><path d="m52 36.33a.76.76 0 0 0 -.75.75c0 7.63-8.23 13.85-18.5 14.14v-25.64h3a.75.75 0 0 0 0-1.5h-3v-3.8a4.55 4.55 0 1 0 -1.5 0v3.8h-3.05a.75.75 0 0 0 0 1.5h3.05v25.64c-10.27-.29-18.5-6.51-18.5-14.14a.75.75 0 0 0 -1.5 0c0 8.64 9.31 15.67 20.75 15.67s20.75-7 20.75-15.67a.76.76 0 0 0 -.75-.75zm-23-20.53a3.05 3.05 0 1 1 3 3.06 3.06 3.06 0 0 1 -3-3.06z" fill="#fff"/></g></svg>