<svg height="512" viewBox="0 0 64 64" width="512" xmlns="http://www.w3.org/2000/svg" xmlns:xlink="http://www.w3.org/1999/xlink"><linearGradient id="linear-gradient" gradientUnits="userSpaceOnUse" x1="3.25" x2="60.75" y1="32" y2="32"><stop offset="0" stop-color="#5bb4f6"/><stop offset=".61" stop-color="#2191e5"/><stop offset="1" stop-color="#007edb"/></linearGradient><g id="Layer_48" data-name="Layer 48"><rect fill="url(#linear-gradient)" height="57.5" rx="12.75" width="57.5" x="3.25" y="3.25"/><path d="m36.06 52.75h-8.12a.76.76 0 0 1 -.75-.75v-8.39l-5.93 5.93a.75.75 0 0 1 -1.06 0l-5.74-5.74a.75.75 0 0 1 0-1.06l5.93-5.93h-8.39a.76.76 0 0 1 -.75-.75v-8.12a.76.76 0 0 1 .75-.75h8.39l-5.93-5.93a.75.75 0 0 1 0-1.06l5.74-5.74a.75.75 0 0 1 1.06 0l5.93 5.93v-8.39a.76.76 0 0 1 .75-.75h8.12a.76.76 0 0 1 .75.75v8.39l5.93-5.93a.75.75 0 0 1 1.06 0l5.74 5.74a.75.75 0 0 1 0 1.06l-5.93 5.93h8.39a.76.76 0 0 1 .75.75v8.12a.76.76 0 0 1 -.75.75h-8.39l5.93 5.93a.75.75 0 0 1 0 1.06l-5.74 5.74a.75.75 0 0 1 -1.06 0l-5.93-5.93v8.39a.76.76 0 0 1 -.75.75zm-7.37-1.5h6.62v-9.45a.75.75 0 0 1 1.28-.53l6.68 6.73 4.73-4.73-6.68-6.68a.75.75 0 0 1 -.16-.82.74.74 0 0 1 .69-.46h9.45v-6.62h-9.5a.74.74 0 0 1 -.69-.46.75.75 0 0 1 .16-.82l6.73-6.68-4.68-4.68-6.68 6.68a.75.75 0 0 1 -.82.16.74.74 0 0 1 -.46-.69v-9.45h-6.67v9.45a.75.75 0 0 1 -1.28.53l-6.68-6.68-4.68 4.68 6.68 6.68a.75.75 0 0 1 .16.82.74.74 0 0 1 -.69.46h-9.45v6.62h9.45a.74.74 0 0 1 .69.46.75.75 0 0 1 -.16.82l-6.68 6.68 4.68 4.73 6.68-6.68a.75.75 0 0 1 1.28.53z" fill="#fff"/></g></svg>