<svg id="Layer_2" height="512" viewBox="0 0 64 64" width="512" xmlns="http://www.w3.org/2000/svg" xmlns:xlink="http://www.w3.org/1999/xlink" data-name="Layer 2"><linearGradient id="linear-gradient" gradientUnits="userSpaceOnUse" x1="3.25" x2="60.75" y1="32" y2="32"><stop offset="0" stop-color="#5bb4f6"/><stop offset=".61" stop-color="#2191e5"/><stop offset="1" stop-color="#007edb"/></linearGradient><rect fill="url(#linear-gradient)" height="57.5" rx="12.75" width="57.5" x="3.25" y="3.25"/><g fill="#fff"><path d="m12 25.25h6.25v7.06a.75.75 0 0 0 .75.75h5.83a.74.74 0 0 0 .75-.75v-7.06h12.84v7.06a.74.74 0 0 0 .75.75h5.83a.75.75 0 0 0 .75-.75v-7.06h6.25a.75.75 0 0 0 .72-.55.75.75 0 0 0 -.32-.84l-20-12.5a.77.77 0 0 0 -.8 0l-20 12.5a.75.75 0 0 0 -.32.84.75.75 0 0 0 .72.55zm12.08 6.31h-4.33v-6.31h4.33zm20.17 0h-4.33v-6.31h4.33zm-12.25-18.68 17.38 10.87h-34.76z"/><path d="m52 51.25h-2.93v-3.6a.74.74 0 0 0 -.75-.75h-2.57v-7.11a.75.75 0 0 0 -.75-.79h-5.83a.74.74 0 0 0 -.75.75v7.15h-12.84v-7.11a.74.74 0 0 0 -.75-.75h-5.83a.75.75 0 0 0 -.75.75v7.11h-2.57a.74.74 0 0 0 -.75.75v3.6h-2.93a.75.75 0 0 0 0 1.5h40a.75.75 0 0 0 0-1.5zm-12.08-10.71h4.33v6.36h-4.33zm-20.17 0h4.33v6.36h-4.33zm-3.32 10.71v-2.85h31.14v2.85z"/></g></svg>