<svg height="512" viewBox="0 0 64 64" width="512" xmlns="http://www.w3.org/2000/svg" xmlns:xlink="http://www.w3.org/1999/xlink"><linearGradient id="linear-gradient" gradientUnits="userSpaceOnUse" x1="3.25" x2="60.75" y1="32" y2="32"><stop offset="0" stop-color="#5bb4f6"/><stop offset=".61" stop-color="#2191e5"/><stop offset="1" stop-color="#007edb"/></linearGradient><g id="Layer_35" data-name="Layer 35"><rect fill="url(#linear-gradient)" height="57.5" rx="12.75" width="57.5" x="3.25" y="3.25"/><g fill="#fff"><path d="m52 47.54h-39.25v-31.83a.75.75 0 0 0 -1.5 0v32.58a.76.76 0 0 0 .75.71h40a.75.75 0 0 0 0-1.5z"/><path d="m18.62 43.54h4.06a.75.75 0 0 0 .75-.75v-9.12a.75.75 0 0 0 -.75-.75h-4.06a.75.75 0 0 0 -.75.75v9.12a.75.75 0 0 0 .75.75zm.75-9.12h2.56v7.58h-2.56z"/><path d="m27.94 43.54h4.06a.75.75 0 0 0 .75-.75v-20a.75.75 0 0 0 -.75-.79h-4.06a.75.75 0 0 0 -.75.75v20a.75.75 0 0 0 .75.79zm.75-20h2.56v18.46h-2.56z"/><path d="m37.27 43.54h4a.74.74 0 0 0 .75-.75v-14.5a.74.74 0 0 0 -.75-.75h-4a.74.74 0 0 0 -.75.75v14.5a.74.74 0 0 0 .75.75zm.73-14.54h2.55v13h-2.55z"/><path d="m46.59 43.54h4.06a.75.75 0 0 0 .75-.75v-26.11a.76.76 0 0 0 -.75-.75h-4.06a.76.76 0 0 0 -.75.75v26.11a.75.75 0 0 0 .75.75zm.75-26.11h2.56v24.57h-2.56z"/></g></g></svg>