<svg height="512" viewBox="0 0 64 64" width="512" xmlns="http://www.w3.org/2000/svg" xmlns:xlink="http://www.w3.org/1999/xlink"><linearGradient id="linear-gradient" gradientUnits="userSpaceOnUse" x1="3.25" x2="60.75" y1="32" y2="32"><stop offset="0" stop-color="#5bb4f6"/><stop offset=".61" stop-color="#2191e5"/><stop offset="1" stop-color="#007edb"/></linearGradient><g id="Layer_89" data-name="Layer 89"><rect fill="url(#linear-gradient)" height="57.5" rx="12.75" width="57.5" x="3.25" y="3.25"/><g fill="#fff"><path d="m41 34a.75.75 0 0 0 -.75.75v9.1a.75.75 0 0 0 1.5 0v-9.1a.76.76 0 0 0 -.75-.75z"/><path d="m32 34a.76.76 0 0 0 -.75.75v9.1a.75.75 0 0 0 1.5 0v-9.1a.76.76 0 0 0 -.75-.75z"/><path d="m23 34a.76.76 0 0 0 -.75.75v9.1a.75.75 0 0 0 1.5 0v-9.1a.75.75 0 0 0 -.75-.75z"/><path d="m52 28.09h-4.68l-1.32-10.68a4.1 4.1 0 0 0 -3.82-4.05h-20.31a4.1 4.1 0 0 0 -3.82 4l-1.37 10.73h-4.68a.75.75 0 0 0 0 1.5h1.56l1.7 17a4.47 4.47 0 0 0 4.47 4h24.54a4.47 4.47 0 0 0 4.47-4l1.7-17h1.56a.75.75 0 0 0 0-1.5zm-32.46-10.56a2.67 2.67 0 0 1 2.33-2.67h20.26a2.68 2.68 0 0 1 2.33 2.71l1.35 10.52h-27.62zm27.71 28.92a3 3 0 0 1 -3 2.69h-24.52a3 3 0 0 1 -3-2.69l-1.66-16.86h33.86z"/></g></g></svg>