<svg height="512" viewBox="0 0 64 64" width="512" xmlns="http://www.w3.org/2000/svg" xmlns:xlink="http://www.w3.org/1999/xlink"><linearGradient id="linear-gradient" gradientUnits="userSpaceOnUse" x1="3.25" x2="60.75" y1="32" y2="32"><stop offset="0" stop-color="#5bb4f6"/><stop offset=".61" stop-color="#2191e5"/><stop offset="1" stop-color="#007edb"/></linearGradient><g id="Layer_39" data-name="Layer 39"><rect fill="url(#linear-gradient)" height="57.5" rx="12.75" width="57.5" x="3.25" y="3.25"/><path d="m52 26.6h-3.94v-6a.76.76 0 0 0 -.75-.75h-35.31a.76.76 0 0 0 -.75.75v22.81a.76.76 0 0 0 .75.75h35.31a.76.76 0 0 0 .75-.75v-6h3.94a.76.76 0 0 0 .75-.75v-9.3a.76.76 0 0 0 -.75-.76zm-.75 9.3h-3.94a.76.76 0 0 0 -.75.75v6h-33.81v-21.31h33.81v6a.76.76 0 0 0 .75.75h3.94z" fill="#fff"/></g></svg>