<svg height="512" viewBox="0 0 64 64" width="512" xmlns="http://www.w3.org/2000/svg" xmlns:xlink="http://www.w3.org/1999/xlink"><linearGradient id="linear-gradient" gradientUnits="userSpaceOnUse" x1="3.25" x2="60.75" y1="32" y2="32"><stop offset="0" stop-color="#5bb4f6"/><stop offset=".61" stop-color="#2191e5"/><stop offset="1" stop-color="#007edb"/></linearGradient><g id="Layer_82" data-name="Layer 82"><rect fill="url(#linear-gradient)" height="57.5" rx="12.75" width="57.5" x="3.25" y="3.25"/><g fill="#fff"><path d="m18.11 43.58a6.87 6.87 0 0 0 6.68-5.33l7.21-.25a.75.75 0 0 0 .56-.28l7.66-9.6 1.72 3.07a6.67 6.67 0 1 0 1.3-.74l-7-12.55a.86.86 0 0 0 -.66-.39h-3.8a.75.75 0 0 0 0 1.5h3.33l4 7.11-11.39.46-1.84-3.11a.86.86 0 0 0 -.65-.37h-3.38a.75.75 0 0 0 0 1.5h2.92l1.46 2.4-3.63 4.56a6.8 6.8 0 0 0 -4.49-1.69 6.86 6.86 0 1 0 0 13.71zm27.78-12.21a5.4 5.4 0 1 1 -3.23 1.11l2.58 4.61a.75.75 0 0 0 .65.39.71.71 0 0 0 .37-.1.75.75 0 0 0 .29-1l-2.55-4.64a5.33 5.33 0 0 1 1.89-.37zm-14.31 5.1-6.58.27a6.82 6.82 0 0 0 -1.33-4l3.69-4.63 11.35-.45zm-8.94-2.56a5.23 5.23 0 0 1 .82 2.82v.07l-3.23.13zm-4.53-2.54a5.36 5.36 0 0 1 3.55 1.37l-3.66 4.54a.73.73 0 0 0 -.09.8.75.75 0 0 0 .67.42l4.55-.19a5.35 5.35 0 1 1 -5.09-6.94z"/><path d="m52 45h-40a.75.75 0 0 0 0 1.5h40a.75.75 0 0 0 0-1.5z"/></g></g></svg>