<svg height="512" viewBox="0 0 64 64" width="512" xmlns="http://www.w3.org/2000/svg" xmlns:xlink="http://www.w3.org/1999/xlink"><linearGradient id="linear-gradient" gradientUnits="userSpaceOnUse" x1="3.25" x2="60.75" y1="32" y2="32"><stop offset="0" stop-color="#5bb4f6"/><stop offset=".61" stop-color="#2191e5"/><stop offset="1" stop-color="#007edb"/></linearGradient><g id="Layer_54" data-name="Layer 54"><rect fill="url(#linear-gradient)" height="57.5" rx="12.75" width="57.5" x="3.25" y="3.25"/><g fill="#fff"><path d="m48.05 25.34a16.08 16.08 0 0 0 -19.51-2.46l-3.37-3.36a.74.74 0 0 0 -1.06 0l-1.77 1.76-3.71-3.71a.75.75 0 0 0 -1.06 1.06l3.71 3.71-1.76 1.77a.75.75 0 0 0 0 1.06l3.36 3.37a16 16 0 0 0 7.12 22.71h-11.9a.75.75 0 1 0 0 1.5h18.64a16 16 0 0 0 11.31-27.4zm-26.94-.7 3.53-3.53 2.62 2.61a14.87 14.87 0 0 0 -3.54 3.54zm5.29 22.36a14.56 14.56 0 1 1 20.6 0 14.57 14.57 0 0 1 -20.6 0z"/><path d="m29.41 29.41a.75.75 0 0 0 0 1.06.74.74 0 0 0 1.06 0 8.81 8.81 0 0 1 12.44 0 .74.74 0 0 0 .53.22.71.71 0 0 0 .53-.22.74.74 0 0 0 0-1.06 10.31 10.31 0 0 0 -14.56 0z"/><path d="m14.32 13.25a.75.75 0 1 0 -1.06 1.07l1 1a.74.74 0 0 0 .53.22.73.73 0 0 0 .53-.22.74.74 0 0 0 0-1.06z"/><path d="m18.1 14.17a.75.75 0 0 0 .75-.75v-1.42a.75.75 0 0 0 -1.5 0v1.42a.74.74 0 0 0 .75.75z"/><path d="m21.4 15.54a.74.74 0 0 0 .53-.22l1-1a.77.77 0 0 0 0-1.07.75.75 0 0 0 -1.06 0l-1 1a.75.75 0 0 0 0 1.06.74.74 0 0 0 .53.23z"/><path d="m14.26 20.87-1 1a.74.74 0 0 0 0 1.06.75.75 0 0 0 .53.22.79.79 0 0 0 .53-.22l1-1a.74.74 0 0 0 0-1.06.75.75 0 0 0 -1.06 0z"/><path d="m14.17 18.1a.74.74 0 0 0 -.75-.75h-1.42a.75.75 0 0 0 0 1.5h1.42a.75.75 0 0 0 .75-.75z"/></g></g></svg>