<svg height="512" viewBox="0 0 64 64" width="512" xmlns="http://www.w3.org/2000/svg" xmlns:xlink="http://www.w3.org/1999/xlink"><linearGradient id="linear-gradient" gradientUnits="userSpaceOnUse" x1="3.25" x2="60.75" y1="32" y2="32"><stop offset="0" stop-color="#5bb4f6"/><stop offset=".61" stop-color="#2191e5"/><stop offset="1" stop-color="#007edb"/></linearGradient><g id="Layer_8" data-name="Layer 8"><rect fill="url(#linear-gradient)" height="57.5" rx="12.75" width="57.5" x="3.25" y="3.25"/><path d="m47.58 11.25h-31.16a2.75 2.75 0 0 0 -2.75 2.75v36a2.75 2.75 0 0 0 2.75 2.75h31.16a2.75 2.75 0 0 0 2.75-2.75v-36a2.75 2.75 0 0 0 -2.75-2.75zm-5.84 1.5v10.47l-2.83-3.43a.76.76 0 0 0 -.58-.27.78.78 0 0 0 -.58.27l-2.83 3.43v-10.47zm7.09 37.25a1.25 1.25 0 0 1 -1.25 1.25h-31.16a1.25 1.25 0 0 1 -1.25-1.25v-36a1.25 1.25 0 0 1 1.25-1.25h17v12.56a.76.76 0 0 0 1.33.48l3.58-4.35 3.59 4.35a.74.74 0 0 0 .57.27.8.8 0 0 0 .26 0 .75.75 0 0 0 .49-.7v-12.61h4.34a1.25 1.25 0 0 1 1.25 1.25z" fill="#fff"/></g></svg>