<svg height="512" viewBox="0 0 64 64" width="512" xmlns="http://www.w3.org/2000/svg" xmlns:xlink="http://www.w3.org/1999/xlink"><linearGradient id="linear-gradient" gradientUnits="userSpaceOnUse" x1="3.25" x2="60.75" y1="32" y2="32"><stop offset="0" stop-color="#5bb4f6"/><stop offset=".61" stop-color="#2191e5"/><stop offset="1" stop-color="#007edb"/></linearGradient><g id="Layer_7" data-name="Layer 7"><rect fill="url(#linear-gradient)" height="57.5" rx="12.75" width="57.5" x="3.25" y="3.25"/><path d="m52.26 45.64-7.52-2.76a13.33 13.33 0 0 0 .43-3.3v-3.75h6.83a.75.75 0 0 0 0-1.5h-6.83v-3.75a13.34 13.34 0 0 0 -.43-3.31l7.52-2.76a.74.74 0 0 0 .44-1 .75.75 0 0 0 -1-.45l-7.46 2.74a13.25 13.25 0 0 0 -6.39-7l3.6-6.44a.75.75 0 1 0 -1.3-.74l-3.65 6.59a12.9 12.9 0 0 0 -9 0l-3.69-6.58a.75.75 0 0 0 -1.3.74l3.6 6.44a13.25 13.25 0 0 0 -6.39 7l-7.46-2.71a.75.75 0 0 0 -1 .45.74.74 0 0 0 .44 1l7.52 2.76a13.34 13.34 0 0 0 -.43 3.31v3.75h-6.79a.75.75 0 0 0 0 1.5h6.83v3.75a13.33 13.33 0 0 0 .43 3.3l-7.52 2.76a.75.75 0 0 0 -.44 1 .74.74 0 0 0 .7.49.8.8 0 0 0 .26-.05l7.46-2.74a13.15 13.15 0 0 0 24.56 0l7.46 2.74a.8.8 0 0 0 .26.05.74.74 0 0 0 .7-.49.75.75 0 0 0 -.44-1.04zm-20.26 5.61a11.7 11.7 0 0 1 -11.12-8.14s0 0 0 0a11.84 11.84 0 0 1 -.53-3.49v-4.53-4.51a11.79 11.79 0 0 1 .53-3.49 0 0 0 0 1 0 0s0 0 0 0a11.67 11.67 0 0 1 22.24 0s0 0 0 0a0 0 0 0 1 0 0 11.79 11.79 0 0 1 .53 3.49v4.49 4.49a11.84 11.84 0 0 1 -.53 3.49s0 0 0 0a11.7 11.7 0 0 1 -11.12 8.2z" fill="#fff"/></g></svg>