<svg height="512" viewBox="0 0 64 64" width="512" xmlns="http://www.w3.org/2000/svg" xmlns:xlink="http://www.w3.org/1999/xlink"><linearGradient id="linear-gradient" gradientUnits="userSpaceOnUse" x1="3.25" x2="60.75" y1="32" y2="32"><stop offset="0" stop-color="#5bb4f6"/><stop offset=".61" stop-color="#2191e5"/><stop offset="1" stop-color="#007edb"/></linearGradient><g id="Layer_68" data-name="Layer 68"><rect fill="url(#linear-gradient)" height="57.5" rx="12.75" width="57.5" x="3.25" y="3.25"/><g fill="#fff"><path d="m52.61 42.39a.75.75 0 0 0 -.61-.32h-2.48v-13.29a.75.75 0 0 0 -.75-.75h-33.54a.75.75 0 0 0 -.75.75v13.29h-2.48a.75.75 0 0 0 -.61.32.73.73 0 0 0 -.1.67 9.48 9.48 0 0 0 9 6.47h23.43a9.48 9.48 0 0 0 9-6.47.73.73 0 0 0 -.11-.67zm-4.61-12.86v4.29a8.81 8.81 0 0 0 -3.76 1 8.62 8.62 0 0 1 -7.75 0 9 9 0 0 0 -4.49-1.03 9.08 9.08 0 0 0 -4.52 1.08 7.8 7.8 0 0 1 -3.87.92 7.8 7.8 0 0 1 -3.87-.92 8.85 8.85 0 0 0 -3.76-1v-4.34zm-32 5.79a7.71 7.71 0 0 1 3.12.9 9.05 9.05 0 0 0 4.51 1.07 9.1 9.1 0 0 0 4.52-1.07 7.79 7.79 0 0 1 3.85-.93 7.82 7.82 0 0 1 3.87.93 9.07 9.07 0 0 0 4.52 1.07 9.05 9.05 0 0 0 4.51-1.07 7.71 7.71 0 0 1 3.12-.9v6.75h-32.02zm27.72 12.68h-23.44a8 8 0 0 1 -7.16-4.46h37.76a8 8 0 0 1 -7.16 4.46z"/><path d="m32 26.89a3.49 3.49 0 0 0 .82-6.89 4.66 4.66 0 0 1 4.6-4 .75.75 0 0 0 0-1.5 6.18 6.18 0 0 0 -6.13 5.5 3.5 3.5 0 0 0 .71 6.89zm0-5.5a2 2 0 1 1 -2 2 2 2 0 0 1 2-2z"/></g></g></svg>