<svg height="512" viewBox="0 0 64 64" width="512" xmlns="http://www.w3.org/2000/svg" xmlns:xlink="http://www.w3.org/1999/xlink"><linearGradient id="linear-gradient" gradientUnits="userSpaceOnUse" x1="3.25" x2="60.75" y1="32" y2="32"><stop offset="0" stop-color="#5bb4f6"/><stop offset=".61" stop-color="#2191e5"/><stop offset="1" stop-color="#007edb"/></linearGradient><g id="Layer_9" data-name="Layer 9"><rect fill="url(#linear-gradient)" height="57.5" rx="12.75" width="57.5" x="3.25" y="3.25"/><path d="m50 14.41h-6.59v-2.41a.75.75 0 0 0 -1.5 0v2.41h-19.91v-2.41a.75.75 0 1 0 -1.5 0v2.41h-6.5a2.75 2.75 0 0 0 -2.75 2.75v32.84a2.75 2.75 0 0 0 2.75 2.75h36a2.75 2.75 0 0 0 2.75-2.75v-32.84a2.75 2.75 0 0 0 -2.75-2.75zm-36 1.5h6.49v2.09a.75.75 0 0 0 1.51 0v-2.09h19.91v2.09a.75.75 0 1 0 1.5 0v-2.09h6.59a1.25 1.25 0 0 1 1.25 1.25v6.84h-38.5v-6.84a1.25 1.25 0 0 1 1.25-1.25zm36 35.34h-36a1.25 1.25 0 0 1 -1.25-1.25v-24.48h38.5v24.48a1.25 1.25 0 0 1 -1.25 1.25z" fill="#fff"/></g></svg>