<svg height="512" viewBox="0 0 64 64" width="512" xmlns="http://www.w3.org/2000/svg" xmlns:xlink="http://www.w3.org/1999/xlink"><linearGradient id="linear-gradient" gradientUnits="userSpaceOnUse" x1="3.25" x2="60.75" y1="32" y2="32"><stop offset="0" stop-color="#5bb4f6"/><stop offset=".61" stop-color="#2191e5"/><stop offset="1" stop-color="#007edb"/></linearGradient><g id="Layer_49" data-name="Layer 49"><rect fill="url(#linear-gradient)" height="57.5" rx="12.75" width="57.5" x="3.25" y="3.25"/><g fill="#fff"><path d="m52 40h-29l-.77-4.82 26.7-1.62a.74.74 0 0 0 .68-.59l3-13.79a.72.72 0 0 0 -.15-.63.76.76 0 0 0 -.58-.28h-32.35l-.89-5.57a.74.74 0 0 0 -.74-.63h-5.9a.75.75 0 0 0 0 1.5h5.26l4.37 27.3a.74.74 0 0 0 .74.63h29.63a.75.75 0 0 0 0-1.5zm-1-20.22-2.72 12.33-26.28 1.59-2.23-13.92z"/><path d="m28.35 44.74a3.59 3.59 0 1 0 3.59 3.59 3.59 3.59 0 0 0 -3.59-3.59zm0 5.68a2.09 2.09 0 1 1 2.09-2.09 2.09 2.09 0 0 1 -2.09 2.09z"/><path d="m44.85 44.74a3.59 3.59 0 1 0 3.59 3.59 3.59 3.59 0 0 0 -3.59-3.59zm0 5.68a2.09 2.09 0 1 1 2.09-2.09 2.09 2.09 0 0 1 -2.09 2.09z"/></g></g></svg>