<svg height="512" viewBox="0 0 64 64" width="512" xmlns="http://www.w3.org/2000/svg" xmlns:xlink="http://www.w3.org/1999/xlink"><linearGradient id="linear-gradient" gradientUnits="userSpaceOnUse" x1="3.25" x2="60.75" y1="32" y2="32"><stop offset="0" stop-color="#5bb4f6"/><stop offset=".61" stop-color="#2191e5"/><stop offset="1" stop-color="#007edb"/></linearGradient><g id="Layer_69" data-name="Layer 69"><rect fill="url(#linear-gradient)" height="57.5" rx="12.75" width="57.5" x="3.25" y="3.25"/><path d="m49.75 22.35c-.38-6.18-5.86-11.1-12.56-11.1h-10.38c-6.7 0-12.18 4.92-12.56 11.1a3.6 3.6 0 0 0 -3 3.5l1.48 19.31a.75.75 0 0 0 .75.69h5.18v6.15a.75.75 0 0 0 .75.75h3a.75.75 0 0 0 .73-.59l1.36-6.31h15.04l1.36 6.31a.75.75 0 0 0 .73.59h3a.75.75 0 0 0 .75-.75v-6.15h5.18a.75.75 0 0 0 .75-.69l1.48-19.37a3.57 3.57 0 0 0 -3.04-3.44zm-22.94-9.6h10.38c5.87 0 10.69 4.26 11.06 9.62a3.61 3.61 0 0 0 -1.8.92 3.29 3.29 0 0 0 -1.12 2.43l-1.33 7.6h-24l-1.35-7.6a3.32 3.32 0 0 0 -1.11-2.41 3.67 3.67 0 0 0 -1.82-.94c.4-5.37 5.22-9.62 11.09-9.62zm18.75 22.07a1.25 1.25 0 0 1 1.25 1.25v1.52a1.25 1.25 0 0 1 -1.25 1.25h-27.12a1.25 1.25 0 0 1 -1.25-1.25v-1.52a1.25 1.25 0 0 1 1.25-1.25zm-23.8 16.43h-1.6v-5.4h2.76zm22.08 0h-1.6l-1.16-5.4h2.76zm6-6.9h-35.66l-1.43-18.56a2.12 2.12 0 0 1 2.21-2 2.25 2.25 0 0 1 1.59.63 1.85 1.85 0 0 1 .63 1.38c0 .05 1.33 7.53 1.33 7.53h-.07a2.75 2.75 0 0 0 -2.75 2.75v1.52a2.76 2.76 0 0 0 2.75 2.75h27.12a2.76 2.76 0 0 0 2.75-2.75v-1.53a2.75 2.75 0 0 0 -2.75-2.75h-.07s1.33-7.48 1.33-7.53a1.87 1.87 0 0 1 .65-1.4 2.25 2.25 0 0 1 1.53-.61 2.12 2.12 0 0 1 2.21 2z" fill="#fff"/></g></svg>