<svg height="512" viewBox="0 0 64 64" width="512" xmlns="http://www.w3.org/2000/svg" xmlns:xlink="http://www.w3.org/1999/xlink"><linearGradient id="linear-gradient" gradientUnits="userSpaceOnUse" x1="3.25" x2="60.75" y1="32" y2="32"><stop offset="0" stop-color="#5bb4f6"/><stop offset=".61" stop-color="#2191e5"/><stop offset="1" stop-color="#007edb"/></linearGradient><g id="Layer_40" data-name="Layer 40"><rect fill="url(#linear-gradient)" height="57.5" rx="12.75" width="57.5" x="3.25" y="3.25"/><path d="m52 18.71h-6.72v-6.71a.76.76 0 0 0 -.75-.75h-32.53a.76.76 0 0 0 -.75.75v32.54a.76.76 0 0 0 .75.75h6.71v6.71a.76.76 0 0 0 .75.75h32.54a.76.76 0 0 0 .75-.75v-32.54a.76.76 0 0 0 -.75-.75zm-39.25 25.08v-31h31v6h-24.29a.76.76 0 0 0 -.75.75v24.25zm38.5 7.46h-31v-31h31z" fill="#fff"/></g></svg>