<?xml version="1.0" encoding="UTF-8"?>
<svg xmlns="http://www.w3.org/2000/svg" xmlns:xlink="http://www.w3.org/1999/xlink" viewBox="0 0 64 64" width="512" height="512"><defs><style>.cls-1{fill:url(#linear-gradient);}.cls-2{fill:#fff;}</style><linearGradient id="linear-gradient" x1="3.25" y1="32" x2="60.75" y2="32" gradientUnits="userSpaceOnUse"><stop offset="0" stop-color="#5bb4f6"/><stop offset="0.61" stop-color="#2191e5"/><stop offset="1" stop-color="#007edb"/></linearGradient></defs><g id="Layer_83" data-name="Layer 83"><rect class="cls-1" x="3.25" y="3.25" width="57.5" height="57.5" rx="12.75"/><path class="cls-2" d="M49.71,44.81a8,8,0,0,0,3-6.07,8,8,0,0,0-3.48-6.38A13,13,0,0,0,50.47,27c0-8.68-8.8-15.74-19.61-15.74S11.25,18.31,11.25,27a14.46,14.46,0,0,0,5.88,11.25L11.35,51.7a.76.76,0,0,0,1.09.94l16-10a23.66,23.66,0,0,0,2.37.12c.53,0,1.06,0,1.58-.06,1.81,2.9,5.49,4.76,9.56,4.76.42,0,.81,0,1.17,0l8.41,5.25a.76.76,0,0,0,1.09-.94ZM30.86,41.24a23,23,0,0,1-2.47-.14.83.83,0,0,0-.48.11L13.67,50.1l5.07-11.8a.74.74,0,0,0-.25-.9A13.12,13.12,0,0,1,12.75,27c0-7.85,8.12-14.24,18.11-14.24S49,19.14,49,27,40.85,41.24,30.86,41.24ZM43.75,46a.74.74,0,0,0-.52-.1,11.65,11.65,0,0,1-1.23.06,10,10,0,0,1-7.88-3.44c6.41-.86,11.76-4.23,14.46-8.8a6.47,6.47,0,0,1,2.67,5A6.57,6.57,0,0,1,48.36,44a.69.69,0,0,0-.19.19.76.76,0,0,0,0,.78l2.22,5.16Z"/><circle class="cls-2" cx="21.67" cy="25.76" r="1"/><circle class="cls-2" cx="27.76" cy="25.76" r="1"/><circle class="cls-2" cx="33.84" cy="25.76" r="1"/><circle class="cls-2" cx="39.93" cy="25.76" r="1"/></g></svg>
