<svg height="512" viewBox="0 0 64 64" width="512" xmlns="http://www.w3.org/2000/svg" xmlns:xlink="http://www.w3.org/1999/xlink"><linearGradient id="linear-gradient" gradientUnits="userSpaceOnUse" x1="3.25" x2="60.75" y1="32" y2="32"><stop offset="0" stop-color="#5bb4f6"/><stop offset=".61" stop-color="#2191e5"/><stop offset="1" stop-color="#007edb"/></linearGradient><g id="Layer_50" data-name="Layer 50"><rect fill="url(#linear-gradient)" height="57.5" rx="12.75" width="57.5" x="3.25" y="3.25"/><path d="m52 38h-7.73v-17.21l8.26-8.26a.75.75 0 0 0 -1.06-1.06l-8.26 8.26h-17.21v-7.73a.76.76 0 0 0 -.75-.75h-4.77a.76.76 0 0 0 -.75.75v7.73h-7.73a.76.76 0 0 0 -.75.75v4.78a.76.76 0 0 0 .75.74h7.73v17.52a.76.76 0 0 0 .75.75h17.52v7.73a.76.76 0 0 0 .75.75h4.78a.76.76 0 0 0 .75-.75v-7.73h7.72a.76.76 0 0 0 .75-.75v-4.78a.76.76 0 0 0 -.75-.74zm-9.23 0h-3.28v-12.43l3.28-3.28zm0 1.5v3.28h-3.28v-3.29zm-16.77-13.5h10.93l-10.93 10.93zm12 1.06v10.94h-10.93zm3.72-5.84-3.28 3.28h-12.44v-3.27zm-17.2 3.28h-3.29v-3.27h3.28zm-3.29-11.75h3.28v7h-3.28zm-8.48 11.76v-3.28h7v3.28zm8.48 18.26v-16.77h3.28v12.74a.76.76 0 0 0 .75.75h12.74v3.28zm21.54 8.48h-3.28v-7h3.28zm8.48-8.48h-7v-3.28h7z" fill="#fff"/></g></svg>