<svg height="512" viewBox="0 0 64 64" width="512" xmlns="http://www.w3.org/2000/svg" xmlns:xlink="http://www.w3.org/1999/xlink"><linearGradient id="linear-gradient" gradientUnits="userSpaceOnUse" x1="3.25" x2="60.75" y1="32" y2="32"><stop offset="0" stop-color="#5bb4f6"/><stop offset=".61" stop-color="#2191e5"/><stop offset="1" stop-color="#007edb"/></linearGradient><g id="Layer_41" data-name="Layer 41"><rect fill="url(#linear-gradient)" height="57.5" rx="12.75" width="57.5" x="3.25" y="3.25"/><path d="m52.74 34.64a.74.74 0 0 0 -.36-.61l-9.63-5.56v-11.12a.82.82 0 0 0 -.37-.65l-10-5.77a.72.72 0 0 0 -.75 0l-10 5.77a.8.8 0 0 0 -.38.65v11.12l-9.62 5.53a.8.8 0 0 0 -.38.65v11.58a.76.76 0 0 0 .38.65l10 5.77a.77.77 0 0 0 .75 0l9.62-5.56 9.63 5.56a.77.77 0 0 0 .75 0l10-5.77a.77.77 0 0 0 .37-.65v-11.55s-.01-.02-.01-.04zm-10.74 4.95-8.5-4.91 8.5-4.91 8.5 4.91zm-10.75-16v9.81l-8.5-4.91v-9.84zm10 4.9-8.5 4.91v-9.84l8.5-4.91zm-19.25 1.28 8.5 4.91-8.5 4.91-8.5-4.91zm.75 11.12 8.5-4.89v9.81l-8.5 4.91zm9.25-28.45 8.5 4.91-8.5 4.91-8.5-4.91zm-19.25 23.56 8.5 4.91v9.79l-8.5-4.91zm20 0 8.5 4.91v9.79l-8.5-4.91zm10 14.72v-9.83l8.5-4.89v9.81z" fill="#fff"/></g></svg>