<svg height="512" viewBox="0 0 64 64" width="512" xmlns="http://www.w3.org/2000/svg" xmlns:xlink="http://www.w3.org/1999/xlink"><linearGradient id="linear-gradient" gradientUnits="userSpaceOnUse" x1="3.25" x2="60.75" y1="32" y2="32"><stop offset="0" stop-color="#5bb4f6"/><stop offset=".61" stop-color="#2191e5"/><stop offset="1" stop-color="#007edb"/></linearGradient><g id="Layer_93" data-name="Layer 93"><rect fill="url(#linear-gradient)" height="57.5" rx="12.75" width="57.5" x="3.25" y="3.25"/><g fill="#fff"><path d="m32 32.28a3.37 3.37 0 1 0 -3.37-3.37 3.37 3.37 0 0 0 3.37 3.37zm0-5.28a1.87 1.87 0 1 1 -1.87 1.87 1.87 1.87 0 0 1 1.87-1.87z"/><path d="m44.53 43.76-4.93-4.93c.18-.21.36-.42.53-.64a.91.91 0 0 0 .11-.16 10 10 0 0 0 1.95-5.28h2.06a3.84 3.84 0 1 0 0-1.5h-2.06a10.19 10.19 0 0 0 -2.32-5.77l5-5a5.27 5.27 0 1 0 -1.09-1l-4.95 4.92a10.2 10.2 0 0 0 -6.08-2.59v-2.06a3.84 3.84 0 1 0 -1.5 0v2.06a10.08 10.08 0 0 0 -5.92 2.46l-5-5a5 5 0 0 0 -.48-6.58 5.07 5.07 0 1 0 -.58 7.64l5 5a10.08 10.08 0 0 0 -2.46 5.92h-2.06a3.84 3.84 0 1 0 0 1.5h2.06a10 10 0 0 0 2 5.28.91.91 0 0 0 .11.16c.13.16.26.33.4.48l-5 5a5.13 5.13 0 1 0 1.06 1.06l5-5a10.08 10.08 0 0 0 5.92 2.46v2.06a3.84 3.84 0 1 0 1.5 0v-2.06a10.19 10.19 0 0 0 5.77-2.32l5 5a5 5 0 0 0 .61 6.42 5.06 5.06 0 1 0 .42-7.51zm-12.53-3.03a8.71 8.71 0 0 1 -6.6-3 8.68 8.68 0 0 1 13.2 0 8.71 8.71 0 0 1 -6.6 3zm16-11.07a2.34 2.34 0 1 1 -2.32 2.34 2.34 2.34 0 0 1 2.32-2.34zm-2.83-15.87a3.55 3.55 0 1 1 -1.05 2.52 3.55 3.55 0 0 1 1.05-2.52zm-15.51 2.21a2.34 2.34 0 1 1 2.34 2.32 2.34 2.34 0 0 1 -2.34-2.32zm-15.87 2.83a3.57 3.57 0 0 1 0-5 3.57 3.57 0 0 1 5 0 3.55 3.55 0 0 1 0 5 3.56 3.56 0 0 1 -5 0zm2.21 15.51a2.34 2.34 0 1 1 2.32-2.34 2.34 2.34 0 0 1 -2.32 2.34zm16-11.07a8.71 8.71 0 0 1 7.5 13.17 10.21 10.21 0 0 0 -15 0 8.71 8.71 0 0 1 7.5-13.17zm-13.17 26.94a3.56 3.56 0 0 1 -6.08-2.52 3.56 3.56 0 0 1 6.06-2.54 3.55 3.55 0 0 1 0 5zm15.51-2.21a2.34 2.34 0 1 1 -2.34-2.32 2.34 2.34 0 0 1 2.34 2.32zm15.87 2.2a3.59 3.59 0 0 1 -5 0 3.56 3.56 0 1 1 5 0z"/></g></g></svg>