<svg height="512" viewBox="0 0 64 64" width="512" xmlns="http://www.w3.org/2000/svg" xmlns:xlink="http://www.w3.org/1999/xlink"><linearGradient id="linear-gradient" gradientUnits="userSpaceOnUse" x1="3.25" x2="60.75" y1="32" y2="32"><stop offset="0" stop-color="#5bb4f6"/><stop offset=".61" stop-color="#2191e5"/><stop offset="1" stop-color="#007edb"/></linearGradient><g id="Layer_55" data-name="Layer 55"><rect fill="url(#linear-gradient)" height="57.5" rx="12.75" width="57.5" x="3.25" y="3.25"/><path d="m52 13.63h-40a.76.76 0 0 0 -.75.75v28.23a.76.76 0 0 0 .75.75h14.34l-1.34 6.1a.76.76 0 0 0 .15.63.72.72 0 0 0 .58.28h12.54a.72.72 0 0 0 .58-.28.76.76 0 0 0 .15-.63l-1.34-6.1h14.34a.76.76 0 0 0 .75-.75v-28.23a.76.76 0 0 0 -.75-.75zm-.75 1.5v19.87h-38.53v-19.87zm-14 33.74h-10.58l1.2-5.51h8.26zm-24.61-7v-5.34h38.64v5.33z" fill="#fff"/></g></svg>