<svg height="512" viewBox="0 0 64 64" width="512" xmlns="http://www.w3.org/2000/svg" xmlns:xlink="http://www.w3.org/1999/xlink"><linearGradient id="linear-gradient" gradientUnits="userSpaceOnUse" x1="3.25" x2="60.75" y1="32" y2="32"><stop offset="0" stop-color="#5bb4f6"/><stop offset=".61" stop-color="#2191e5"/><stop offset="1" stop-color="#007edb"/></linearGradient><g id="Layer_25" data-name="Layer 25"><rect fill="url(#linear-gradient)" height="57.5" rx="12.75" width="57.5" x="3.25" y="3.25"/><path d="m52.64 24.39a.71.71 0 0 0 -.06-.83l-9.89-12a.78.78 0 0 0 -.58-.27h-20.22a.78.78 0 0 0 -.58.27l-9.89 12a.75.75 0 0 0 0 .94l20 25a.76.76 0 0 0 1.2 0l20-25a.39.39 0 0 0 .02-.11zm-29.64.39 6.89 20.44-16.33-20.44zm1.58 0h14.8l-7.38 21.87zm16.34 0h9.48l-16.33 20.44zm9.45-1.5h-9.37l-3.69-10.53h4.44zm-14.65-10.53 3.65 10.53h-14.74l3.65-10.53zm-13.47 0h4.44l-3.69 10.53h-9.41z" fill="#fff"/></g></svg>