<svg height="512" viewBox="0 0 64 64" width="512" xmlns="http://www.w3.org/2000/svg" xmlns:xlink="http://www.w3.org/1999/xlink"><linearGradient id="linear-gradient" gradientUnits="userSpaceOnUse" x1="3.25" x2="60.75" y1="32" y2="32"><stop offset="0" stop-color="#5bb4f6"/><stop offset=".61" stop-color="#2191e5"/><stop offset="1" stop-color="#007edb"/></linearGradient><g id="Layer_59" data-name="Layer 59"><rect fill="url(#linear-gradient)" height="57.5" rx="12.75" width="57.5" x="3.25" y="3.25"/><g fill="#fff"><path d="m48.21 21a1 1 0 0 0 -.21-.53l-9-9a.79.79 0 0 0 -.53-.22h-22a.76.76 0 0 0 -.75.75v40a.76.76 0 0 0 .75.75h30.99a.76.76 0 0 0 .75-.75v-30.94a.27.27 0 0 1 0-.06zm-9-7.16 6.41 6.41h-6.38zm-22 37.44v-38.53h20.53v8.25a.76.76 0 0 0 .75.75h8.22v29.5z"/><path d="m40 26.36h-16.1a.75.75 0 0 0 0 1.5h16.1a.75.75 0 0 0 0-1.5z"/><path d="m40 34.35h-16.1a.75.75 0 0 0 0 1.5h16.1a.75.75 0 0 0 0-1.5z"/><path d="m40 42.33h-16.1a.75.75 0 1 0 0 1.5h16.1a.75.75 0 0 0 0-1.5z"/></g></g></svg>