<?xml version="1.0" encoding="UTF-8"?>
<svg xmlns="http://www.w3.org/2000/svg" xmlns:xlink="http://www.w3.org/1999/xlink" viewBox="0 0 64 64" width="512" height="512"><defs><style>.cls-1{fill:url(#linear-gradient);}.cls-2{fill:#fff;}</style><linearGradient id="linear-gradient" x1="3.25" y1="32" x2="60.75" y2="32" gradientUnits="userSpaceOnUse"><stop offset="0" stop-color="#5bb4f6"/><stop offset="0.61" stop-color="#2191e5"/><stop offset="1" stop-color="#007edb"/></linearGradient></defs><g id="Layer_24" data-name="Layer 24"><rect class="cls-1" x="3.25" y="3.25" width="57.5" height="57.5" rx="12.75"/><path class="cls-2" d="M42.6,24.69a10.73,10.73,0,0,0-21.2,0A11.92,11.92,0,0,0,23.18,48.4a.75.75,0,0,0,0-1.5,10.43,10.43,0,0,1-1-20.8,10.26,10.26,0,0,1,5.32.86.73.73,0,0,0,1-.37.74.74,0,0,0-.37-1,11.7,11.7,0,0,0-4.9-1.06h-.25a9.24,9.24,0,0,1,18.14,0,11.59,11.59,0,0,0-5.15,1,.74.74,0,0,0-.37,1,.73.73,0,0,0,1,.37,10.23,10.23,0,0,1,5.33-.86,10.43,10.43,0,0,1-1,20.8.75.75,0,0,0,0,1.5A11.92,11.92,0,0,0,42.6,24.69Z"/><path class="cls-2" d="M31.47,48.18a.75.75,0,0,0,1.06,0l5.24-5.24a.74.74,0,0,0,0-1.06.75.75,0,0,0-1.06,0l-4,4V32.47a.75.75,0,0,0-1.5,0V45.84l-4-4a.74.74,0,0,0-.53-.22.71.71,0,0,0-.53.22.74.74,0,0,0,0,1.06Z"/></g></svg>
