<svg height="512" viewBox="0 0 64 64" width="512" xmlns="http://www.w3.org/2000/svg" xmlns:xlink="http://www.w3.org/1999/xlink"><linearGradient id="linear-gradient" gradientUnits="userSpaceOnUse" x1="3.25" x2="60.75" y1="32" y2="32"><stop offset="0" stop-color="#5bb4f6"/><stop offset=".61" stop-color="#2191e5"/><stop offset="1" stop-color="#007edb"/></linearGradient><g id="Layer_67" data-name="Layer 67"><rect fill="url(#linear-gradient)" height="57.5" rx="12.75" width="57.5" x="3.25" y="3.25"/><path d="m52.53 31.2-3.61-3.61 3-3a.75.75 0 0 0 0-1.06l-3.18-3.18 3-3a.75.75 0 0 0 0-1.06l-4-4a.77.77 0 0 0 -1.06 0l-3 3-3.18-3.18a.77.77 0 0 0 -1.06 0l-3 3-3.64-3.64a.77.77 0 0 0 -1.06 0l-3.53 3.53a.74.74 0 0 0 0 1.06l6.79 6.81-12.13 12.13-6.81-6.8a.75.75 0 0 0 -1.06 0l-3.53 3.53a.75.75 0 0 0 0 1.06l3.61 3.61-3 3a.75.75 0 0 0 0 1.06l3.18 3.18-3 3a.75.75 0 0 0 0 1.06l4 4a.75.75 0 0 0 1.06 0l3-3 3.18 3.18a.75.75 0 0 0 .53.22.77.77 0 0 0 .53-.22l3-3 3.61 3.61a.75.75 0 0 0 1.06 0l3.56-3.49a.74.74 0 0 0 0-1.06l-6.79-6.81 12.13-12.13 6.81 6.8a.75.75 0 0 0 1.06 0l3.53-3.53a.75.75 0 0 0 0-1.07zm-5.35-17.36 3 3-2.48 2.47-3-3zm-7.24-.17 10.39 10.39-2.47 2.47-10.39-10.39zm-23.12 36.49-3-3 2.48-2.47 3 3zm7.24.17-10.39-10.39 2.47-2.47 10.39 10.39zm7.67.61-18.67-18.67 2.47-2.47 18.67 18.67zm-3.8-10.87-4-4 12.14-12.14 4 4zm20.54-5.87-18.67-18.67 2.47-2.47 18.67 18.67z" fill="#fff"/></g></svg>