<svg height="512" viewBox="0 0 64 64" width="512" xmlns="http://www.w3.org/2000/svg" xmlns:xlink="http://www.w3.org/1999/xlink"><linearGradient id="linear-gradient" gradientUnits="userSpaceOnUse" x1="3.25" x2="60.75" y1="32" y2="32"><stop offset="0" stop-color="#5bb4f6"/><stop offset=".61" stop-color="#2191e5"/><stop offset="1" stop-color="#007edb"/></linearGradient><g id="Layer_26" data-name="Layer 26"><rect fill="url(#linear-gradient)" height="57.5" rx="12.75" width="57.5" x="3.25" y="3.25"/><g fill="#fff"><path d="m52.59 31.54c-.37-.49-9.3-12-20.59-12s-20.22 11.48-20.59 12a.75.75 0 0 0 0 .92c.37.49 9.3 12 20.59 12s20.22-11.46 20.59-12a.75.75 0 0 0 0-.92zm-20.59 11.39c-9.32 0-17.25-8.81-19-10.93 1.78-2.12 9.71-10.93 19-10.93s17.25 8.81 19 10.93c-1.75 2.12-9.68 10.93-19 10.93z"/><path d="m32 24.56a7.44 7.44 0 1 0 7.44 7.44 7.45 7.45 0 0 0 -7.44-7.44zm0 13.38a5.94 5.94 0 1 1 5.94-5.94 5.94 5.94 0 0 1 -5.94 5.94z"/></g></g></svg>