<svg height="512" viewBox="0 0 64 64" width="512" xmlns="http://www.w3.org/2000/svg" xmlns:xlink="http://www.w3.org/1999/xlink"><linearGradient id="linear-gradient" gradientUnits="userSpaceOnUse" x1="3.25" x2="60.75" y1="32" y2="32"><stop offset="0" stop-color="#5bb4f6"/><stop offset=".61" stop-color="#2191e5"/><stop offset="1" stop-color="#007edb"/></linearGradient><g id="Layer_96" data-name="Layer 96"><rect fill="url(#linear-gradient)" height="57.5" rx="12.75" width="57.5" x="3.25" y="3.25"/><g fill="#fff"><path d="m48 19.76a.87.87 0 0 0 -.22-.53c-4.94-4.94-6.82-6.82-7.61-7.54a.8.8 0 0 0 -.68-.44h-22.7a.76.76 0 0 0 -.79.75v40a.76.76 0 0 0 .75.75h30.46a.76.76 0 0 0 .79-.75zm-2.6-.76h-5.2v-5.2zm-27.86 32.25v-38.5h21.16v7a.76.76 0 0 0 .75.75h7v30.75z"/><path d="m25.12 19.24h2.97v2.97h-2.97z"/><path d="m28.11 22.22h2.97v2.97h-2.97z"/><path d="m25.12 25.19h2.97v2.97h-2.97z"/><path d="m25.12 13.3h2.97v2.97h-2.97z"/><path d="m28.11 16.27h2.97v2.97h-2.97z"/><path d="m31.08 30.4v-2.23h-3v2.22h-3a.75.75 0 0 0 -.74.62l-2 11.31a.72.72 0 0 0 .17.61.74.74 0 0 0 .57.27h9.9a.74.74 0 0 0 .57-.27.72.72 0 0 0 .17-.61l-1.92-11.32a.74.74 0 0 0 -.72-.6zm-7.08 11.3 1.73-9.81h4.66l1.73 9.81z"/></g></g></svg>