<svg height="512" viewBox="0 0 64 64" width="512" xmlns="http://www.w3.org/2000/svg" xmlns:xlink="http://www.w3.org/1999/xlink"><linearGradient id="linear-gradient" gradientUnits="userSpaceOnUse" x1="3.25" x2="60.75" y1="32" y2="32"><stop offset="0" stop-color="#5bb4f6"/><stop offset=".61" stop-color="#2191e5"/><stop offset="1" stop-color="#007edb"/></linearGradient><g id="Layer_99" data-name="Layer 99"><rect fill="url(#linear-gradient)" height="57.5" rx="12.75" width="57.5" x="3.25" y="3.25"/><g fill="#fff"><path d="m48 19.76a.85.85 0 0 0 -.22-.53c-4.94-4.94-6.82-6.82-7.61-7.54a.8.8 0 0 0 -.68-.44h-22.7a.76.76 0 0 0 -.79.75v40a.76.76 0 0 0 .75.75h30.46a.76.76 0 0 0 .79-.75zm-2.6-.76h-5.2v-5.2zm-27.86 32.25v-38.5h21.16v7a.76.76 0 0 0 .75.75h7v30.75z"/><path d="m32.2 32.37a.73.73 0 0 0 -.79.1l-4 3.29h-5.16a.76.76 0 0 0 -.75.75v8.32a.75.75 0 0 0 .75.75h5.16l4 3.3a.73.73 0 0 0 .47.17.88.88 0 0 0 .32-.05.75.75 0 0 0 .43-.68v-15.27a.74.74 0 0 0 -.43-.68zm-1.07 14.34-3-2.46a1.1 1.1 0 0 0 -.48-.17h-4.65v-6.82h4.68a.9.9 0 0 0 .48-.17l3-2.45z"/><path d="m38.19 34.36a.74.74 0 0 0 0 1.06 7.45 7.45 0 0 1 0 10.51.74.74 0 0 0 0 1.06.71.71 0 0 0 .53.22.74.74 0 0 0 .53-.22 8.94 8.94 0 0 0 0-12.63.74.74 0 0 0 -1.06 0z"/><path d="m34.93 36.42a.74.74 0 0 0 0 1.06 4.53 4.53 0 0 1 0 6.39.74.74 0 0 0 0 1.06.75.75 0 0 0 .53.22.79.79 0 0 0 .53-.22 6 6 0 0 0 0-8.51.75.75 0 0 0 -1.06 0z"/></g></g></svg>