<svg height="512" viewBox="0 0 64 64" width="512" xmlns="http://www.w3.org/2000/svg" xmlns:xlink="http://www.w3.org/1999/xlink"><linearGradient id="linear-gradient" gradientUnits="userSpaceOnUse" x1="3.25" x2="60.75" y1="32" y2="32"><stop offset="0" stop-color="#5bb4f6"/><stop offset=".61" stop-color="#2191e5"/><stop offset="1" stop-color="#007edb"/></linearGradient><g id="Layer_98" data-name="Layer 98"><rect fill="url(#linear-gradient)" height="57.5" rx="12.75" width="57.5" x="3.25" y="3.25"/><g fill="#fff"><path d="m48 19.76a.87.87 0 0 0 -.22-.53c-4.94-4.94-6.82-6.82-7.61-7.53a.79.79 0 0 0 -.68-.45h-22.7a.76.76 0 0 0 -.79.75v40a.76.76 0 0 0 .75.75h30.46a.76.76 0 0 0 .79-.75v-32.19s0-.03 0-.05zm-2.6-.76h-5.2v-5.2zm-27.86 32.25v-38.5h21.16v7a.76.76 0 0 0 .75.75h7v30.75z"/><path d="m41.14 35.69-3 1.51v-.31a2.75 2.75 0 0 0 -2.75-2.75h-10.87a2.75 2.75 0 0 0 -2.75 2.75v6.11a2.75 2.75 0 0 0 2.75 2.75h10.86a2.75 2.75 0 0 0 2.75-2.75v-.4l3 1.5a.68.68 0 0 0 .34.08.75.75 0 0 0 .75-.75v-7.07a.73.73 0 0 0 -.36-.63.76.76 0 0 0 -.72-.04zm-5.76 8.57h-10.86a1.25 1.25 0 0 1 -1.25-1.26v-6.11a1.25 1.25 0 0 1 1.25-1.25h10.86a1.25 1.25 0 0 1 1.25 1.25v6.11a1.25 1.25 0 0 1 -1.25 1.26zm5.35-2-2.6-1.3v-2.09l2.6-1.29z"/></g></g></svg>