<svg height="512" viewBox="0 0 64 64" width="512" xmlns="http://www.w3.org/2000/svg" xmlns:xlink="http://www.w3.org/1999/xlink"><linearGradient id="linear-gradient" gradientUnits="userSpaceOnUse" x1="3.25" x2="60.75" y1="32" y2="32"><stop offset="0" stop-color="#5bb4f6"/><stop offset=".61" stop-color="#2191e5"/><stop offset="1" stop-color="#007edb"/></linearGradient><g id="Layer_84" data-name="Layer 84"><rect fill="url(#linear-gradient)" height="57.5" rx="12.75" width="57.5" x="3.25" y="3.25"/><g fill="#fff"><path d="m32.68 17.35h-8.5a3.8 3.8 0 1 0 -6 0h-1.33a.74.74 0 0 0 -.53.21l-4.84 4.72a.75.75 0 0 0 0 1.06.76.76 0 0 0 .54.23.7.7 0 0 0 .52-.22l4.63-4.5h6.33v4.15a8.89 8.89 0 0 0 -8.13 8.84v20.16a.75.75 0 0 0 .75.75h16.23a.75.75 0 0 0 .75-.75v-20.2a8.89 8.89 0 0 0 -8.1-8.8v-4.15h7.7a.75.75 0 0 0 0-1.5zm-1.08 14.45v19.45h-14.75v-19.45a7.38 7.38 0 0 1 14.75 0zm-12.72-16.75a2.3 2.3 0 1 1 2.3 2.3 2.3 2.3 0 0 1 -2.3-2.3z"/><path d="m50.38 25.59a4.18 4.18 0 0 0 -1.87-7.46 5.29 5.29 0 1 0 -10.51-.69.75.75 0 0 0 1.5 0 3.8 3.8 0 1 1 7.6 0 3.36 3.36 0 0 1 -.08.71 4.2 4.2 0 0 0 -3.33 4.1.75.75 0 0 0 1.5 0 2.69 2.69 0 1 1 2.68 2.69.75.75 0 0 0 0 1.5h.13a3.28 3.28 0 1 1 -3.27 3.28.75.75 0 0 0 -1.5 0 1.87 1.87 0 1 1 -1.87-1.87.75.75 0 0 0 0-1.5 3.37 3.37 0 1 0 2.44 5.65 4.77 4.77 0 1 0 6.58-6.43z"/></g></g></svg>