<svg height="512" viewBox="0 0 64 64" width="512" xmlns="http://www.w3.org/2000/svg" xmlns:xlink="http://www.w3.org/1999/xlink"><linearGradient id="linear-gradient" gradientUnits="userSpaceOnUse" x1="3.25" x2="60.75" y1="32" y2="32"><stop offset="0" stop-color="#5bb4f6"/><stop offset=".61" stop-color="#2191e5"/><stop offset="1" stop-color="#007edb"/></linearGradient><g id="Layer_42" data-name="Layer 42"><rect fill="url(#linear-gradient)" height="57.5" rx="12.75" width="57.5" x="3.25" y="3.25"/><path d="m50.59 51.64-12.45-22.5v-16.39h2.8a.75.75 0 0 0 0-1.5h-17.88a.75.75 0 0 0 0 1.5h2.8v16.39l-12.45 22.5a.78.78 0 0 0 0 .74.76.76 0 0 0 .65.37h35.87a.76.76 0 0 0 .65-.37.78.78 0 0 0 .01-.74zm-23.32-21.95a.74.74 0 0 0 .09-.36v-16.58h9.28v16.58a.74.74 0 0 0 .09.36l3.21 5.8h-15.88zm-11.93 21.56 7.89-14.25h17.54l7.89 14.26z" fill="#fff"/></g></svg>