<svg height="512" viewBox="0 0 64 64" width="512" xmlns="http://www.w3.org/2000/svg" xmlns:xlink="http://www.w3.org/1999/xlink"><linearGradient id="linear-gradient" gradientUnits="userSpaceOnUse" x1="3.25" x2="60.75" y1="32" y2="32"><stop offset="0" stop-color="#5bb4f6"/><stop offset=".61" stop-color="#2191e5"/><stop offset="1" stop-color="#007edb"/></linearGradient><g id="Layer_62" data-name="Layer 62"><rect fill="url(#linear-gradient)" height="57.5" rx="12.75" width="57.5" x="3.25" y="3.25"/><path d="m52 25h-2.93v-5a.85.85 0 0 0 -.24-.59l-7.83-7.94a.75.75 0 0 0 -.53-.22h-24.79a.76.76 0 0 0 -.75.75v6.21h-2.93a.75.75 0 0 0 -.75.75v31.04a2.75 2.75 0 0 0 2.75 2.75h36a2.75 2.75 0 0 0 2.75-2.75v-24.28a.75.75 0 0 0 -.75-.72zm-5.49-5.83h-5.33v-5.37zm-30.08-6.42h23.25v7.14a.76.76 0 0 0 .75.75h7.14v4.36h-19.92l-6.54-6.54a.75.75 0 0 0 -.53-.22h-4.15zm34.82 37.25a1.25 1.25 0 0 1 -1.25 1.25h-36a1.25 1.25 0 0 1 -1.25-1.25v-30.29h7.52l6.54 6.54a.75.75 0 0 0 .53.22h23.91z" fill="#fff"/></g></svg>