<?xml version="1.0" encoding="UTF-8"?>
<svg xmlns="http://www.w3.org/2000/svg" xmlns:xlink="http://www.w3.org/1999/xlink" viewBox="0 0 64 64" width="512" height="512"><defs><style>.cls-1{fill:url(#linear-gradient);}.cls-2{fill:#fff;}</style><linearGradient id="linear-gradient" x1="3.25" y1="32" x2="60.75" y2="32" gradientUnits="userSpaceOnUse"><stop offset="0" stop-color="#5bb4f6"/><stop offset="0.61" stop-color="#2191e5"/><stop offset="1" stop-color="#007edb"/></linearGradient></defs><g id="Layer_19" data-name="Layer 19"><rect class="cls-1" x="3.25" y="3.25" width="57.5" height="57.5" rx="12.75"/><path class="cls-2" d="M40.3,41.7H23.7a.75.75,0,0,0,0,1.5c4.16,0,7.55,3.95,7.55,8.8a.75.75,0,0,0,1.5,0c0-4.85,3.38-8.8,7.55-8.8a.75.75,0,0,0,0-1.5ZM32,47.91a10.05,10.05,0,0,0-3.62-4.71h7.24A10.05,10.05,0,0,0,32,47.91Z"/><path class="cls-2" d="M32,11.25A13.53,13.53,0,1,0,45.53,24.77,13.54,13.54,0,0,0,32,11.25ZM32,36.8a12,12,0,1,1,12-12A12,12,0,0,1,32,36.8Z"/><circle class="cls-2" cx="32" cy="24.26" r="1"/><circle class="cls-2" cx="28.46" cy="18.77" r="1"/><circle class="cls-2" cx="35.97" cy="18.22" r="1"/></g></svg>
