<?xml version="1.0" encoding="UTF-8"?>
<svg xmlns="http://www.w3.org/2000/svg" xmlns:xlink="http://www.w3.org/1999/xlink" viewBox="0 0 64 64" width="512" height="512"><defs><style>.cls-1{fill:url(#linear-gradient);}.cls-2{fill:#fff;}</style><linearGradient id="linear-gradient" x1="3.25" y1="32" x2="60.75" y2="32" gradientUnits="userSpaceOnUse"><stop offset="0" stop-color="#5bb4f6"/><stop offset="0.61" stop-color="#2191e5"/><stop offset="1" stop-color="#007edb"/></linearGradient></defs><g id="Layer_27" data-name="Layer 27"><rect class="cls-1" x="3.25" y="3.25" width="57.5" height="57.5" rx="12.75"/><path class="cls-2" d="M42.07,27.78H32.75V25.91a3.33,3.33,0,0,0-3.33-3.33H27.75a1.83,1.83,0,1,1,0-3.65h7.67a3.35,3.35,0,0,0,3.33-3.36.75.75,0,0,0-.75-.74.76.76,0,0,0-.75.77,1.83,1.83,0,0,1-1.83,1.83H27.75a3.33,3.33,0,1,0,0,6.65h1.67a1.83,1.83,0,0,1,1.83,1.83v1.87H21.94a10.7,10.7,0,1,0,6.57,19.14h7a10.7,10.7,0,1,0,6.58-19.14Zm0,19.9a9,9,0,0,1-5.82-2.09.78.78,0,0,0-.48-.17h-7.5a.78.78,0,0,0-.48.17A9,9,0,0,1,22,47.68a9.2,9.2,0,0,1,0-18.4h20.1a9.2,9.2,0,1,1,0,18.4Z"/><path class="cls-2" d="M23.14,37.78h-2.2V35.57a.75.75,0,0,0-1.5,0v2.21H17.23a.75.75,0,0,0,0,1.5h2.21v2.21a.75.75,0,0,0,1.5,0V39.28h2.2a.75.75,0,0,0,0-1.5Z"/><circle class="cls-2" cx="41.9" cy="34.62" r="1"/><circle class="cls-2" cx="45.8" cy="38.54" r="1"/><circle class="cls-2" cx="41.89" cy="42.43" r="1"/><circle class="cls-2" cx="38" cy="38.54" r="1"/></g></svg>
