<svg height="512" viewBox="0 0 64 64" width="512" xmlns="http://www.w3.org/2000/svg" xmlns:xlink="http://www.w3.org/1999/xlink"><linearGradient id="linear-gradient" gradientUnits="userSpaceOnUse" x1="3.25" x2="60.75" y1="32" y2="32"><stop offset="0" stop-color="#5bb4f6"/><stop offset=".61" stop-color="#2191e5"/><stop offset="1" stop-color="#007edb"/></linearGradient><g id="Layer_73" data-name="Layer 73"><rect fill="url(#linear-gradient)" height="57.5" rx="12.75" width="57.5" x="3.25" y="3.25"/><g fill="#fff"><path d="m31.52 29.15a.73.73 0 0 0 1 0l5.45-4.6a.77.77 0 0 0 .26-.58v-11.97a.75.75 0 0 0 -.75-.75h-10.92a.75.75 0 0 0 -.75.75v12a.77.77 0 0 0 .26.58zm-4.21-16.4h9.38v10.88l-4.69 4-4.69-4z"/><path d="m52 25.81h-12a.77.77 0 0 0 -.58.26l-4.6 5.45a.73.73 0 0 0 0 1l4.6 5.45a.77.77 0 0 0 .58.26h12a.75.75 0 0 0 .75-.75v-10.92a.75.75 0 0 0 -.75-.75zm-.75 10.88h-10.88l-3.97-4.69 4-4.69h10.85z"/><path d="m32.48 34.85a.73.73 0 0 0 -1 0l-5.45 4.6a.77.77 0 0 0 -.26.58v11.97a.75.75 0 0 0 .75.75h10.92a.75.75 0 0 0 .75-.75v-12a.77.77 0 0 0 -.26-.58zm4.21 16.4h-9.38v-10.88l4.69-4 4.69 4z"/><path d="m29.15 31.52-4.6-5.45a.77.77 0 0 0 -.58-.26h-11.97a.75.75 0 0 0 -.75.75v10.88a.75.75 0 0 0 .75.75h12a.77.77 0 0 0 .58-.26l4.6-5.45a.73.73 0 0 0 -.03-.96zm-5.52 5.17h-10.88v-9.38h10.88l4 4.69z"/></g></g></svg>