<svg height="512" viewBox="0 0 64 64" width="512" xmlns="http://www.w3.org/2000/svg" xmlns:xlink="http://www.w3.org/1999/xlink"><linearGradient id="linear-gradient" gradientUnits="userSpaceOnUse" x1="3.25" x2="60.75" y1="32" y2="32"><stop offset="0" stop-color="#5bb4f6"/><stop offset=".61" stop-color="#2191e5"/><stop offset="1" stop-color="#007edb"/></linearGradient><g id="Layer_51" data-name="Layer 51"><rect fill="url(#linear-gradient)" height="57.5" rx="12.75" width="57.5" x="3.25" y="3.25"/><g fill="#fff"><path d="m52 28h-5a15.63 15.63 0 0 0 -1.58-3.84l3.58-3.49a.75.75 0 0 0 0-1.06l-4.61-4.61a.75.75 0 0 0 -1.06 0l-3.51 3.51a15.63 15.63 0 0 0 -3.82-1.51v-5a.76.76 0 0 0 -.75-.75h-6.48a.76.76 0 0 0 -.77.75v5a15.63 15.63 0 0 0 -3.84 1.58l-3.49-3.58a.77.77 0 0 0 -1.06 0l-4.61 4.61a.75.75 0 0 0 0 1.06l3.51 3.51a15.63 15.63 0 0 0 -1.51 3.82h-5a.76.76 0 0 0 -.75.75v6.46a.76.76 0 0 0 .75.79h5a15.63 15.63 0 0 0 1.58 3.84l-3.58 3.49a.75.75 0 0 0 0 1.06l4.61 4.61a.75.75 0 0 0 1.06 0l3.51-3.51a15.63 15.63 0 0 0 3.82 1.51v5a.76.76 0 0 0 .75.75h6.46a.76.76 0 0 0 .79-.75v-5a15.63 15.63 0 0 0 3.84-1.58l3.49 3.58a.77.77 0 0 0 1.06 0l4.61-4.61a.75.75 0 0 0 0-1.06l-3.51-3.51a15.63 15.63 0 0 0 1.51-3.82h5a.76.76 0 0 0 .75-.75v-6.48a.76.76 0 0 0 -.75-.77zm-.75 6.46h-4.81a.75.75 0 0 0 -.73.59 13.77 13.77 0 0 1 -1.84 4.46.74.74 0 0 0 .1.93l3.4 3.4-3.51 3.51-3.4-3.35a.74.74 0 0 0 -.93-.1 13.77 13.77 0 0 1 -4.46 1.84.75.75 0 0 0 -.59.73v4.81h-5v-4.84a.75.75 0 0 0 -.59-.73 13.77 13.77 0 0 1 -4.46-1.84.74.74 0 0 0 -.93.1l-3.4 3.4-3.51-3.51 3.4-3.4a.74.74 0 0 0 .1-.93 13.77 13.77 0 0 1 -1.84-4.46.75.75 0 0 0 -.73-.59h-4.77v-5h4.81a.75.75 0 0 0 .73-.59 13.77 13.77 0 0 1 1.84-4.46.74.74 0 0 0 -.1-.93l-3.4-3.4 3.51-3.51 3.4 3.4a.74.74 0 0 0 .93.1 13.77 13.77 0 0 1 4.46-1.84.75.75 0 0 0 .59-.73v-4.77h5v4.81a.75.75 0 0 0 .59.73 13.77 13.77 0 0 1 4.46 1.84.74.74 0 0 0 .93-.1l3.4-3.4 3.51 3.51-3.41 3.4a.74.74 0 0 0 -.1.93 13.77 13.77 0 0 1 1.84 4.46.75.75 0 0 0 .73.59h4.81z"/><path d="m32 22.79a9.21 9.21 0 1 0 9.21 9.21 9.22 9.22 0 0 0 -9.21-9.21zm0 16.92a7.71 7.71 0 1 1 7.71-7.71 7.72 7.72 0 0 1 -7.71 7.71z"/></g></g></svg>