<svg height="512" viewBox="0 0 64 64" width="512" xmlns="http://www.w3.org/2000/svg" xmlns:xlink="http://www.w3.org/1999/xlink"><linearGradient id="linear-gradient" gradientUnits="userSpaceOnUse" x1="3.25" x2="60.75" y1="32" y2="32"><stop offset="0" stop-color="#5bb4f6"/><stop offset=".61" stop-color="#2191e5"/><stop offset="1" stop-color="#007edb"/></linearGradient><g id="Layer_80" data-name="Layer 80"><rect fill="url(#linear-gradient)" height="57.5" rx="12.75" width="57.5" x="3.25" y="3.25"/><g fill="#fff"><path d="m32.75 39.43v-9.68l14.63-8.44a.76.76 0 0 0 0-1.3l-15-8.66a.77.77 0 0 0 -1.13.65v34.08a.75.75 0 0 0 1.5 0v-5.15c10.64.12 18.5 2.77 18.5 5.15s-7.91 5.17-19.25 5.17-19.25-2.72-19.25-5.17c0-1.1 2-2.81 7.55-4a.75.75 0 0 0 .57-.89.74.74 0 0 0 -.89-.57c-5.63 1.23-8.73 3.18-8.73 5.49 0 4.33 10.69 6.67 20.75 6.67s20.75-2.34 20.75-6.67-10.17-6.57-20-6.68zm0-11.41v-14.72l12.75 7.36z"/><path d="m42.74 33.3a5 5 0 1 0 5-5 5 5 0 0 0 -5 5zm8.51 0a3.51 3.51 0 1 1 -3.5-3.51 3.5 3.5 0 0 1 3.5 3.51z"/></g></g></svg>