<svg height="512" viewBox="0 0 64 64" width="512" xmlns="http://www.w3.org/2000/svg" xmlns:xlink="http://www.w3.org/1999/xlink"><linearGradient id="linear-gradient" gradientUnits="userSpaceOnUse" x1="3.25" x2="60.75" y1="32" y2="32"><stop offset="0" stop-color="#5bb4f6"/><stop offset=".61" stop-color="#2191e5"/><stop offset="1" stop-color="#007edb"/></linearGradient><g id="Layer_79" data-name="Layer 79"><rect fill="url(#linear-gradient)" height="57.5" rx="12.75" width="57.5" x="3.25" y="3.25"/><path d="m52.53 44.3-19.78-13v-3.3a4.88 4.88 0 1 0 -5.64-4.82.75.75 0 0 0 1.5 0 3.39 3.39 0 1 1 3.39 3.42.76.76 0 0 0 -.75.75v4l-19.78 13a.75.75 0 0 0 .41 1.38h40.24a.75.75 0 0 0 .41-1.38zm-38.14-.12 17.61-11.55 17.61 11.55z" fill="#fff"/></g></svg>