<svg height="512" viewBox="0 0 64 64" width="512" xmlns="http://www.w3.org/2000/svg" xmlns:xlink="http://www.w3.org/1999/xlink"><linearGradient id="linear-gradient" gradientUnits="userSpaceOnUse" x1="3.25" x2="60.75" y1="32" y2="32"><stop offset="0" stop-color="#5bb4f6"/><stop offset=".61" stop-color="#2191e5"/><stop offset="1" stop-color="#007edb"/></linearGradient><g id="Layer_43" data-name="Layer 43"><rect fill="url(#linear-gradient)" height="57.5" rx="12.75" width="57.5" x="3.25" y="3.25"/><path d="m52.75 25.23a11.78 11.78 0 0 0 -11.75-11.78 11.71 11.71 0 0 0 -8.34 3.45l-.63.63-.63-.63a11.79 11.79 0 0 0 -16.7 16.67l16.77 16.76a.74.74 0 0 0 .53.22.71.71 0 0 0 .53-.22l16.77-16.76a11.75 11.75 0 0 0 3.45-8.34zm-36.99-7.23a10.28 10.28 0 0 1 14.55 0l1.17 1.15a.76.76 0 0 0 1.05 0l1.16-1.15a10.25 10.25 0 0 1 7.31-3 10.29 10.29 0 0 1 7.27 17.56l-.16.16h-5l-2.64-7.52a.76.76 0 0 0 -.72-.5.74.74 0 0 0 -.7.52l-2.44 7.5h-4.3a.75.75 0 0 0 -.68.43l-2.35 5-2.79-17.52a.76.76 0 0 0 -.69-.63.73.73 0 0 0 -.77.54l-3.63 12.13h-5.48l-.16-.16a10.3 10.3 0 0 1 0-14.51zm16.24 30.74-14.57-14.57h4.57a.76.76 0 0 0 .72-.54l2.84-9.49 2.6 16.64a.74.74 0 0 0 .63.62h.11a.76.76 0 0 0 .68-.43l3.19-6.81h4.36a.75.75 0 0 0 .71-.52l1.93-5.91 2.08 5.93a.76.76 0 0 0 .71.5h4.06z" fill="#fff"/></g></svg>