<svg height="512" viewBox="0 0 64 64" width="512" xmlns="http://www.w3.org/2000/svg" xmlns:xlink="http://www.w3.org/1999/xlink"><linearGradient id="linear-gradient" gradientUnits="userSpaceOnUse" x1="3.25" x2="60.75" y1="32" y2="32"><stop offset="0" stop-color="#5bb4f6"/><stop offset=".61" stop-color="#2191e5"/><stop offset="1" stop-color="#007edb"/></linearGradient><g id="Layer_12" data-name="Layer 12"><rect fill="url(#linear-gradient)" height="57.5" rx="12.75" width="57.5" x="3.25" y="3.25"/><g fill="#fff"><path d="m47.39 11.25h-30.78a.75.75 0 0 0 -.75.75v40a.75.75 0 0 0 .75.75h30.78a.75.75 0 0 0 .75-.75v-40a.75.75 0 0 0 -.75-.75zm-23.71 40v-11.13l8.32-5.56 8.32 5.56v11.13zm23 0h-4.86v-11.53a.74.74 0 0 0 -.33-.62l-9.07-6.1a.76.76 0 0 0 -.84 0l-9.07 6.1a.74.74 0 0 0 -.33.62v11.53h-4.82v-38.5h29.28z"/><path d="m22.93 26.93h6a.75.75 0 0 0 0-1.5h-6a.75.75 0 0 0 0 1.5z"/><path d="m35.07 26.93h6a.75.75 0 0 0 0-1.5h-6a.75.75 0 0 0 0 1.5z"/><path d="m22.93 20.09h6a.75.75 0 0 0 0-1.5h-6a.75.75 0 0 0 0 1.5z"/><path d="m35.07 20.09h6a.75.75 0 0 0 0-1.5h-6a.75.75 0 0 0 0 1.5z"/></g></g></svg>