<svg height="512" viewBox="0 0 64 64" width="512" xmlns="http://www.w3.org/2000/svg" xmlns:xlink="http://www.w3.org/1999/xlink"><linearGradient id="linear-gradient" gradientUnits="userSpaceOnUse" x1="3.25" x2="60.75" y1="32" y2="32"><stop offset="0" stop-color="#5bb4f6"/><stop offset=".61" stop-color="#2191e5"/><stop offset="1" stop-color="#007edb"/></linearGradient><g id="Layer_28" data-name="Layer 28"><rect fill="url(#linear-gradient)" height="57.5" rx="12.75" width="57.5" x="3.25" y="3.25"/><path d="m48.73 51.25h-3.18v-6.45a13.47 13.47 0 0 0 -9.09-12.8 13.47 13.47 0 0 0 9.09-12.8v-6.45h3.18a.75.75 0 0 0 0-1.5h-33.46a.75.75 0 0 0 0 1.5h3.18v6.45a13.47 13.47 0 0 0 9.09 12.8 13.47 13.47 0 0 0 -9.09 12.8v6.45h-3.18a.75.75 0 1 0 0 1.5h33.46a.75.75 0 0 0 0-1.5zm-28.73 0v-6.45a12 12 0 0 1 9.33-11.74c.66-.14.59-.87.58-1.39a.75.75 0 0 0 -.58-.73 12 12 0 0 1 -9.33-11.74v-6.45h24.1v6.45a12 12 0 0 1 -9.33 11.74c-.66.14-.59.87-.58 1.39a.75.75 0 0 0 .58.73 12 12 0 0 1 9.28 11.74v6.45z" fill="#fff"/></g></svg>