<svg height="512" viewBox="0 0 64 64" width="512" xmlns="http://www.w3.org/2000/svg" xmlns:xlink="http://www.w3.org/1999/xlink"><linearGradient id="linear-gradient" gradientUnits="userSpaceOnUse" x1="3.25" x2="60.75" y1="32" y2="32"><stop offset="0" stop-color="#5bb4f6"/><stop offset=".61" stop-color="#2191e5"/><stop offset="1" stop-color="#007edb"/></linearGradient><g id="Layer_60" data-name="Layer 60"><rect fill="url(#linear-gradient)" height="57.5" rx="12.75" width="57.5" x="3.25" y="3.25"/><path d="m49 29.71a12.73 12.73 0 0 0 -17.48-.5l-16.46-16.48a.75.75 0 0 0 -1.06 1.06l1.83 1.84-4.36 4.37a.75.75 0 0 0 0 1.06l5.53 5.55a.71.71 0 0 0 .53.22.74.74 0 0 0 .53-.22l4.36-4.36 8 8a12.75 12.75 0 1 0 18.58-.54zm-31.43-4.71-4.51-4.5 3.83-3.83 4.5 4.5zm30.43 21.69a11.25 11.25 0 1 1 3.3-8 11.26 11.26 0 0 1 -3.3 8z" fill="#fff"/></g></svg>