<svg height="512" viewBox="0 0 64 64" width="512" xmlns="http://www.w3.org/2000/svg" xmlns:xlink="http://www.w3.org/1999/xlink"><linearGradient id="linear-gradient" gradientUnits="userSpaceOnUse" x1="3.25" x2="60.75" y1="32" y2="32"><stop offset="0" stop-color="#5bb4f6"/><stop offset=".61" stop-color="#2191e5"/><stop offset="1" stop-color="#007edb"/></linearGradient><g id="Layer_66" data-name="Layer 66"><rect fill="url(#linear-gradient)" height="57.5" rx="12.75" width="57.5" x="3.25" y="3.25"/><g fill="#fff"><path d="m32 11.25a15.22 15.22 0 0 0 -15.21 15.21 14 14 0 0 0 4.57 10.35l5.32 4.85v6.21a.74.74 0 0 0 .75.75h9.14a.74.74 0 0 0 .75-.75v-6.21l5.32-4.85a14 14 0 0 0 4.57-10.35 15.22 15.22 0 0 0 -15.21-15.21zm-3.82 35.87v-5h7.64v5zm13.45-11.42-5.35 4.88h-8.56l-5.35-4.88a12.53 12.53 0 0 1 -4.08-9.24 13.71 13.71 0 0 1 27.42 0 12.53 12.53 0 0 1 -4.08 9.24z"/><path d="m32 17.25a.75.75 0 0 0 0 1.5 7.72 7.72 0 0 1 7.71 7.71.75.75 0 0 0 1.5 0 9.22 9.22 0 0 0 -9.21-9.21z"/><path d="m34.16 51.25h-4.32a.75.75 0 0 0 0 1.5h4.32a.75.75 0 0 0 0-1.5z"/></g></g></svg>