<svg height="512" viewBox="0 0 64 64" width="512" xmlns="http://www.w3.org/2000/svg" xmlns:xlink="http://www.w3.org/1999/xlink"><linearGradient id="linear-gradient" gradientUnits="userSpaceOnUse" x1="3.25" x2="60.75" y1="32" y2="32"><stop offset="0" stop-color="#5bb4f6"/><stop offset=".61" stop-color="#2191e5"/><stop offset="1" stop-color="#007edb"/></linearGradient><g id="Layer_75" data-name="Layer 75"><rect fill="url(#linear-gradient)" height="57.5" rx="12.75" width="57.5" x="3.25" y="3.25"/><g fill="#fff"><path d="m52.59 47.14a.76.76 0 0 0 -.59-.28h-1.62v-24.65a.76.76 0 0 0 -.75-.75h-6.54a.75.75 0 0 0 0 1.5h5.79v23.9h-33.76v-23.86h5.79a.75.75 0 1 0 0-1.5h-6.54a.76.76 0 0 0 -.75.75v24.61h-1.62a.74.74 0 0 0 -.73.91 6.37 6.37 0 0 0 6.24 5h29a6.37 6.37 0 0 0 6.24-5 .75.75 0 0 0 -.16-.63zm-6.1 4.11h-29a4.86 4.86 0 0 1 -4.49-2.89h38a4.86 4.86 0 0 1 -4.51 2.89z"/><path d="m26.52 23.61 4.73-4.73v13.47a.75.75 0 0 0 1.5 0v-13.47l4.73 4.73a.75.75 0 0 0 1.06 0 .75.75 0 0 0 0-1.06l-6-6a.75.75 0 0 0 -1.06 0l-6 6a.75.75 0 0 0 1.06 1.06z"/><path d="m26 12.75h12a.75.75 0 0 0 0-1.5h-12a.75.75 0 1 0 0 1.5z"/></g></g></svg>