<svg height="512" viewBox="0 0 64 64" width="512" xmlns="http://www.w3.org/2000/svg" xmlns:xlink="http://www.w3.org/1999/xlink"><linearGradient id="linear-gradient" gradientUnits="userSpaceOnUse" x1="3.25" x2="60.75" y1="32" y2="32"><stop offset="0" stop-color="#5bb4f6"/><stop offset=".61" stop-color="#2191e5"/><stop offset="1" stop-color="#007edb"/></linearGradient><g id="Layer_74" data-name="Layer 74"><rect fill="url(#linear-gradient)" height="57.5" rx="12.75" width="57.5" x="3.25" y="3.25"/><path d="m52.59 42a.76.76 0 0 0 -.59-.28h-1.62v-24.61a.74.74 0 0 0 -.75-.75h-35.26a.74.74 0 0 0 -.75.75v24.64h-1.62a.74.74 0 0 0 -.73.92 6.36 6.36 0 0 0 6.24 5h29a6.36 6.36 0 0 0 6.24-5 .77.77 0 0 0 -.16-.67zm-37.47-24.14h33.76v23.89h-33.76zm31.37 28.28h-29a4.86 4.86 0 0 1 -4.49-2.89h38a4.86 4.86 0 0 1 -4.51 2.89z" fill="#fff"/></g></svg>