<svg height="512" viewBox="0 0 64 64" width="512" xmlns="http://www.w3.org/2000/svg" xmlns:xlink="http://www.w3.org/1999/xlink"><linearGradient id="linear-gradient" gradientUnits="userSpaceOnUse" x1="3.25" x2="60.75" y1="32" y2="32"><stop offset="0" stop-color="#5bb4f6"/><stop offset=".61" stop-color="#2191e5"/><stop offset="1" stop-color="#007edb"/></linearGradient><g id="Layer_29" data-name="Layer 29"><rect fill="url(#linear-gradient)" height="57.5" rx="12.75" width="57.5" x="3.25" y="3.25"/><path d="m52.5 47.19-10.09-10.09a.77.77 0 0 0 -1.06 0l-1.6 1.59-6-6 5.25-5.31.8.8a.75.75 0 0 0 1.06 0l3.28-3.29a.74.74 0 0 0 0-1.06l-12.56-12.53a.75.75 0 0 0 -1.06 0l-3.29 3.29a.75.75 0 0 0 0 1.06l.8.8-11.58 11.55-.8-.8a.77.77 0 0 0 -1.06 0l-3.29 3.32a.75.75 0 0 0 0 1.06l12.53 12.52a.75.75 0 0 0 1.06 0l3.29-3.28a.75.75 0 0 0 0-1.06l-.8-.8 5.26-5.26 6 6-1.59 1.6a.74.74 0 0 0 0 1.06l10.14 10.14a.75.75 0 0 0 1.06 0l4.25-4.25a.75.75 0 0 0 0-1.06zm-26.71-7.7.79.8-2.22 2.22-11.46-11.46 2.22-2.23.8.8a.71.71 0 0 0 .53.22.74.74 0 0 0 .53-.22l12.64-12.62a.75.75 0 0 0 0-1.06l-.8-.8 2.23-2.22 11.46 11.44-2.22 2.22-.8-.79a.76.76 0 0 0 -1.06 0l-6.31 6.32-6.32 6.31a.75.75 0 0 0 0 1.06zm21.93 11.42-9-9 3.19-3.19 9 9z" fill="#fff"/></g></svg>