<svg height="512" viewBox="0 0 64 64" width="512" xmlns="http://www.w3.org/2000/svg" xmlns:xlink="http://www.w3.org/1999/xlink"><linearGradient id="linear-gradient" gradientUnits="userSpaceOnUse" x1="3.25" x2="60.75" y1="32" y2="32"><stop offset="0" stop-color="#5bb4f6"/><stop offset=".61" stop-color="#2191e5"/><stop offset="1" stop-color="#007edb"/></linearGradient><g id="Layer_85" data-name="Layer 85"><rect fill="url(#linear-gradient)" height="57.5" rx="12.75" width="57.5" x="3.25" y="3.25"/><path d="m52.08 37.14a20.05 20.05 0 0 0 0-10.28.78.78 0 0 0 -.09-.34 20.79 20.79 0 0 0 -14.5-14.52.78.78 0 0 0 -.34-.09 20.05 20.05 0 0 0 -10.28 0 .78.78 0 0 0 -.34.09 20.79 20.79 0 0 0 -14.53 14.51.78.78 0 0 0 -.09.34 20.05 20.05 0 0 0 0 10.28.78.78 0 0 0 .09.34 20.79 20.79 0 0 0 14.51 14.53.78.78 0 0 0 .34.09 20.05 20.05 0 0 0 10.28 0 .78.78 0 0 0 .34-.09 20.79 20.79 0 0 0 14.53-14.51.78.78 0 0 0 .09-.34zm-20.08 3.86a9 9 0 1 1 9-9 9 9 0 0 1 -9 9zm-19.25-9a18.8 18.8 0 0 1 .53-4.4h9.2a10.37 10.37 0 0 0 0 8.8h-9.2a18.8 18.8 0 0 1 -.53-4.4zm28.77-4.4h9.2a18.53 18.53 0 0 1 0 8.8h-9.2a10.37 10.37 0 0 0 0-8.8zm8.8-1.5h-9.65a10.43 10.43 0 0 0 -2.77-2.77v-9.65a19.37 19.37 0 0 1 12.42 12.42zm-13.92-12.82v9.2a10.37 10.37 0 0 0 -8.8 0v-9.2a18.53 18.53 0 0 1 8.8 0zm-10.3.4v9.65a10.43 10.43 0 0 0 -2.77 2.77h-9.65a19.37 19.37 0 0 1 12.42-12.42zm-12.42 24.22h9.65a10.43 10.43 0 0 0 2.77 2.77v9.65a19.37 19.37 0 0 1 -12.42-12.42zm13.92 12.82v-9.2a10.37 10.37 0 0 0 8.8 0v9.2a18.53 18.53 0 0 1 -8.8 0zm10.3-.4v-9.65a10.43 10.43 0 0 0 2.77-2.77h9.65a19.37 19.37 0 0 1 -12.42 12.42z" fill="#fff"/></g></svg>