<svg height="512" viewBox="0 0 64 64" width="512" xmlns="http://www.w3.org/2000/svg" xmlns:xlink="http://www.w3.org/1999/xlink"><linearGradient id="linear-gradient" gradientUnits="userSpaceOnUse" x1="3.25" x2="60.75" y1="32" y2="32"><stop offset="0" stop-color="#5bb4f6"/><stop offset=".61" stop-color="#2191e5"/><stop offset="1" stop-color="#007edb"/></linearGradient><g id="Layer_20" data-name="Layer 20"><rect fill="url(#linear-gradient)" height="57.5" rx="12.75" width="57.5" x="3.25" y="3.25"/><g fill="#fff"><path d="m43.46 19.63h-6.46v-7.63a.76.76 0 0 0 -.75-.75h-8.46a.76.76 0 0 0 -.79.75v7.59h-6.5a.75.75 0 0 0 -.75.75v28.2a.74.74 0 0 0 .75.75h4.57v2.71a.75.75 0 0 0 1.5 0v-2.67h10.82v2.67a.75.75 0 0 0 1.5 0v-2.67h4.57a.74.74 0 0 0 .75-.75v-28.2a.75.75 0 0 0 -.75-.75zm-14.92-6.84h6.92v6.84h-6.92zm14.17 35h-21.42v-26.66h21.42z"/><path d="m27.79 25.86a.75.75 0 0 0 -.75.75v15.29a.75.75 0 0 0 1.5 0v-15.29a.75.75 0 0 0 -.75-.75z"/><path d="m35.46 26.61v15.29a.75.75 0 0 0 1.5 0v-15.29a.75.75 0 0 0 -1.5 0z"/></g></g></svg>