<svg height="512" viewBox="0 0 64 64" width="512" xmlns="http://www.w3.org/2000/svg" xmlns:xlink="http://www.w3.org/1999/xlink"><linearGradient id="linear-gradient" gradientUnits="userSpaceOnUse" x1="3.25" x2="60.75" y1="32" y2="32"><stop offset="0" stop-color="#5bb4f6"/><stop offset=".61" stop-color="#2191e5"/><stop offset="1" stop-color="#007edb"/></linearGradient><g id="Layer_17" data-name="Layer 17"><rect fill="url(#linear-gradient)" height="57.5" rx="12.75" width="57.5" x="3.25" y="3.25"/><g fill="#fff"><path d="m37.58 28.11-5.32-2.11a.75.75 0 0 0 -.55 0l-5.32 2.09a.75.75 0 0 0 -.42 1 .74.74 0 0 0 .7.48.86.86 0 0 0 .27 0l5-2 5 2a.76.76 0 0 0 1-.43.75.75 0 0 0 -.36-1.03z"/><path d="m37.58 33.13-5.32-2.13a.75.75 0 0 0 -.55 0l-5.32 2.09a.75.75 0 0 0 -.42 1 .74.74 0 0 0 .7.48.86.86 0 0 0 .27 0l5-2 5 2a.76.76 0 0 0 1-.43.75.75 0 0 0 -.36-1.01z"/><path d="m47.58 18.81a5.17 5.17 0 0 0 -5.13 4.66l-10.19-4a.75.75 0 0 0 -.55 0l-10.16 4a5.17 5.17 0 0 0 -10.32.53v5.28a9.63 9.63 0 0 0 9.63 9.62h.31a9.52 9.52 0 0 0 6.7 5c1.14.46 2.86 1.42 4.12 1.34 1.25.08 3-.88 4.11-1.34a9.5 9.5 0 0 0 6.7-5h.34a9.62 9.62 0 0 0 9.62-9.62v-5.28a5.19 5.19 0 0 0 -5.18-5.19zm-27.47 18.56a8.14 8.14 0 0 1 -7.38-8.09v-5.28a3.69 3.69 0 1 1 7.38 0zm15.65 5h-.17l-2.24 1c-1.64.87-3.63-.48-5.13-1a8 8 0 0 1 -6.61-7.37v-9.95l10.39-4.05 10.4 4.08v9.43a8.08 8.08 0 0 1 -.73 3.36 8 8 0 0 1 -5.91 4.52zm15.5-13.11a8.13 8.13 0 0 1 -7.37 8.09v-13.35a3.69 3.69 0 1 1 7.37 0z"/></g></g></svg>