<svg height="512" viewBox="0 0 64 64" width="512" xmlns="http://www.w3.org/2000/svg" xmlns:xlink="http://www.w3.org/1999/xlink"><linearGradient id="linear-gradient" gradientUnits="userSpaceOnUse" x1="3.25" x2="60.75" y1="32" y2="32"><stop offset="0" stop-color="#5bb4f6"/><stop offset=".61" stop-color="#2191e5"/><stop offset="1" stop-color="#007edb"/></linearGradient><g id="Layer_22" data-name="Layer 22"><rect fill="url(#linear-gradient)" height="57.5" rx="12.75" width="57.5" x="3.25" y="3.25"/><g fill="#fff"><path d="m52.74 27.31a.84.84 0 0 0 -.28-.55l-18.77-14.66a2.73 2.73 0 0 0 -3.38 0l-18.77 14.66a.9.9 0 0 0 -.29.59v22.38a2.75 2.75 0 0 0 2.75 2.75h36a2.75 2.75 0 0 0 2.75-2.75v-22.38s-.01-.03-.01-.04zm-2.74 23.69h-36a1.25 1.25 0 0 1 -1.25-1.25v-22l18.48-14.47a1.26 1.26 0 0 1 1.54 0l18.48 14.44v22a1.25 1.25 0 0 1 -1.25 1.28z"/><path d="m46.16 31.14-14.16 11.06-14.16-11.06a.75.75 0 1 0 -.92 1.18l14.62 11.42a.74.74 0 0 0 .92 0l14.62-11.42a.75.75 0 1 0 -.92-1.18z"/></g></g></svg>