<svg height="512" viewBox="0 0 64 64" width="512" xmlns="http://www.w3.org/2000/svg" xmlns:xlink="http://www.w3.org/1999/xlink"><linearGradient id="linear-gradient" gradientUnits="userSpaceOnUse" x1="3.25" x2="60.75" y1="32" y2="32"><stop offset="0" stop-color="#5bb4f6"/><stop offset=".61" stop-color="#2191e5"/><stop offset="1" stop-color="#007edb"/></linearGradient><g id="Layer_21" data-name="Layer 21"><rect fill="url(#linear-gradient)" height="57.5" rx="12.75" width="57.5" x="3.25" y="3.25"/><g fill="#fff"><path d="m42.68 11.27h-21.36a2.75 2.75 0 0 0 -2.75 2.73v36a2.75 2.75 0 0 0 2.75 2.75h21.36a2.75 2.75 0 0 0 2.75-2.75v-36a2.75 2.75 0 0 0 -2.75-2.73zm1.25 38.73a1.25 1.25 0 0 1 -1.25 1.25h-21.36a1.25 1.25 0 0 1 -1.25-1.25v-36a1.25 1.25 0 0 1 1.25-1.25h21.36a1.25 1.25 0 0 1 1.25 1.25z"/><path d="m49.17 18.68h2.83a.75.75 0 0 0 0-1.5h-2.83a.75.75 0 0 0 0 1.5z"/><path d="m52 26.56h-2.83a.75.75 0 0 0 0 1.5h2.83a.75.75 0 0 0 0-1.5z"/><path d="m52 35.94h-2.83a.75.75 0 0 0 0 1.5h2.83a.75.75 0 0 0 0-1.5z"/><path d="m52 45.32h-2.83a.75.75 0 0 0 0 1.5h2.83a.75.75 0 0 0 0-1.5z"/><path d="m14.83 17.18h-2.83a.75.75 0 0 0 0 1.5h2.83a.75.75 0 0 0 0-1.5z"/><path d="m14.83 26.56h-2.83a.75.75 0 0 0 0 1.5h2.83a.75.75 0 1 0 0-1.5z"/><path d="m14.83 35.94h-2.83a.75.75 0 0 0 0 1.5h2.83a.75.75 0 0 0 0-1.5z"/><path d="m14.83 45.32h-2.83a.75.75 0 0 0 0 1.5h2.83a.75.75 0 0 0 0-1.5z"/></g></g></svg>