<svg height="512" viewBox="0 0 64 64" width="512" xmlns="http://www.w3.org/2000/svg" xmlns:xlink="http://www.w3.org/1999/xlink"><linearGradient id="linear-gradient" gradientUnits="userSpaceOnUse" x1="3.25" x2="60.75" y1="32" y2="32"><stop offset="0" stop-color="#5bb4f6"/><stop offset=".61" stop-color="#2191e5"/><stop offset="1" stop-color="#007edb"/></linearGradient><g id="Layer_61" data-name="Layer 61"><rect fill="url(#linear-gradient)" height="57.5" rx="12.75" width="57.5" x="3.25" y="3.25"/><path d="m52 17.54h-4.77v-5.54a.76.76 0 0 0 -.75-.75h-34.48a.76.76 0 0 0 -.75.75v12.58a.76.76 0 0 0 .75.75h34.48a.76.76 0 0 0 .75-.75v-5.58h4v10.65l-21.6 3.23a.74.74 0 0 0 -.64.74v5h-1.51a.74.74 0 0 0 -.75.75v12.63a.75.75 0 0 0 .75.75h4.52a.76.76 0 0 0 .75-.75v-12.63a.75.75 0 0 0 -.75-.75h-1.51v-4.35l21.62-3.27a.74.74 0 0 0 .64-.74v-12a.76.76 0 0 0 -.75-.72zm-6.27 6.29h-33v-11.08h33zm-14.48 27.42h-3v-11.13h3z" fill="#fff"/></g></svg>