<svg height="512" viewBox="0 0 64 64" width="512" xmlns="http://www.w3.org/2000/svg" xmlns:xlink="http://www.w3.org/1999/xlink"><linearGradient id="linear-gradient" gradientUnits="userSpaceOnUse" x1="3.25" x2="60.75" y1="32" y2="32"><stop offset="0" stop-color="#5bb4f6"/><stop offset=".61" stop-color="#2191e5"/><stop offset="1" stop-color="#007edb"/></linearGradient><g id="Layer_56" data-name="Layer 56"><rect fill="url(#linear-gradient)" height="57.5" rx="12.75" width="57.5" x="3.25" y="3.25"/><g fill="#fff"><path d="m46.07 41.44a19.8 19.8 0 0 0 -8.13-8.69 12.85 12.85 0 0 0 -12.65 0 19.9 19.9 0 0 0 -8.14 8.7l-.76 1.55a6.21 6.21 0 0 0 1.77 7.57 6.14 6.14 0 0 0 5.37 1.09l4.12-1.45a11.83 11.83 0 0 1 7.9 0l4.19 1.49a6.19 6.19 0 0 0 7.08-8.7zm-1.94 7.92a4.6 4.6 0 0 1 -4 .87c-2.5-.85-5.91-2.36-8.57-2.22-2.65-.14-6 1.35-8.5 2.2a4.64 4.64 0 0 1 -4-.85 4.7 4.7 0 0 1 -1.34-5.73l.74-1.54a18.54 18.54 0 0 1 7.54-8.09 11.34 11.34 0 0 1 11.17 0 18.48 18.48 0 0 1 7.53 8.05l.75 1.54a4.71 4.71 0 0 1 -1.32 5.77z"/><path d="m17.86 34.45a3.08 3.08 0 0 0 1.31-2.69 6.46 6.46 0 0 0 -1-3.35 6.32 6.32 0 0 0 -2.62-2.41 3 3 0 0 0 -3 0 3 3 0 0 0 -1.31 2.69 6.28 6.28 0 0 0 1 3.34 5.29 5.29 0 0 0 4.14 2.75 2.66 2.66 0 0 0 1.48-.33zm-4.31-3.15a4.9 4.9 0 0 1 -.8-2.53 1.7 1.7 0 0 1 .61-1.44 1.16 1.16 0 0 1 .62-.17 2.27 2.27 0 0 1 .94.24 4.89 4.89 0 0 1 1.94 1.81 4.92 4.92 0 0 1 .81 2.54 1.72 1.72 0 0 1 -.61 1.43c-.79.5-2.42-.18-3.51-1.88z"/><path d="m24.31 26.87a3.62 3.62 0 0 0 1.5.34 3.1 3.1 0 0 0 1.19-.21c2.39-1 3.26-5 2-9.09-.82-2.59-2.34-4.61-4.06-5.39a3.32 3.32 0 0 0 -2.7-.1c-2.39 1-3.25 5-2 9.09.84 2.56 2.36 4.58 4.07 5.36zm-1.5-13.1a1.58 1.58 0 0 1 .61-.12 2.12 2.12 0 0 1 .87.21c1.32.6 2.57 2.32 3.25 4.48 1.14 3.56.34 6.62-1.12 7.25a1.76 1.76 0 0 1 -1.48-.09c-1.32-.6-2.57-2.31-3.26-4.48-1.13-3.56-.33-6.62 1.13-7.25z"/><path d="m51.44 26.07a3 3 0 0 0 -3 0 6.32 6.32 0 0 0 -2.58 2.37 6.46 6.46 0 0 0 -1 3.35 3.08 3.08 0 0 0 1.31 2.69 2.66 2.66 0 0 0 1.43.4 5.29 5.29 0 0 0 4.14-2.75 6.28 6.28 0 0 0 1-3.34 3 3 0 0 0 -1.3-2.72zm-1 5.23c-1.09 1.73-2.73 2.38-3.51 1.88a1.72 1.72 0 0 1 -.61-1.43 4.92 4.92 0 0 1 .81-2.54 4.89 4.89 0 0 1 1.94-1.81 2.28 2.28 0 0 1 .94-.23 1.15 1.15 0 0 1 .62.16 1.7 1.7 0 0 1 .61 1.44 4.9 4.9 0 0 1 -.79 2.53z"/><path d="m37 27a3.1 3.1 0 0 0 1.2.24 3.62 3.62 0 0 0 1.5-.34c1.71-.78 3.23-2.8 4.06-5.39 1.29-4.06.43-8-2-9.09a3.32 3.32 0 0 0 -2.7.1c-1.72.78-3.24 2.8-4.06 5.39-1.27 4.09-.4 8.03 2 9.09zm-.53-8.63c.68-2.16 1.93-3.88 3.25-4.48a2.12 2.12 0 0 1 .87-.21 1.58 1.58 0 0 1 .61.12c1.46.63 2.26 3.69 1.13 7.25-.69 2.17-1.94 3.88-3.26 4.48a1.76 1.76 0 0 1 -1.48.09c-1.47-.62-2.27-3.72-1.13-7.28z"/></g></g></svg>