<svg height="512" viewBox="0 0 64 64" width="512" xmlns="http://www.w3.org/2000/svg" xmlns:xlink="http://www.w3.org/1999/xlink"><linearGradient id="linear-gradient" gradientUnits="userSpaceOnUse" x1="3.25" x2="60.75" y1="32" y2="32"><stop offset="0" stop-color="#5bb4f6"/><stop offset=".61" stop-color="#2191e5"/><stop offset="1" stop-color="#007edb"/></linearGradient><g id="Layer_95" data-name="Layer 95"><rect fill="url(#linear-gradient)" height="57.5" rx="12.75" width="57.5" x="3.25" y="3.25"/><g fill="#fff"><path d="m44.1 14-5.39-2.66a.78.78 0 0 0 -.58 0 .77.77 0 0 0 -.43.38l-18.14 37.28a.75.75 0 0 0 .34 1l5.39 2.66a.8.8 0 0 0 .33.08.69.69 0 0 0 .25 0 .77.77 0 0 0 .43-.38l18.14-37.36a.75.75 0 0 0 -.34-1zm-18.82 37-4.05-2 17.49-36 4.05 2z"/><path d="m26.19 19a7.67 7.67 0 0 0 -9.75-4.82 7.76 7.76 0 0 0 -4.77 9.82 7.64 7.64 0 0 0 9.75 4.82 7.76 7.76 0 0 0 4.77-9.82zm-10 8.12a6.2 6.2 0 0 1 -3.15-3.59 6.22 6.22 0 0 1 5.85-8.27 6.17 6.17 0 0 1 5.84 4.22 6.26 6.26 0 0 1 -3.84 7.93 6.09 6.09 0 0 1 -4.66-.26z"/><path d="m52.33 40a7.65 7.65 0 0 0 -9.75-4.82 7.76 7.76 0 0 0 -4.77 9.82 7.62 7.62 0 0 0 3.9 4.45 7.49 7.49 0 0 0 3.35.79 7.71 7.71 0 0 0 7.27-10.24zm-5.26 8.41a6.09 6.09 0 0 1 -4.7-.29 6.15 6.15 0 0 1 -3.14-3.59 6.26 6.26 0 0 1 3.84-7.93 6 6 0 0 1 2-.34 6.11 6.11 0 0 1 2.7.63 6.2 6.2 0 0 1 3.15 3.59 6.27 6.27 0 0 1 -3.85 7.89z"/></g></g></svg>