<svg height="512" viewBox="0 0 64 64" width="512" xmlns="http://www.w3.org/2000/svg" xmlns:xlink="http://www.w3.org/1999/xlink"><linearGradient id="linear-gradient" gradientUnits="userSpaceOnUse" x1="3.25" x2="60.75" y1="32" y2="32"><stop offset="0" stop-color="#5bb4f6"/><stop offset=".61" stop-color="#2191e5"/><stop offset="1" stop-color="#007edb"/></linearGradient><g id="Layer_88" data-name="Layer 88"><rect fill="url(#linear-gradient)" height="57.5" rx="12.75" width="57.5" x="3.25" y="3.25"/><g fill="#fff"><path d="m52 14.75h-40a.76.76 0 0 0 -.75.75v33a.76.76 0 0 0 .75.75h40a.76.76 0 0 0 .75-.75v-33a.76.76 0 0 0 -.75-.75zm-.75 1.5v21.85l-11.4-11.4a.75.75 0 0 0 -1.06 0l-9.56 9.56-4.36-4.36a.75.75 0 0 0 -1.06 0l-11.06 11.1v-26.75zm-38.5 31.5v-2.67l11.59-11.59 4.36 4.36 6.18 6.15a.75.75 0 0 0 1.06-1l-5.65-5.65 9-9 11.96 11.87v7.53z"/><path d="m22.42 26.79a3.39 3.39 0 1 0 -3.42-3.39 3.4 3.4 0 0 0 3.42 3.39zm0-5.28a1.89 1.89 0 1 1 -1.89 1.89 1.89 1.89 0 0 1 1.89-1.89z"/></g></g></svg>