<svg height="512" viewBox="0 0 64 64" width="512" xmlns="http://www.w3.org/2000/svg" xmlns:xlink="http://www.w3.org/1999/xlink"><linearGradient id="linear-gradient" gradientUnits="userSpaceOnUse" x1="3.25" x2="60.75" y1="32" y2="32"><stop offset="0" stop-color="#5bb4f6"/><stop offset=".61" stop-color="#2191e5"/><stop offset="1" stop-color="#007edb"/></linearGradient><g id="Layer_77" data-name="Layer 77"><rect fill="url(#linear-gradient)" height="57.5" rx="12.75" width="57.5" x="3.25" y="3.25"/><g fill="#fff"><path d="m32 43.88a.76.76 0 0 0 .58-.28c.47-.58 11.3-14.14 11.3-20.47a11.88 11.88 0 0 0 -23.76 0c0 6.33 10.88 19.87 11.3 20.47a.76.76 0 0 0 .58.28zm0-31.13a10.4 10.4 0 0 1 10.38 10.38c0 5-8.11 15.85-10.38 18.78-2.27-2.91-10.38-13.76-10.38-18.78a10.4 10.4 0 0 1 10.38-10.38z"/><path d="m36.78 23.13a4.78 4.78 0 1 0 -4.78 4.78 4.79 4.79 0 0 0 4.78-4.78zm-8.06 0a3.28 3.28 0 1 1 3.28 3.28 3.28 3.28 0 0 1 -3.28-3.28z"/><path d="m43 37.8a.75.75 0 0 0 -.48 1.42c3.91 1.31 6.24 3.27 6.24 5.24 0 3.55-7.41 6.66-16.22 6.78h-1.11c-8.78-.12-16.19-3.23-16.19-6.78 0-2 2.33-3.93 6.24-5.24a.75.75 0 0 0 -.48-1.42c-4.61 1.55-7.26 4-7.26 6.66 0 4.58 7.6 8.14 17.64 8.28h1.21c10.07-.14 17.67-3.7 17.67-8.28 0-2.68-2.65-5.11-7.26-6.66z"/></g></g></svg>