<svg height="512" viewBox="0 0 64 64" width="512" xmlns="http://www.w3.org/2000/svg" xmlns:xlink="http://www.w3.org/1999/xlink"><linearGradient id="linear-gradient" gradientUnits="userSpaceOnUse" x1="3.25" x2="60.75" y1="32" y2="32"><stop offset="0" stop-color="#5bb4f6"/><stop offset=".61" stop-color="#2191e5"/><stop offset="1" stop-color="#007edb"/></linearGradient><g id="Layer_44" data-name="Layer 44"><rect fill="url(#linear-gradient)" height="57.5" rx="12.75" width="57.5" x="3.25" y="3.25"/><path d="m36.06 49.75h-8.12a.76.76 0 0 1 -.75-.75v-12.19h-12.19a.76.76 0 0 1 -.75-.75v-8.12a.76.76 0 0 1 .75-.75h12.19v-12.19a.76.76 0 0 1 .75-.75h8.12a.76.76 0 0 1 .75.75v12.19h12.19a.76.76 0 0 1 .75.75v8.12a.76.76 0 0 1 -.75.75h-12.19v12.19a.76.76 0 0 1 -.75.75zm-7.37-1.5h6.62v-12.19a.76.76 0 0 1 .75-.75h12.19v-6.62h-12.19a.76.76 0 0 1 -.75-.75v-12.19h-6.62v12.19a.76.76 0 0 1 -.75.75h-12.19v6.62h12.19a.76.76 0 0 1 .75.75z" fill="#fff"/></g></svg>