<svg height="512" viewBox="0 0 64 64" width="512" xmlns="http://www.w3.org/2000/svg" xmlns:xlink="http://www.w3.org/1999/xlink"><linearGradient id="linear-gradient" gradientUnits="userSpaceOnUse" x1="3.25" x2="60.75" y1="32" y2="32"><stop offset="0" stop-color="#5bb4f6"/><stop offset=".61" stop-color="#2191e5"/><stop offset="1" stop-color="#007edb"/></linearGradient><g id="Layer_13" data-name="Layer 13"><rect fill="url(#linear-gradient)" height="57.5" rx="12.75" width="57.5" x="3.25" y="3.25"/><g fill="#fff"><path d="m42.14 19.38h-2.07v-7.38a.75.75 0 0 0 -1.5 0v7.38h-13.14v-7.38a.75.75 0 0 0 -1.5 0v7.38h-2.07a2.75 2.75 0 0 0 -2.75 2.75v21a2.75 2.75 0 0 0 2.75 2.75h4.19v6.12a.76.76 0 0 0 .75.75h10.4a.76.76 0 0 0 .8-.75v-6.1h4.19a2.75 2.75 0 0 0 2.75-2.75v-21a2.75 2.75 0 0 0 -2.8-2.77zm1.25 23.77a1.25 1.25 0 0 1 -1.25 1.25h-4.94a.76.76 0 0 0 -.75.75v6.1h-8.9v-6.1a.76.76 0 0 0 -.75-.75h-4.94a1.25 1.25 0 0 1 -1.25-1.25v-21a1.24 1.24 0 0 1 1.25-1.25h20.28a1.24 1.24 0 0 1 1.25 1.25z"/><path d="m35.61 25.84a.75.75 0 0 0 -1.06 0l-6.12 5.65a.75.75 0 0 0 .51 1.3h4.2l-4.71 4.31a.75.75 0 0 0 .51 1.3.78.78 0 0 0 .51-.2l6.12-5.65a.75.75 0 0 0 -.51-1.3h-4.2l4.71-4.35a.75.75 0 0 0 .04-1.06z"/></g></g></svg>