<svg height="512" viewBox="0 0 64 64" width="512" xmlns="http://www.w3.org/2000/svg" xmlns:xlink="http://www.w3.org/1999/xlink"><linearGradient id="linear-gradient" gradientUnits="userSpaceOnUse" x1="3.25" x2="60.75" y1="32" y2="32"><stop offset="0" stop-color="#5bb4f6"/><stop offset=".61" stop-color="#2191e5"/><stop offset="1" stop-color="#007edb"/></linearGradient><g id="Layer_92" data-name="Layer 92"><rect fill="url(#linear-gradient)" height="57.5" rx="12.75" width="57.5" x="3.25" y="3.25"/><path d="m32 52.75a.74.74 0 0 1 -.46-.16l-7.06-5.41a24.16 24.16 0 0 1 -8.62-13.18 24.82 24.82 0 0 1 -.7-7.87l.71-10.13a.76.76 0 0 1 .56-.68l15.38-4a.81.81 0 0 1 .38 0l15.38 4a.76.76 0 0 1 .56.68l.71 10.13a24.82 24.82 0 0 1 -.7 7.87 24.16 24.16 0 0 1 -8.62 13.19l-7.06 5.41a.74.74 0 0 1 -.46.15zm-14.67-36.12-.68 9.59a23.64 23.64 0 0 0 .66 7.4 22.62 22.62 0 0 0 8.09 12.38l6.6 5.05 6.6-5.05a22.62 22.62 0 0 0 8.09-12.37 23.64 23.64 0 0 0 .66-7.4l-.68-9.59-14.67-3.86z" fill="#fff"/></g></svg>