<svg height="512" viewBox="0 0 64 64" width="512" xmlns="http://www.w3.org/2000/svg" xmlns:xlink="http://www.w3.org/1999/xlink"><linearGradient id="linear-gradient" gradientUnits="userSpaceOnUse" x1="3.25" x2="60.75" y1="32" y2="32"><stop offset="0" stop-color="#5bb4f6"/><stop offset=".61" stop-color="#2191e5"/><stop offset="1" stop-color="#007edb"/></linearGradient><g id="Layer_100" data-name="Layer 100"><rect fill="url(#linear-gradient)" height="57.5" rx="12.75" width="57.5" x="3.25" y="3.25"/><path d="m47.8 31.23h-3.44v-10.84a.75.75 0 0 0 -.75-.75h-10.86v-3.44a4.95 4.95 0 1 0 -9.89 0v3.44h-10.86a.76.76 0 0 0 -.75.75v31.61a.76.76 0 0 0 .75.75h11.61a.79.79 0 0 0 .39-.11.76.76 0 0 0 .36-.64v-4.2a3.45 3.45 0 1 1 6.89 0v4.2a.77.77 0 0 0 .76.75h11.6a.75.75 0 0 0 .75-.75v-10.88h3.44a4.95 4.95 0 1 0 0-9.89zm0 8.39h-4.3a.75.75 0 0 0 -.64.8v10.83h-10.11v-3.45a4.95 4.95 0 1 0 -9.89 0v3.45h-10.11v-30.11h10.79a.77.77 0 0 0 .46-.14.75.75 0 0 0 .38-.65v-4.15a3.45 3.45 0 1 1 6.89 0v4.19a.75.75 0 0 0 .75.75h10.84v10.86a.74.74 0 0 0 .75.75h4.19a3.45 3.45 0 1 1 0 6.89z" fill="#fff"/></g></svg>