<svg height="512" viewBox="0 0 64 64" width="512" xmlns="http://www.w3.org/2000/svg" xmlns:xlink="http://www.w3.org/1999/xlink"><linearGradient id="linear-gradient" gradientUnits="userSpaceOnUse" x1="3.25" x2="60.75" y1="32" y2="32"><stop offset="0" stop-color="#5bb4f6"/><stop offset=".61" stop-color="#2191e5"/><stop offset="1" stop-color="#007edb"/></linearGradient><g id="Layer_45" data-name="Layer 45"><rect fill="url(#linear-gradient)" height="57.5" rx="12.75" width="57.5" x="3.25" y="3.25"/><path d="m41.65 48.46a.74.74 0 0 1 -.53-.22l-9.12-9.12-9.12 9.12a.74.74 0 0 1 -1.06 0l-6.06-6.06a.74.74 0 0 1 0-1.06l9.12-9.12-9.12-9.12a.74.74 0 0 1 0-1.06l6.06-6.06a.74.74 0 0 1 1.06 0l9.12 9.12 9.12-9.12a.74.74 0 0 1 1.06 0l6.06 6.06a.74.74 0 0 1 0 1.06l-9.12 9.12 9.12 9.12a.74.74 0 0 1 0 1.06l-6.06 6.06a.71.71 0 0 1 -.53.22zm-9.65-11.15a.74.74 0 0 1 .53.22l9.12 9.12 5-5-9.12-9.12a.74.74 0 0 1 0-1.06l9.12-9.12-5-5-9.12 9.12a.74.74 0 0 1 -1.06 0l-9.12-9.12-5 5 9.12 9.12a.74.74 0 0 1 0 1.06l-9.12 9.12 5 5 9.12-9.12a.74.74 0 0 1 .53-.22z" fill="#fff"/></g></svg>