<svg height="512" viewBox="0 0 64 64" width="512" xmlns="http://www.w3.org/2000/svg" xmlns:xlink="http://www.w3.org/1999/xlink"><linearGradient id="linear-gradient" gradientUnits="userSpaceOnUse" x1="3.25" x2="60.75" y1="32" y2="32"><stop offset="0" stop-color="#5bb4f6"/><stop offset=".61" stop-color="#2191e5"/><stop offset="1" stop-color="#007edb"/></linearGradient><g id="Layer_94" data-name="Layer 94"><rect fill="url(#linear-gradient)" height="57.5" rx="12.75" width="57.5" x="3.25" y="3.25"/><g fill="#fff"><path d="m43.49 35.4 1.13-1.13a27.69 27.69 0 0 0 8-22.22.77.77 0 0 0 -.68-.68 27.67 27.67 0 0 0 -22.22 8l-1.12 1.14-2-2a.75.75 0 0 0 -.93-.1l-14.07 8.83a.77.77 0 0 0 -.35.55.77.77 0 0 0 .22.61l7.63 7.6-4.38 4.38a.75.75 0 0 0 0 1.06l7.81 7.81a.74.74 0 0 0 .53.22.73.73 0 0 0 .53-.22l4.41-4.35 7.63 7.63a.75.75 0 0 0 1.16-.13l8.81-14.07a.75.75 0 0 0 -.1-.93zm-17.49-15.4 1.58 1.58-10.43 10.42-3.95-4zm4.83.45a26.23 26.23 0 0 1 20.4-7.63 26.19 26.19 0 0 1 -7.63 20.4l-12.6 12.57-12.79-12.79zm-7.77 27.24-6.75-6.75 3.85-3.85 6.75 6.75zm12.94 3.11-4-3.95 10.43-10.39 1.57 1.54z"/><path d="m40.45 27.8a4.23 4.23 0 1 0 -3-1.24 4.24 4.24 0 0 0 3 1.24zm-2-6.2a2.76 2.76 0 1 1 3.9 3.9 2.83 2.83 0 0 1 -3.9 0 2.78 2.78 0 0 1 0-3.9z"/><path d="m15.31 45.4a.75.75 0 0 0 -1.06 0l-2.25 2.28a.77.77 0 0 0 0 1.07.77.77 0 0 0 .53.21.74.74 0 0 0 .53-.21l2.29-2.29a.75.75 0 0 0 -.04-1.06z"/><path d="m17.54 48.69-2.29 2.31a.75.75 0 0 0 0 1.06.79.79 0 0 0 .53.22.75.75 0 0 0 .53-.22l2.29-2.29a.75.75 0 0 0 -1.06-1.06z"/></g></g></svg>