<svg height="512" viewBox="0 0 64 64" width="512" xmlns="http://www.w3.org/2000/svg" xmlns:xlink="http://www.w3.org/1999/xlink"><linearGradient id="linear-gradient" gradientUnits="userSpaceOnUse" x1="3.25" x2="60.75" y1="32" y2="32"><stop offset="0" stop-color="#5bb4f6"/><stop offset=".61" stop-color="#2191e5"/><stop offset="1" stop-color="#007edb"/></linearGradient><g id="Layer_97" data-name="Layer 97"><rect fill="url(#linear-gradient)" height="57.5" rx="12.75" width="57.5" x="3.25" y="3.25"/><g fill="#fff"><path d="m23.71 16.28a.75.75 0 0 0 0 1.5 22.54 22.54 0 0 1 22.51 22.51.75.75 0 0 0 1.5 0 24 24 0 0 0 -24.01-24.01z"/><path d="m23.71 24.57a.75.75 0 0 0 0 1.5 14.24 14.24 0 0 1 14.22 14.22.75.75 0 0 0 1.5 0 15.74 15.74 0 0 0 -15.72-15.72z"/><path d="m23.71 32.87a7.43 7.43 0 1 0 7.42 7.42 7.43 7.43 0 0 0 -7.42-7.42zm0 13.35a5.93 5.93 0 1 1 5.92-5.93 5.94 5.94 0 0 1 -5.92 5.93z"/><path d="m50 11.25h-36a2.75 2.75 0 0 0 -2.75 2.75v36a2.75 2.75 0 0 0 2.75 2.75h36a2.75 2.75 0 0 0 2.75-2.75v-36a2.75 2.75 0 0 0 -2.75-2.75zm1.25 38.75a1.25 1.25 0 0 1 -1.25 1.25h-36a1.25 1.25 0 0 1 -1.25-1.25v-36a1.25 1.25 0 0 1 1.25-1.25h36a1.25 1.25 0 0 1 1.25 1.25z"/></g></g></svg>