<svg height="512" viewBox="0 0 64 64" width="512" xmlns="http://www.w3.org/2000/svg" xmlns:xlink="http://www.w3.org/1999/xlink"><linearGradient id="linear-gradient" gradientUnits="userSpaceOnUse" x1="3.25" x2="60.75" y1="32" y2="32"><stop offset="0" stop-color="#5bb4f6"/><stop offset=".61" stop-color="#2191e5"/><stop offset="1" stop-color="#007edb"/></linearGradient><g id="Layer_18" data-name="Layer 18"><rect fill="url(#linear-gradient)" height="57.5" rx="12.75" width="57.5" x="3.25" y="3.25"/><path d="m52.74 25.52a.77.77 0 0 0 -.37-.61l-20-11.54a.72.72 0 0 0 -.75 0l-20 11.54a.77.77 0 0 0 0 1.3l4.88 2.79v12.47a.75.75 0 0 0 .38.65l14.75 8.51a.69.69 0 0 0 .37.1.75.75 0 0 0 .38-.1l14.74-8.51a.75.75 0 0 0 .38-.65v-12.47l3.75-2.17v9.58a.75.75 0 0 0 1.5 0v-10.85s-.01-.03-.01-.04zm-20.74-10.64 18.5 10.68-18.5 10.68-18.5-10.68zm14 26.12-14 8.12-14-8.12v-11.1l13.63 7.86a.83.83 0 0 0 .75 0l13.62-7.86z" fill="#fff"/></g></svg>