<?xml version="1.0" encoding="UTF-8"?>
<svg xmlns="http://www.w3.org/2000/svg" xmlns:xlink="http://www.w3.org/1999/xlink" viewBox="0 0 64 64" width="512" height="512"><defs><style>.cls-1{fill:url(#linear-gradient);}.cls-2{fill:#fff;}</style><linearGradient id="linear-gradient" x1="3.25" y1="32" x2="60.75" y2="32" gradientUnits="userSpaceOnUse"><stop offset="0" stop-color="#5bb4f6"/><stop offset="0.61" stop-color="#2191e5"/><stop offset="1" stop-color="#007edb"/></linearGradient></defs><g id="Layer_30" data-name="Layer 30"><rect class="cls-1" x="3.25" y="3.25" width="57.5" height="57.5" rx="12.75"/><path class="cls-2" d="M52,21.36a.76.76,0,0,0,.75-.75V12a.76.76,0,0,0-.75-.75H12a.76.76,0,0,0-.75.75v8.61a.76.76,0,0,0,.75.75h3.6V27H12a.75.75,0,0,0-.75.75v8.6a.75.75,0,0,0,.75.75h3.6v5.59H12a.76.76,0,0,0-.75.75V52a.76.76,0,0,0,.75.75H52a.76.76,0,0,0,.75-.75V43.39a.76.76,0,0,0-.75-.75H48.4V37.05H52a.75.75,0,0,0,.75-.75V27.7A.75.75,0,0,0,52,27H48.4V21.36Zm-.75,22.78v7.11H12.75V44.14ZM17.1,42.64V37.05H46.9v5.59ZM51.25,28.45v7.1H12.75v-7.1ZM17.1,27V21.36H46.9V27Zm-4.35-7.09V12.75h38.5v7.11Z"/><circle class="cls-2" cx="37.4" cy="16.3" r="1"/><circle class="cls-2" cx="45.2" cy="16.3" r="1"/><circle class="cls-2" cx="37.4" cy="32.01" r="1"/><circle class="cls-2" cx="45.2" cy="32.01" r="1"/><circle class="cls-2" cx="37.4" cy="47.71" r="1"/><circle class="cls-2" cx="45.2" cy="47.71" r="1"/></g></svg>
