<svg height="512" viewBox="0 0 64 64" width="512" xmlns="http://www.w3.org/2000/svg" xmlns:xlink="http://www.w3.org/1999/xlink"><linearGradient id="linear-gradient" gradientUnits="userSpaceOnUse" x1="3.25" x2="60.75" y1="32" y2="32"><stop offset="0" stop-color="#5bb4f6"/><stop offset=".61" stop-color="#2191e5"/><stop offset="1" stop-color="#007edb"/></linearGradient><g id="Layer_47" data-name="Layer 47"><rect fill="url(#linear-gradient)" height="57.5" rx="12.75" width="57.5" x="3.25" y="3.25"/><path d="m52 41h-4.39v-7a.76.76 0 0 0 -.75-.75h-14.11v-10.25h4.39a.75.75 0 0 0 .75-.75v-10.25a.76.76 0 0 0 -.75-.75h-10.28a.75.75 0 0 0 -.75.75v10.28a.74.74 0 0 0 .75.75h4.39v10.22h-14.11a.76.76 0 0 0 -.75.75v7h-4.39a.75.75 0 0 0 -.75.75v10.25a.76.76 0 0 0 .75.75h10.28a.75.75 0 0 0 .72-.75v-10.28a.74.74 0 0 0 -.75-.75h-4.36v-6.22h13.36v6.25h-4.39a.75.75 0 0 0 -.75.75v10.25a.76.76 0 0 0 .75.75h10.28a.76.76 0 0 0 .75-.75v-10.28a.75.75 0 0 0 -.75-.75h-4.39v-6.22h13.36v6.25h-4.39a.74.74 0 0 0 -.75.75v10.25a.75.75 0 0 0 .75.75h10.28a.76.76 0 0 0 .75-.75v-10.28a.75.75 0 0 0 -.75-.72zm-24.39-28.25h8.78v8.78h-8.78zm-6.08 38.5h-8.78v-8.78h8.78zm14.86 0h-8.78v-8.78h8.78zm14.86 0h-8.78v-8.78h8.78z" fill="#fff"/></g></svg>