<svg height="512" viewBox="0 0 64 64" width="512" xmlns="http://www.w3.org/2000/svg" xmlns:xlink="http://www.w3.org/1999/xlink"><linearGradient id="linear-gradient" gradientUnits="userSpaceOnUse" x1="3.25" x2="60.75" y1="32" y2="32"><stop offset="0" stop-color="#5bb4f6"/><stop offset=".61" stop-color="#2191e5"/><stop offset="1" stop-color="#007edb"/></linearGradient><g id="Layer_101" data-name="Layer 101"><rect fill="url(#linear-gradient)" height="57.5" rx="12.75" width="57.5" x="3.25" y="3.25"/><g fill="#fff"><path d="m12 17.07h23.25v3.58a.76.76 0 0 0 .75.75h8.65a.76.76 0 0 0 .75-.75v-3.58h6.6a.75.75 0 0 0 0-1.5h-6.6v-3.57a.76.76 0 0 0 -.75-.75h-8.65a.76.76 0 0 0 -.75.75v3.57h-23.25a.75.75 0 0 0 0 1.5zm24.75-4.32h7.15v7.15h-7.15z"/><path d="m52 31.25h-22.83v-3.57a.74.74 0 0 0 -.75-.75h-8.65a.75.75 0 0 0 -.75.75v3.57h-7.02a.75.75 0 0 0 0 1.5h7v3.57a.75.75 0 0 0 .75.75h8.65a.74.74 0 0 0 .75-.75v-3.57h22.85a.75.75 0 0 0 0-1.5zm-31.48 4.32v-7.14h7.15v3.57 3.56z"/><path d="m52 46.93h-6.6v-3.58a.76.76 0 0 0 -.75-.75h-8.65a.76.76 0 0 0 -.75.75v3.58h-23.25a.75.75 0 0 0 0 1.5h23.25v3.57a.76.76 0 0 0 .75.75h8.65a.76.76 0 0 0 .75-.75v-3.57h6.6a.75.75 0 0 0 0-1.5zm-8.1 4.32h-7.15v-7.15h7.15z"/></g></g></svg>