<svg height="512" viewBox="0 0 64 64" width="512" xmlns="http://www.w3.org/2000/svg" xmlns:xlink="http://www.w3.org/1999/xlink"><linearGradient id="linear-gradient" gradientUnits="userSpaceOnUse" x1="3.25" x2="60.75" y1="32" y2="32"><stop offset="0" stop-color="#5bb4f6"/><stop offset=".61" stop-color="#2191e5"/><stop offset="1" stop-color="#007edb"/></linearGradient><g id="Layer_14" data-name="Layer 14"><rect fill="url(#linear-gradient)" height="57.5" rx="12.75" width="57.5" x="3.25" y="3.25"/><path d="m48.12 32.75h3.88a.75.75 0 0 0 0-1.5h-3.88l4.39-4.39a.75.75 0 1 0 -1.06-1.06l-5.45 5.45h-12.19l8.62-8.62h7.71a.75.75 0 0 0 0-1.5h-6.21l2.74-2.74a.75.75 0 0 0 -1.06-1.06l-2.74 2.74v-6.21a.76.76 0 0 0 -.75-.75.75.75 0 0 0 -.75.75v7.71l-8.62 8.62v-12.19l5.45-5.45a.75.75 0 1 0 -1.06-1.06l-4.39 4.39v-3.88a.75.75 0 0 0 -1.5 0v3.88l-4.39-4.39a.75.75 0 1 0 -1.06 1.06l5.45 5.45v12.19l-8.63-8.63v-7.71a.75.75 0 1 0 -1.5 0v6.21l-2.73-2.73a.75.75 0 0 0 -1.06 1.06l2.73 2.73h-6.21a.75.75 0 1 0 0 1.5h7.71l8.63 8.63h-12.19l-5.47-5.45a.74.74 0 0 0 -1.06 0 .75.75 0 0 0 0 1.06l4.39 4.39h-3.86a.75.75 0 0 0 0 1.5h3.86l-4.39 4.39a.75.75 0 0 0 0 1.06.75.75 0 0 0 1.06 0l5.47-5.45h12.19l-8.63 8.63h-7.71a.75.75 0 0 0 0 1.5h6.21l-2.73 2.73a.74.74 0 0 0 0 1.06.73.73 0 0 0 .53.22.74.74 0 0 0 .53-.22l2.73-2.73v6.21a.75.75 0 0 0 1.5 0v-7.71l8.63-8.63v12.19l-5.45 5.47a.74.74 0 0 0 0 1.06.73.73 0 0 0 .53.22.74.74 0 0 0 .53-.22l4.39-4.39v3.86a.75.75 0 0 0 1.5 0v-3.86l4.39 4.39a.75.75 0 0 0 1.06 0 .74.74 0 0 0 0-1.06l-5.45-5.47v-12.19l8.62 8.62v7.71a.75.75 0 0 0 1.5 0v-6.21l2.74 2.74a.74.74 0 0 0 .53.22.73.73 0 0 0 .53-.22.74.74 0 0 0 0-1.06l-2.74-2.74h6.21a.75.75 0 0 0 0-1.5h-7.71l-8.62-8.62h12.19l5.45 5.45a.74.74 0 0 0 .53.22.73.73 0 0 0 .53-.22.74.74 0 0 0 0-1.06z" fill="#fff"/></g></svg>