<svg height="512" viewBox="0 0 64 64" width="512" xmlns="http://www.w3.org/2000/svg" xmlns:xlink="http://www.w3.org/1999/xlink"><linearGradient id="linear-gradient" gradientUnits="userSpaceOnUse" x1="3.25" x2="60.75" y1="32" y2="32"><stop offset="0" stop-color="#5bb4f6"/><stop offset=".61" stop-color="#2191e5"/><stop offset="1" stop-color="#007edb"/></linearGradient><g id="Layer_33" data-name="Layer 33"><rect fill="url(#linear-gradient)" height="57.5" rx="12.75" width="57.5" x="3.25" y="3.25"/><g fill="#fff"><path d="m17.75 29.1h28.5a.75.75 0 0 0 .68-.44.74.74 0 0 0 -.12-.8l-14.24-16.35a.78.78 0 0 0 -1.14 0l-14.24 16.35a.74.74 0 0 0 -.12.8.75.75 0 0 0 .68.44zm14.25-15.96 12.6 14.46h-25.2z"/><path d="m46.25 34.9h-28.5a.75.75 0 0 0 -.68.44.74.74 0 0 0 .12.8l14.24 16.35a.75.75 0 0 0 1.14 0l14.24-16.35a.74.74 0 0 0 .12-.8.75.75 0 0 0 -.68-.44zm-14.25 15.96-12.6-14.46h25.2z"/></g></g></svg>