<svg height="512" viewBox="0 0 64 64" width="512" xmlns="http://www.w3.org/2000/svg" xmlns:xlink="http://www.w3.org/1999/xlink"><linearGradient id="linear-gradient" gradientUnits="userSpaceOnUse" x1="3.25" x2="60.75" y1="32" y2="32"><stop offset="0" stop-color="#5bb4f6"/><stop offset=".61" stop-color="#2191e5"/><stop offset="1" stop-color="#007edb"/></linearGradient><g id="Layer_64" data-name="Layer 64"><rect fill="url(#linear-gradient)" height="57.5" rx="12.75" width="57.5" x="3.25" y="3.25"/><g fill="#fff"><path d="m12 16.93a.76.76 0 0 0 -.75.75v28.64a.75.75 0 0 0 1.5 0v-28.64a.76.76 0 0 0 -.75-.75z"/><path d="m17.71 22.13a.76.76 0 0 0 -.75.75v18.24a.75.75 0 0 0 1.5 0v-18.24a.75.75 0 0 0 -.75-.75z"/><path d="m23.43 27.21a.75.75 0 0 0 -.75.75v8.04a.75.75 0 0 0 1.5 0v-8a.76.76 0 0 0 -.75-.79z"/><path d="m29.14 19.77a.76.76 0 0 0 -.75.75v23a.75.75 0 1 0 1.5 0v-23a.75.75 0 0 0 -.75-.75z"/><path d="m34.86 19.77a.75.75 0 0 0 -.75.75v23a.75.75 0 1 0 1.5 0v-23a.76.76 0 0 0 -.75-.75z"/><path d="m40.57 27.21a.76.76 0 0 0 -.75.75v8.04a.75.75 0 0 0 1.5 0v-8a.75.75 0 0 0 -.75-.79z"/><path d="m46.29 22.13a.75.75 0 0 0 -.75.75v18.24a.75.75 0 0 0 1.5 0v-18.24a.76.76 0 0 0 -.75-.75z"/><path d="m52 16.93a.76.76 0 0 0 -.75.75v28.64a.75.75 0 0 0 1.5 0v-28.64a.76.76 0 0 0 -.75-.75z"/></g></g></svg>