<svg height="512" viewBox="0 0 64 64" width="512" xmlns="http://www.w3.org/2000/svg" xmlns:xlink="http://www.w3.org/1999/xlink"><linearGradient id="linear-gradient" gradientUnits="userSpaceOnUse" x1="3.25" x2="60.75" y1="32" y2="32"><stop offset="0" stop-color="#5bb4f6"/><stop offset=".61" stop-color="#2191e5"/><stop offset="1" stop-color="#007edb"/></linearGradient><g id="Layer_31" data-name="Layer 31"><rect fill="url(#linear-gradient)" height="57.5" rx="12.75" width="57.5" x="3.25" y="3.25"/><path d="m44.36 51.77a.85.85 0 0 1 -.35-.08l-12.01-6.32-12 6.32a.75.75 0 0 1 -1.09-.8l2.29-13.37-9.71-9.47a.74.74 0 0 1 -.19-.77.75.75 0 0 1 .6-.51l13.43-1.95 6-12.17a.78.78 0 0 1 1.34 0l6 12.17 13.43 1.95a.75.75 0 0 1 .41 1.28l-9.71 9.47 2.3 13.37a.75.75 0 0 1 -.3.74.77.77 0 0 1 -.44.14zm-12.36-8a.73.73 0 0 1 .35.09l11 5.79-2.1-12.27a.74.74 0 0 1 .22-.66l8.92-8.72-12.32-1.76a.74.74 0 0 1 -.56-.41l-5.51-11.16-5.51 11.16a.74.74 0 0 1 -.56.41l-12.32 1.76 8.91 8.69a.74.74 0 0 1 .22.66l-2.1 12.27 11-5.79a.73.73 0 0 1 .36-.06z" fill="#fff"/></g></svg>