<svg height="512" viewBox="0 0 64 64" width="512" xmlns="http://www.w3.org/2000/svg" xmlns:xlink="http://www.w3.org/1999/xlink"><linearGradient id="linear-gradient" gradientUnits="userSpaceOnUse" x1="3.25" x2="60.75" y1="32" y2="32"><stop offset="0" stop-color="#5bb4f6"/><stop offset=".61" stop-color="#2191e5"/><stop offset="1" stop-color="#007edb"/></linearGradient><g id="Layer_81" data-name="Layer 81"><rect fill="url(#linear-gradient)" height="57.5" rx="12.75" width="57.5" x="3.25" y="3.25"/><path d="m52 46.88h-2.24v-18.52a5 5 0 0 0 4.24-4.89.66.66 0 0 0 0-.28l-4.28-11.45a.76.76 0 0 0 -.71-.49h-34.01a.76.76 0 0 0 -.71.49l-4.29 11.44a.66.66 0 0 0 0 .28 5 5 0 0 0 4.26 4.89v18.53h-2.26a.76.76 0 0 0 -.75.75v4.37a.76.76 0 0 0 .75.75h40a.76.76 0 0 0 .75-.75v-4.37a.76.76 0 0 0 -.75-.75zm.51-23.32a3.48 3.48 0 0 1 -3.51 3.38 3.49 3.49 0 0 1 -3.5-3.47.66.66 0 0 0 0-.28l-3.91-10.44h6.9zm-21.59-10.81-3.92 10.43a.86.86 0 0 0 0 .28 3.5 3.5 0 0 1 -7 .09l4-10.81zm1.08 1.4 3.5 9.41a3.5 3.5 0 0 1 -7 0zm5 9.31a.86.86 0 0 0 0-.28l-3.92-10.43h6.92l4 10.81a3.5 3.5 0 0 1 -7-.09zm-25.51.1 4-10.81h6.9l-3.85 10.43a.66.66 0 0 0 -.05.28 3.49 3.49 0 0 1 -3.49 3.48 3.48 3.48 0 0 1 -3.51-3.38zm4.25 4.82a5 5 0 0 0 3.5-2.3 5 5 0 0 0 8.51 0 5 5 0 0 0 8.5 0 5 5 0 0 0 8.51 0 5 5 0 0 0 3.5 2.3v18.5h-8.79v-12.68a.75.75 0 0 0 -.75-.75h-13.44a.75.75 0 0 0 -.75.75v12.68h-8.79zm22.26 18.5h-12v-11.88h12zm13.28 4.37h-38.53v-2.87h38.5z" fill="#fff"/></g></svg>