<svg height="512" viewBox="0 0 64 64" width="512" xmlns="http://www.w3.org/2000/svg" xmlns:xlink="http://www.w3.org/1999/xlink"><linearGradient id="linear-gradient" gradientUnits="userSpaceOnUse" x1="3.25" x2="60.75" y1="32" y2="32"><stop offset="0" stop-color="#5bb4f6"/><stop offset=".61" stop-color="#2191e5"/><stop offset="1" stop-color="#007edb"/></linearGradient><g id="Layer_34" data-name="Layer 34"><rect fill="url(#linear-gradient)" height="57.5" rx="12.75" width="57.5" x="3.25" y="3.25"/><g fill="#fff"><path d="m32 21.29a10.71 10.71 0 1 0 10.71 10.71 10.73 10.73 0 0 0 -10.71-10.71zm0 19.92a9.21 9.21 0 1 1 9.21-9.21 9.22 9.22 0 0 1 -9.21 9.21z"/><path d="m32 17.19a.76.76 0 0 0 .75-.75v-4.44a.75.75 0 0 0 -1.5 0v4.44a.76.76 0 0 0 .75.75z"/><path d="m43 21.75a.79.79 0 0 0 .54-.22l3.13-3.14a.75.75 0 0 0 -1.06-1.06l-3.14 3.13a.77.77 0 0 0 0 1.07.79.79 0 0 0 .53.22z"/><path d="m52 31.25h-4.44a.75.75 0 0 0 0 1.5h4.44a.75.75 0 0 0 0-1.5z"/><path d="m43.54 42.47a.76.76 0 1 0 -1.07 1.07l3.14 3.13a.74.74 0 0 0 .53.22.73.73 0 0 0 .53-.22.74.74 0 0 0 0-1.06z"/><path d="m32 46.81a.76.76 0 0 0 -.75.75v4.44a.75.75 0 0 0 1.5 0v-4.44a.76.76 0 0 0 -.75-.75z"/><path d="m20.46 42.47-3.13 3.14a.74.74 0 0 0 0 1.06.73.73 0 0 0 .53.22.74.74 0 0 0 .53-.22l3.14-3.13a.76.76 0 1 0 -1.07-1.07z"/><path d="m16.44 31.25h-4.44a.75.75 0 0 0 0 1.5h4.44a.75.75 0 0 0 0-1.5z"/><path d="m20.46 21.53a.76.76 0 0 0 1.07 0 .77.77 0 0 0 0-1.07l-3.14-3.13a.75.75 0 0 0 -1.06 1.06z"/></g></g></svg>