<svg height="512" viewBox="0 0 64 64" width="512" xmlns="http://www.w3.org/2000/svg" xmlns:xlink="http://www.w3.org/1999/xlink"><linearGradient id="linear-gradient" gradientUnits="userSpaceOnUse" x1="3.25" x2="60.75" y1="32" y2="32"><stop offset="0" stop-color="#5bb4f6"/><stop offset=".61" stop-color="#2191e5"/><stop offset="1" stop-color="#007edb"/></linearGradient><g id="Layer_78" data-name="Layer 78"><rect fill="url(#linear-gradient)" height="57.5" rx="12.75" width="57.5" x="3.25" y="3.25"/><g fill="#fff"><path d="m52.49 31.43-16.35-14.24a.74.74 0 0 0 -.8-.12.75.75 0 0 0 -.44.68v28.5a.75.75 0 0 0 .44.68.67.67 0 0 0 .31.07.77.77 0 0 0 .49-.19l16.35-14.24a.75.75 0 0 0 0-1.14zm-16.09 13.17v-25.2l14.46 12.6z"/><path d="m28.66 17.07a.74.74 0 0 0 -.8.12l-16.35 14.24a.75.75 0 0 0 0 1.14l16.35 14.24a.77.77 0 0 0 .49.19.67.67 0 0 0 .31-.07.75.75 0 0 0 .44-.68v-28.5a.75.75 0 0 0 -.44-.68zm-1.06 27.53-14.46-12.6 14.46-12.6z"/></g></g></svg>