<svg height="512" viewBox="0 0 64 64" width="512" xmlns="http://www.w3.org/2000/svg" xmlns:xlink="http://www.w3.org/1999/xlink"><linearGradient id="linear-gradient" gradientUnits="userSpaceOnUse" x1="3.25" x2="60.75" y1="32" y2="32"><stop offset="0" stop-color="#5bb4f6"/><stop offset=".61" stop-color="#2191e5"/><stop offset="1" stop-color="#007edb"/></linearGradient><g id="Layer_90" data-name="Layer 90"><rect fill="url(#linear-gradient)" height="57.5" rx="12.75" width="57.5" x="3.25" y="3.25"/><g fill="#fff"><path d="m52.53 33.94-18-18a.74.74 0 0 0 -1.06 0 .75.75 0 0 0 0 1.06l17.47 17.47-10.8 10.8a.74.74 0 0 0 0 1.06.73.73 0 0 0 .53.22.74.74 0 0 0 .53-.22l11.33-11.33a.75.75 0 0 0 0-1.06z"/><path d="m46 34.47a.75.75 0 0 0 -.22-.53l-19-19a.74.74 0 0 0 -.52-.22l-14.26-.08a.75.75 0 0 0 -.75.76l.12 14.26a.74.74 0 0 0 .22.52l19 19a.74.74 0 0 0 .53.22.71.71 0 0 0 .53-.22l14.1-14.18a.75.75 0 0 0 .25-.53zm-14.92 13.08-18.21-18.21-.11-13.19 13.24.11 18.16 18.21z"/><path d="m17.46 20.85a3.49 3.49 0 1 0 4.94 0 3.58 3.58 0 0 0 -4.94 0zm3.88 3.87a2 2 0 0 1 -2.82 0 2 2 0 1 1 2.82 0z"/></g></g></svg>