<svg height="512" viewBox="0 0 64 64" width="512" xmlns="http://www.w3.org/2000/svg" xmlns:xlink="http://www.w3.org/1999/xlink"><linearGradient id="linear-gradient" gradientUnits="userSpaceOnUse" x1="3.25" x2="60.75" y1="32" y2="32"><stop offset="0" stop-color="#5bb4f6"/><stop offset=".61" stop-color="#2191e5"/><stop offset="1" stop-color="#007edb"/></linearGradient><g id="Layer_52" data-name="Layer 52"><rect fill="url(#linear-gradient)" height="57.5" rx="12.75" width="57.5" x="3.25" y="3.25"/><g fill="#fff"><path d="m41.15 34.74a.75.75 0 0 0 -.75.75v1.75h-1.75a.75.75 0 0 0 0 1.5h2.5a.76.76 0 0 0 .75-.74v-2.5a.75.75 0 0 0 -.75-.76z"/><path d="m34.22 37.24h-4.44a.75.75 0 0 0 0 1.5h4.44a.75.75 0 0 0 0-1.5z"/><path d="m25.35 37.24h-1.75v-1.75a.75.75 0 0 0 -1.5 0v2.51a.76.76 0 0 0 .75.75h2.5a.75.75 0 0 0 0-1.5z"/><path d="m25.35 25.26h-2.5a.76.76 0 0 0 -.75.75v2.5a.75.75 0 0 0 1.5 0v-1.75h1.75a.75.75 0 0 0 0-1.5z"/><path d="m34.22 25.26h-4.44a.75.75 0 0 0 0 1.5h4.44a.75.75 0 0 0 0-1.5z"/><path d="m41.15 25.26h-2.5a.75.75 0 0 0 0 1.5h1.75v1.75a.75.75 0 0 0 1.5 0v-2.51a.76.76 0 0 0 -.75-.74z"/><path d="m52 27.78a.76.76 0 0 0 .75-.75v-6.11a2.75 2.75 0 0 0 -2.75-2.75h-36a2.75 2.75 0 0 0 -2.75 2.75v6.08a.76.76 0 0 0 .75.75 4.22 4.22 0 0 1 0 8.44.76.76 0 0 0 -.75.75v6.11a2.75 2.75 0 0 0 2.75 2.78h36a2.75 2.75 0 0 0 2.75-2.75v-6.08a.76.76 0 0 0 -.75-.75 4.22 4.22 0 0 1 0-8.44zm-.75 9.89v5.41a1.25 1.25 0 0 1 -1.25 1.25h-36a1.25 1.25 0 0 1 -1.25-1.25v-5.41a5.72 5.72 0 0 0 0-11.34v-5.41a1.25 1.25 0 0 1 1.25-1.25h36a1.25 1.25 0 0 1 1.25 1.25v5.41a5.72 5.72 0 0 0 0 11.34z"/></g></g></svg>