<svg height="512" viewBox="0 0 64 64" width="512" xmlns="http://www.w3.org/2000/svg" xmlns:xlink="http://www.w3.org/1999/xlink"><linearGradient id="linear-gradient" gradientUnits="userSpaceOnUse" x1="3.25" x2="60.75" y1="32" y2="32"><stop offset="0" stop-color="#5bb4f6"/><stop offset=".61" stop-color="#2191e5"/><stop offset="1" stop-color="#007edb"/></linearGradient><g id="Layer_32" data-name="Layer 32"><rect fill="url(#linear-gradient)" height="57.5" rx="12.75" width="57.5" x="3.25" y="3.25"/><g fill="#fff"><path d="m32.56 11.5a.77.77 0 0 0 -1.12 0c-.62.69-15.18 17-15.18 25.51a15.74 15.74 0 0 0 31.48 0c0-8.47-14.56-24.82-15.18-25.51zm-.56 39.75a14.26 14.26 0 0 1 -14.24-14.25c0-7 11.54-20.76 14.24-23.87 2.7 3.12 14.24 16.87 14.24 23.87a14.26 14.26 0 0 1 -14.24 14.25z"/><path d="m32 44.77a7.77 7.77 0 0 1 -7.76-7.77.75.75 0 0 0 -1.5 0 9.28 9.28 0 0 0 9.26 9.27.75.75 0 0 0 0-1.5z"/></g></g></svg>