<svg height="512" viewBox="0 0 64 64" width="512" xmlns="http://www.w3.org/2000/svg" xmlns:xlink="http://www.w3.org/1999/xlink"><linearGradient id="linear-gradient" gradientUnits="userSpaceOnUse" x1="3.25" x2="60.75" y1="32" y2="32"><stop offset="0" stop-color="#5bb4f6"/><stop offset=".61" stop-color="#2191e5"/><stop offset="1" stop-color="#007edb"/></linearGradient><g id="Layer_10" data-name="Layer 10"><rect fill="url(#linear-gradient)" height="57.5" rx="12.75" width="57.5" x="3.25" y="3.25"/><g fill="#fff"><path d="m25.17 26.36a.75.75 0 0 0 -.75.75v16.89a.75.75 0 1 0 1.5 0v-16.89a.76.76 0 0 0 -.75-.75z"/><path d="m32 26.36a.76.76 0 0 0 -.75.75v16.89a.75.75 0 0 0 1.5 0v-16.89a.76.76 0 0 0 -.75-.75z"/><path d="m38.83 44.76a.74.74 0 0 0 .75-.75v-16.9a.75.75 0 0 0 -1.5 0v16.89a.75.75 0 0 0 .75.76z"/><path d="m49.05 17.06h-10.38v-5.06a.76.76 0 0 0 -.75-.75h-11.84a.76.76 0 0 0 -.75.75v5.06h-10.33a.75.75 0 0 0 0 1.5h2.48v31.44a2.75 2.75 0 0 0 2.75 2.75h23.59a2.75 2.75 0 0 0 2.75-2.75v-31.44h2.48a.75.75 0 0 0 0-1.5zm-22.22-4.31h10.34v4.31h-10.34zm18.24 37.25a1.25 1.25 0 0 1 -1.25 1.25h-23.64a1.25 1.25 0 0 1 -1.25-1.25v-31.44h26.14z"/></g></g></svg>