<svg height="512" viewBox="0 0 64 64" width="512" xmlns="http://www.w3.org/2000/svg" xmlns:xlink="http://www.w3.org/1999/xlink"><linearGradient id="linear-gradient" gradientUnits="userSpaceOnUse" x1="3.25" x2="60.75" y1="32" y2="32"><stop offset="0" stop-color="#5bb4f6"/><stop offset=".61" stop-color="#2191e5"/><stop offset="1" stop-color="#007edb"/></linearGradient><g id="Layer_53" data-name="Layer 53"><rect fill="url(#linear-gradient)" height="57.5" rx="12.75" width="57.5" x="3.25" y="3.25"/><path d="m47.43 42.92-8.88-11.37h4.13a.75.75 0 0 0 .67-.42.74.74 0 0 0 -.07-.78l-7-9.29h2.25a.75.75 0 0 0 .59-1.21l-6.53-8.31a.77.77 0 0 0 -1.18 0l-6.53 8.31a.75.75 0 0 0 .59 1.21h2.25l-7 9.29a.74.74 0 0 0 -.07.78.75.75 0 0 0 .67.42h4.13l-8.88 11.37a.75.75 0 0 0 .59 1.21h9.17v7.12h-4.57a.75.75 0 0 0 0 1.5h20.48a.75.75 0 1 0 0-1.5h-4.57v-7.12h9.17a.75.75 0 0 0 .59-1.21zm-11.26 8.33h-8.34v-7.12h8.34zm-17.47-8.62 8.88-11.37a.75.75 0 0 0 -.58-1.21h-4.18l7-9.29a.75.75 0 0 0 -.6-1.2h-2.22l5-6.35 5 6.35h-2.22a.75.75 0 0 0 -.6 1.2l7 9.29h-4.18a.75.75 0 0 0 -.59 1.21l8.89 11.37z" fill="#fff"/></g></svg>