<svg height="512" viewBox="0 0 64 64" width="512" xmlns="http://www.w3.org/2000/svg" xmlns:xlink="http://www.w3.org/1999/xlink"><linearGradient id="linear-gradient" gradientUnits="userSpaceOnUse" x1="3.25" x2="60.75" y1="32" y2="32"><stop offset="0" stop-color="#5bb4f6"/><stop offset=".61" stop-color="#2191e5"/><stop offset="1" stop-color="#007edb"/></linearGradient><g id="Layer_86" data-name="Layer 86"><rect fill="url(#linear-gradient)" height="57.5" rx="12.75" width="57.5" x="3.25" y="3.25"/><g fill="#fff"><path d="m51.94 16.32h-26.62a.75.75 0 0 0 -.75.75v5.42h-5.88a.78.78 0 0 0 -.41.12l-6.62 4.27a.75.75 0 0 0 -.35.63v11.87a.76.76 0 0 0 .75.75h3.86a4.48 4.48 0 0 0 -1.18 3 4.53 4.53 0 1 0 7.86-3h17.4a4.53 4.53 0 1 0 6.69 0h5.25a.76.76 0 0 0 .75-.75v-22.31a.76.76 0 0 0 -.75-.75zm-39.13 11.6 6.1-3.92h5.66v14.63h-11.76zm9.48 15.24a3 3 0 1 1 -3-3 3 3 0 0 1 3 3zm24.08 0a3 3 0 1 1 -3-3 3 3 0 0 1 3 3zm4.82-4.53h-25.12v-20.81h25.12z"/><path d="m21.63 31.31v-3.78a.75.75 0 0 0 -1.5 0v3h-3.52a.75.75 0 0 0 0 1.5h4.27a.76.76 0 0 0 .75-.72z"/><path d="m32.06 25.56h15.06a.75.75 0 0 0 0-1.5h-15.06a.75.75 0 1 0 0 1.5z"/><path d="m32.06 31h15.06a.75.75 0 0 0 0-1.5h-15.06a.75.75 0 1 0 0 1.5z"/></g></g></svg>