<svg height="512" viewBox="0 0 64 64" width="512" xmlns="http://www.w3.org/2000/svg" xmlns:xlink="http://www.w3.org/1999/xlink"><linearGradient id="linear-gradient" gradientUnits="userSpaceOnUse" x1="3.25" x2="60.75" y1="32" y2="32"><stop offset="0" stop-color="#5bb4f6"/><stop offset=".61" stop-color="#2191e5"/><stop offset="1" stop-color="#007edb"/></linearGradient><g id="Layer_87" data-name="Layer 87"><rect fill="url(#linear-gradient)" height="57.5" rx="12.75" width="57.5" x="3.25" y="3.25"/><path d="m52.39 29.83a.74.74 0 0 0 -.72 0l-7.57 3.73v-4.2a2.75 2.75 0 0 0 -2.75-2.75h-2.71a6.78 6.78 0 1 0 -10.84-6.84 4.94 4.94 0 0 0 -3.67-1.63 5 5 0 0 0 -3.56 8.47h-6.57a2.75 2.75 0 0 0 -2.75 2.75v17.35a2.75 2.75 0 0 0 2.75 2.75h27.35a2.75 2.75 0 0 0 2.75-2.75v-4.41l7.57 3.77a.73.73 0 0 0 .72 0 .74.74 0 0 0 .36-.64v-14.97a.73.73 0 0 0 -.36-.63zm-17.99-13.83a5.29 5.29 0 1 1 -5.29 5.28 5.29 5.29 0 0 1 5.29-5.28zm-4.25 10.61h-2.47a5.09 5.09 0 0 0 1.05-1.61 7.07 7.07 0 0 0 1.42 1.61zm-9.51-3.49a3.49 3.49 0 1 1 3.49 3.49 3.49 3.49 0 0 1 -3.49-3.49zm20.71 24.88h-27.35a1.25 1.25 0 0 1 -1.25-1.25v-17.39a1.25 1.25 0 0 1 1.25-1.25h27.35a1.25 1.25 0 0 1 1.25 1.25v17.35a1.25 1.25 0 0 1 -1.25 1.29zm9.9-3.77-7.15-3.61v-5.38l7.15-3.56z" fill="#fff"/></g></svg>