<?xml version="1.0" encoding="UTF-8"?>
<svg xmlns="http://www.w3.org/2000/svg" xmlns:xlink="http://www.w3.org/1999/xlink" viewBox="0 0 64 64" width="512" height="512"><defs><style>.cls-1{fill:url(#linear-gradient);}.cls-2{fill:#fff;}</style><linearGradient id="linear-gradient" x1="3.25" y1="32" x2="60.75" y2="32" gradientUnits="userSpaceOnUse"><stop offset="0" stop-color="#5bb4f6"/><stop offset="0.61" stop-color="#2191e5"/><stop offset="1" stop-color="#007edb"/></linearGradient></defs><g id="Layer_15" data-name="Layer 15"><rect class="cls-1" x="3.25" y="3.25" width="57.5" height="57.5" rx="12.75"/><path class="cls-2" d="M52,28.57a.76.76,0,0,0-.75.75v1.93h-4a15.15,15.15,0,0,0-3.93-9.47L48,17.09l2.18,2.19a.74.74,0,0,0,.53.22.71.71,0,0,0,.53-.22.74.74,0,0,0,0-1.06l-5.5-5.5a.75.75,0,0,0-1.06,1.06L46.91,16l-4.69,4.69a15.15,15.15,0,0,0-9.47-3.93v-4h1.86a.75.75,0,0,0,0-1.5H29.32a.75.75,0,0,0,0,1.5h1.93v4a15.15,15.15,0,0,0-9.47,3.93L18.1,17l1.71-1.7a.75.75,0,0,0,0-1.06.74.74,0,0,0-1.06,0L14.22,18.8a.75.75,0,0,0,0,1.06.75.75,0,0,0,1.06,0L17,18.1l3.68,3.68a15.15,15.15,0,0,0-3.93,9.47h-4V29.39a.75.75,0,0,0-1.5,0v5.29a.75.75,0,0,0,1.5,0V32.75h4a15.15,15.15,0,0,0,3.93,9.47l-4,4-1.85-1.86a.75.75,0,0,0-1.06,0,.74.74,0,0,0,0,1.06l4.83,4.83a.75.75,0,0,0,1.06,0,.75.75,0,0,0,0-1.06l-1.92-1.91,4-4a15.15,15.15,0,0,0,9.47,3.93v4H29.39a.75.75,0,0,0,0,1.5h5.29a.75.75,0,1,0,0-1.5H32.75v-4a15.15,15.15,0,0,0,9.47-3.93l4.36,4.36-2,2a.75.75,0,0,0,0,1.06.75.75,0,0,0,1.06,0l5.19-5.18a.75.75,0,0,0,0-1.06.74.74,0,0,0-1.06,0l-2.1,2.09-4.36-4.36a15.15,15.15,0,0,0,3.93-9.47h4v1.86a.75.75,0,0,0,1.5,0V29.32A.76.76,0,0,0,52,28.57ZM32,45.75A13.75,13.75,0,1,1,45.75,32,13.77,13.77,0,0,1,32,45.75Z"/><circle class="cls-2" cx="37.59" cy="34.73" r="1"/><circle class="cls-2" cx="35.36" cy="24.26" r="1"/><circle class="cls-2" cx="27.55" cy="24.26" r="1"/><circle class="cls-2" cx="24.04" cy="30.97" r="1"/><circle class="cls-2" cx="29.32" cy="28.81" r="1"/><circle class="cls-2" cx="31.46" cy="32.86" r="1"/><circle class="cls-2" cx="25.94" cy="38.38" r="1"/><circle class="cls-2" cx="33.85" cy="39.24" r="1"/><circle class="cls-2" cx="39.87" cy="29.48" r="1"/></g></svg>
