<svg height="512" viewBox="0 0 64 64" width="512" xmlns="http://www.w3.org/2000/svg" xmlns:xlink="http://www.w3.org/1999/xlink"><linearGradient id="linear-gradient" gradientUnits="userSpaceOnUse" x1="3.25" x2="60.75" y1="32" y2="32"><stop offset="0" stop-color="#5bb4f6"/><stop offset=".61" stop-color="#2191e5"/><stop offset="1" stop-color="#007edb"/></linearGradient><g id="Layer_3" data-name="Layer 3"><rect fill="url(#linear-gradient)" height="57.5" rx="12.75" width="57.5" x="3.25" y="3.25"/><g fill="#fff"><path d="m52 23.07h-4.32v-5.24a2.75 2.75 0 0 0 -2.75-2.75h-31.1a2.75 2.75 0 0 0 -2.75 2.75v28.34a2.75 2.75 0 0 0 2.75 2.75h31.1a2.75 2.75 0 0 0 2.75-2.75v-5.24h4.32a.75.75 0 0 0 .75-.75v-16.36a.75.75 0 0 0 -.75-.75zm-5.82 23.1a1.25 1.25 0 0 1 -1.25 1.25h-31.1a1.25 1.25 0 0 1 -1.25-1.25v-28.34a1.25 1.25 0 0 1 1.25-1.25h31.1a1.25 1.25 0 0 1 1.25 1.25v5.24h-8.63a.75.75 0 0 0 -.75.75v16.36a.75.75 0 0 0 .75.75h8.63zm5.07-6.74h-13v-14.86h13z"/><path d="m44.77 28.64a3.36 3.36 0 1 0 3.36 3.36 3.36 3.36 0 0 0 -3.36-3.36zm0 5.22a1.86 1.86 0 1 1 1.86-1.86 1.86 1.86 0 0 1 -1.86 1.86z"/></g></g></svg>