<svg height="512" viewBox="0 0 64 64" width="512" xmlns="http://www.w3.org/2000/svg" xmlns:xlink="http://www.w3.org/1999/xlink"><linearGradient id="linear-gradient" gradientUnits="userSpaceOnUse" x1="3.25" x2="60.75" y1="32" y2="32"><stop offset="0" stop-color="#5bb4f6"/><stop offset=".61" stop-color="#2191e5"/><stop offset="1" stop-color="#007edb"/></linearGradient><g id="Layer_58" data-name="Layer 58"><rect fill="url(#linear-gradient)" height="57.5" rx="12.75" width="57.5" x="3.25" y="3.25"/><g fill="#fff"><path d="m50.29 42.31a.75.75 0 0 0 -1-.34l-4.5 2.21-5.46-10.45a.74.74 0 0 0 -.66-.4h-10.21l-.59-4.66h8.92a.75.75 0 1 0 0-1.5h-9.11l-1-8a4.09 4.09 0 0 0 1.78.42 4.2 4.2 0 1 0 -3.46-1.93l2.09 16.51a.76.76 0 0 0 .74.66h10.38l5.59 10.7a.75.75 0 0 0 .66.4.64.64 0 0 0 .33-.08l5.21-2.53a.76.76 0 0 0 .29-1.01zm-21.84-29.56a2.66 2.66 0 1 1 -2.66 2.66 2.66 2.66 0 0 1 2.66-2.66z"/><path d="m38.5 46.68a13.33 13.33 0 1 1 -17-20.11.75.75 0 1 0 -.79-1.28 14.83 14.83 0 1 0 19 22.38.76.76 0 0 0 -.07-1.06.75.75 0 0 0 -1.14.07z"/></g></g></svg>