<svg height="512" viewBox="0 0 64 64" width="512" xmlns="http://www.w3.org/2000/svg" xmlns:xlink="http://www.w3.org/1999/xlink"><linearGradient id="linear-gradient" gradientUnits="userSpaceOnUse" x1="3.25" x2="60.75" y1="32" y2="32"><stop offset="0" stop-color="#5bb4f6"/><stop offset=".61" stop-color="#2191e5"/><stop offset="1" stop-color="#007edb"/></linearGradient><g id="Layer_63" data-name="Layer 63"><rect fill="url(#linear-gradient)" height="57.5" rx="12.75" width="57.5" x="3.25" y="3.25"/><path d="m20.28 52.75a8.46 8.46 0 0 1 -1.73-.17.77.77 0 0 1 -.58-.51.76.76 0 0 1 .19-.75l3.84-3.89-1.15-4.32-4.28-1.11-3.89 3.88a.79.79 0 0 1 -.75.19.76.76 0 0 1 -.51-.58 9 9 0 0 1 11.76-10.32l12-12a9 9 0 0 1 10.27-11.75.77.77 0 0 1 .58.51.76.76 0 0 1 -.19.75l-3.84 3.89 1.15 4.32 4.28 1.11 3.89-3.88a.74.74 0 0 1 .75-.19.76.76 0 0 1 .51.58 9 9 0 0 1 -11.76 10.32l-12 12a9 9 0 0 1 -8.55 11.93zm-3.94-12.38h.2l5.15 1.38a.77.77 0 0 1 .54.54l1.37 5.15a.75.75 0 0 1 -.19.73l-3.06 3.06a7.54 7.54 0 0 0 6.92-10.33.78.78 0 0 1 .16-.82l12.67-12.65a.76.76 0 0 1 .82-.16 7.54 7.54 0 0 0 10.33-6.92l-3.06 3.06a.78.78 0 0 1 -.73.2l-5.15-1.38a.77.77 0 0 1 -.54-.54l-1.37-5.15a.75.75 0 0 1 .19-.73l3.06-3.06a7.54 7.54 0 0 0 -6.92 10.33.78.78 0 0 1 -.16.82l-12.67 12.67a.78.78 0 0 1 -.82.16 7.54 7.54 0 0 0 -10.33 6.92l3.06-3.06a.77.77 0 0 1 .53-.22z" fill="#fff"/></g></svg>