<svg height="512" viewBox="0 0 64 64" width="512" xmlns="http://www.w3.org/2000/svg" xmlns:xlink="http://www.w3.org/1999/xlink"><linearGradient id="linear-gradient" gradientUnits="userSpaceOnUse" x1="3.25" x2="60.75" y1="32" y2="32"><stop offset="0" stop-color="#5bb4f6"/><stop offset=".61" stop-color="#2191e5"/><stop offset="1" stop-color="#007edb"/></linearGradient><g id="Layer_21" data-name="Layer 21"><rect fill="url(#linear-gradient)" height="57.5" rx="12.75" width="57.5" x="3.25" y="3.25"/><g fill="#fff"><path d="m52 51h-40a1 1 0 0 0 0 2h40a1 1 0 0 0 0-2z"/><path d="m46.79 46.33a1 1 0 1 0 0-2h-29.58a1 1 0 0 0 0 2z"/><path d="m52 37.67h-40a1 1 0 0 0 0 2h40a1 1 0 0 0 0-2z"/><path d="m46.79 33a1 1 0 0 0 0-2h-29.58a1 1 0 0 0 0 2z"/><path d="m52 24.33h-40a1 1 0 0 0 0 2h40a1 1 0 0 0 0-2z"/><path d="m17.21 17.67a1 1 0 0 0 0 2h29.58a1 1 0 1 0 0-2z"/><path d="m12 13h40a1 1 0 0 0 0-2h-40a1 1 0 0 0 0 2z"/></g></g></svg>