<svg height="512" viewBox="0 0 64 64" width="512" xmlns="http://www.w3.org/2000/svg" xmlns:xlink="http://www.w3.org/1999/xlink"><linearGradient id="linear-gradient" gradientUnits="userSpaceOnUse" x1="3.25" x2="60.75" y1="32" y2="32"><stop offset="0" stop-color="#5bb4f6"/><stop offset=".61" stop-color="#2191e5"/><stop offset="1" stop-color="#007edb"/></linearGradient><g id="Layer_20" data-name="Layer 20"><rect fill="url(#linear-gradient)" height="57.5" rx="12.75" width="57.5" x="3.25" y="3.25"/><g fill="#fff"><path d="m52.43 51h-40.43a1 1 0 0 0 0 2h40.43a1 1 0 1 0 0-2z"/><path d="m12 46.33h29.9a1 1 0 0 0 0-2h-29.9a1 1 0 0 0 0 2z"/><path d="m52.43 37.67h-40.43a1 1 0 0 0 0 2h40.43a1 1 0 0 0 0-2z"/><path d="m12 33h29.9a1 1 0 1 0 0-2h-29.9a1 1 0 0 0 0 2z"/><path d="m52.43 24.33h-40.43a1 1 0 0 0 0 2h40.43a1 1 0 0 0 0-2z"/><path d="m12 19.67h29.9a1 1 0 0 0 0-2h-29.9a1 1 0 0 0 0 2z"/><path d="m12 13h40.43a1 1 0 1 0 0-2h-40.43a1 1 0 0 0 0 2z"/></g></g></svg>