<svg height="512" viewBox="0 0 64 64" width="512" xmlns="http://www.w3.org/2000/svg" xmlns:xlink="http://www.w3.org/1999/xlink"><linearGradient id="linear-gradient" gradientUnits="userSpaceOnUse" x1="3.25" x2="60.75" y1="32" y2="32"><stop offset="0" stop-color="#5bb4f6"/><stop offset=".61" stop-color="#2191e5"/><stop offset="1" stop-color="#007edb"/></linearGradient><g id="Layer_39" data-name="Layer 39"><rect fill="url(#linear-gradient)" height="57.5" rx="12.75" width="57.5" x="3.25" y="3.25"/><path d="m52 11h-40a1 1 0 0 0 -1 1v40a1 1 0 0 0 1 1h40a1 1 0 0 0 1-1v-40a1 1 0 0 0 -1-1zm-1 20h-18v-18h18zm-20-18v18h-18v-18zm-18 20h18v18h-18zm20 18v-18h18v18z" fill="#fff"/></g></svg>