<svg height="512" viewBox="0 0 64 64" width="512" xmlns="http://www.w3.org/2000/svg" xmlns:xlink="http://www.w3.org/1999/xlink"><linearGradient id="linear-gradient" gradientUnits="userSpaceOnUse" x1="3.25" x2="60.75" y1="32" y2="32"><stop offset="0" stop-color="#5bb4f6"/><stop offset=".61" stop-color="#2191e5"/><stop offset="1" stop-color="#007edb"/></linearGradient><g id="Layer_67" data-name="Layer 67"><rect fill="url(#linear-gradient)" height="57.5" rx="12.75" width="57.5" x="3.25" y="3.25"/><path d="m52 31h-.14a1 1 0 0 0 -.7.29l-5.58 5.58a1 1 0 0 0 0 1.42 1 1 0 0 0 1.41 0l3.85-3.86a19 19 0 0 1 -17.84 16.57v-28.22a5.93 5.93 0 1 0 -2 0v28.22a19 19 0 0 1 -17.82-16.41l3.69 3.7a1 1 0 0 0 1.42-1.42l-5.58-5.58a1 1 0 0 0 -1.09-.21 1 1 0 0 0 -.62.92 21 21 0 0 0 42 0 1 1 0 0 0 -1-1zm-23.93-14.07a3.93 3.93 0 1 1 3.93 3.94 3.93 3.93 0 0 1 -3.93-3.94z" fill="#fff"/></g></svg>