<svg height="512" viewBox="0 0 64 64" width="512" xmlns="http://www.w3.org/2000/svg" xmlns:xlink="http://www.w3.org/1999/xlink"><linearGradient id="linear-gradient" gradientUnits="userSpaceOnUse" x1="3.25" x2="60.75" y1="32" y2="32"><stop offset="0" stop-color="#5bb4f6"/><stop offset=".61" stop-color="#2191e5"/><stop offset="1" stop-color="#007edb"/></linearGradient><g id="Layer_35" data-name="Layer 35"><rect fill="url(#linear-gradient)" height="57.5" rx="12.75" width="57.5" x="3.25" y="3.25"/><g fill="#fff"><path d="m50 18.59a1 1 0 0 0 -.23-.6l-5.77-6.64a1 1 0 0 0 -.76-.35h-22.5a1 1 0 0 0 -.76.35l-5.71 6.65a1.1 1.1 0 0 0 -.24.65v19.4a1 1 0 0 0 1 1h9.48a1 1 0 1 0 0-2h-8.51v-17.41h32v17.41h-8.51a1 1 0 1 0 0 2h9.51a1 1 0 0 0 1-1v-19.41a.43.43 0 0 1 0-.05zm-28.8-5.59h21.6l4 4.64h-29.59z"/><path d="m39.15 43.17h-6.15v-5.12a1 1 0 0 0 -2 0v5.12h-6.15a1 1 0 0 0 -.74 1.68l7.15 7.82a1 1 0 0 0 1.48 0l7.15-7.82a1 1 0 0 0 -.74-1.68zm-7.15 7.35-4.88-5.35h9.76z"/></g></g></svg>