<svg height="512" viewBox="0 0 64 64" width="512" xmlns="http://www.w3.org/2000/svg" xmlns:xlink="http://www.w3.org/1999/xlink"><linearGradient id="linear-gradient" gradientUnits="userSpaceOnUse" x1="3.25" x2="60.75" y1="32" y2="32"><stop offset="0" stop-color="#5bb4f6"/><stop offset=".61" stop-color="#2191e5"/><stop offset="1" stop-color="#007edb"/></linearGradient><g id="Layer_46" data-name="Layer 46"><rect fill="url(#linear-gradient)" height="57.5" rx="12.75" width="57.5" x="3.25" y="3.25"/><g fill="#fff"><path d="m52.78 26.08a1 1 0 0 0 -.78-.37h-4.09l-3.58-12.25a1 1 0 0 0 -1-.71h-22.7a1 1 0 0 0 -1 .71l-3.54 12.25h-4.09a1 1 0 0 0 -1 1.21l5 23.54a1 1 0 0 0 1 .79h30a1 1 0 0 0 1-.79l5-23.54a1 1 0 0 0 -.22-.84zm-31.4-11.33h21.24l3.21 11h-27.66zm24.81 34.5h-28.38l-4.58-21.54h37.54z"/><path d="m23.38 32.8a1 1 0 0 0 -1 1v8.87a1 1 0 0 0 2 0v-8.87a1 1 0 0 0 -1-1z"/><path d="m32 32.8a1 1 0 0 0 -1 1v8.87a1 1 0 0 0 2 0v-8.87a1 1 0 0 0 -1-1z"/><path d="m40.62 32.8a1 1 0 0 0 -1 1v8.87a1 1 0 0 0 2 0v-8.87a1 1 0 0 0 -1-1z"/></g></g></svg>