<svg height="512" viewBox="0 0 64 64" width="512" xmlns="http://www.w3.org/2000/svg" xmlns:xlink="http://www.w3.org/1999/xlink"><linearGradient id="linear-gradient" gradientUnits="userSpaceOnUse" x1="3.25" x2="60.75" y1="32" y2="32"><stop offset="0" stop-color="#5bb4f6"/><stop offset=".61" stop-color="#2191e5"/><stop offset="1" stop-color="#007edb"/></linearGradient><g id="Layer_16" data-name="Layer 16"><rect fill="url(#linear-gradient)" height="57.5" rx="12.75" width="57.5" x="3.25" y="3.25"/><path d="m46 30.21a6.14 6.14 0 0 1 -1.91-4.45v-2.69a12.07 12.07 0 1 0 -24.14 0v2.69a6.14 6.14 0 0 1 -1.95 4.45 8.24 8.24 0 0 0 -2.52 5.9v4.46a1 1 0 0 0 1 1h14.52v3a4.27 4.27 0 1 0 2 0v-3h14.5a1 1 0 0 0 1-1v-4.46a8.24 8.24 0 0 0 -2.5-5.9zm-11.73 18.52a2.27 2.27 0 1 1 -2.27-2.26 2.27 2.27 0 0 1 2.27 2.26zm12.23-9.16h-29v-3.46a6.2 6.2 0 0 1 1.91-4.45 8.2 8.2 0 0 0 2.52-5.9v-2.69a10.07 10.07 0 1 1 20.14 0v2.69a8.2 8.2 0 0 0 2.52 5.9 6.2 6.2 0 0 1 1.91 4.45z" fill="#fff"/></g></svg>