<svg height="512" viewBox="0 0 64 64" width="512" xmlns="http://www.w3.org/2000/svg" xmlns:xlink="http://www.w3.org/1999/xlink"><linearGradient id="linear-gradient" gradientUnits="userSpaceOnUse" x1="3.25" x2="60.75" y1="32" y2="32"><stop offset="0" stop-color="#5bb4f6"/><stop offset=".61" stop-color="#2191e5"/><stop offset="1" stop-color="#007edb"/></linearGradient><g id="Layer_12" data-name="Layer 12"><rect fill="url(#linear-gradient)" height="57.5" rx="12.75" width="57.5" x="3.25" y="3.25"/><g fill="#fff"><path d="m44.5 11h-25a1 1 0 0 0 -1 1v40a1 1 0 0 0 .62.92 1 1 0 0 0 1.09-.21l11.79-11.63 11.79 11.63a1 1 0 0 0 .71.29 1 1 0 0 0 1-1v-40a1 1 0 0 0 -1-1zm-1 38.61-10.8-10.61a1 1 0 0 0 -1.4 0l-10.8 10.61v-36.61h23z"/><path d="m27.36 25.64h9.28a1 1 0 0 0 0-2h-9.28a1 1 0 0 0 0 2z"/></g></g></svg>