<svg height="512" viewBox="0 0 64 64" width="512" xmlns="http://www.w3.org/2000/svg" xmlns:xlink="http://www.w3.org/1999/xlink"><linearGradient id="linear-gradient" gradientUnits="userSpaceOnUse" x1="3.25" x2="60.75" y1="32" y2="32"><stop offset="0" stop-color="#5bb4f6"/><stop offset=".61" stop-color="#2191e5"/><stop offset="1" stop-color="#007edb"/></linearGradient><g id="Layer_40" data-name="Layer 40"><rect fill="url(#linear-gradient)" height="57.5" rx="12.75" width="57.5" x="3.25" y="3.25"/><g fill="#fff"><path d="m12 45.5a1 1 0 0 0 1-1v-5a1 1 0 0 0 -2 0v5a1 1 0 0 0 1 1z"/><path d="m12 35.5a1 1 0 0 0 1-1v-1.5h1.5a1 1 0 0 0 0-2h-1.5v-1.5a1 1 0 0 0 -2 0v5a1 1 0 0 0 1 1z"/><path d="m12 25.5a1 1 0 0 0 1-1v-5a1 1 0 0 0 -2 0v5a1 1 0 0 0 1 1z"/><path d="m12 15.5a1 1 0 0 0 1-1v-1.5h1.5a1 1 0 0 0 0-2h-2.5a1 1 0 0 0 -1 1v2.5a1 1 0 0 0 1 1z"/><path d="m19.5 13h5a1 1 0 0 0 0-2h-5a1 1 0 0 0 0 2z"/><path d="m29.5 13h1.5v1.5a1 1 0 0 0 2 0v-1.5h1.5a1 1 0 0 0 0-2h-5a1 1 0 0 0 0 2z"/><path d="m39.5 13h5a1 1 0 0 0 0-2h-5a1 1 0 0 0 0 2z"/><path d="m52 11h-2.5a1 1 0 0 0 0 2h1.5v1.5a1 1 0 0 0 2 0v-2.5a1 1 0 0 0 -1-1z"/><path d="m52 28.5a1 1 0 0 0 -1 1v1.5h-1.5a1 1 0 0 0 0 2h1.5v1.5a1 1 0 0 0 2 0v-5a1 1 0 0 0 -1-1z"/><path d="m52 38.5a1 1 0 0 0 -1 1v5a1 1 0 0 0 2 0v-5a1 1 0 0 0 -1-1z"/><path d="m52 18.5a1 1 0 0 0 -1 1v5a1 1 0 0 0 2 0v-5a1 1 0 0 0 -1-1z"/><path d="m52 48.5a1 1 0 0 0 -1 1v1.5h-18v-1.5a1 1 0 0 0 -2 0v1.5h-18v-1.5a1 1 0 0 0 -2 0v2.5a1 1 0 0 0 1 1h40a1 1 0 0 0 1-1v-2.5a1 1 0 0 0 -1-1z"/><path d="m39.5 33h5a1 1 0 0 0 0-2h-5a1 1 0 0 0 0 2z"/><path d="m29.5 33h1.5v1.5a1 1 0 0 0 2 0v-1.5h1.5a1 1 0 0 0 0-2h-1.5v-1.5a1 1 0 0 0 -2 0v1.5h-1.5a1 1 0 0 0 0 2z"/><path d="m19.5 33h5a1 1 0 0 0 0-2h-5a1 1 0 0 0 0 2z"/><path d="m32 18.5a1 1 0 0 0 -1 1v5a1 1 0 0 0 2 0v-5a1 1 0 0 0 -1-1z"/><path d="m32 38.5a1 1 0 0 0 -1 1v5a1 1 0 0 0 2 0v-5a1 1 0 0 0 -1-1z"/></g></g></svg>