<svg height="512" viewBox="0 0 64 64" width="512" xmlns="http://www.w3.org/2000/svg" xmlns:xlink="http://www.w3.org/1999/xlink"><linearGradient id="linear-gradient" gradientUnits="userSpaceOnUse" x1="3.25" x2="60.75" y1="32" y2="32"><stop offset="0" stop-color="#5bb4f6"/><stop offset=".61" stop-color="#2191e5"/><stop offset="1" stop-color="#007edb"/></linearGradient><g id="Layer_10" data-name="Layer 10"><rect fill="url(#linear-gradient)" height="57.5" rx="12.75" width="57.5" x="3.25" y="3.25"/><g fill="#fff"><path d="m52 16.71h-13.86v-4.71a1 1 0 0 0 -1-1h-19.43a1 1 0 0 0 -1 1v22.55h-4.71a1 1 0 0 0 -1 1v16.45a1 1 0 0 0 1 1h40a1 1 0 0 0 1-1v-34.29a1 1 0 0 0 -1-1zm-33.29-3.71h17.43v3.71h-2.62a1 1 0 0 0 -1 1v33.29h-6v-15.45a1 1 0 0 0 -1-1h-6.81zm-5.71 38v-14.45h11.53v14.45zm38 0h-16.48v-32.29h16.48z"/><path d="m39.68 30.21h6.16a1 1 0 0 0 1-1v-5.44a1 1 0 0 0 -1-1h-6.16a1 1 0 0 0 -1 1v5.44a1 1 0 0 0 1 1zm1-5.44h4.16v3.44h-4.16z"/><path d="m39.68 41.29h6.16a1 1 0 0 0 1-1v-5.43a1 1 0 0 0 -1-1h-6.16a1 1 0 0 0 -1 1v5.43a1 1 0 0 0 1 1zm1-5.43h4.16v3.43h-4.16z"/></g></g></svg>