<svg height="512" viewBox="0 0 64 64" width="512" xmlns="http://www.w3.org/2000/svg" xmlns:xlink="http://www.w3.org/1999/xlink"><linearGradient id="linear-gradient" gradientUnits="userSpaceOnUse" x1="3.25" x2="60.75" y1="32" y2="32"><stop offset="0" stop-color="#5bb4f6"/><stop offset=".61" stop-color="#2191e5"/><stop offset="1" stop-color="#007edb"/></linearGradient><g id="Layer_9" data-name="Layer 9"><rect fill="url(#linear-gradient)" height="57.5" rx="12.75" width="57.5" x="3.25" y="3.25"/><g fill="#fff"><path d="m37.65 39.77a14.94 14.94 0 1 0 -11.3 0 .78.78 0 0 0 .21 0v2.23h-1.69a1 1 0 1 0 0 2h14.26a1 1 0 0 0 0-2h-1.69v-2.2a.78.78 0 0 0 .21-.03zm-9.09 2.23v-7.41a1 1 0 0 0 -2 0v3.08a12.94 12.94 0 1 1 10.88 0v-3.08a1 1 0 0 0 -2 0v7.41z"/><path d="m36.44 46.62h-8.88a1 1 0 0 0 -1 1v4.38a1 1 0 0 0 1 1h8.88a1 1 0 0 0 1-1v-4.38a1 1 0 0 0 -1-1zm-1 4.38h-6.88v-2.38h6.88z"/></g></g></svg>