<svg height="512" viewBox="0 0 64 64" width="512" xmlns="http://www.w3.org/2000/svg" xmlns:xlink="http://www.w3.org/1999/xlink"><linearGradient id="linear-gradient" gradientUnits="userSpaceOnUse" x1="3.25" x2="60.75" y1="32" y2="32"><stop offset="0" stop-color="#5bb4f6"/><stop offset=".61" stop-color="#2191e5"/><stop offset="1" stop-color="#007edb"/></linearGradient><g id="Layer_30" data-name="Layer 30"><rect fill="url(#linear-gradient)" height="57.5" rx="12.75" width="57.5" x="3.25" y="3.25"/><path d="m52.82 46.86a1 1 0 0 0 -.82-.43h-2.93v-21.58a1 1 0 0 0 -1-1h-6.87v-5a1 1 0 0 0 -2 0v5h-6.2v-5a1 1 0 0 0 -2 0v5h-6.2v-5a1 1 0 0 0 -2 0v5h-6.87a1 1 0 0 0 -1 1v21.58h-2.93a1 1 0 0 0 -.94 1.35l2.15 5.71a1 1 0 0 0 .93.65h35.72a1 1 0 0 0 .93-.65l2.15-5.71a1 1 0 0 0 -.12-.92zm-5.75-21v11.25a5.45 5.45 0 0 1 -1.4-1.55c-2.15-3.57-5.92-3.55-8.06 0-.84 1.17-1.36 1.83-2.4 1.83s-1.57-.66-2.4-1.83-1.91-2.67-4-2.67-3.17 1.48-4 2.67c-1.54 2.44-3.37 2.44-4.81 0a5.59 5.59 0 0 0 -3-2.54v-7.17zm-30.14 9.3a5.65 5.65 0 0 1 1.4 1.56c2.15 3.56 5.92 3.55 8.05 0 .84-1.17 1.36-1.83 2.4-1.83s1.57.66 2.4 1.83 1.91 2.67 4 2.67 3.18-1.48 4-2.67c1.48-2.44 3.31-2.44 4.8 0a5.61 5.61 0 0 0 3 2.53v7.18h-30.05zm32.23 17h-34.32l-1.4-3.71h37.12z" fill="#fff"/></g></svg>