<svg height="512" viewBox="0 0 64 64" width="512" xmlns="http://www.w3.org/2000/svg" xmlns:xlink="http://www.w3.org/1999/xlink"><linearGradient id="linear-gradient" gradientUnits="userSpaceOnUse" x1="3.25" x2="60.75" y1="32" y2="32"><stop offset="0" stop-color="#5bb4f6"/><stop offset=".61" stop-color="#2191e5"/><stop offset="1" stop-color="#007edb"/></linearGradient><g id="Layer_66" data-name="Layer 66"><rect fill="url(#linear-gradient)" height="57.5" rx="12.75" width="57.5" x="3.25" y="3.25"/><g fill="#fff"><path d="m32 11a21 21 0 1 0 21 21 21 21 0 0 0 -21-21zm0 40a19 19 0 1 1 19-19 19 19 0 0 1 -19 19z"/><path d="m37.25 27.38a1.09 1.09 0 0 0 -.63-.63l-13-4.36a1 1 0 0 0 -1.27 1.27l4.36 13a1.09 1.09 0 0 0 .63.63l13 4.36a1.13 1.13 0 0 0 .32 0 1 1 0 0 0 1-1.32zm-2.8.75-6.32 6.32-3.2-9.52zm-4.9 7.74 6.32-6.32 3.2 9.52z"/></g></g></svg>