<svg height="512" viewBox="0 0 64 64" width="512" xmlns="http://www.w3.org/2000/svg" xmlns:xlink="http://www.w3.org/1999/xlink"><linearGradient id="linear-gradient" gradientUnits="userSpaceOnUse" x1="3.25" x2="60.75" y1="32" y2="32"><stop offset="0" stop-color="#5bb4f6"/><stop offset=".61" stop-color="#2191e5"/><stop offset="1" stop-color="#007edb"/></linearGradient><g id="Layer_51" data-name="Layer 51"><rect fill="url(#linear-gradient)" height="57.5" rx="12.75" width="57.5" x="3.25" y="3.25"/><path d="m32 11c-8.75 0-18.17 1.67-18.17 5.33v31.34c0 3.66 9.42 5.33 18.17 5.33s18.17-1.67 18.17-5.33v-31.34c0-3.66-9.42-5.33-18.17-5.33zm0 2c10.67 0 16.17 2.33 16.17 3.33s-5.5 3.32-16.17 3.32-16.17-2.33-16.17-3.32 5.5-3.33 16.17-3.33zm0 38c-10.67 0-16.17-2.33-16.17-3.33v-28.74c3.22 1.85 9.86 2.72 16.17 2.72s13-.87 16.17-2.72v28.74c0 1-5.5 3.33-16.17 3.33z" fill="#fff"/></g></svg>