<svg height="512" viewBox="0 0 64 64" width="512" xmlns="http://www.w3.org/2000/svg" xmlns:xlink="http://www.w3.org/1999/xlink"><linearGradient id="linear-gradient" gradientUnits="userSpaceOnUse" x1="3.25" x2="60.75" y1="32" y2="32"><stop offset="0" stop-color="#5bb4f6"/><stop offset=".61" stop-color="#2191e5"/><stop offset="1" stop-color="#007edb"/></linearGradient><g id="Layer_32" data-name="Layer 32"><rect fill="url(#linear-gradient)" height="57.5" rx="12.75" width="57.5" x="3.25" y="3.25"/><g fill="#fff"><path d="m52 45.42h-40a1 1 0 0 0 0 2h40a1 1 0 0 0 0-2z"/><path d="m15.54 42.68h32.92a1 1 0 0 0 1-1v-4.75a17.47 17.47 0 0 0 -16.46-17.41v-1.94a1 1 0 0 0 -2 0v1.94a17.47 17.47 0 0 0 -16.46 17.41v4.75a1 1 0 0 0 1 1zm31.92-2h-30.92v-2.75h30.92zm-15.46-19.21a15.48 15.48 0 0 1 15.43 14.46h-30.86a15.48 15.48 0 0 1 15.43-14.46z"/></g></g></svg>