<svg height="512" viewBox="0 0 64 64" width="512" xmlns="http://www.w3.org/2000/svg" xmlns:xlink="http://www.w3.org/1999/xlink"><linearGradient id="linear-gradient" gradientUnits="userSpaceOnUse" x1="3.25" x2="60.75" y1="32" y2="32"><stop offset="0" stop-color="#5bb4f6"/><stop offset=".61" stop-color="#2191e5"/><stop offset="1" stop-color="#007edb"/></linearGradient><g id="Layer_50" data-name="Layer 50"><rect fill="url(#linear-gradient)" height="57.5" rx="12.75" width="57.5" x="3.25" y="3.25"/><path d="m44 43.37a21.1 21.1 0 0 0 -9.31-11l-.61-.37.63-.35c6.63-3.65 10.91-11.35 10.91-19.65a1 1 0 0 0 -2 0c0 7.58-3.87 14.6-9.87 17.9l-1.75 1-1.75-1a18.76 18.76 0 0 1 -7.88-8.74h15.44a1 1 0 0 0 0-2h-16.24a22.56 22.56 0 0 1 -1.17-6.16h17.4a1 1 0 0 0 0-2h-18.42a1 1 0 0 0 -1 1 24.27 24.27 0 0 0 1.51 8.39 2.34 2.34 0 0 0 .09.24 21.1 21.1 0 0 0 9.31 11l.63.35-.63.35c-6.63 3.67-10.91 11.37-10.91 19.67a1 1 0 0 0 2 0c0-7.58 3.87-14.6 9.87-17.9l1.75-1 1.75 1a18.76 18.76 0 0 1 7.88 8.74h-15.44a1 1 0 1 0 0 2h16.24a22.56 22.56 0 0 1 1.17 6.16h-17.4a1 1 0 0 0 0 2h18.42a1 1 0 0 0 1-1 24.27 24.27 0 0 0 -1.51-8.39 2.34 2.34 0 0 0 -.11-.24z" fill="#fff"/></g></svg>