<svg height="512" viewBox="0 0 64 64" width="512" xmlns="http://www.w3.org/2000/svg" xmlns:xlink="http://www.w3.org/1999/xlink"><linearGradient id="linear-gradient" gradientUnits="userSpaceOnUse" x1="3.25" x2="60.75" y1="32" y2="32"><stop offset="0" stop-color="#5bb4f6"/><stop offset=".61" stop-color="#2191e5"/><stop offset="1" stop-color="#007edb"/></linearGradient><g id="Layer_8" data-name="Layer 8"><rect fill="url(#linear-gradient)" height="57.5" rx="12.75" width="57.5" x="3.25" y="3.25"/><path d="m53 18a1 1 0 0 0 -1-.92h-40a1 1 0 0 0 -1 1v27.86a1 1 0 0 0 1 1h40a1 1 0 0 0 1-1v-27.88s0-.06 0-.06zm-4.5 1.08-16.5 10.22-16.49-10.24zm-35.5 25.86v-25.09l18.47 11.48a1 1 0 0 0 1.06 0l18.47-11.48v25.09z" fill="#fff"/></g></svg>