<svg height="512" viewBox="0 0 64 64" width="512" xmlns="http://www.w3.org/2000/svg" xmlns:xlink="http://www.w3.org/1999/xlink"><linearGradient id="linear-gradient" gradientUnits="userSpaceOnUse" x1="3.25" x2="60.75" y1="32" y2="32"><stop offset="0" stop-color="#5bb4f6"/><stop offset=".61" stop-color="#2191e5"/><stop offset="1" stop-color="#007edb"/></linearGradient><g id="Layer_37" data-name="Layer 37"><rect fill="url(#linear-gradient)" height="57.5" rx="12.75" width="57.5" x="3.25" y="3.25"/><path d="m47.35 28.24v-7.24a4.4 4.4 0 0 0 -4.35-4.35h-7.2a6.66 6.66 0 0 0 -13.16 0h-7.25a4.4 4.4 0 0 0 -4.39 4.35v8.13a1 1 0 0 0 1.07 1 4.65 4.65 0 0 1 3.21 7.95 4.61 4.61 0 0 1 -3.2 1.36 1 1 0 0 0 -1.08 1v8.13a4.4 4.4 0 0 0 4.39 4.43h8.13a1 1 0 0 0 1-1v-.08a4.66 4.66 0 0 1 9.31 0v.08a1 1 0 0 0 1 1h8.17a4.4 4.4 0 0 0 4.39-4.39v-7.2a6.66 6.66 0 0 0 0-13.17zm2.29 9.87a4.63 4.63 0 0 1 -3.21 1.37 1 1 0 0 0 -1.08 1v8.13a2.39 2.39 0 0 1 -2.35 2.39h-7.2a6.68 6.68 0 0 0 -1.88-3.7 6.65 6.65 0 0 0 -11.33 3.7h-7.2a2.39 2.39 0 0 1 -2.39-2.39v-7.2a6.66 6.66 0 0 0 0-13.17v-7.24a2.39 2.39 0 0 1 2.39-2.39h8.13a1 1 0 0 0 1-1v-.07a4.67 4.67 0 0 1 4.66-4.54 4.66 4.66 0 0 1 4.65 4.58v.07a1 1 0 0 0 1 1h8.17a2.39 2.39 0 0 1 2.35 2.35v8.13a1 1 0 0 0 1.07 1 4.67 4.67 0 0 1 4.58 4.69 4.6 4.6 0 0 1 -1.36 3.29z" fill="#fff"/></g></svg>