<svg height="512" viewBox="0 0 64 64" width="512" xmlns="http://www.w3.org/2000/svg" xmlns:xlink="http://www.w3.org/1999/xlink"><linearGradient id="linear-gradient" gradientUnits="userSpaceOnUse" x1="3.25" x2="60.75" y1="32" y2="32"><stop offset="0" stop-color="#5bb4f6"/><stop offset=".61" stop-color="#2191e5"/><stop offset="1" stop-color="#007edb"/></linearGradient><g id="Layer_36" data-name="Layer 36"><rect fill="url(#linear-gradient)" height="57.5" rx="12.75" width="57.5" x="3.25" y="3.25"/><g fill="#fff"><path d="m48 21.49a2.8 2.8 0 0 0 -.2-.32l-9.53-9.86a1.08 1.08 0 0 0 -.72-.31h-20.65a1 1 0 0 0 -1 1v35.71a1 1 0 0 0 1 1h8.17a1 1 0 0 0 0-2h-7.17v-33.71h18.67v8.87a1 1 0 0 0 1 1h8.53v23.84h-7.1a1 1 0 0 0 0 2h8.1a1 1 0 0 0 1-1v-25.84a1 1 0 0 0 -.1-.38zm-9.45-7 6.18 6.4h-6.16z"/><path d="m41.76 34.79a9.76 9.76 0 1 0 -10.76 9.71v7.5a1 1 0 0 0 2 0v-7.5a9.77 9.77 0 0 0 8.76-9.71zm-17.52 0a7.76 7.76 0 1 1 7.76 7.76 7.77 7.77 0 0 1 -7.76-7.76z"/><path d="m32 31.17a3.63 3.63 0 0 1 3.63 3.62 1 1 0 0 0 2 0 5.63 5.63 0 0 0 -5.63-5.62 1 1 0 0 0 0 2z"/></g></g></svg>