<svg height="512" viewBox="0 0 64 64" width="512" xmlns="http://www.w3.org/2000/svg" xmlns:xlink="http://www.w3.org/1999/xlink"><linearGradient id="linear-gradient" gradientUnits="userSpaceOnUse" x1="3.25" x2="60.75" y1="32" y2="32"><stop offset="0" stop-color="#5bb4f6"/><stop offset=".61" stop-color="#2191e5"/><stop offset="1" stop-color="#007edb"/></linearGradient><g id="Layer_62" data-name="Layer 62"><rect fill="url(#linear-gradient)" height="57.5" rx="12.75" width="57.5" x="3.25" y="3.25"/><g fill="#fff"><path d="m52 31h-4.71v-11.39a1.09 1.09 0 0 0 -.3-.71l-7.6-7.61a1.05 1.05 0 0 0 -.71-.29h-21a1 1 0 0 0 -1 1v19h-4.68a1 1 0 0 0 0 2h40a1 1 0 0 0 0-2zm-12.32-16.59 4.19 4.2h-4.19zm-20.97 16.59v-18h19v6.61a1 1 0 0 0 1 1h6.61v10.39z"/><path d="m17.71 35.21a1 1 0 0 0 -1 1v15.79a1 1 0 0 0 2 0v-15.79a1 1 0 0 0 -1-1z"/><path d="m23.43 35.21a1 1 0 0 0 -1 1v12a1 1 0 0 0 2 0v-12a1 1 0 0 0 -1-1z"/><path d="m29.14 35.21a1 1 0 0 0 -1 1v15.79a1 1 0 0 0 2 0v-15.79a1 1 0 0 0 -1-1z"/><path d="m34.86 35.21a1 1 0 0 0 -1 1v15.79a1 1 0 0 0 2 0v-15.79a1 1 0 0 0 -1-1z"/><path d="m40.57 35.21a1 1 0 0 0 -1 1v12a1 1 0 0 0 2 0v-12a1 1 0 0 0 -1-1z"/><path d="m46.29 35.21a1 1 0 0 0 -1 1v15.79a1 1 0 0 0 2 0v-15.79a1 1 0 0 0 -1-1z"/></g></g></svg>