<svg height="512" viewBox="0 0 64 64" width="512" xmlns="http://www.w3.org/2000/svg" xmlns:xlink="http://www.w3.org/1999/xlink"><linearGradient id="linear-gradient" gradientUnits="userSpaceOnUse" x1="3.25" x2="60.75" y1="32" y2="32"><stop offset="0" stop-color="#5bb4f6"/><stop offset=".61" stop-color="#2191e5"/><stop offset="1" stop-color="#007edb"/></linearGradient><g id="Layer_15" data-name="Layer 15"><rect fill="url(#linear-gradient)" height="57.5" rx="12.75" width="57.5" x="3.25" y="3.25"/><g fill="#fff"><path d="m47 20h-14.81l-4-7.48a1 1 0 0 0 -.89-.52h-11.75a4.55 4.55 0 0 0 -4.55 4.55v29.45a6 6 0 0 0 6 6h30a6 6 0 0 0 6-6v-20a6 6 0 0 0 -6-6zm-34-3.45a2.55 2.55 0 0 1 2.55-2.55h11.15l3.22 6h-16.92zm38 29.45a4 4 0 0 1 -4 4h-30a4 4 0 0 1 -4-4v-24h34a4 4 0 0 1 4 4z"/><path d="m39.5 35h-15a1 1 0 0 0 0 2h15a1 1 0 0 0 0-2z"/></g></g></svg>