<svg height="512" viewBox="0 0 64 64" width="512" xmlns="http://www.w3.org/2000/svg" xmlns:xlink="http://www.w3.org/1999/xlink"><linearGradient id="linear-gradient" gradientUnits="userSpaceOnUse" x1="3.25" x2="60.75" y1="32" y2="32"><stop offset="0" stop-color="#5bb4f6"/><stop offset=".61" stop-color="#2191e5"/><stop offset="1" stop-color="#007edb"/></linearGradient><g id="Layer_33" data-name="Layer 33"><rect fill="url(#linear-gradient)" height="57.5" rx="12.75" width="57.5" x="3.25" y="3.25"/><path d="m44.8 11h-25.6a1 1 0 0 0 -1 1v36.39a1 1 0 0 0 1 1h2.4v2.61a1 1 0 0 0 2 0v-2.61h16.8v2.61a1 1 0 0 0 2 0v-2.61h2.4a1 1 0 0 0 1-1v-36.39a1 1 0 0 0 -1-1zm-1 2v11.75h-19.07v-3.44a1 1 0 0 0 -2 0v3.44h-2.53v-11.75zm-23.6 34.39v-20.64h2.53v3.44a1 1 0 0 0 2 0v-3.44h19.07v20.64z" fill="#fff"/></g></svg>