<svg height="512" viewBox="0 0 64 64" width="512" xmlns="http://www.w3.org/2000/svg" xmlns:xlink="http://www.w3.org/1999/xlink"><linearGradient id="linear-gradient" gradientUnits="userSpaceOnUse" x1="3.25" x2="60.75" y1="32" y2="32"><stop offset="0" stop-color="#5bb4f6"/><stop offset=".61" stop-color="#2191e5"/><stop offset="1" stop-color="#007edb"/></linearGradient><g id="Layer_6" data-name="Layer 6"><rect fill="url(#linear-gradient)" height="57.5" rx="12.75" width="57.5" x="3.25" y="3.25"/><path d="m52 22.9h-10a6.39 6.39 0 1 0 -10-7.82 6.39 6.39 0 1 0 -10 7.82h-10a1 1 0 0 0 -1 1v7a1 1 0 0 0 1 1h2.39v19a1 1 0 0 0 1 1h33.22a1 1 0 0 0 1-1v-19h2.39a1 1 0 0 0 1-1v-7a1 1 0 0 0 -1-1zm-14.6-8.8a4.4 4.4 0 0 1 0 8.8h-4.4v-4.4a4.4 4.4 0 0 1 4.4-4.4zm-10.8 0a4.4 4.4 0 0 1 4.4 4.4v4.4h-4.4a4.4 4.4 0 0 1 0-8.8zm-13.6 10.8h18v5h-18zm3.39 7h14.61v18h-14.61zm31.22 18h-14.61v-18h14.61zm3.39-20h-18v-5h18z" fill="#fff"/></g></svg>