<svg height="512" viewBox="0 0 64 64" width="512" xmlns="http://www.w3.org/2000/svg" xmlns:xlink="http://www.w3.org/1999/xlink"><linearGradient id="linear-gradient" gradientUnits="userSpaceOnUse" x1="3.25" x2="60.75" y1="32" y2="32"><stop offset="0" stop-color="#5bb4f6"/><stop offset=".61" stop-color="#2191e5"/><stop offset="1" stop-color="#007edb"/></linearGradient><g id="Layer_7" data-name="Layer 7"><rect fill="url(#linear-gradient)" height="57.5" rx="12.75" width="57.5" x="3.25" y="3.25"/><path d="m46.94 46.74a21 21 0 0 0 0-29.48l-.09-.11-.11-.09a21 21 0 0 0 -29.48 0l-.11.09-.09.11a21 21 0 0 0 0 29.48l.09.11.11.09a21 21 0 0 0 29.48 0l.11-.09zm1.14-4.66a15.82 15.82 0 0 0 -1.3-4.35 32.92 32.92 0 0 0 -3.34-5.73 32.92 32.92 0 0 0 3.34-5.73 15.82 15.82 0 0 0 1.3-4.35 18.86 18.86 0 0 1 0 20.16zm-2.72 3.41c-1.16 1.06-3.63.87-6.82-.54a29.32 29.32 0 0 1 -4.85-2.77 51.53 51.53 0 0 0 4.49-4 51.53 51.53 0 0 0 4-4.49 29.32 29.32 0 0 1 2.82 4.85c1.41 3.19 1.6 5.66.54 6.82zm-26.72 0-.13-.13c-1.06-1.16-.87-3.63.54-6.82a29.32 29.32 0 0 1 2.77-4.85 51.53 51.53 0 0 0 4 4.49 51.53 51.53 0 0 0 4.49 4 29.32 29.32 0 0 1 -4.85 2.82c-3.19 1.36-5.66 1.55-6.82.49zm8.6-8.73a49.25 49.25 0 0 1 -4.19-4.76 49.89 49.89 0 0 1 9-8.95 49.25 49.25 0 0 1 4.76 4.19 49.25 49.25 0 0 1 4.19 4.76 49.25 49.25 0 0 1 -4.19 4.76 49.25 49.25 0 0 1 -4.81 4.24 49.25 49.25 0 0 1 -4.76-4.24zm-8.73-18.12.13-.13c1.16-1.06 3.63-.87 6.82.54a29.32 29.32 0 0 1 4.85 2.77 52.18 52.18 0 0 0 -8.49 8.49 29.32 29.32 0 0 1 -2.77-4.85c-1.41-3.19-1.6-5.66-.54-6.82zm26.85-.13.13.13c1.06 1.16.87 3.63-.54 6.82a29.32 29.32 0 0 1 -2.77 4.85 51.53 51.53 0 0 0 -4-4.49 51.53 51.53 0 0 0 -4.49-4 29.32 29.32 0 0 1 4.85-2.77c3.19-1.41 5.66-1.6 6.82-.54zm-3.29-2.59a15.86 15.86 0 0 0 -4.34 1.3 32.92 32.92 0 0 0 -5.73 3.34 32.92 32.92 0 0 0 -5.73-3.34 15.82 15.82 0 0 0 -4.35-1.3 18.84 18.84 0 0 1 20.15 0zm-26.15 6a15.82 15.82 0 0 0 1.3 4.35 32.92 32.92 0 0 0 3.34 5.73 32.92 32.92 0 0 0 -3.34 5.73 15.82 15.82 0 0 0 -1.3 4.35 18.86 18.86 0 0 1 0-20.16zm6 26.16a15.52 15.52 0 0 0 4.34-1.3 32.92 32.92 0 0 0 5.74-3.34 32.92 32.92 0 0 0 5.73 3.34 15.52 15.52 0 0 0 4.34 1.3 18.82 18.82 0 0 1 -20.14 0z" fill="#fff"/></g></svg>