<svg height="512" viewBox="0 0 64 64" width="512" xmlns="http://www.w3.org/2000/svg" xmlns:xlink="http://www.w3.org/1999/xlink"><linearGradient id="linear-gradient" gradientUnits="userSpaceOnUse" x1="3.25" x2="60.75" y1="32" y2="32"><stop offset="0" stop-color="#5bb4f6"/><stop offset=".61" stop-color="#2191e5"/><stop offset="1" stop-color="#007edb"/></linearGradient><g id="Layer_53" data-name="Layer 53"><rect fill="url(#linear-gradient)" height="57.5" rx="12.75" width="57.5" x="3.25" y="3.25"/><path d="m52 11h-40a1 1 0 0 0 -1 1v40a1 1 0 0 0 1 1h40a1 1 0 0 0 1-1v-40a1 1 0 0 0 -1-1zm-1 13.23h-11.23v-11.23h11.23zm0 13.54h-11.23v-11.54h11.23zm-38-11.54h11.23v11.54h-11.23zm13.23 0h11.54v11.54h-11.54zm11.54-13.23v11.23h-11.54v-11.23zm-13.54 0v11.23h-11.23v-11.23zm-11.23 26.77h11.23v11.23h-11.23zm13.23 11.23v-11.23h11.54v11.23zm13.54 0v-11.23h11.23v11.23z" fill="#fff"/></g></svg>