<svg height="512" viewBox="0 0 64 64" width="512" xmlns="http://www.w3.org/2000/svg" xmlns:xlink="http://www.w3.org/1999/xlink"><linearGradient id="linear-gradient" gradientUnits="userSpaceOnUse" x1="3.25" x2="60.75" y1="32" y2="32"><stop offset="0" stop-color="#5bb4f6"/><stop offset=".61" stop-color="#2191e5"/><stop offset="1" stop-color="#007edb"/></linearGradient><g id="Layer_69" data-name="Layer 69"><rect fill="url(#linear-gradient)" height="57.5" rx="12.75" width="57.5" x="3.25" y="3.25"/><path d="m52.71 17.67-5.71-5.67a1 1 0 0 0 -1.7.71v4.71h-2.16a12.16 12.16 0 0 0 -12.14 12.11v6.26a10.16 10.16 0 0 1 -9.33 10.1 5.41 5.41 0 1 0 0 2 12.16 12.16 0 0 0 11.33-12.1v-6.26a10.16 10.16 0 0 1 10.14-10.15h2.13v4.71a1 1 0 0 0 .61.93 1.07 1.07 0 0 0 .39.07 1 1 0 0 0 .7-.29l5.74-5.71a1 1 0 0 0 .29-.71 1.05 1.05 0 0 0 -.29-.71zm-36.32 32.66a3.39 3.39 0 1 1 3.39-3.39 3.39 3.39 0 0 1 -3.39 3.39zm30.88-28.64v-3.27s0 0 0 0v-3.3l3.31 3.3z" fill="#fff"/></g></svg>