<svg height="512" viewBox="0 0 64 64" width="512" xmlns="http://www.w3.org/2000/svg" xmlns:xlink="http://www.w3.org/1999/xlink"><linearGradient id="linear-gradient" gradientUnits="userSpaceOnUse" x1="3.25" x2="60.75" y1="32" y2="32"><stop offset="0" stop-color="#5bb4f6"/><stop offset=".61" stop-color="#2191e5"/><stop offset="1" stop-color="#007edb"/></linearGradient><g id="Layer_45" data-name="Layer 45"><rect fill="url(#linear-gradient)" height="57.5" rx="12.75" width="57.5" x="3.25" y="3.25"/><path d="m52.29 16.85-9.89-5.72a1 1 0 0 0 -1 0l-9.4 5.43-9.4-5.43a1 1 0 0 0 -1 0l-9.89 5.72a1 1 0 0 0 -.5.86v11.43a1 1 0 0 0 .5.87l9.39 5.42v10.86a1 1 0 0 0 .5.86l9.9 5.72a1 1 0 0 0 1 0l9.9-5.72a1 1 0 0 0 .5-.86v-10.86l9.39-5.43a1 1 0 0 0 .5-.87v-11.42a1 1 0 0 0 -.5-.86zm-39.08 1.44 8.89-5.14 8.9 5.14v10.28l-8.9 5.13-8.89-5.13zm18.79 32.56-8.9-5.14v-10.28l8.9-5.13 8.9 5.13v10.28zm18.79-22.28-8.89 5.13-8.9-5.13v-10.28l8.9-5.14 8.89 5.14z" fill="#fff"/></g></svg>