<svg height="512" viewBox="0 0 64 64" width="512" xmlns="http://www.w3.org/2000/svg" xmlns:xlink="http://www.w3.org/1999/xlink"><linearGradient id="linear-gradient" gradientUnits="userSpaceOnUse" x1="3.25" x2="60.75" y1="32" y2="32"><stop offset="0" stop-color="#5bb4f6"/><stop offset=".61" stop-color="#2191e5"/><stop offset="1" stop-color="#007edb"/></linearGradient><g id="Layer_58" data-name="Layer 58"><rect fill="url(#linear-gradient)" height="57.5" rx="12.75" width="57.5" x="3.25" y="3.25"/><path d="m52 51h-4.71v-33.29a1 1 0 0 0 -1-1h-8.67v-4.71a1 1 0 0 0 -1-1h-9.24a1 1 0 0 0 -1 1v4.71h-8.67a1 1 0 0 0 -1 1v33.29h-4.71a1 1 0 0 0 0 2h40a1 1 0 0 0 0-2zm-23.62-38h7.24v7.24h-7.24zm-.79 38v-9.38h8.82v9.38zm10.82 0v-10.38a1 1 0 0 0 -1-1h-10.82a1 1 0 0 0 -1 1v10.38h-6.88v-32.29h7.67v2.53a1 1 0 0 0 1 1h9.24a1 1 0 0 0 1-1v-2.53h7.67v32.29z" fill="#fff"/></g></svg>