<svg height="512" viewBox="0 0 64 64" width="512" xmlns="http://www.w3.org/2000/svg" xmlns:xlink="http://www.w3.org/1999/xlink"><linearGradient id="linear-gradient" gradientUnits="userSpaceOnUse" x1="3.25" x2="60.75" y1="32" y2="32"><stop offset="0" stop-color="#5bb4f6"/><stop offset=".61" stop-color="#2191e5"/><stop offset="1" stop-color="#007edb"/></linearGradient><g id="Layer_13" data-name="Layer 13"><rect fill="url(#linear-gradient)" height="57.5" rx="12.75" width="57.5" x="3.25" y="3.25"/><path d="m53 32a10.89 10.89 0 0 0 -1.52-5.55.21.21 0 0 0 0-.06 11 11 0 0 0 -18.88 0s0 0 0 .06a10.9 10.9 0 0 0 -1.55 4.55h-19.05a1 1 0 0 0 -1 1v8.64a1 1 0 0 0 1 1h4.54a1 1 0 0 0 1-1v-7.64h2.95v4.26a1 1 0 0 0 2 0v-4.26h8.58a10.79 10.79 0 0 0 1.41 4.5l.06.1a11 11 0 0 0 18.9 0l.06-.1a10.9 10.9 0 0 0 1.5-5.5zm-6.47 0a11.07 11.07 0 0 0 3.94-3 8.73 8.73 0 0 1 0 6 11 11 0 0 0 -3.94-3zm-4.53-9a9 9 0 0 1 7.47 4 9 9 0 0 1 -14.94 0 9 9 0 0 1 7.47-4zm-8.46 12a8.73 8.73 0 0 1 0-6 11.07 11.07 0 0 0 3.94 3 11 11 0 0 0 -3.94 3zm-18 4.63h-2.54v-6.63h2.54zm26.46 1.37a9 9 0 0 1 -7.46-4 9 9 0 0 1 14.92 0 9 9 0 0 1 -7.46 4z" fill="#fff"/></g></svg>