<svg height="512" viewBox="0 0 64 64" width="512" xmlns="http://www.w3.org/2000/svg" xmlns:xlink="http://www.w3.org/1999/xlink"><linearGradient id="linear-gradient" gradientUnits="userSpaceOnUse" x1="3.25" x2="60.75" y1="32" y2="32"><stop offset="0" stop-color="#5bb4f6"/><stop offset=".61" stop-color="#2191e5"/><stop offset="1" stop-color="#007edb"/></linearGradient><g id="Layer_80" data-name="Layer 80"><rect fill="url(#linear-gradient)" height="57.5" rx="12.75" width="57.5" x="3.25" y="3.25"/><g fill="#fff"><path d="m48.89 11.57a1 1 0 0 0 -1.61-.28l-33.73 33.71a1 1 0 0 0 0 1.42 1 1 0 0 0 1.42 0l9.12-9.13 7.77 7.77a1 1 0 0 0 .71.29 1 1 0 0 0 .7-.29l4.47-4.47v1.41a3 3 0 1 0 6 0v-3a3.25 3.25 0 0 0 1 .15 2.8 2.8 0 0 0 3-2.57v-6.53a19 19 0 0 0 1.19-18.48zm-3 17.62a1 1 0 0 0 -.17.56v6.79c0 .23-.38.57-1 .57s-1-.34-1-.57v-3.28a1 1 0 1 0 -2 0v8.74a1 1 0 0 1 -2 0v-3.8a1 1 0 0 0 -.62-.92 1 1 0 0 0 -1.09.21l-5.44 5.51-7.06-7.1 22.14-22.15a17 17 0 0 1 -1.78 15.44z"/><path d="m40.73 47a3 3 0 1 0 3 3 3 3 0 0 0 -3-3zm0 4a1 1 0 1 1 1-1 1 1 0 0 1 -1 1z"/></g></g></svg>