<svg height="512" viewBox="0 0 64 64" width="512" xmlns="http://www.w3.org/2000/svg" xmlns:xlink="http://www.w3.org/1999/xlink"><linearGradient id="linear-gradient" gradientUnits="userSpaceOnUse" x1="3.25" x2="60.75" y1="32" y2="32"><stop offset="0" stop-color="#5bb4f6"/><stop offset=".61" stop-color="#2191e5"/><stop offset="1" stop-color="#007edb"/></linearGradient><g id="Layer_79" data-name="Layer 79"><rect fill="url(#linear-gradient)" height="57.5" rx="12.75" width="57.5" x="3.25" y="3.25"/><path d="m50.93 12.56a1 1 0 0 0 -.73-.56 1 1 0 0 0 -.88.28l-38 38a1 1 0 0 0 0 1.41 1 1 0 0 0 1.42 0l10.35-10.35 8.84 8.85a1 1 0 0 0 .71.29 1 1 0 0 0 .71-.29l13.41-13.41a21.34 21.34 0 0 0 4.17-24.22zm-5.59 22.81-12.7 12.7-8.14-8.14 25.2-25.2a19.36 19.36 0 0 1 -4.36 20.64z" fill="#fff"/></g></svg>