<svg height="512" viewBox="0 0 64 64" width="512" xmlns="http://www.w3.org/2000/svg" xmlns:xlink="http://www.w3.org/1999/xlink"><linearGradient id="linear-gradient" gradientUnits="userSpaceOnUse" x1="3.25" x2="60.75" y1="32" y2="32"><stop offset="0" stop-color="#5bb4f6"/><stop offset=".61" stop-color="#2191e5"/><stop offset="1" stop-color="#007edb"/></linearGradient><g id="Layer_59" data-name="Layer 59"><rect fill="url(#linear-gradient)" height="57.5" rx="12.75" width="57.5" x="3.25" y="3.25"/><g fill="#fff"><path d="m49.27 14.73a12.72 12.72 0 0 0 -18 0l-2 2a1 1 0 0 0 1.41 1.41l2-2a10.73 10.73 0 0 1 15.18 15.18l-2 2a1 1 0 0 0 0 1.41 1 1 0 0 0 .7.3 1 1 0 0 0 .71-.3l2-2a12.72 12.72 0 0 0 0-18z"/><path d="m33.3 45.88-2 2a10.73 10.73 0 0 1 -15.16-15.2l2-2a1 1 0 0 0 0-1.41 1 1 0 0 0 -1.41 0l-2 2a12.73 12.73 0 1 0 18 18l2-2a1 1 0 0 0 -1.41-1.41z"/><path d="m37.58 25-12.58 12.58a1 1 0 0 0 0 1.42 1 1 0 0 0 .71.29 1 1 0 0 0 .71-.29l12.58-12.58a1 1 0 0 0 -1.42-1.42z"/></g></g></svg>