<svg height="512" viewBox="0 0 64 64" width="512" xmlns="http://www.w3.org/2000/svg" xmlns:xlink="http://www.w3.org/1999/xlink"><linearGradient id="linear-gradient" gradientUnits="userSpaceOnUse" x1="3.25" x2="60.75" y1="32" y2="32"><stop offset="0" stop-color="#5bb4f6"/><stop offset=".61" stop-color="#2191e5"/><stop offset="1" stop-color="#007edb"/></linearGradient><g id="Layer_5" data-name="Layer 5"><rect fill="url(#linear-gradient)" height="57.5" rx="12.75" width="57.5" x="3.25" y="3.25"/><path d="m32 51.83a1 1 0 0 1 -.71-.29s-17.29-17.36-17.66-17.88a13.57 13.57 0 0 1 1.37-17.54 13.48 13.48 0 0 1 17-1.66 13.53 13.53 0 0 1 17 1.66 13.5 13.5 0 0 1 1.32 17.55c-.37.51-17.66 17.87-17.66 17.87a1 1 0 0 1 -.66.29zm-7.51-37.66a11.44 11.44 0 0 0 -8.12 3.36 11.56 11.56 0 0 0 -1.13 14.95c.32.43 16.76 16.94 16.76 16.94s16.44-16.51 16.76-16.94a11.51 11.51 0 0 0 -1.12-14.95 11.51 11.51 0 0 0 -15-1 1 1 0 0 1 -1.21 0 11.34 11.34 0 0 0 -6.94-2.36z" fill="#fff"/></g></svg>