<svg height="512" viewBox="0 0 64 64" width="512" xmlns="http://www.w3.org/2000/svg" xmlns:xlink="http://www.w3.org/1999/xlink"><linearGradient id="linear-gradient" gradientUnits="userSpaceOnUse" x1="3.25" x2="60.75" y1="32" y2="32"><stop offset="0" stop-color="#5bb4f6"/><stop offset=".61" stop-color="#2191e5"/><stop offset="1" stop-color="#007edb"/></linearGradient><g id="Layer_63" data-name="Layer 63"><rect fill="url(#linear-gradient)" height="57.5" rx="12.75" width="57.5" x="3.25" y="3.25"/><path d="m50.37 26.61a9.57 9.57 0 0 0 -1.16-1 12.3 12.3 0 0 0 -19.09-9.61 12.31 12.31 0 0 0 -15.51 1.56 12.37 12.37 0 0 0 -1.21 16 11.74 11.74 0 0 0 1.21 1.44l14.77 14.74a1.06 1.06 0 0 0 .58.31h.16a1 1 0 0 0 .71-.29l3.84-3.84 3.83 3.84a1 1 0 0 0 .71.29 1 1 0 0 0 .71-.29s11.08-11.12 11.33-11.46a9 9 0 0 0 -.88-11.69zm-20.25 21-14.12-14.07a10.67 10.67 0 0 1 -1-1.17 10.37 10.37 0 0 1 1-13.37 10.31 10.31 0 0 1 13.52-1 1 1 0 0 0 1.21 0 10.29 10.29 0 0 1 16.35 6.5 9 9 0 0 0 -7.87.85 9 9 0 0 0 -11.16 1.24 9 9 0 0 0 -.88 11.68c.26.35 6.09 6.23 6.09 6.23zm19.52-10.5c-.19.26-10.43 10.54-10.43 10.54s-10.21-10.28-10.43-10.54a7 7 0 0 1 .69-9.11 7 7 0 0 1 9.14-.64 1 1 0 0 0 1.21 0 7 7 0 0 1 9.82 9.73z" fill="#fff"/></g></svg>