<svg height="512" viewBox="0 0 64 64" width="512" xmlns="http://www.w3.org/2000/svg" xmlns:xlink="http://www.w3.org/1999/xlink"><linearGradient id="linear-gradient" gradientUnits="userSpaceOnUse" x1="3.25" x2="60.75" y1="32" y2="32"><stop offset="0" stop-color="#5bb4f6"/><stop offset=".61" stop-color="#2191e5"/><stop offset="1" stop-color="#007edb"/></linearGradient><g id="Layer_65" data-name="Layer 65"><rect fill="url(#linear-gradient)" height="57.5" rx="12.75" width="57.5" x="3.25" y="3.25"/><g fill="#fff"><path d="m29.25 33.68a1 1 0 0 0 -1.19.76c-1.45 6.56-6.31 13.19-12.79 13.19a2.16 2.16 0 0 1 -1.77-1 2.75 2.75 0 0 1 -.33-2.51l3.71-15.74a7.6 7.6 0 0 1 4.48-4.79 6.83 6.83 0 0 1 5.88.48 1 1 0 1 0 1-1.72 8.84 8.84 0 0 0 -7.59-.64 9.63 9.63 0 0 0 -5.65 6.17l-3.75 15.74a4.71 4.71 0 0 0 .62 4.23 4.18 4.18 0 0 0 3.4 1.78c7.89 0 13.17-7.63 14.73-14.76a1 1 0 0 0 -.75-1.19z"/><path d="m52.78 43.71-3.78-15.92a9.62 9.62 0 0 0 -5.68-6 8.84 8.84 0 0 0 -7.59.64 1 1 0 1 0 1 1.72 6.83 6.83 0 0 1 5.88-.48 7.55 7.55 0 0 1 4.45 4.7l3.77 15.92a2.7 2.7 0 0 1 -.36 2.42 2.16 2.16 0 0 1 -1.77 1c-6.48 0-11.34-6.63-12.79-13.19a1 1 0 0 0 -1.95.43c1.6 7.05 6.88 14.68 14.77 14.68a4.18 4.18 0 0 0 3.4-1.78 4.66 4.66 0 0 0 .65-4.14z"/><path d="m39 32.28a1 1 0 0 0 .65-1.76l-6.65-5.79v-8.23a1 1 0 0 0 -2 0v8.23l-6.67 5.79a1 1 0 0 0 1.31 1.48l6.36-5.49 6.36 5.49a1 1 0 0 0 .64.28z"/></g></g></svg>