<svg height="512" viewBox="0 0 64 64" width="512" xmlns="http://www.w3.org/2000/svg" xmlns:xlink="http://www.w3.org/1999/xlink"><linearGradient id="linear-gradient" gradientUnits="userSpaceOnUse" x1="3.25" x2="60.75" y1="32" y2="32"><stop offset="0" stop-color="#5bb4f6"/><stop offset=".61" stop-color="#2191e5"/><stop offset="1" stop-color="#007edb"/></linearGradient><g id="Layer_54" data-name="Layer 54"><rect fill="url(#linear-gradient)" height="57.5" rx="12.75" width="57.5" x="3.25" y="3.25"/><g fill="#fff"><path d="m53 22.07a1 1 0 0 0 -1-.92h-35.11a1 1 0 0 0 -1 1v9.53h-3.89a1 1 0 0 0 0 2h7.42a1 1 0 0 0 0-2h-1.53v-7.68l16 10a1 1 0 0 0 1 0l16-10v21.63h-26.89a1 1 0 1 0 0 2h28a1 1 0 0 0 1-1v-24.48s0-.05 0-.08zm-18.56 9.81-14-8.73h28.06z"/><path d="m12 39.18h11.05a1 1 0 1 0 0-2h-11.05a1 1 0 0 0 0 2z"/><path d="m19.42 42.69h-7.42a1 1 0 0 0 0 2h7.42a1 1 0 0 0 0-2z"/></g></g></svg>