<svg id="Layer_2" height="512" viewBox="0 0 64 64" width="512" xmlns="http://www.w3.org/2000/svg" xmlns:xlink="http://www.w3.org/1999/xlink" data-name="Layer 2"><linearGradient id="linear-gradient" gradientUnits="userSpaceOnUse" x1="3.25" x2="60.75" y1="32" y2="32"><stop offset="0" stop-color="#5bb4f6"/><stop offset=".61" stop-color="#2191e5"/><stop offset="1" stop-color="#007edb"/></linearGradient><rect fill="url(#linear-gradient)" height="57.5" rx="12.75" width="57.5" x="3.25" y="3.25"/><path d="m52.64 13.73a1 1 0 0 0 -.82-.21l-13.06 2.48-13.08-4.94a1.18 1.18 0 0 0 -.53 0l-13.33 2.5a1 1 0 0 0 -.82 1v35a1 1 0 0 0 .36.77 1 1 0 0 0 .64.23h.18l13.06-2.56 13.08 4.91a1 1 0 0 0 .53 0l13.33-2.5a1 1 0 0 0 .82-1v-35a1 1 0 0 0 -.36-.68zm-39.64 1.6 11.33-2.12v33l-11.33 2.08zm13.33-1.89 11.34 4.25v32.87l-11.34-4.25zm24.67 35.23-11.33 2.12v-33l11.33-2.08z" fill="#fff"/></svg>