<svg height="512" viewBox="0 0 64 64" width="512" xmlns="http://www.w3.org/2000/svg" xmlns:xlink="http://www.w3.org/1999/xlink"><linearGradient id="linear-gradient" gradientUnits="userSpaceOnUse" x1="3.25" x2="60.75" y1="32" y2="32"><stop offset="0" stop-color="#5bb4f6"/><stop offset=".61" stop-color="#2191e5"/><stop offset="1" stop-color="#007edb"/></linearGradient><g id="Layer_78" data-name="Layer 78"><rect fill="url(#linear-gradient)" height="57.5" rx="12.75" width="57.5" x="3.25" y="3.25"/><g fill="#fff"><path d="m47.74 33.83a1 1 0 0 0 -2 0 13.74 13.74 0 0 1 -27.48 0 1 1 0 0 0 -2 0 15.75 15.75 0 0 0 14.74 15.69v2.74a1 1 0 0 0 2 0v-2.74a15.75 15.75 0 0 0 14.74-15.69z"/><path d="m32 43.84a10 10 0 0 0 10-10v-12.84a10 10 0 1 0 -20 0v12.83a10 10 0 0 0 10 10.01zm-8-22.84a8 8 0 1 1 16 0v12.83a8 8 0 0 1 -16 0z"/></g></g></svg>