<svg height="512" viewBox="0 0 64 64" width="512" xmlns="http://www.w3.org/2000/svg" xmlns:xlink="http://www.w3.org/1999/xlink"><linearGradient id="linear-gradient" gradientUnits="userSpaceOnUse" x1="3.25" x2="60.75" y1="32" y2="32"><stop offset="0" stop-color="#5bb4f6"/><stop offset=".61" stop-color="#2191e5"/><stop offset="1" stop-color="#007edb"/></linearGradient><g id="Layer_29" data-name="Layer 29"><rect fill="url(#linear-gradient)" height="57.5" rx="12.75" width="57.5" x="3.25" y="3.25"/><path d="m39.81 32a9.29 9.29 0 0 0 -3.17-17.54v-2.46a1 1 0 0 0 -2 0v2.41h-3.41v-2.41a1 1 0 0 0 -2 0v2.41h-5.17a1 1 0 0 0 0 2h2.28v31.18h-2.28a1 1 0 0 0 0 2h5.17v2.41a1 1 0 0 0 2 0v-2.41h3.41v2.41a1 1 0 0 0 2 0v-2.46a9.29 9.29 0 0 0 3.17-17.54zm3.13-8.3a7.31 7.31 0 0 1 -7.3 7.3h-7.3v-14.59h7.3a7.31 7.31 0 0 1 7.3 7.29zm-7.3 23.89h-7.3v-14.59h7.3a7.3 7.3 0 1 1 0 14.59z" fill="#fff"/></g></svg>