<svg height="512" viewBox="0 0 64 64" width="512" xmlns="http://www.w3.org/2000/svg" xmlns:xlink="http://www.w3.org/1999/xlink"><linearGradient id="linear-gradient" gradientUnits="userSpaceOnUse" x1="3.25" x2="60.75" y1="32" y2="32"><stop offset="0" stop-color="#5bb4f6"/><stop offset=".61" stop-color="#2191e5"/><stop offset="1" stop-color="#007edb"/></linearGradient><g id="Layer_25" data-name="Layer 25"><rect fill="url(#linear-gradient)" height="57.5" rx="12.75" width="57.5" x="3.25" y="3.25"/><path d="m49.69 43.45a1 1 0 0 0 -1.37.35c-2.71 4.58-6.76 7.2-11.12 7.2s-8.4-2.62-11.12-7.21a21.48 21.48 0 0 1 -2.14-5h10a1 1 0 0 0 0-2h-10.49a25.72 25.72 0 0 1 0-9.58h10.44a1 1 0 0 0 0-2h-9.95a21.74 21.74 0 0 1 2.14-5c2.72-4.58 6.77-7.21 11.12-7.21s8.41 2.63 11.12 7.2a1 1 0 1 0 1.72-1c-3.04-5.2-7.76-8.2-12.84-8.2s-9.75 3-12.83 8.18a22.66 22.66 0 0 0 -2.51 6h-7a1 1 0 0 0 0 2h6.6a27.52 27.52 0 0 0 0 9.58h-6.6a1 1 0 0 0 0 2h7a23 23 0 0 0 2.5 6c3.09 5.24 7.76 8.24 12.84 8.24s9.8-3 12.8-8.18a1 1 0 0 0 -.31-1.37z" fill="#fff"/></g></svg>