<svg height="512" viewBox="0 0 64 64" width="512" xmlns="http://www.w3.org/2000/svg" xmlns:xlink="http://www.w3.org/1999/xlink"><linearGradient id="linear-gradient" gradientUnits="userSpaceOnUse" x1="3.25" x2="60.75" y1="32" y2="32"><stop offset="0" stop-color="#5bb4f6"/><stop offset=".61" stop-color="#2191e5"/><stop offset="1" stop-color="#007edb"/></linearGradient><g id="Layer_28" data-name="Layer 28"><rect fill="url(#linear-gradient)" height="57.5" rx="12.75" width="57.5" x="3.25" y="3.25"/><path d="m46.23 30.58a1 1 0 0 0 -1 1 19.44 19.44 0 0 1 -18.41 19.42v-22l7.61-5.2a1 1 0 0 0 .26-1.39 1 1 0 0 0 -1.39-.26l-6.48 4.43v-6.86l7.61-5.21a1 1 0 1 0 -1.13-1.65l-6.48 4.43v-5.29a1 1 0 0 0 -2 0v6.66l-7.62 5.21a1 1 0 0 0 .57 1.82 1 1 0 0 0 .56-.17l6.49-4.44v6.92l-7.62 5.2a1 1 0 0 0 .57 1.8 1 1 0 0 0 .56-.18l6.49-4.43v21.61a1 1 0 0 0 1 1 21.44 21.44 0 0 0 21.41-21.42 1 1 0 0 0 -1-1z" fill="#fff"/></g></svg>