<svg height="512" viewBox="0 0 64 64" width="512" xmlns="http://www.w3.org/2000/svg" xmlns:xlink="http://www.w3.org/1999/xlink"><linearGradient id="linear-gradient" gradientUnits="userSpaceOnUse" x1="3.25" x2="60.75" y1="32" y2="32"><stop offset="0" stop-color="#5bb4f6"/><stop offset=".61" stop-color="#2191e5"/><stop offset="1" stop-color="#007edb"/></linearGradient><g id="Layer_27" data-name="Layer 27"><rect fill="url(#linear-gradient)" height="57.5" rx="12.75" width="57.5" x="3.25" y="3.25"/><path d="m37.34 33a11 11 0 0 0 0-22h-10a1 1 0 0 0 -1 1v19h-9.68a1 1 0 1 0 0 2h9.68v5h-9.68a1 1 0 0 0 0 2h9.68v12a1 1 0 0 0 2 0v-12h9a1 1 0 0 0 0-2h-9v-5zm-9-20h9a9 9 0 0 1 0 18h-9z" fill="#fff"/></g></svg>