<svg height="512" viewBox="0 0 64 64" width="512" xmlns="http://www.w3.org/2000/svg" xmlns:xlink="http://www.w3.org/1999/xlink"><linearGradient id="linear-gradient" gradientUnits="userSpaceOnUse" x1="3.25" x2="60.75" y1="32" y2="32"><stop offset="0" stop-color="#5bb4f6"/><stop offset=".61" stop-color="#2191e5"/><stop offset="1" stop-color="#007edb"/></linearGradient><g id="Layer_26" data-name="Layer 26"><rect fill="url(#linear-gradient)" height="57.5" rx="12.75" width="57.5" x="3.25" y="3.25"/><path d="m46.44 21h-7.93a11 11 0 0 0 -4.65-8h12.58a1 1 0 0 0 0-2h-28.88a1 1 0 0 0 0 2h10a9 9 0 0 1 8.94 8h-18.94a1 1 0 0 0 0 2h18.94a9 9 0 0 1 -8.94 8h-10a1 1 0 0 0 -.71 1.71l20 20a1 1 0 0 0 .71.29 1 1 0 0 0 .71-.29 1 1 0 0 0 0-1.42l-18.27-18.29h7.59a11 11 0 0 0 11-10h7.93a1 1 0 0 0 0-2z" fill="#fff"/></g></svg>