<svg height="512" viewBox="0 0 64 64" width="512" xmlns="http://www.w3.org/2000/svg" xmlns:xlink="http://www.w3.org/1999/xlink"><linearGradient id="linear-gradient" gradientUnits="userSpaceOnUse" x1="3.25" x2="60.75" y1="32" y2="32"><stop offset="0" stop-color="#5bb4f6"/><stop offset=".61" stop-color="#2191e5"/><stop offset="1" stop-color="#007edb"/></linearGradient><g id="Layer_24" data-name="Layer 24"><rect fill="url(#linear-gradient)" height="57.5" rx="12.75" width="57.5" x="3.25" y="3.25"/><path d="m52 31h-5.65l.8-5.53h4.85a1 1 0 0 0 0-2h-4.56l.94-6.53a1 1 0 0 0 -.85-1.13 1 1 0 0 0 -1.14.85l-1 6.81h-9.88l-2.57-7.19a1 1 0 0 0 -1.88 0l-2.57 7.19h-9.91l-1-6.81a1 1 0 1 0 -2 .28l.93 6.53h-4.51a1 1 0 0 0 0 2h4.85l.8 5.53h-5.65a1 1 0 0 0 0 2h5.93l2.07 14.53a1 1 0 0 0 .89.85h.11a1 1 0 0 0 .94-.66l5.27-14.72h9.58l5.26 14.72a1 1 0 0 0 1.95-.19l2.07-14.53h5.93a1 1 0 0 0 0-2zm-6.87-5.53-.8 5.53h-6.13l-2-5.53zm-13.13-5.88 1.39 3.88h-2.78zm-13.13 5.88h8.91l-1.98 5.53h-6.13zm2.56 17.78-1.43-10.25h5.14zm6.49-12.25 2-5.53h4.2l2 5.53zm14.65 12.25-3.66-10.25h5.14z" fill="#fff"/></g></svg>