<svg height="512" viewBox="0 0 64 64" width="512" xmlns="http://www.w3.org/2000/svg" xmlns:xlink="http://www.w3.org/1999/xlink"><linearGradient id="linear-gradient" gradientUnits="userSpaceOnUse" x1="3.25" x2="60.75" y1="32" y2="32"><stop offset="0" stop-color="#5bb4f6"/><stop offset=".61" stop-color="#2191e5"/><stop offset="1" stop-color="#007edb"/></linearGradient><g id="Layer_23" data-name="Layer 23"><rect fill="url(#linear-gradient)" height="57.5" rx="12.75" width="57.5" x="3.25" y="3.25"/><path d="m48.19 11.16a1 1 0 0 0 -1.38.29l-14.81 22.6-14.81-22.6a1 1 0 0 0 -1.38-.29 1 1 0 0 0 -.29 1.39l14.63 22.32h-10.81a1 1 0 1 0 0 2h11.66v7.33h-11.66a1 1 0 0 0 0 2h11.66v5.8a1 1 0 0 0 2 0v-5.8h11.66a1 1 0 0 0 0-2h-11.66v-7.33h11.66a1 1 0 0 0 0-2h-10.81l14.63-22.32a1 1 0 0 0 -.29-1.39z" fill="#fff"/></g></svg>