<svg height="512" viewBox="0 0 64 64" width="512" xmlns="http://www.w3.org/2000/svg" xmlns:xlink="http://www.w3.org/1999/xlink"><linearGradient id="linear-gradient" gradientUnits="userSpaceOnUse" x1="3.25" x2="60.75" y1="32" y2="32"><stop offset="0" stop-color="#5bb4f6"/><stop offset=".61" stop-color="#2191e5"/><stop offset="1" stop-color="#007edb"/></linearGradient><g id="Layer_22" data-name="Layer 22"><rect fill="url(#linear-gradient)" height="57.5" rx="12.75" width="57.5" x="3.25" y="3.25"/><path d="m50.71 15.53-24.81-4.53a1 1 0 0 0 -.82.21 1 1 0 0 0 -.36.77v20.83a7.11 7.11 0 1 0 2 4.94v-24.55l22.81 4.15v23.59a7.11 7.11 0 1 0 2 4.94v-29.37a1 1 0 0 0 -.82-.98zm-31.12 27.34a5.13 5.13 0 1 1 5.13-5.12 5.13 5.13 0 0 1 -5.13 5.12zm24.82 8.13a5.12 5.12 0 1 1 5.12-5.12 5.13 5.13 0 0 1 -5.12 5.12z" fill="#fff"/></g></svg>