<svg height="512" viewBox="0 0 64 64" width="512" xmlns="http://www.w3.org/2000/svg" xmlns:xlink="http://www.w3.org/1999/xlink"><linearGradient id="linear-gradient" gradientUnits="userSpaceOnUse" x1="3.25" x2="60.75" y1="32" y2="32"><stop offset="0" stop-color="#5bb4f6"/><stop offset=".61" stop-color="#2191e5"/><stop offset="1" stop-color="#007edb"/></linearGradient><g id="Layer_49" data-name="Layer 49"><rect fill="url(#linear-gradient)" height="57.5" rx="12.75" width="57.5" x="3.25" y="3.25"/><path d="m52 16.28h-3.24v-2.13a3.15 3.15 0 0 0 -3.14-3.15h-27.24a3.15 3.15 0 0 0 -3.14 3.15v2.13h-3.24a1 1 0 0 0 -1 1v10.53a1 1 0 0 0 .65.94l19.35 7.13v3.4h-1.12a1 1 0 0 0 -1 1v11.72a1 1 0 0 0 1 1h4.24a1 1 0 0 0 1-1v-11.72a1 1 0 0 0 -1-1h-1.12v-3.4l19.35-7.13a1 1 0 0 0 .65-.94v-10.53a1 1 0 0 0 -1-1zm-18.88 34.72h-2.24v-9.72h2.24zm-14.74-38h27.24a1.15 1.15 0 0 1 1.14 1.15v6.26a1.14 1.14 0 0 1 -1.14 1.14h-27.24a1.14 1.14 0 0 1 -1.14-1.14v-6.26a1.15 1.15 0 0 1 1.14-1.15zm32.62 14.11-19 7-19-7v-8.83h2.24v2.13a3.15 3.15 0 0 0 3.14 3.14h27.24a3.15 3.15 0 0 0 3.14-3.14v-2.13h2.24z" fill="#fff"/></g></svg>