<svg height="512" viewBox="0 0 64 64" width="512" xmlns="http://www.w3.org/2000/svg" xmlns:xlink="http://www.w3.org/1999/xlink"><linearGradient id="linear-gradient" gradientUnits="userSpaceOnUse" x1="3.25" x2="60.75" y1="32" y2="32"><stop offset="0" stop-color="#5bb4f6"/><stop offset=".61" stop-color="#2191e5"/><stop offset="1" stop-color="#007edb"/></linearGradient><g id="Layer_47" data-name="Layer 47"><rect fill="url(#linear-gradient)" height="57.5" rx="12.75" width="57.5" x="3.25" y="3.25"/><g fill="#fff"><path d="m47 33.5h-8.55a1 1 0 0 0 -1 1 8 8 0 1 1 -8-7.95 1 1 0 0 0 1-1v-8.55a1 1 0 0 0 -1-1 18.5 18.5 0 1 0 18.55 18.5 1 1 0 0 0 -1-1zm-17.5 17.5a16.5 16.5 0 0 1 -1-33v6.6a10 10 0 1 0 10.9 10.9h6.6a16.53 16.53 0 0 1 -16.5 15.5z"/><path d="m34.5 11a1 1 0 0 0 -1 1v8.55a1 1 0 0 0 1 1 8 8 0 0 1 8 8 1 1 0 0 0 1 1h8.5a1 1 0 0 0 1-1 18.52 18.52 0 0 0 -18.5-18.55zm9.9 17.5a10 10 0 0 0 -8.9-8.9v-6.6a16.53 16.53 0 0 1 15.5 15.5z"/></g></g></svg>