<svg height="512" viewBox="0 0 64 64" width="512" xmlns="http://www.w3.org/2000/svg" xmlns:xlink="http://www.w3.org/1999/xlink"><linearGradient id="linear-gradient" gradientUnits="userSpaceOnUse" x1="3.25" x2="60.75" y1="32" y2="32"><stop offset="0" stop-color="#5bb4f6"/><stop offset=".61" stop-color="#2191e5"/><stop offset="1" stop-color="#007edb"/></linearGradient><g id="Layer_81" data-name="Layer 81"><rect fill="url(#linear-gradient)" height="57.5" rx="12.75" width="57.5" x="3.25" y="3.25"/><path d="m47.37 43.27a18.84 18.84 0 1 0 -29.71-22.57.91.91 0 0 0 -.07.14 18.91 18.91 0 0 0 .19 18.56l-5.5 5.49a4.83 4.83 0 0 0 6.83 6.83l5.49-5.49a18.75 18.75 0 0 0 9.4 2.53 19 19 0 0 0 9.15-2.35.75.75 0 0 0 .28-.17 18.31 18.31 0 0 0 3.94-2.97zm-25.23-25.22a16.84 16.84 0 0 1 23.86 23.81 17.12 17.12 0 0 1 -3 2.35l-23.21-23.21a16.31 16.31 0 0 1 2.35-2.95zm-4.45 32.25a2.88 2.88 0 0 1 -4 0 2.81 2.81 0 0 1 0-4l7.92-7.92a2.82 2.82 0 0 1 4 4zm8.37-5.54 1-1a4.82 4.82 0 0 0 -6.86-6.76l-1 1a16.9 16.9 0 0 1 -.44-15.08l22.38 22.28a16.93 16.93 0 0 1 -15.08-.44z" fill="#fff"/></g></svg>