<svg height="512" viewBox="0 0 64 64" width="512" xmlns="http://www.w3.org/2000/svg" xmlns:xlink="http://www.w3.org/1999/xlink"><linearGradient id="linear-gradient" gradientUnits="userSpaceOnUse" x1="3.25" x2="60.75" y1="32" y2="32"><stop offset="0" stop-color="#5bb4f6"/><stop offset=".61" stop-color="#2191e5"/><stop offset="1" stop-color="#007edb"/></linearGradient><g id="Layer_70" data-name="Layer 70"><rect fill="url(#linear-gradient)" height="57.5" rx="12.75" width="57.5" x="3.25" y="3.25"/><path d="m52.7 14.76a3.44 3.44 0 0 0 -.87-2.29 3.34 3.34 0 0 0 -2.43-1.12 3.57 3.57 0 0 0 -2.72 1.08l-4.15 4.15-20.3-2a1 1 0 0 0 -.81.29l-3.15 3.13a1 1 0 0 0 .46 1.68l16.47 4.23-7.68 7.68-11.77-1.68a1 1 0 0 0 -.85.28l-2.66 2.66a1 1 0 0 0 -.26 1 1 1 0 0 0 .69.71l13 3.78 3.78 13a1 1 0 0 0 .71.69h.25a1 1 0 0 0 .71-.29l2.66-2.66a1 1 0 0 0 .28-.85l-1.65-11.75 7.68-7.68 4.24 16.47a1 1 0 0 0 1.68.46l3.15-3.15a1 1 0 0 0 .29-.81l-2-20.3 4.27-4.26a3.48 3.48 0 0 0 .98-2.45zm-2.43 1-4.6 4.6a1 1 0 0 0 -.29.81l2 20.3-1.58 1.58-4.21-16.45a1 1 0 0 0 -.7-.71 1 1 0 0 0 -1 .26l-9.27 9.27a1 1 0 0 0 -.29.85l1.67 11.73-1.11 1.11-3.42-11.9a1 1 0 0 0 -.68-.68l-11.94-3.46 1.15-1.07 11.77 1.68a1 1 0 0 0 .85-.29l9.27-9.27a1 1 0 0 0 -.45-1.67l-16.52-4.28 1.58-1.58 20.3 2a1.26 1.26 0 0 0 .81-.29l4.48-4.49a1.64 1.64 0 0 1 1.25-.49 1.32 1.32 0 0 1 1 .45 1.44 1.44 0 0 1 -.06 2z" fill="#fff"/></g></svg>