<svg height="512" viewBox="0 0 64 64" width="512" xmlns="http://www.w3.org/2000/svg" xmlns:xlink="http://www.w3.org/1999/xlink"><linearGradient id="linear-gradient" gradientUnits="userSpaceOnUse" x1="3.25" x2="60.75" y1="32" y2="32"><stop offset="0" stop-color="#5bb4f6"/><stop offset=".61" stop-color="#2191e5"/><stop offset="1" stop-color="#007edb"/></linearGradient><g id="Layer_73" data-name="Layer 73"><rect fill="url(#linear-gradient)" height="57.5" rx="12.75" width="57.5" x="3.25" y="3.25"/><g fill="#fff"><path d="m18.29 31.38a1.15 1.15 0 0 0 .62.77l27.36 10.63c4.18 1.63 6.5-4.91 2.32-6.41l-5.32-2.07-7.92-15.86a1 1 0 0 0 -.53-.48l-4-1.56a1 1 0 0 0 -1.31 1.24l4.16 12.93-9.37-3.64-3.13-8.93a1 1 0 0 0 -.58-.6l-3.37-1.31a1 1 0 0 0 -1 .15 1 1 0 0 0 -.35.94zm1.15-12.26 3.12 8.88a1.25 1.25 0 0 0 .58.6l11.76 4.6a1 1 0 0 0 1-.21 1 1 0 0 0 .27-1l-4.12-12.99 1.68.66 7.93 15.87a1 1 0 0 0 .59.5l5.62 2.19c1.74.59.9 3.33-.87 2.68l-26.83-10.41-2-11.87z"/><path d="m52 46h-40a1 1 0 0 0 0 2h40a1 1 0 0 0 0-2z"/></g></g></svg>