<svg height="512" viewBox="0 0 64 64" width="512" xmlns="http://www.w3.org/2000/svg" xmlns:xlink="http://www.w3.org/1999/xlink"><linearGradient id="linear-gradient" gradientUnits="userSpaceOnUse" x1="3.25" x2="60.75" y1="32" y2="32"><stop offset="0" stop-color="#5bb4f6"/><stop offset=".61" stop-color="#2191e5"/><stop offset="1" stop-color="#007edb"/></linearGradient><g id="Layer_72" data-name="Layer 72"><rect fill="url(#linear-gradient)" height="57.5" rx="12.75" width="57.5" x="3.25" y="3.25"/><g fill="#fff"><path d="m11.42 30.71 11.73 8.29a1 1 0 0 0 1 .1l26.85-11.81c4.1-1.8 1.12-8.07-2.89-6.17l-5.23 2.3-16.82-5.61a1 1 0 0 0 -.72 0l-3.93 1.73a1 1 0 0 0 -.6.89 1 1 0 0 0 .55.91l12.09 6.21-9.2 4.05-8.51-4.09a1 1 0 0 0 -.83 0l-3.31 1.49a1 1 0 0 0 -.18 1.73zm3.87-1.17 8.51 4.09a1.21 1.21 0 0 0 .84 0l11.54-5.08a1 1 0 0 0 .59-.89 1 1 0 0 0 -.54-.91l-12.09-6.2 1.65-.73 16.83 5.62a1 1 0 0 0 .77-.06l5.52-2.38c1.66-.81 3 1.73 1.28 2.51l-26.34 11.55-9.85-6.96z"/><path d="m52 44.25h-40a1 1 0 0 0 0 2h40a1 1 0 0 0 0-2z"/></g></g></svg>