<svg height="512" viewBox="0 0 64 64" width="512" xmlns="http://www.w3.org/2000/svg" xmlns:xlink="http://www.w3.org/1999/xlink"><linearGradient id="linear-gradient" gradientUnits="userSpaceOnUse" x1="3.25" x2="60.75" y1="32" y2="32"><stop offset="0" stop-color="#5bb4f6"/><stop offset=".61" stop-color="#2191e5"/><stop offset="1" stop-color="#007edb"/></linearGradient><g id="Layer_71" data-name="Layer 71"><rect fill="url(#linear-gradient)" height="57.5" rx="12.75" width="57.5" x="3.25" y="3.25"/><g fill="#fff"><path d="m18.7 34.39a1.12 1.12 0 0 0 .19.24 1 1 0 0 0 .67.25h30a3.42 3.42 0 0 0 3.44-3.26 3.37 3.37 0 0 0 -.94-2.49 3.66 3.66 0 0 0 -2.64-1.13h-5.85l-13.44-12.12a1 1 0 0 0 -.67-.25h-4.39a1 1 0 0 0 -.91.57 1 1 0 0 0 .13 1.06l8.78 10.74h-10.33l-6.28-7.29a1 1 0 0 0 -.76-.35h-3.7a1 1 0 0 0 -.87.51 1 1 0 0 0 0 1zm-3.46-12 6.29 7.29a1 1 0 0 0 .76.35h12.89a1 1 0 0 0 .82-1.67l-8.82-10.73h1.9l13.44 12.11a1 1 0 0 0 .73.25h6.17a1.67 1.67 0 0 1 1.19.51 1.38 1.38 0 0 1 .39 1 1.5 1.5 0 0 1 -.41.95 1.44 1.44 0 0 1 -1 .42h-29.47l-6.35-10.51z"/><path d="m52 38.77h-40a1 1 0 0 0 0 2h40a1 1 0 0 0 0-2z"/></g></g></svg>