<svg height="512" viewBox="0 0 64 64" width="512" xmlns="http://www.w3.org/2000/svg" xmlns:xlink="http://www.w3.org/1999/xlink"><linearGradient id="linear-gradient" gradientUnits="userSpaceOnUse" x1="3.25" x2="60.75" y1="32" y2="32"><stop offset="0" stop-color="#5bb4f6"/><stop offset=".61" stop-color="#2191e5"/><stop offset="1" stop-color="#007edb"/></linearGradient><g id="Layer_84" data-name="Layer 84"><rect fill="url(#linear-gradient)" height="57.5" rx="12.75" width="57.5" x="3.25" y="3.25"/><path d="m31.06 36c6.15 0 11.29-1.9 15-5.57 4.06-4.05 6-9.91 5.51-16.95a1 1 0 0 0 -.93-.93c-7-.44-12.9 1.45-17 5.51a17.71 17.71 0 0 0 -3.73 5.51 14.36 14.36 0 0 0 -3.91-8.43c-3-3-7.36-4.43-12.56-4.09a1 1 0 0 0 -.94.93c-.33 5.21 1.08 9.55 4.1 12.56 2.72 2.72 6.53 4.14 11.08 4.14h.46v11.1h-9.77a1 1 0 0 0 -1 1v11.22a1 1 0 0 0 1 1h21.46a1 1 0 0 0 1-1v-11.22a1 1 0 0 0 -1-1h-9.73v-3.78zm7.77 15h-19.46v-9.22h19.46zm-3.78-31.55c3.47-3.46 8.48-5.18 14.52-5 .21 6.05-1.5 11.05-5 14.52s-8.46 5.18-14.5 5v-2.25c.27-5.04 1.93-9.24 4.98-12.27zm-17.05 3.68c-2.45-2.43-3.67-5.91-3.58-10.13 4.21-.07 7.7 1.13 10.12 3.55s3.65 5.91 3.55 10.13c-4.2.09-7.7-1.13-10.09-3.55z" fill="#fff"/></g></svg>