<svg height="512" viewBox="0 0 64 64" width="512" xmlns="http://www.w3.org/2000/svg" xmlns:xlink="http://www.w3.org/1999/xlink"><linearGradient id="linear-gradient" gradientUnits="userSpaceOnUse" x1="3.25" x2="60.75" y1="32" y2="32"><stop offset="0" stop-color="#5bb4f6"/><stop offset=".61" stop-color="#2191e5"/><stop offset="1" stop-color="#007edb"/></linearGradient><g id="Layer_38" data-name="Layer 38"><rect fill="url(#linear-gradient)" height="57.5" rx="12.75" width="57.5" x="3.25" y="3.25"/><path d="m49.22 20h-1.93v-8a1 1 0 0 0 -1-1h-28.58a1 1 0 0 0 -1 1v8h-1.93a3.79 3.79 0 0 0 -3.78 3.83v16.34a3.79 3.79 0 0 0 3.78 3.83h1.93v8a1 1 0 0 0 1 1h28.58a1 1 0 0 0 1-1v-8h1.93a3.79 3.79 0 0 0 3.78-3.83v-16.34a3.79 3.79 0 0 0 -3.78-3.83zm-30.51-7h26.58v7h-26.58zm26.58 38h-26.58v-16.21h26.58zm5.71-10.83a1.79 1.79 0 0 1 -1.78 1.83h-1.93v-8.21a1 1 0 0 0 -1-1h-28.58a1 1 0 0 0 -1 1v8.21h-1.93a1.79 1.79 0 0 1 -1.78-1.83v-16.34a1.79 1.79 0 0 1 1.78-1.83h34.44a1.79 1.79 0 0 1 1.78 1.83z" fill="#fff"/></g></svg>