<svg height="512" viewBox="0 0 64 64" width="512" xmlns="http://www.w3.org/2000/svg" xmlns:xlink="http://www.w3.org/1999/xlink"><linearGradient id="linear-gradient" gradientUnits="userSpaceOnUse" x1="3.25" x2="60.75" y1="32" y2="32"><stop offset="0" stop-color="#5bb4f6"/><stop offset=".61" stop-color="#2191e5"/><stop offset="1" stop-color="#007edb"/></linearGradient><g id="Layer_60" data-name="Layer 60"><rect fill="url(#linear-gradient)" height="57.5" rx="12.75" width="57.5" x="3.25" y="3.25"/><path d="m49 27.27h-4.49a12.55 12.55 0 0 0 -25 0h-4.51a4 4 0 0 0 -4 4v9.38a4 4 0 0 0 4 4h1.75v2.71a1 1 0 0 0 2 0v-2.79h26.54v2.71a1 1 0 0 0 2 0v-2.71h1.71a4 4 0 0 0 4-4v-9.34a4 4 0 0 0 -4-3.96zm-17-9.55a10.57 10.57 0 0 1 10.51 9.55h-3a7.56 7.56 0 0 0 -15 0h-3a10.57 10.57 0 0 1 10.49-9.55zm-5.56 10.55a5.56 5.56 0 0 1 11.12 0 5.56 5.56 0 0 1 -11.12 0zm24.56 12.34a2 2 0 0 1 -2 2h-34a2 2 0 0 1 -2-2v-9.38a2 2 0 0 1 2-2h9.55a7.55 7.55 0 0 0 15 0h9.45a2 2 0 0 1 2 2z" fill="#fff"/></g></svg>