<svg height="512" viewBox="0 0 64 64" width="512" xmlns="http://www.w3.org/2000/svg" xmlns:xlink="http://www.w3.org/1999/xlink"><linearGradient id="linear-gradient" gradientUnits="userSpaceOnUse" x1="3.25" x2="60.75" y1="32" y2="32"><stop offset="0" stop-color="#5bb4f6"/><stop offset=".61" stop-color="#2191e5"/><stop offset="1" stop-color="#007edb"/></linearGradient><g id="Layer_52" data-name="Layer 52"><rect fill="url(#linear-gradient)" height="57.5" rx="12.75" width="57.5" x="3.25" y="3.25"/><path d="m52.79 36.61-6.72-8.77a1 1 0 0 0 -1.38-.2l-1.69 1.2-10.15-16.28a1 1 0 0 0 -1.7 0l-10.15 16.28-1.67-1.2a1 1 0 0 0 -1.38.2l-6.72 8.77a1 1 0 0 0 -.2.77 1 1 0 0 0 .43.67l20 13.69a1 1 0 0 0 1.12 0l20-13.69a1 1 0 0 0 .43-.67 1 1 0 0 0 -.22-.77zm-18.3-1.61-1.49 1.08v-19.5l8.32 13.31zm-11.81-5.11 8.32-13.31v19.5l-1.49-1.08zm-3.76-.06 9.39 6.77 2.69 2v10.4l-17.56-12zm14.08 19.17v-10.39l2.69-2 9.39-6.77 5.48 7.16z" fill="#fff"/></g></svg>