<svg height="512" viewBox="0 0 64 64" width="512" xmlns="http://www.w3.org/2000/svg" xmlns:xlink="http://www.w3.org/1999/xlink"><linearGradient id="linear-gradient" gradientUnits="userSpaceOnUse" x1="3.25" x2="60.75" y1="32" y2="32"><stop offset="0" stop-color="#5bb4f6"/><stop offset=".61" stop-color="#2191e5"/><stop offset="1" stop-color="#007edb"/></linearGradient><g id="Layer_68" data-name="Layer 68"><rect fill="url(#linear-gradient)" height="57.5" rx="12.75" width="57.5" x="3.25" y="3.25"/><path d="m45.88 25a1 1 0 0 0 .38.08 1 1 0 0 0 .7-.29l5.73-5.71a1 1 0 0 0 .3-.71 1 1 0 0 0 -.3-.71l-5.69-5.66a1 1 0 0 0 -1.08-.22 1 1 0 0 0 -.62.92v4.71h-20.44a8.14 8.14 0 1 0 0 16.27h14.26a6.14 6.14 0 1 1 0 12.27h-17.44a5.36 5.36 0 1 0 0 2h17.44a8.14 8.14 0 1 0 0-16.27h-14.26a6.14 6.14 0 0 1 0-12.27h20.4v4.69a1 1 0 0 0 .62.9zm-29.48 25.32a3.39 3.39 0 1 1 3.39-3.39 3.39 3.39 0 0 1 -3.39 3.39zm30.86-35.23 3.31 3.3-3.31 3.3z" fill="#fff"/></g></svg>