<svg height="512" viewBox="0 0 64 64" width="512" xmlns="http://www.w3.org/2000/svg" xmlns:xlink="http://www.w3.org/1999/xlink"><linearGradient id="linear-gradient" gradientUnits="userSpaceOnUse" x1="3.25" x2="60.75" y1="32" y2="32"><stop offset="0" stop-color="#5bb4f6"/><stop offset=".61" stop-color="#2191e5"/><stop offset="1" stop-color="#007edb"/></linearGradient><g id="Layer_74" data-name="Layer 74"><rect fill="url(#linear-gradient)" height="57.5" rx="12.75" width="57.5" x="3.25" y="3.25"/><path d="m52.87 43.39a1 1 0 0 0 -.87-.5h-19v-29a1 1 0 0 0 -.71-1 1 1 0 0 0 -1.12.4l-15.71 23.21a1 1 0 0 0 .83 1.56h14.71v4.83h-19a1 1 0 0 0 -.87.5 1 1 0 0 0 0 1l3.57 6.22a1 1 0 0 0 .87.5h32.86a1 1 0 0 0 .87-.5l3.57-6.22a1 1 0 0 0 0-1zm-34.7-7.33 12.83-18.92v18.92zm29.68 13h-31.7l-2.42-4.22h36.54z" fill="#fff"/></g></svg>