<svg height="512" viewBox="0 0 64 64" width="512" xmlns="http://www.w3.org/2000/svg" xmlns:xlink="http://www.w3.org/1999/xlink"><linearGradient id="linear-gradient" gradientUnits="userSpaceOnUse" x1="3.25" x2="60.75" y1="32" y2="32"><stop offset="0" stop-color="#5bb4f6"/><stop offset=".61" stop-color="#2191e5"/><stop offset="1" stop-color="#007edb"/></linearGradient><g id="Layer_85" data-name="Layer 85"><rect fill="url(#linear-gradient)" height="57.5" rx="12.75" width="57.5" x="3.25" y="3.25"/><g fill="#fff"><path d="m32 31.83a5.92 5.92 0 1 0 5.91 5.92 5.92 5.92 0 0 0 -5.91-5.92zm0 9.83a3.92 3.92 0 1 1 3.91-3.91 3.92 3.92 0 0 1 -3.91 3.91z"/><path d="m52 47.57h-3.53v-5.18a16.48 16.48 0 0 0 -15.47-16.39v-4.61h12.73a6 6 0 0 0 6-6 1 1 0 0 0 -2 0 4 4 0 0 1 -4 4h-27.46a4 4 0 0 1 -4-4 1 1 0 0 0 -2 0 6 6 0 0 0 6 6h12.73v4.61a16.48 16.48 0 0 0 -15.47 16.39v5.18h-3.53a1 1 0 0 0 0 2h40a1 1 0 0 0 0-2zm-34.47 0v-5.18a14.47 14.47 0 0 1 28.94 0v5.18z"/></g></g></svg>