<svg height="512" viewBox="0 0 64 64" width="512" xmlns="http://www.w3.org/2000/svg" xmlns:xlink="http://www.w3.org/1999/xlink"><linearGradient id="linear-gradient" gradientUnits="userSpaceOnUse" x1="3.25" x2="60.75" y1="32" y2="32"><stop offset="0" stop-color="#5bb4f6"/><stop offset=".61" stop-color="#2191e5"/><stop offset="1" stop-color="#007edb"/></linearGradient><g id="Layer_86" data-name="Layer 86"><rect fill="url(#linear-gradient)" height="57.5" rx="12.75" width="57.5" x="3.25" y="3.25"/><path d="m52.92 35.56-6.81-16c2-.58 3.73-2.5 5.17-4a1 1 0 0 0 -1.42-1.41l-1.86 1.91a6.9 6.9 0 0 1 -7.62 1.41l-4.75-2.11a8.81 8.81 0 0 0 -7.18 0l-4.75 2.11a6.9 6.9 0 0 1 -7.7-1.41l-1.9-1.91a1 1 0 0 0 -1.42 1.41c1.46 1.46 3.16 3.38 5.18 4l-6.82 16a1 1 0 0 0 .28 1.16 12.28 12.28 0 0 0 15.56 0 1 1 0 0 0 .29-1.16l-6.56-15.56c3.39.37 7.19-2.77 10.39-3.32v31.46h-5.93a1 1 0 0 0 0 2h13.86a1 1 0 0 0 0-2h-5.93v-31.46c3.2.56 7 3.67 10.39 3.36l-6.6 15.52a1 1 0 0 0 .29 1.16 12.28 12.28 0 0 0 15.56 0 1 1 0 0 0 .28-1.16zm-39.7.07 5.92-13.93 5.92 13.93a10.28 10.28 0 0 1 -11.84 0zm25.72 0 5.92-13.93 5.92 13.93a10.28 10.28 0 0 1 -11.84 0z" fill="#fff"/></g></svg>