<svg height="512" viewBox="0 0 64 64" width="512" xmlns="http://www.w3.org/2000/svg" xmlns:xlink="http://www.w3.org/1999/xlink"><linearGradient id="linear-gradient" gradientUnits="userSpaceOnUse" x1="3.25" x2="60.75" y1="32" y2="32"><stop offset="0" stop-color="#5bb4f6"/><stop offset=".61" stop-color="#2191e5"/><stop offset="1" stop-color="#007edb"/></linearGradient><g id="Layer_75" data-name="Layer 75"><rect fill="url(#linear-gradient)" height="57.5" rx="12.75" width="57.5" x="3.25" y="3.25"/><path d="m52 46.34a4.22 4.22 0 0 0 -3.19 1.48 2.34 2.34 0 0 1 -1.81.92 2.31 2.31 0 0 1 -1.81-.92c-.2-.19-.42-.39-.66-.59l2.69-7a1 1 0 0 0 -.47-1.23l-2.89-1.52v-13.77a1 1 0 0 0 -1-1h-9.86v-3.24h5.46a1 1 0 0 0 1-1v-4.21a1 1 0 0 0 -1-1h-6.46a1 1 0 0 0 -1 1v8.45h-9.86a1 1 0 0 0 -1 1v13.76l-2.89 1.53a1 1 0 0 0 -.47 1.25l2.69 7c-.25.19-.46.4-.67.59a2.23 2.23 0 0 1 -3.61 0 4.22 4.22 0 0 0 -3.19-1.5 1 1 0 0 0 0 2 2.36 2.36 0 0 1 1.81.92 4.18 4.18 0 0 0 6.38 0 2.23 2.23 0 0 1 3.61 0 4.19 4.19 0 0 0 6.39 0 2.23 2.23 0 0 1 3.61 0 4.18 4.18 0 0 0 6.38 0 2.24 2.24 0 0 1 3.62 0 4.19 4.19 0 0 0 6.39 0 2.36 2.36 0 0 1 1.81-.92 1 1 0 0 0 0-2zm-14.54-28.87h-4.46v-2.21h4.46zm-15.32 7.24h19.72v11.71l-9.39-5a1 1 0 0 0 -.94 0l-9.39 5zm16.66 23.11a2.24 2.24 0 0 1 -3.62 0 4.18 4.18 0 0 0 -6.38 0 2.23 2.23 0 0 1 -3.61 0 4.24 4.24 0 0 0 -3.19-1.48 4.81 4.81 0 0 0 -.7.06l-2.33-6 13-6.86 13 6.86-2.33 6a5.09 5.09 0 0 0 -.71-.06 4.22 4.22 0 0 0 -3.13 1.48z" fill="#fff"/></g></svg>