<svg height="512" viewBox="0 0 64 64" width="512" xmlns="http://www.w3.org/2000/svg" xmlns:xlink="http://www.w3.org/1999/xlink"><linearGradient id="linear-gradient" gradientUnits="userSpaceOnUse" x1="3.25" x2="60.75" y1="32" y2="32"><stop offset="0" stop-color="#5bb4f6"/><stop offset=".61" stop-color="#2191e5"/><stop offset="1" stop-color="#007edb"/></linearGradient><g id="Layer_76" data-name="Layer 76"><rect fill="url(#linear-gradient)" height="57.5" rx="12.75" width="57.5" x="3.25" y="3.25"/><path d="m52 46.9a4.22 4.22 0 0 0 -3.19 1.48 2.37 2.37 0 0 1 -1.81.92 2.34 2.34 0 0 1 -1.81-.92c-.21-.2-.44-.41-.69-.61l7.89-12.87a1 1 0 0 0 -.85-1.52h-3.36l-9-10.87a1 1 0 0 0 -.77-.36h-2.92v-8.45a1 1 0 0 0 -1-1h-6.49a1 1 0 0 0 -1 1v4.21a1 1 0 0 0 1 1h5.46v3.24h-17.17a1 1 0 0 0 -1 1v10.23h-2.83a1 1 0 0 0 -.8.4 1 1 0 0 0 -.15.89l4.26 14.21a6 6 0 0 1 -.58-.5 4.22 4.22 0 0 0 -3.19-1.48 1 1 0 0 0 0 2 2.36 2.36 0 0 1 1.81.92 4.22 4.22 0 0 0 3.19 1.48h.33a4.37 4.37 0 0 0 2.86-1.46 2.23 2.23 0 0 1 3.61 0 4.19 4.19 0 0 0 6.39 0 2.23 2.23 0 0 1 3.61 0 4.18 4.18 0 0 0 6.38 0 2.24 2.24 0 0 1 3.62 0 4.19 4.19 0 0 0 6.39 0 2.36 2.36 0 0 1 1.81-.94 1 1 0 0 0 0-2zm-23-30v-2.2h4.46v2.21zm-11.71 7.25h20.71l7.63 9.23h-28.34zm21.51 24.23a2.24 2.24 0 0 1 -3.62 0 4.18 4.18 0 0 0 -6.38 0 2.23 2.23 0 0 1 -3.61 0 4.19 4.19 0 0 0 -6.39 0 4.08 4.08 0 0 1 -.88.7l-4.11-13.7h35.94l-7.1 11.62a4.43 4.43 0 0 0 -.65-.1 4.22 4.22 0 0 0 -3.2 1.48z" fill="#fff"/></g></svg>