<svg height="512" viewBox="0 0 64 64" width="512" xmlns="http://www.w3.org/2000/svg" xmlns:xlink="http://www.w3.org/1999/xlink"><linearGradient id="linear-gradient" gradientUnits="userSpaceOnUse" x1="3.25" x2="60.75" y1="32" y2="32"><stop offset="0" stop-color="#5bb4f6"/><stop offset=".61" stop-color="#2191e5"/><stop offset="1" stop-color="#007edb"/></linearGradient><g id="Layer_61" data-name="Layer 61"><rect fill="url(#linear-gradient)" height="57.5" rx="12.75" width="57.5" x="3.25" y="3.25"/><g fill="#fff"><path d="m52 15.53h-40a1 1 0 0 0 0 2h2.54v22.73a1 1 0 0 0 1 1h15.46v5.21h-4a1 1 0 0 0 0 2h10a1 1 0 0 0 0-2h-4v-5.21h15.46a1 1 0 0 0 1-1v-22.73h2.54a1 1 0 0 0 0-2zm-4.54 23.73h-30.92v-21.73h30.92z"/><path d="m27.42 34.72a1 1 0 0 0 .5.13 1 1 0 0 0 .5-.13l9.33-5.39a1 1 0 0 0 0-1.73l-9.33-5.39a1 1 0 0 0 -1 0 1 1 0 0 0 -.5.87v10.77a1 1 0 0 0 .5.87zm1.5-9.91 6.33 3.65-6.33 3.66z"/></g></g></svg>