<svg height="512" viewBox="0 0 64 64" width="512" xmlns="http://www.w3.org/2000/svg" xmlns:xlink="http://www.w3.org/1999/xlink"><linearGradient id="linear-gradient" gradientUnits="userSpaceOnUse" x1="3.25" x2="60.75" y1="32" y2="32"><stop offset="0" stop-color="#5bb4f6"/><stop offset=".61" stop-color="#2191e5"/><stop offset="1" stop-color="#007edb"/></linearGradient><g id="Layer_31" data-name="Layer 31"><rect fill="url(#linear-gradient)" height="57.5" rx="12.75" width="57.5" x="3.25" y="3.25"/><path d="m52.71 30.23a1 1 0 0 0 -.87-.28l-7.35 1.23a14.44 14.44 0 0 0 -3.21.92 18 18 0 0 0 -3.22-12.28l-5.25-7.34s0 0 0 0a1 1 0 0 0 -1.54 0s0 0 0 0l-5.25 7.34a18 18 0 0 0 -3.3 12.28 14.44 14.44 0 0 0 -3.21-.92l-7.35-1.18a1 1 0 0 0 -1.16 1.1l1.23 7.35a14.91 14.91 0 0 0 12.26 12.25l7.35 1.23h.32l7.35-1.23a14.91 14.91 0 0 0 12.25-12.25l1.24-7.35a1 1 0 0 0 -.29-.87zm-25.14-9.23 3.43-4.82v11.22a1 1 0 0 0 2 0v-11.22l3.43 4.82a15.9 15.9 0 0 1 2.65 12.24 14.9 14.9 0 0 0 -6.84 10.21l-.24 1.41-.24-1.43a14.9 14.9 0 0 0 -6.84-10.21 15.9 15.9 0 0 1 2.65-12.22zm-2.75 27.73a12.92 12.92 0 0 1 -10.61-10.61l-1-6 6 1a12.92 12.92 0 0 1 10.58 10.64l1 6zm25-10.61a12.92 12.92 0 0 1 -10.64 10.61l-6 1 1-6a12.92 12.92 0 0 1 10.64-10.58l6-1z" fill="#fff"/></g></svg>