<svg height="512" viewBox="0 0 64 64" width="512" xmlns="http://www.w3.org/2000/svg" xmlns:xlink="http://www.w3.org/1999/xlink"><linearGradient id="linear-gradient" gradientUnits="userSpaceOnUse" x1="3.25" x2="60.75" y1="32" y2="32"><stop offset="0" stop-color="#5bb4f6"/><stop offset=".61" stop-color="#2191e5"/><stop offset="1" stop-color="#007edb"/></linearGradient><g id="Layer_64" data-name="Layer 64"><rect fill="url(#linear-gradient)" height="57.5" rx="12.75" width="57.5" x="3.25" y="3.25"/><path d="m50.78 33.54a4.18 4.18 0 1 0 -5.17 4v4.25a9.18 9.18 0 0 1 -18.35 0v-7.02a13 13 0 0 0 12-13v-9.77a1 1 0 0 0 -1-1h-3.07a1 1 0 0 0 0 2h2.11v8.78a11 11 0 0 1 -22.08 0v-8.78h2.11a1 1 0 0 0 0-2h-3.11a1 1 0 0 0 -1 1v9.78a13.05 13.05 0 0 0 12 13v7.06a11.17 11.17 0 0 0 19.07 7.9 11.06 11.06 0 0 0 3.28-7.9v-4.26a4.16 4.16 0 0 0 3.21-4.04zm-4.17 2.18a2.18 2.18 0 1 1 2.18-2.18 2.18 2.18 0 0 1 -2.19 2.18z" fill="#fff"/></g></svg>