<svg height="512" viewBox="0 0 64 64" width="512" xmlns="http://www.w3.org/2000/svg" xmlns:xlink="http://www.w3.org/1999/xlink"><linearGradient id="linear-gradient" gradientUnits="userSpaceOnUse" x1="3.25" x2="60.75" y1="32" y2="32"><stop offset="0" stop-color="#5bb4f6"/><stop offset=".61" stop-color="#2191e5"/><stop offset="1" stop-color="#007edb"/></linearGradient><g id="Layer_82" data-name="Layer 82"><rect fill="url(#linear-gradient)" height="57.5" rx="12.75" width="57.5" x="3.25" y="3.25"/><path d="m52.71 51.29-9.07-9.06 5-5a1 1 0 0 0 -1.41-1.41l-1.78 1.78-5.52-5.6 8.84-8.84a1 1 0 0 0 .23-.35l3.94-10.46a1 1 0 0 0 -.23-1.06 1 1 0 0 0 -1.06-.23l-10.46 3.94a1 1 0 0 0 -.35.23l-8.84 8.84-8.84-8.84a1 1 0 0 0 -.35-.23l-10.46-3.94a1 1 0 0 0 -1.06.23 1 1 0 0 0 -.23 1.06l3.94 10.46a1 1 0 0 0 .23.35l8.84 8.84-5.56 5.55-1.78-1.77a1 1 0 1 0 -1.41 1.41l5 5-9.07 9.06a1 1 0 0 0 0 1.42 1 1 0 0 0 1.42 0l9.06-9.07 5 5a1 1 0 0 0 1.41 0 1 1 0 0 0 0-1.41l-1.77-1.78 5.63-5.48 5.56 5.56-1.78 1.78a1 1 0 0 0 0 1.41 1 1 0 0 0 1.41 0l5-5 9.06 9.07a1 1 0 0 0 1.42 0 1 1 0 0 0 .04-1.46zm-35.91-29.39-3.09-8.19 8.19 3.08 8.69 8.69-5.11 5.1zm3.13 17.1 22.17-22.2 8.19-3.09-3.09 8.19-22.2 22.17zm13.49-.45 5.1-5.1 5.55 5.55-5.07 5.07z" fill="#fff"/></g></svg>