<svg height="512" viewBox="0 0 64 64" width="512" xmlns="http://www.w3.org/2000/svg" xmlns:xlink="http://www.w3.org/1999/xlink"><linearGradient id="linear-gradient" gradientUnits="userSpaceOnUse" x1="3.25" x2="60.75" y1="32" y2="32"><stop offset="0" stop-color="#5bb4f6"/><stop offset=".61" stop-color="#2191e5"/><stop offset="1" stop-color="#007edb"/></linearGradient><g id="Layer_83" data-name="Layer 83"><rect fill="url(#linear-gradient)" height="57.5" rx="12.75" width="57.5" x="3.25" y="3.25"/><path d="m52 13.2h-12.51a1 1 0 0 0 -1 1 6.49 6.49 0 1 1 -13 0 1 1 0 0 0 -1-1h-12.49a1 1 0 0 0 -1 1v11.5a1 1 0 0 0 1 1h4.71v23.1a1 1 0 0 0 1 1h28.58a1 1 0 0 0 1-1v-23.1h4.71a1 1 0 0 0 1-1v-11.5a1 1 0 0 0 -1-1zm-1 11.5h-4.71a1 1 0 0 0 -1 1v23.1h-26.58v-23.1a1 1 0 0 0 -1-1h-4.71v-9.5h10.57a8.49 8.49 0 0 0 16.86 0h10.57z" fill="#fff"/></g></svg>