<svg height="512" viewBox="0 0 64 64" width="512" xmlns="http://www.w3.org/2000/svg" xmlns:xlink="http://www.w3.org/1999/xlink"><linearGradient id="linear-gradient" gradientUnits="userSpaceOnUse" x1="3.25" x2="60.75" y1="32" y2="32"><stop offset="0" stop-color="#5bb4f6"/><stop offset=".61" stop-color="#2191e5"/><stop offset="1" stop-color="#007edb"/></linearGradient><g id="Layer_4" data-name="Layer 4"><rect fill="url(#linear-gradient)" height="57.5" rx="12.75" width="57.5" x="3.25" y="3.25"/><path d="m47.38 25.66h-24.08v-4a8.7 8.7 0 0 1 17.4 0 1 1 0 1 0 2 0 10.7 10.7 0 0 0 -21.4 0v4h-4.68a1 1 0 0 0 -1 1v25.34a1 1 0 0 0 1 1h30.76a1 1 0 0 0 1-1v-25.34a1 1 0 0 0 -1-1zm-15.38 17.5a2.79 2.79 0 1 1 2.79-2.79 2.79 2.79 0 0 1 -2.79 2.79zm14.38 7.84h-13.38v-6a4.79 4.79 0 1 0 -2 0v6h-13.38v-23.34h28.76z" fill="#fff"/></g></svg>