<svg height="512" viewBox="0 0 64 64" width="512" xmlns="http://www.w3.org/2000/svg" xmlns:xlink="http://www.w3.org/1999/xlink"><linearGradient id="linear-gradient" gradientUnits="userSpaceOnUse" x1="3.25" x2="60.75" y1="32" y2="32"><stop offset="0" stop-color="#5bb4f6"/><stop offset=".61" stop-color="#2191e5"/><stop offset="1" stop-color="#007edb"/></linearGradient><g id="Layer_48" data-name="Layer 48"><rect fill="url(#linear-gradient)" height="57.5" rx="12.75" width="57.5" x="3.25" y="3.25"/><g fill="#fff"><path d="m52.87 14.18a1 1 0 0 0 -.87-.5h-40a1 1 0 0 0 -.87.5 1 1 0 0 0 0 1l20 34.64a1 1 0 0 0 1.74 0l20-34.64a1 1 0 0 0 0-1zm-20.87 33.14-18.27-31.64h36.54z"/><path d="m32 31a1 1 0 0 0 1-1v-8.73a1 1 0 1 0 -2 0v8.73a1 1 0 0 0 1 1z"/><path d="m31.62 34a1.19 1.19 0 0 0 -.33.22 1 1 0 0 0 -.29.71 1 1 0 0 0 1 1 1 1 0 0 0 .71-.3 1 1 0 0 0 .29-.7 1 1 0 0 0 -.29-.71 1 1 0 0 0 -1.09-.22z"/></g></g></svg>