<svg height="512" viewBox="0 0 64 64" width="512" xmlns="http://www.w3.org/2000/svg" xmlns:xlink="http://www.w3.org/1999/xlink"><linearGradient id="linear-gradient" gradientUnits="userSpaceOnUse" x1="3.25" x2="60.75" y1="32" y2="32"><stop offset="0" stop-color="#5bb4f6"/><stop offset=".61" stop-color="#2191e5"/><stop offset="1" stop-color="#007edb"/></linearGradient><g id="Layer_64" data-name="Layer 64"><rect fill="url(#linear-gradient)" height="57.5" rx="12.75" width="57.5" x="3.25" y="3.25"/><g fill="#fff"><path d="m46.46 19.48h-3v-7.48a.76.76 0 0 0 -.75-.75h-21.46a.76.76 0 0 0 -.75.75v7.48h-3a5.44 5.44 0 0 0 -5.43 5.44v22.39a5.44 5.44 0 0 0 5.43 5.44h28.96a5.44 5.44 0 0 0 5.43-5.44v-22.39a5.44 5.44 0 0 0 -5.43-5.44zm-24.46-6.73h20v6.73h-20zm28.39 34.56a3.94 3.94 0 0 1 -3.93 3.94h-28.92a3.94 3.94 0 0 1 -3.93-3.94v-22.39a3.94 3.94 0 0 1 3.93-3.92h28.92a3.94 3.94 0 0 1 3.93 3.94z"/><path d="m37.64 35h-4.89v-5.8a.75.75 0 0 0 -1.5 0v5.8h-4.89a.75.75 0 0 0 0 1.5h4.89v5.81a.75.75 0 0 0 1.5 0v-5.81h4.89a.75.75 0 0 0 0-1.5z"/></g></g></svg>