<svg height="512" viewBox="0 0 64 64" width="512" xmlns="http://www.w3.org/2000/svg" xmlns:xlink="http://www.w3.org/1999/xlink"><linearGradient id="linear-gradient" gradientUnits="userSpaceOnUse" x1="3.25" x2="60.75" y1="32" y2="32"><stop offset="0" stop-color="#5bb4f6"/><stop offset=".61" stop-color="#2191e5"/><stop offset="1" stop-color="#007edb"/></linearGradient><g id="Layer_5" data-name="Layer 5"><rect fill="url(#linear-gradient)" height="57.5" rx="12.75" width="57.5" x="3.25" y="3.25"/><g fill="#fff"><path d="m52.67 12a.73.73 0 0 0 -.68-.68c-.81-.07-19.85-1.44-31 9.69s-9.75 30.16-9.68 31a.73.73 0 0 0 .68.68c.17 0 1.16.09 2.71.09 5.79 0 19.49-1 28.27-9.78 11.14-11.14 9.77-30.18 9.7-31zm-10.75 29.92c-9.5 9.51-25.69 9.43-29.13 9.29-.14-3.44-.22-19.63 9.29-29.13s25.69-9.42 29.13-9.29c.14 3.44.22 19.63-9.29 29.13z"/><path d="m38.6 26.46 2-2a.75.75 0 0 0 -1.06-1.06l-2 2-2.74-2.74a.74.74 0 0 0 -1.06 0 .75.75 0 0 0 0 1.06l2.74 2.74-4.48 4.48-2.74-2.74a.75.75 0 0 0 -1.06 1.06l2.74 2.74-4.48 4.48-2.74-2.74a.75.75 0 0 0 -1.06 0 .74.74 0 0 0 0 1.06l2.74 2.74-2 2a.74.74 0 0 0 0 1.06.71.71 0 0 0 .53.22.74.74 0 0 0 .53-.22l2-2 2.74 2.74a.73.73 0 0 0 .53.22.74.74 0 0 0 .53-.22.75.75 0 0 0 0-1.06l-2.74-2.74 4.48-4.48 2.74 2.74a.75.75 0 0 0 1.06 0 .75.75 0 0 0 0-1.06l-2.74-2.74 4.48-4.48 2.74 2.74a.79.79 0 0 0 .53.22.75.75 0 0 0 .53-.22.74.74 0 0 0 0-1.06z"/></g></g></svg>