<svg height="512" viewBox="0 0 64 64" width="512" xmlns="http://www.w3.org/2000/svg" xmlns:xlink="http://www.w3.org/1999/xlink"><linearGradient id="linear-gradient" gradientUnits="userSpaceOnUse" x1="3.25" x2="60.75" y1="32" y2="32"><stop offset="0" stop-color="#5bb4f6"/><stop offset=".61" stop-color="#2191e5"/><stop offset="1" stop-color="#007edb"/></linearGradient><g id="Layer_16" data-name="Layer 16"><rect fill="url(#linear-gradient)" height="57.5" rx="12.75" width="57.5" x="3.25" y="3.25"/><path d="m52 32.17h-39.25v-10.57a4.22 4.22 0 1 1 8.43 0 .75.75 0 0 0 1.5 0 5.72 5.72 0 1 0 -11.43 0v12.6a10.2 10.2 0 0 0 6.75 9.59v3.58a.75.75 0 1 0 1.5 0v-3.16a9.63 9.63 0 0 0 1.95.19h21.1a9.63 9.63 0 0 0 2-.19v3.16a.75.75 0 1 0 1.5 0v-3.58a10.2 10.2 0 0 0 6.75-9.59v-1.28a.76.76 0 0 0 -.8-.75zm-.75 2a8.71 8.71 0 0 1 -8.7 8.7h-21.1a8.71 8.71 0 0 1 -8.7-8.7v-.53h38.5z" fill="#fff"/></g></svg>