<svg height="512" viewBox="0 0 64 64" width="512" xmlns="http://www.w3.org/2000/svg" xmlns:xlink="http://www.w3.org/1999/xlink"><linearGradient id="linear-gradient" gradientUnits="userSpaceOnUse" x1="3.25" x2="60.75" y1="32" y2="32"><stop offset="0" stop-color="#5bb4f6"/><stop offset=".61" stop-color="#2191e5"/><stop offset="1" stop-color="#007edb"/></linearGradient><g id="Layer_17" data-name="Layer 17"><rect fill="url(#linear-gradient)" height="57.5" rx="12.75" width="57.5" x="3.25" y="3.25"/><path d="m47 32.66v-15.94a.75.75 0 0 0 -1.5 0v2.88h-27.04v-2.88a.75.75 0 0 0 -1.5 0v15.94a8.55 8.55 0 0 0 -5.71 8.05v2.94a.76.76 0 0 0 .75.75h5v2.88a.75.75 0 0 0 1.5 0v-2.88h27.04v2.88a.75.75 0 0 0 1.5 0v-2.88h5a.76.76 0 0 0 .75-.75v-2.94a8.55 8.55 0 0 0 -5.79-8.05zm-28.54-11.56h27.08v3.3h-27.08zm27.08 4.8v6.26h-12.79v-6.26zm-27.08 0h12.79v6.26h-12.79zm32.79 17h-38.5v-2.19a7.05 7.05 0 0 1 7.05-7.05h24.4a7.05 7.05 0 0 1 7 7.05z" fill="#fff"/></g></svg>