<svg height="512" viewBox="0 0 64 64" width="512" xmlns="http://www.w3.org/2000/svg" xmlns:xlink="http://www.w3.org/1999/xlink"><linearGradient id="linear-gradient" gradientUnits="userSpaceOnUse" x1="3.25" x2="60.75" y1="32" y2="32"><stop offset="0" stop-color="#5bb4f6"/><stop offset=".61" stop-color="#2191e5"/><stop offset="1" stop-color="#007edb"/></linearGradient><g id="Layer_18" data-name="Layer 18"><rect fill="url(#linear-gradient)" height="57.5" rx="12.75" width="57.5" x="3.25" y="3.25"/><g fill="#fff"><path d="m51.87 32.57a.75.75 0 0 0 -.75.75v2.68h-3.12v-14.56a.74.74 0 0 0 -.75-.75h-14.5v-2.31a3.61 3.61 0 1 0 -1.5 0v2.31h-14.53a.74.74 0 0 0 -.75.75v14.56h-3.09v-2.68a.75.75 0 0 0 -1.5 0v6.79a.75.75 0 0 0 1.5 0v-2.64h3.12v14.53a.75.75 0 0 0 .75.75h30.53a.75.75 0 0 0 .72-.75v-14.53h3.09v2.64a.75.75 0 0 0 1.5 0v-6.79a.76.76 0 0 0 -.72-.75zm-22-17.71a2.11 2.11 0 1 1 2.13 2.14 2.12 2.12 0 0 1 -2.11-2.14zm16.66 36.39h-29.06v-29.06h29.06z"/><path d="m37.47 42.21h-10.94a.75.75 0 0 0 0 1.5h10.94a.75.75 0 0 0 0-1.5z"/><path d="m23.07 35.54h5.43a.75.75 0 0 0 .75-.75v-6a.76.76 0 0 0 -.75-.75h-5.43a.76.76 0 0 0 -.75.75v6a.75.75 0 0 0 .75.75zm.75-6h3.93v4.46h-3.93z"/><path d="m35.5 35.54h5.43a.75.75 0 0 0 .75-.75v-6a.76.76 0 0 0 -.75-.75h-5.43a.76.76 0 0 0 -.75.75v6a.75.75 0 0 0 .75.75zm.75-6h3.93v4.46h-3.93z"/></g></g></svg>