<svg height="512" viewBox="0 0 64 64" width="512" xmlns="http://www.w3.org/2000/svg" xmlns:xlink="http://www.w3.org/1999/xlink"><linearGradient id="linear-gradient" gradientUnits="userSpaceOnUse" x1="3.25" x2="60.75" y1="32" y2="32"><stop offset="0" stop-color="#5bb4f6"/><stop offset=".61" stop-color="#2191e5"/><stop offset="1" stop-color="#007edb"/></linearGradient><g id="Layer_90" data-name="Layer 90"><rect fill="url(#linear-gradient)" height="57.5" rx="12.75" width="57.5" x="3.25" y="3.25"/><path d="m52.75 17.71a6.47 6.47 0 1 0 -7.25 6.42 16.4 16.4 0 0 1 -16.36 15.69h-10.68v-15.69a6.46 6.46 0 1 0 -1.5 0v15.74a6.46 6.46 0 1 0 4.89 1.45h7.29a17.9 17.9 0 0 0 17.86-17.18 6.48 6.48 0 0 0 5.75-6.43zm-40 0a5 5 0 1 1 5 5 5 5 0 0 1 -5-5zm9.93 28.58a5 5 0 1 1 -5-5 5 5 0 0 1 5 5zm23.61-23.61a5 5 0 1 1 5-5 5 5 0 0 1 -5 5z" fill="#fff"/></g></svg>