<svg height="512" viewBox="0 0 64 64" width="512" xmlns="http://www.w3.org/2000/svg" xmlns:xlink="http://www.w3.org/1999/xlink"><linearGradient id="linear-gradient" gradientUnits="userSpaceOnUse" x1="3.25" x2="60.75" y1="32" y2="32"><stop offset="0" stop-color="#5bb4f6"/><stop offset=".61" stop-color="#2191e5"/><stop offset="1" stop-color="#007edb"/></linearGradient><g id="Layer_36" data-name="Layer 36"><rect fill="url(#linear-gradient)" height="57.5" rx="12.75" width="57.5" x="3.25" y="3.25"/><path d="m47.31 20.67h-3.31v-6.67a.76.76 0 0 0 -.75-.75h-22.48a.76.76 0 0 0 -.77.75v6.66h-3.31a5.44 5.44 0 0 0 -5.44 5.43v19.21a5.45 5.45 0 0 0 5.44 5.44h30.62a5.45 5.45 0 0 0 5.44-5.44v-19.2a5.44 5.44 0 0 0 -5.44-5.43zm-25.79-5.91h21v5.91h-21zm-8.77 30.54v-19.2a3.94 3.94 0 0 1 3.94-3.93h3.31v27.07h-3.31a4 4 0 0 1 -3.94-3.94zm8.77 3.94v-27.07h21v27.07zm29.73-3.94a4 4 0 0 1 -3.94 3.94h-3.31v-27.07h3.33a3.94 3.94 0 0 1 3.94 3.93z" fill="#fff"/></g></svg>