<svg height="512" viewBox="0 0 64 64" width="512" xmlns="http://www.w3.org/2000/svg" xmlns:xlink="http://www.w3.org/1999/xlink"><linearGradient id="linear-gradient" gradientUnits="userSpaceOnUse" x1="3.25" x2="60.75" y1="32" y2="32"><stop offset="0" stop-color="#5bb4f6"/><stop offset=".61" stop-color="#2191e5"/><stop offset="1" stop-color="#007edb"/></linearGradient><g id="Layer_21" data-name="Layer 21"><rect fill="url(#linear-gradient)" height="57.5" rx="12.75" width="57.5" x="3.25" y="3.25"/><rect fill="url(#linear-gradient)" height="57.5" rx="12.75" width="57.5" x="3.25" y="3.25"/><g fill="#fff"><path d="m52 23.91h-3.84a10.71 10.71 0 0 0 -.53-2.2 11.23 11.23 0 0 0 -10.57-7.48h-10.12a11.23 11.23 0 0 0 -10.57 7.48 10.71 10.71 0 0 0 -.53 2.2h-3.84a.76.76 0 0 0 -.75.75v3.6a.75.75 0 1 0 1.5 0v-2.85h3v20.27a.74.74 0 0 0 .75.75h2.4v2.27a3.08 3.08 0 0 0 6.15 0v-2.27h13.22v2.27a3.08 3.08 0 0 0 6.16 0v-2.27h3.09a.74.74 0 0 0 .75-.75v-20.27h3v2.85a.75.75 0 1 0 1.5 0v-3.6a.76.76 0 0 0 -.77-.75zm-34.77 7.67v-6.14a9.22 9.22 0 0 1 .27-2.24h13.41v8.38zm15.18-8.38h14.09a9.22 9.22 0 0 1 .27 2.24v6.14h-14.36zm-5.47-7.47h10.12a9.73 9.73 0 0 1 9 6h-28.06a9.73 9.73 0 0 1 8.94-6zm-3.39 33a1.58 1.58 0 0 1 -3.15 0v-2.3h3.15zm19.38 0a1.58 1.58 0 0 1 -3.16 0v-2.3h3.16zm-25.7-3.77v-11.88h29.54v11.85z"/><path d="m40.67 35.85a3.15 3.15 0 1 0 3.15 3.15 3.16 3.16 0 0 0 -3.15-3.15zm0 4.8a1.65 1.65 0 1 1 1.65-1.65 1.65 1.65 0 0 1 -1.65 1.65z"/><path d="m23.33 35.85a3.15 3.15 0 1 0 3.15 3.15 3.15 3.15 0 0 0 -3.15-3.15zm0 4.8a1.65 1.65 0 1 1 1.67-1.65 1.65 1.65 0 0 1 -1.67 1.65z"/></g></g></svg>