<svg height="512" viewBox="0 0 64 64" width="512" xmlns="http://www.w3.org/2000/svg" xmlns:xlink="http://www.w3.org/1999/xlink"><linearGradient id="linear-gradient" gradientUnits="userSpaceOnUse" x1="3.25" x2="60.75" y1="32" y2="32"><stop offset="0" stop-color="#5bb4f6"/><stop offset=".61" stop-color="#2191e5"/><stop offset="1" stop-color="#007edb"/></linearGradient><g id="Layer_25" data-name="Layer 25"><rect fill="url(#linear-gradient)" height="57.5" rx="12.75" width="57.5" x="3.25" y="3.25"/><g fill="#fff"><path d="m47.67 30.51-1-10.71a6.54 6.54 0 0 0 -6.46-6h-16.45a6.54 6.54 0 0 0 -6.46 6l-1 10.72a7.29 7.29 0 0 0 -4.95 6.89v2.9a4.24 4.24 0 0 0 4.24 4.24h1.43v2.45a3.23 3.23 0 0 0 6.45 0v-2.46h17v2.46a3.23 3.23 0 0 0 6.53 0v-2.46h1.43a4.24 4.24 0 0 0 4.24-4.24v-2.9a7.29 7.29 0 0 0 -5-6.89zm-29.79-.38.92-10.21a5 5 0 0 1 5-4.64h16.44a5 5 0 0 1 5 4.64l.93 10.21zm4.12 16.87a1.73 1.73 0 0 1 -3.45 0v-2.46h3.45zm23.45 0a1.73 1.73 0 0 1 -3.45 0v-2.46h3.45zm5.67-6.7a2.74 2.74 0 0 1 -2.74 2.7h-32.76a2.74 2.74 0 0 1 -2.74-2.74v-2.86a5.77 5.77 0 0 1 5.76-5.77h26.72a5.77 5.77 0 0 1 5.76 5.77z"/><path d="m20.28 34.2a3.14 3.14 0 1 0 3.13 3.14 3.15 3.15 0 0 0 -3.13-3.14zm0 4.77a1.64 1.64 0 1 1 1.63-1.63 1.64 1.64 0 0 1 -1.63 1.66z"/><path d="m43.72 34.2a3.14 3.14 0 1 0 3.14 3.14 3.14 3.14 0 0 0 -3.14-3.14zm0 4.77a1.64 1.64 0 0 1 0-3.27 1.64 1.64 0 1 1 0 3.27z"/></g></g></svg>