<svg height="512" viewBox="0 0 64 64" width="512" xmlns="http://www.w3.org/2000/svg" xmlns:xlink="http://www.w3.org/1999/xlink"><linearGradient id="linear-gradient" gradientUnits="userSpaceOnUse" x1="3.25" x2="60.75" y1="32" y2="32"><stop offset="0" stop-color="#5bb4f6"/><stop offset=".61" stop-color="#2191e5"/><stop offset="1" stop-color="#007edb"/></linearGradient><g id="Layer_34" data-name="Layer 34"><rect fill="url(#linear-gradient)" height="57.5" rx="12.75" width="57.5" x="3.25" y="3.25"/><path d="m52 14.73h-6.71v-2.73a.76.76 0 0 0 -.75-.75h-25.08a.76.76 0 0 0 -.75.75v2.73h-6.71a.75.75 0 0 0 -.75.75v33a.75.75 0 0 0 .75.75h6.71v2.77a.76.76 0 0 0 .75.75h25.08a.76.76 0 0 0 .75-.75v-2.73h6.71a.75.75 0 0 0 .75-.75v-33a.75.75 0 0 0 -.75-.79zm-39.25 33v-31.5h6v31.54zm31 3.48h-23.54v-38.46h23.58zm7.46-3.48h-6v-31.5h6z" fill="#fff"/></g></svg>