<svg height="512" viewBox="0 0 64 64" width="512" xmlns="http://www.w3.org/2000/svg" xmlns:xlink="http://www.w3.org/1999/xlink"><linearGradient id="linear-gradient" gradientUnits="userSpaceOnUse" x1="3.25" x2="60.75" y1="32" y2="32"><stop offset="0" stop-color="#5bb4f6"/><stop offset=".61" stop-color="#2191e5"/><stop offset="1" stop-color="#007edb"/></linearGradient><g id="Layer_24" data-name="Layer 24"><rect fill="url(#linear-gradient)" height="57.5" rx="12.75" width="57.5" x="3.25" y="3.25"/><g fill="#fff"><path d="m52.59 18.76a.72.72 0 0 0 -.59-.29h-33.16l-1.84-5.47a.75.75 0 0 0 -.71-.51h-4.29a.75.75 0 0 0 0 1.51h3.75l9.55 28.09a.74.74 0 0 0 .71.51h20.28a.75.75 0 0 0 0-1.5h-19.74l-1.55-4.43h22.71a.75.75 0 0 0 .73-.57l4.29-16.7a.77.77 0 0 0 -.14-.64zm-5.46 16.41h-22.6l-5.18-15.17h31.65z"/><path d="m30.57 45.17a3.15 3.15 0 1 0 3.15 3.15 3.15 3.15 0 0 0 -3.15-3.15zm0 4.8a1.65 1.65 0 1 1 1.65-1.65 1.65 1.65 0 0 1 -1.65 1.68z"/><path d="m43 45.17a3.15 3.15 0 1 0 3.15 3.15 3.15 3.15 0 0 0 -3.15-3.15zm0 4.83a1.65 1.65 0 1 1 1.65-1.65 1.65 1.65 0 0 1 -1.65 1.65z"/></g></g></svg>