<svg height="512" viewBox="0 0 64 64" width="512" xmlns="http://www.w3.org/2000/svg" xmlns:xlink="http://www.w3.org/1999/xlink"><linearGradient id="linear-gradient" gradientUnits="userSpaceOnUse" x1="3.25" x2="60.75" y1="32" y2="32"><stop offset="0" stop-color="#5bb4f6"/><stop offset=".61" stop-color="#2191e5"/><stop offset="1" stop-color="#007edb"/></linearGradient><g id="Layer_45" data-name="Layer 45"><rect fill="url(#linear-gradient)" height="57.5" rx="12.75" width="57.5" x="3.25" y="3.25"/><g fill="#fff"><path d="m48.48 17h-30.33a4.28 4.28 0 0 0 -4.27 4.28.75.75 0 0 0 1.5 0 2.78 2.78 0 0 1 2.77-2.78h30.33a2.78 2.78 0 0 1 2.77 2.78v18.9a2.78 2.78 0 0 1 -2.77 2.77h-11.43a.75.75 0 0 0 0 1.5h11.43a4.28 4.28 0 0 0 4.27-4.27v-18.94a4.28 4.28 0 0 0 -4.27-4.24z"/><path d="m14.63 25.56a.75.75 0 1 0 0 1.5 16.62 16.62 0 0 1 16.6 16.6.75.75 0 0 0 1.5 0 18.12 18.12 0 0 0 -18.1-18.1z"/><path d="m14.63 30.46a.75.75 0 0 0 0 1.5 11.71 11.71 0 0 1 11.69 11.7.75.75 0 0 0 1.5 0 13.21 13.21 0 0 0 -13.19-13.2z"/><path d="m14.63 35.37a.75.75 0 0 0 0 1.5 6.79 6.79 0 0 1 6.78 6.79.75.75 0 0 0 1.5 0 8.29 8.29 0 0 0 -8.28-8.29z"/><path d="m12.24 41.27a3.38 3.38 0 0 0 0 4.78 3.4 3.4 0 0 0 2.39 1 3.38 3.38 0 0 0 2.37-5.78 3.45 3.45 0 0 0 -4.76 0zm3.76 3.73a1.92 1.92 0 0 1 -2.65 0 1.88 1.88 0 0 1 1.33-3.21 1.88 1.88 0 0 1 1.32 3.21z"/></g></g></svg>