<svg height="512" viewBox="0 0 64 64" width="512" xmlns="http://www.w3.org/2000/svg" xmlns:xlink="http://www.w3.org/1999/xlink"><linearGradient id="linear-gradient" gradientUnits="userSpaceOnUse" x1="3.25" x2="60.75" y1="32" y2="32"><stop offset="0" stop-color="#5bb4f6"/><stop offset=".61" stop-color="#2191e5"/><stop offset="1" stop-color="#007edb"/></linearGradient><g id="Layer_20" data-name="Layer 20"><rect fill="url(#linear-gradient)" height="57.5" rx="12.75" width="57.5" x="3.25" y="3.25"/><g fill="#fff"><path d="m29.67 45.54h-.07a.71.71 0 0 1 -.52-.29l-2.16-2.8a.75.75 0 0 1 1.19-.91l1.66 2.15 21.73-19.47a.75.75 0 0 1 1.06.06.76.76 0 0 1 -.06 1.06l-22.33 20a.78.78 0 0 1 -.5.2z"/><path d="m22 40.85h-.07a.78.78 0 0 1 -.53-.29l-10-13a.74.74 0 0 1 .13-1.05.75.75 0 0 1 1.05.14l9.52 12.35 22.71-20.35a.75.75 0 0 1 1.06.06.76.76 0 0 1 -.06 1.06l-23.31 20.89a.78.78 0 0 1 -.5.19z"/></g></g></svg>