<svg height="512" viewBox="0 0 64 64" width="512" xmlns="http://www.w3.org/2000/svg" xmlns:xlink="http://www.w3.org/1999/xlink"><linearGradient id="linear-gradient" gradientUnits="userSpaceOnUse" x1="3.25" x2="60.75" y1="32" y2="32"><stop offset="0" stop-color="#5bb4f6"/><stop offset=".61" stop-color="#2191e5"/><stop offset="1" stop-color="#007edb"/></linearGradient><g id="Layer_44" data-name="Layer 44"><rect fill="url(#linear-gradient)" height="57.5" rx="12.75" width="57.5" x="3.25" y="3.25"/><g fill="#fff"><path d="m37.09 28 1.62-1.62a.75.75 0 0 0 -1.06-1.06l-1.65 1.59-3.5-3.49a.74.74 0 0 0 -1.06 0l-3.44 3.49-1.62-1.62a.75.75 0 0 0 -1.06 1.06l1.59 1.65-3.49 3.5a.74.74 0 0 0 0 1.06l3.49 3.44-1.62 1.62a.75.75 0 0 0 0 1.06.73.73 0 0 0 .53.22.74.74 0 0 0 .53-.22l1.65-1.59 3.5 3.49a.75.75 0 0 0 1.06 0l3.44-3.49 1.62 1.62a.74.74 0 0 0 .53.22.73.73 0 0 0 .53-.22.75.75 0 0 0 0-1.06l-1.59-1.65 3.49-3.5a.74.74 0 0 0 0-1.06zm-5.09 11-7-7 7-7 7 7z"/><path d="m52 40.26h-5v-16.52h5a.75.75 0 0 0 0-1.5h-5v-4.53a.76.76 0 0 0 -.75-.75h-4.49v-4.96a.75.75 0 0 0 -1.5 0v5h-16.52v-5a.75.75 0 1 0 -1.5 0v5h-4.53a.76.76 0 0 0 -.75.75v4.53h-4.96a.75.75 0 1 0 0 1.5h5v16.48h-5a.75.75 0 0 0 0 1.5h5v4.53a.76.76 0 0 0 .75.75h4.53v5a.75.75 0 0 0 1.5 0v-5.04h16.48v5a.75.75 0 0 0 1.5 0v-5h4.53a.76.76 0 0 0 .75-.75v-4.49h5a.75.75 0 0 0 0-1.5zm-6.46 5.28h-27.08v-27.08h27.08z"/></g></g></svg>