<svg height="512" viewBox="0 0 64 64" width="512" xmlns="http://www.w3.org/2000/svg" xmlns:xlink="http://www.w3.org/1999/xlink"><linearGradient id="linear-gradient" gradientUnits="userSpaceOnUse" x1="3.25" x2="60.75" y1="32" y2="32"><stop offset="0" stop-color="#5bb4f6"/><stop offset=".61" stop-color="#2191e5"/><stop offset="1" stop-color="#007edb"/></linearGradient><g id="Layer_96" data-name="Layer 96"><rect fill="url(#linear-gradient)" height="57.5" rx="12.75" width="57.5" x="3.25" y="3.25"/><g fill="#fff"><path d="m32 22.08a9.92 9.92 0 1 0 9.92 9.92 9.93 9.93 0 0 0 -9.92-9.92zm0 18.34a8.42 8.42 0 1 1 8.42-8.42 8.43 8.43 0 0 1 -8.42 8.42z"/><path d="m52 28.49h-3.68a16.16 16.16 0 0 0 -2.32-5.55l2.6-2.6a.75.75 0 0 0 0-1.06l-3.91-3.91a.75.75 0 0 0 -1.06 0l-2.57 2.63a16.16 16.16 0 0 0 -5.55-2.29v-3.71a.75.75 0 0 0 -.75-.75h-5.52a.75.75 0 0 0 -.75.75v3.68a16.16 16.16 0 0 0 -5.55 2.32l-2.6-2.6a.75.75 0 0 0 -1.06 0l-3.91 3.91a.75.75 0 0 0 0 1.06l2.6 2.6a16.16 16.16 0 0 0 -2.29 5.55h-3.68a.75.75 0 0 0 -.75.75v5.52a.75.75 0 0 0 .75.75h3.68a16.16 16.16 0 0 0 2.32 5.52l-2.6 2.6a.75.75 0 0 0 0 1.06l3.91 3.91a.79.79 0 0 0 .53.22.77.77 0 0 0 .53-.22l2.6-2.6a16.16 16.16 0 0 0 5.55 2.29v3.68a.75.75 0 0 0 .75.75h5.52a.75.75 0 0 0 .75-.75v-3.68a16.16 16.16 0 0 0 5.52-2.32l2.6 2.6a.77.77 0 0 0 .53.22.79.79 0 0 0 .53-.22l3.91-3.91a.75.75 0 0 0 0-1.06l-2.63-2.57a16.16 16.16 0 0 0 2.29-5.55h3.71a.75.75 0 0 0 .75-.75v-5.52a.75.75 0 0 0 -.75-.75zm-.75 5.51h-3.52a.81.81 0 0 0 -.74.63 15.26 15.26 0 0 1 -2.56 6.16.79.79 0 0 0 .11.9l2.46 2.5-2.81 2.81-2.49-2.5a.79.79 0 0 0 -.9-.11 15.2 15.2 0 0 1 -6.16 2.61.81.81 0 0 0 -.63.74v3.52h-4.01v-3.53a.81.81 0 0 0 -.63-.74 15.26 15.26 0 0 1 -6.16-2.56.79.79 0 0 0 -.9.11l-2.5 2.46-2.81-2.81 2.5-2.49a.8.8 0 0 0 .08-1 15 15 0 0 1 -2.58-6.06.81.81 0 0 0 -.74-.63h-3.51v-4.01h3.52a.78.78 0 0 0 .74-.63 15 15 0 0 1 2.53-6.1.8.8 0 0 0 -.08-1l-2.46-2.46 2.81-2.81 2.49 2.5a.77.77 0 0 0 1 .08 15.34 15.34 0 0 1 6.14-2.58.78.78 0 0 0 .55-.7v-3.55h4v3.53a.78.78 0 0 0 .55.7 15.34 15.34 0 0 1 6.18 2.56.77.77 0 0 0 1-.08l2.47-2.46 2.81 2.81-2.5 2.49a.79.79 0 0 0 -.11.9 15.26 15.26 0 0 1 2.61 6.16.78.78 0 0 0 .74.63h3.52z"/></g></g></svg>