<svg height="512" viewBox="0 0 64 64" width="512" xmlns="http://www.w3.org/2000/svg" xmlns:xlink="http://www.w3.org/1999/xlink"><linearGradient id="linear-gradient" gradientUnits="userSpaceOnUse" x1="3.25" x2="60.75" y1="32" y2="32"><stop offset="0" stop-color="#5bb4f6"/><stop offset=".61" stop-color="#2191e5"/><stop offset="1" stop-color="#007edb"/></linearGradient><g id="Layer_46" data-name="Layer 46"><rect fill="url(#linear-gradient)" height="57.5" rx="12.75" width="57.5" x="3.25" y="3.25"/><g fill="#fff"><path d="m35.59 29.16h10.34a.75.75 0 0 0 .53-1.28l-4.63-4.64 10.7-10.71a.75.75 0 0 0 -1.06-1.06l-10.7 10.71-4.65-4.64a.75.75 0 0 0 -1.28.53v10.34a.76.76 0 0 0 .75.75zm.75-9.28 7.78 7.78h-7.78z"/><path d="m28.7 17.37a.76.76 0 0 0 -.82.17l-4.65 4.64-10.7-10.71a.75.75 0 0 0 -1.06 1.06l10.7 10.71-4.63 4.64a.75.75 0 0 0 .53 1.28h10.34a.76.76 0 0 0 .75-.75v-10.34a.75.75 0 0 0 -.46-.7zm-1 10.29h-7.82l7.78-7.78z"/><path d="m41.83 40.76 4.63-4.64a.75.75 0 0 0 -.53-1.28h-10.34a.76.76 0 0 0 -.75.75v10.34a.75.75 0 0 0 1.28.53l4.65-4.64 10.7 10.71a.75.75 0 0 0 1.06 0 .75.75 0 0 0 0-1.06zm-5.49-4.42h7.78l-7.78 7.78z"/><path d="m28.41 34.84h-10.34a.75.75 0 0 0 -.53 1.28l4.63 4.64-10.7 10.71a.75.75 0 0 0 0 1.06.75.75 0 0 0 1.06 0l10.7-10.71 4.65 4.64a.75.75 0 0 0 1.28-.53v-10.34a.76.76 0 0 0 -.75-.75zm-.75 9.28-7.78-7.78h7.78z"/></g></g></svg>