<svg height="512" viewBox="0 0 64 64" width="512" xmlns="http://www.w3.org/2000/svg" xmlns:xlink="http://www.w3.org/1999/xlink"><linearGradient id="linear-gradient" gradientUnits="userSpaceOnUse" x1="3.25" x2="60.75" y1="32" y2="32"><stop offset="0" stop-color="#5bb4f6"/><stop offset=".61" stop-color="#2191e5"/><stop offset="1" stop-color="#007edb"/></linearGradient><g id="Layer_39" data-name="Layer 39"><rect fill="url(#linear-gradient)" height="57.5" rx="12.75" width="57.5" x="3.25" y="3.25"/><g fill="#fff"><path d="m48.18 30.81h-32.36a4.5 4.5 0 0 0 -4.49 4.49v13a4.5 4.5 0 0 0 4.49 4.49h32.36a4.5 4.5 0 0 0 4.49-4.49v-13a4.5 4.5 0 0 0 -4.49-4.49zm3 17.45a3 3 0 0 1 -3 3h-32.36a3 3 0 0 1 -3-3v-13a3 3 0 0 1 3-3h32.36a3 3 0 0 1 3 3z"/><path d="m16.05 25.74h31.95a.75.75 0 0 0 0-1.5h-31.95a.75.75 0 0 0 0 1.5z"/><path d="m21.14 19.08h21.72a.75.75 0 0 0 0-1.5h-21.72a.75.75 0 0 0 0 1.5z"/><path d="m27.47 12.75h9.06a.75.75 0 0 0 0-1.5h-9.06a.75.75 0 0 0 0 1.5z"/></g></g></svg>