<svg height="512" viewBox="0 0 64 64" width="512" xmlns="http://www.w3.org/2000/svg" xmlns:xlink="http://www.w3.org/1999/xlink"><linearGradient id="linear-gradient" gradientUnits="userSpaceOnUse" x1="3.25" x2="60.75" y1="32" y2="32"><stop offset="0" stop-color="#5bb4f6"/><stop offset=".61" stop-color="#2191e5"/><stop offset="1" stop-color="#007edb"/></linearGradient><g id="Layer_32" data-name="Layer 32"><rect fill="url(#linear-gradient)" height="57.5" rx="12.75" width="57.5" x="3.25" y="3.25"/><path d="m44.18 35.62h-7.06v-7.24h7.06a8.57 8.57 0 1 0 -8.56-8.56v7.06h-7.24v-7.06a8.57 8.57 0 1 0 -8.56 8.56h7.06v7.24h-7.06a8.57 8.57 0 1 0 8.56 8.56v-7.06h7.24v7.06a8.57 8.57 0 1 0 8.56-8.56zm-7.06-15.8a7.07 7.07 0 1 1 7.06 7.06h-7.06zm-24.37 0a7.07 7.07 0 1 1 14.13 0v7.06h-7.06a7.07 7.07 0 0 1 -7.07-7.06zm14.13 24.36a7.07 7.07 0 1 1 -7.06-7.06h7.06zm1.5-15.8h7.24v7.24h-7.24zm15.8 22.87a7.07 7.07 0 0 1 -7.06-7.07v-7.06h7.06a7.07 7.07 0 1 1 0 14.13z" fill="#fff"/></g></svg>