<svg height="512" viewBox="0 0 64 64" width="512" xmlns="http://www.w3.org/2000/svg" xmlns:xlink="http://www.w3.org/1999/xlink"><linearGradient id="linear-gradient" gradientUnits="userSpaceOnUse" x1="3.25" x2="60.75" y1="32" y2="32"><stop offset="0" stop-color="#5bb4f6"/><stop offset=".61" stop-color="#2191e5"/><stop offset="1" stop-color="#007edb"/></linearGradient><g id="Layer_67" data-name="Layer 67"><rect fill="url(#linear-gradient)" height="57.5" rx="12.75" width="57.5" x="3.25" y="3.25"/><g fill="#fff"><path d="m52 42.85h-1.8l2.51-7.12a.74.74 0 0 0 -.07-.63l-4.9-8.1a.77.77 0 0 0 -1.28 0l-4.9 8.12a.74.74 0 0 0 -.07.63l2.51 7.1h-8.06l6.06-16.22a.79.79 0 0 0 -.07-.67l-9.3-14.37a.77.77 0 0 0 -1.26 0l-9.29 14.41a.79.79 0 0 0 -.07.67l6 16.22h-8.01l2.51-7.12a.74.74 0 0 0 -.07-.63l-4.9-8.14a.77.77 0 0 0 -1.28 0l-4.9 8.12a.74.74 0 0 0 -.07.63l2.51 7.12h-1.8a.76.76 0 0 0 -.75.75v8.38a.76.76 0 0 0 .75.75h40a.76.76 0 0 0 .75-.75v-8.4a.76.76 0 0 0 -.75-.75zm-9-7.28 4.08-6.75 4.07 6.75-2.56 7.28h-3zm-19.45-9.11 8.45-13.08 8.45 13.08-6.11 16.39h-4.68zm-10.72 9.11 4.07-6.75 4.1 6.75-2.57 7.28h-3zm38.42 15.68h-38.5v-6.9h38.5z"/><path d="m36.14 27.37a4.14 4.14 0 1 0 -4.14 4.14 4.15 4.15 0 0 0 4.14-4.14zm-6.78 0a2.64 2.64 0 1 1 2.64 2.63 2.64 2.64 0 0 1 -2.64-2.63z"/></g></g></svg>