<svg height="512" viewBox="0 0 64 64" width="512" xmlns="http://www.w3.org/2000/svg" xmlns:xlink="http://www.w3.org/1999/xlink"><linearGradient id="linear-gradient" gradientUnits="userSpaceOnUse" x1="3.25" x2="60.75" y1="32" y2="32"><stop offset="0" stop-color="#5bb4f6"/><stop offset=".61" stop-color="#2191e5"/><stop offset="1" stop-color="#007edb"/></linearGradient><g id="Layer_95" data-name="Layer 95"><rect fill="url(#linear-gradient)" height="57.5" rx="12.75" width="57.5" x="3.25" y="3.25"/><path d="m50.41 22.16a.75.75 0 0 0 -.37-.61l-17.66-10.2a.77.77 0 0 0 -.75 0l-17.63 10.2a.8.8 0 0 0 -.38.65v19.6a.75.75 0 0 0 .38.65l17.67 10.2a.77.77 0 0 0 .75 0l17.58-10.2a.75.75 0 0 0 .38-.65v-19.6s.03-.02.03-.04zm-18.41-9.29 16.17 9.33-16.17 9.33-16.17-9.33zm-16.92 10.63 16.17 9.33v17.87l-16.17-9.33zm33.84 17.87-16.17 9.33v-17.87l16.17-9.33z" fill="#fff"/></g></svg>