<svg height="512" viewBox="0 0 64 64" width="512" xmlns="http://www.w3.org/2000/svg" xmlns:xlink="http://www.w3.org/1999/xlink"><linearGradient id="linear-gradient" gradientUnits="userSpaceOnUse" x1="3.25" x2="60.75" y1="32" y2="32"><stop offset="0" stop-color="#5bb4f6"/><stop offset=".61" stop-color="#2191e5"/><stop offset="1" stop-color="#007edb"/></linearGradient><g id="Layer_9" data-name="Layer 9"><rect fill="url(#linear-gradient)" height="57.5" rx="12.75" width="57.5" x="3.25" y="3.25"/><g fill="#fff"><path d="m12 18.46h9.69a.75.75 0 0 0 .75-.75v-5.71a.76.76 0 0 0 -.75-.75h-9.69a.76.76 0 0 0 -.75.75v5.71a.75.75 0 0 0 .75.75zm.75-5.71h8.19v4.25h-8.19z"/><path d="m27.16 18.46h9.68a.74.74 0 0 0 .75-.75v-5.71a.75.75 0 0 0 -.75-.75h-9.68a.75.75 0 0 0 -.75.75v5.71a.74.74 0 0 0 .75.75zm.75-5.71h8.18v4.25h-8.18z"/><path d="m42.31 18.46h9.69a.75.75 0 0 0 .75-.75v-5.71a.76.76 0 0 0 -.75-.75h-9.69a.76.76 0 0 0 -.75.75v5.71a.75.75 0 0 0 .75.75zm.75-5.71h8.19v4.25h-8.19z"/><path d="m21.69 22.57h-9.69a.75.75 0 0 0 -.75.75v5.68a.75.75 0 0 0 .75.75h9.69a.75.75 0 0 0 .75-.75v-5.68a.75.75 0 0 0 -.75-.75zm-.75 5.71h-8.19v-4.21h8.19z"/><path d="m36.84 22.57h-9.68a.74.74 0 0 0 -.75.75v5.68a.74.74 0 0 0 .75.75h9.68a.74.74 0 0 0 .75-.75v-5.68a.74.74 0 0 0 -.75-.75zm-.75 5.71h-8.18v-4.21h8.18z"/><path d="m52 22.57h-9.69a.75.75 0 0 0 -.75.75v5.68a.75.75 0 0 0 .75.75h9.69a.75.75 0 0 0 .75-.75v-5.68a.75.75 0 0 0 -.75-.75zm-.75 5.71h-8.19v-4.21h8.19z"/><path d="m21.69 34.79h-9.69a.76.76 0 0 0 -.75.75v5.72a.76.76 0 0 0 .75.74h9.69a.76.76 0 0 0 .75-.75v-5.71a.76.76 0 0 0 -.75-.75zm-.75 5.72h-8.19v-4.22h8.19z"/><path d="m36.84 34.79h-9.68a.75.75 0 0 0 -.75.75v5.72a.75.75 0 0 0 .75.75h9.68a.75.75 0 0 0 .75-.75v-5.72a.75.75 0 0 0 -.75-.75zm-.75 5.72h-8.18v-4.22h8.18z"/><path d="m36.84 45.54h-9.68a.74.74 0 0 0 -.75.75v5.71a.75.75 0 0 0 .75.75h9.68a.75.75 0 0 0 .75-.75v-5.71a.74.74 0 0 0 -.75-.75zm-.75 5.71h-8.18v-4.25h8.18z"/><path d="m52 34.79h-9.69a.76.76 0 0 0 -.75.75v5.72a.76.76 0 0 0 .75.75h9.69a.76.76 0 0 0 .75-.75v-5.72a.76.76 0 0 0 -.75-.75zm-.75 5.72h-8.19v-4.22h8.19z"/></g></g></svg>