<svg height="512" viewBox="0 0 64 64" width="512" xmlns="http://www.w3.org/2000/svg" xmlns:xlink="http://www.w3.org/1999/xlink"><linearGradient id="linear-gradient" gradientUnits="userSpaceOnUse" x1="3.25" x2="60.75" y1="32" y2="32"><stop offset="0" stop-color="#5bb4f6"/><stop offset=".61" stop-color="#2191e5"/><stop offset="1" stop-color="#007edb"/></linearGradient><g id="Layer_94" data-name="Layer 94"><rect fill="url(#linear-gradient)" height="57.5" rx="12.75" width="57.5" x="3.25" y="3.25"/><path d="m52.64 23-5.71-9.6a.75.75 0 0 0 -.64-.37h-28.58a.75.75 0 0 0 -.64.37l-5.71 9.6a.76.76 0 0 0 0 .83l20 26.82a.77.77 0 0 0 1.2 0l19.96-26.76a.67.67 0 0 0 .12-.89zm-34.5-8.47h27.72l4.82 8.1h-37.36zm7.86 9.61h12l-6 23.1zm-1.55 0 5.88 22.53-16.84-22.53zm9.28 22.53 5.88-22.53h10.86z" fill="#fff"/></g></svg>