<svg height="512" viewBox="0 0 64 64" width="512" xmlns="http://www.w3.org/2000/svg" xmlns:xlink="http://www.w3.org/1999/xlink"><linearGradient id="linear-gradient" gradientUnits="userSpaceOnUse" x1="3.25" x2="60.75" y1="32" y2="32"><stop offset="0" stop-color="#5bb4f6"/><stop offset=".61" stop-color="#2191e5"/><stop offset="1" stop-color="#007edb"/></linearGradient><g id="Layer_66" data-name="Layer 66"><rect fill="url(#linear-gradient)" height="57.5" rx="12.75" width="57.5" x="3.25" y="3.25"/><path d="m52 12.49h-30.85a3.87 3.87 0 0 0 -3.68 2.65l-6 18.16a3.87 3.87 0 0 0 3.67 5.09h14.3a1.83 1.83 0 0 1 1.69 2.49l-2.76 7a2.64 2.64 0 0 0 2.45 3.59h3.18a5.27 5.27 0 0 0 4.52-2.47l6.54-10.61h6.94a.75.75 0 0 0 .75-.75v-24.4a.76.76 0 0 0 -.75-.75zm-14.76 35.72a3.75 3.75 0 0 1 -3.24 1.79h-3.2a1.11 1.11 0 0 1 -.93-.49 1.1 1.1 0 0 1 -.12-1.05l2.76-7a3.33 3.33 0 0 0 -3.09-4.54h-14.3a2.37 2.37 0 0 1 -2.25-3.12l6-18.16a2.36 2.36 0 0 1 2.28-1.64h22.74v23.43zm14-11.32h-5.85v-22.89h5.86z" fill="#fff"/></g></svg>