<svg height="512" viewBox="0 0 64 64" width="512" xmlns="http://www.w3.org/2000/svg" xmlns:xlink="http://www.w3.org/1999/xlink"><linearGradient id="linear-gradient" gradientUnits="userSpaceOnUse" x1="3.25" x2="60.75" y1="32" y2="32"><stop offset="0" stop-color="#5bb4f6"/><stop offset=".61" stop-color="#2191e5"/><stop offset="1" stop-color="#007edb"/></linearGradient><g id="Layer_92" data-name="Layer 92"><rect fill="url(#linear-gradient)" height="57.5" rx="12.75" width="57.5" x="3.25" y="3.25"/><g fill="#fff"><path d="m48.05 42.66a.85.85 0 0 0 0-.22v-27.6a3.53 3.53 0 0 0 -3.45-3.59h-25.24a3.53 3.53 0 0 0 -3.45 3.59v34.32a3.53 3.53 0 0 0 3.45 3.59h18.88a.76.76 0 0 0 .55-.23l9.1-9.52a.73.73 0 0 0 .16-.34zm-30.64 6.5v-34.32a2 2 0 0 1 1.95-2.09h25.28a2 2 0 0 1 2 2.09v26.85h-8.4a.76.76 0 0 0 -.75.75v8.81h-18.13a2 2 0 0 1 -1.95-2.09zm21.58 1v-6.97h6.6z"/><path d="m22.54 19.48h18.92a.75.75 0 0 0 0-1.5h-18.92a.75.75 0 0 0 0 1.5z"/><path d="m22.54 25.55h18.92a.75.75 0 0 0 0-1.5h-18.92a.75.75 0 0 0 0 1.5z"/><path d="m22.54 31.61h18.92a.75.75 0 0 0 0-1.5h-18.92a.75.75 0 0 0 0 1.5z"/><path d="m41.46 37.68a.75.75 0 0 0 0-1.5h-18.92a.75.75 0 0 0 0 1.5z"/></g></g></svg>