<svg id="Layer_2" height="512" viewBox="0 0 64 64" width="512" xmlns="http://www.w3.org/2000/svg" xmlns:xlink="http://www.w3.org/1999/xlink" data-name="Layer 2"><linearGradient id="linear-gradient" gradientUnits="userSpaceOnUse" x1="3.25" x2="60.75" y1="32" y2="32"><stop offset="0" stop-color="#5bb4f6"/><stop offset=".61" stop-color="#2191e5"/><stop offset="1" stop-color="#007edb"/></linearGradient><rect fill="url(#linear-gradient)" height="57.5" rx="12.75" width="57.5" x="3.25" y="3.25"/><g fill="#fff"><path d="m32 11.25a20.75 20.75 0 1 0 20.75 20.75 20.78 20.78 0 0 0 -20.75-20.75zm0 40a19.25 19.25 0 1 1 19.25-19.25 19.28 19.28 0 0 1 -19.25 19.25z"/><path d="m32 21.65h5.55a.75.75 0 0 0 0-1.5h-4.8v-2.44a.75.75 0 0 0 -1.5 0v2.49a6.3 6.3 0 0 0 .75 12.55 4.8 4.8 0 0 1 0 9.6h-5.55a.75.75 0 1 0 0 1.5h4.8v2.44a.75.75 0 0 0 1.5 0v-2.49a6.3 6.3 0 0 0 -.75-12.55 4.8 4.8 0 0 1 0-9.6z"/></g></svg>