<svg height="512" viewBox="0 0 64 64" width="512" xmlns="http://www.w3.org/2000/svg" xmlns:xlink="http://www.w3.org/1999/xlink"><linearGradient id="linear-gradient" gradientUnits="userSpaceOnUse" x1="3.25" x2="60.75" y1="32" y2="32"><stop offset="0" stop-color="#5bb4f6"/><stop offset=".61" stop-color="#2191e5"/><stop offset="1" stop-color="#007edb"/></linearGradient><g id="Layer_19" data-name="Layer 19"><rect fill="url(#linear-gradient)" height="57.5" rx="12.75" width="57.5" x="3.25" y="3.25"/><g fill="#fff"><path d="m14.53 28.64a.75.75 0 0 0 -.75.75v1.86h-1.57a.75.75 0 0 0 0 1.5h1.57v1.86a.75.75 0 0 0 1.5 0v-5.22a.76.76 0 0 0 -.75-.75z"/><path d="m18.46 24.09a.75.75 0 0 0 -.75.75v14.32a.75.75 0 0 0 1.5 0v-14.32a.76.76 0 0 0 -.75-.75z"/><path d="m45.75 24.09a.75.75 0 0 0 -.75.75v14.32a.75.75 0 0 0 1.5 0v-14.32a.76.76 0 0 0 -.75-.75z"/><path d="m41.81 19.89a.76.76 0 0 0 -.75.75v10.63h-17.92v-10.63a.75.75 0 0 0 -1.5 0v22.72a.75.75 0 0 0 1.5 0v-10.61h17.92v10.61a.75.75 0 0 0 1.5 0v-22.72a.75.75 0 0 0 -.75-.75z"/><path d="m52 31.25h-1.57v-1.86a.75.75 0 1 0 -1.5 0v5.22a.75.75 0 0 0 1.5 0v-1.86h1.57a.75.75 0 0 0 0-1.5z"/></g></g></svg>