<svg height="512" viewBox="0 0 64 64" width="512" xmlns="http://www.w3.org/2000/svg" xmlns:xlink="http://www.w3.org/1999/xlink"><linearGradient id="linear-gradient" gradientUnits="userSpaceOnUse" x1="3.25" x2="60.75" y1="32" y2="32"><stop offset="0" stop-color="#5bb4f6"/><stop offset=".61" stop-color="#2191e5"/><stop offset="1" stop-color="#007edb"/></linearGradient><g id="Layer_97" data-name="Layer 97"><rect fill="url(#linear-gradient)" height="57.5" rx="12.75" width="57.5" x="3.25" y="3.25"/><g fill="#fff"><path d="m52 11.25h-25a.75.75 0 0 0 0 1.5h24.25v24.25a.75.75 0 0 0 1.5 0v-25a.76.76 0 0 0 -.75-.75z"/><path d="m46.29 17h-34.29a.76.76 0 0 0 -.75.75v34.25a.76.76 0 0 0 .75.75h34.29a.76.76 0 0 0 .71-.75v-34.29a.76.76 0 0 0 -.71-.71zm-.75 34.29h-32.79v-32.83h32.79z"/><path d="m20.21 35.61h8.18v8.18a.75.75 0 1 0 1.5 0v-8.18h8.19a.75.75 0 0 0 0-1.5h-8.19v-8.19a.75.75 0 0 0 -1.5 0v8.19h-8.18a.75.75 0 0 0 0 1.5z"/></g></g></svg>