<svg height="512" viewBox="0 0 64 64" width="512" xmlns="http://www.w3.org/2000/svg" xmlns:xlink="http://www.w3.org/1999/xlink"><linearGradient id="linear-gradient" gradientUnits="userSpaceOnUse" x1="3.25" x2="60.75" y1="32" y2="32"><stop offset="0" stop-color="#5bb4f6"/><stop offset=".61" stop-color="#2191e5"/><stop offset="1" stop-color="#007edb"/></linearGradient><g id="Layer_93" data-name="Layer 93"><rect fill="url(#linear-gradient)" height="57.5" rx="12.75" width="57.5" x="3.25" y="3.25"/><g fill="#fff"><path d="m18.77 37.5-2 8.87a.75.75 0 0 0 .9.9l8.87-2a.76.76 0 0 0 .36-.2l25.1-25.14a.75.75 0 0 0 0-1.06l-6.87-6.87a.77.77 0 0 0 -1.06 0l-25.07 25.14a.76.76 0 0 0 -.23.36zm25.83-23.87 5.77 5.77-6.3 6.29-2.88-2.88-2.88-2.88zm-7.35 7.37 2.88 2.88 2.87 2.87-17 17.07-7.49 1.72 1.72-7.49z"/><path d="m52 31.25a.76.76 0 0 0 -.75.75v19.25h-38.5v-38.5h19.25a.75.75 0 0 0 0-1.5h-20a.76.76 0 0 0 -.75.75v40a.76.76 0 0 0 .75.75h40a.76.76 0 0 0 .75-.75v-20a.76.76 0 0 0 -.75-.75z"/></g></g></svg>