<svg height="512" viewBox="0 0 64 64" width="512" xmlns="http://www.w3.org/2000/svg" xmlns:xlink="http://www.w3.org/1999/xlink"><linearGradient id="linear-gradient" gradientUnits="userSpaceOnUse" x1="3.25" x2="60.75" y1="32" y2="32"><stop offset="0" stop-color="#5bb4f6"/><stop offset=".61" stop-color="#2191e5"/><stop offset="1" stop-color="#007edb"/></linearGradient><g id="Layer_51" data-name="Layer 51"><rect fill="url(#linear-gradient)" height="57.5" rx="12.75" width="57.5" x="3.25" y="3.25"/><g fill="#fff"><path d="m51.38 26.83h-10.89a.75.75 0 1 0 0 1.5h10.14v20.92h-37.26v-20.92h10.14a.75.75 0 1 0 0-1.5h-10.89a.75.75 0 0 0 -.75.75v22.42a.75.75 0 0 0 .75.75h38.76a.75.75 0 0 0 .75-.75v-22.42a.75.75 0 0 0 -.75-.75z"/><path d="m24.91 21.84h6.33v16.93a.75.75 0 1 0 1.5 0v-16.93h6.35a.74.74 0 0 0 .69-.46.75.75 0 0 0 -.16-.82l-7.09-7.09a.75.75 0 0 0 -1.06 0l-7.09 7.09a.75.75 0 0 0 -.16.82.74.74 0 0 0 .69.46zm7.09-6.78 5.28 5.28h-10.56z"/></g></g></svg>