<svg height="512" viewBox="0 0 64 64" width="512" xmlns="http://www.w3.org/2000/svg" xmlns:xlink="http://www.w3.org/1999/xlink"><linearGradient id="linear-gradient" gradientUnits="userSpaceOnUse" x1="3.25" x2="60.75" y1="32" y2="32"><stop offset="0" stop-color="#5bb4f6"/><stop offset=".61" stop-color="#2191e5"/><stop offset="1" stop-color="#007edb"/></linearGradient><g id="Layer_8" data-name="Layer 8"><rect fill="url(#linear-gradient)" height="57.5" rx="12.75" width="57.5" x="3.25" y="3.25"/><path d="m49.45 24.14a.9.9 0 0 0 -.27-.58l-14.18-12.13a1 1 0 0 0 -.49-.18h-14.88c-2.8 0-5.08 2-5.08 4.45v32.6c0 2.45 2.28 4.45 5.08 4.45h24.74c2.8 0 5.08-2 5.08-4.45zm-14.19-10.51 11.41 9.76h-11.41zm9.11 37.62h-24.74c-2 0-3.58-1.33-3.58-3v-32.55c0-1.63 1.61-2.95 3.58-2.95h14.13v11.39a.76.76 0 0 0 .75.75h13.49v23.41c0 1.62-1.66 2.95-3.63 2.95z" fill="#fff"/></g></svg>