<svg height="512" viewBox="0 0 64 64" width="512" xmlns="http://www.w3.org/2000/svg" xmlns:xlink="http://www.w3.org/1999/xlink"><linearGradient id="linear-gradient" gradientUnits="userSpaceOnUse" x1="3.25" x2="60.75" y1="32" y2="32"><stop offset="0" stop-color="#5bb4f6"/><stop offset=".61" stop-color="#2191e5"/><stop offset="1" stop-color="#007edb"/></linearGradient><g id="Layer_91" data-name="Layer 91"><rect fill="url(#linear-gradient)" height="57.5" rx="12.75" width="57.5" x="3.25" y="3.25"/><g fill="#fff"><path d="m52 18.46h-40a.75.75 0 0 1 0-1.46h40a.75.75 0 0 1 0 1.5z"/><path d="m46.29 32.75h-28.58a.75.75 0 0 1 0-1.5h28.58a.75.75 0 0 1 0 1.5z"/><path d="m38.59 47h-13.18a.75.75 0 0 1 0-1.5h13.18a.75.75 0 0 1 0 1.5z"/></g></g></svg>