<svg height="512" viewBox="0 0 64 64" width="512" xmlns="http://www.w3.org/2000/svg" xmlns:xlink="http://www.w3.org/1999/xlink"><linearGradient id="linear-gradient" gradientUnits="userSpaceOnUse" x1="3.25" x2="60.75" y1="32" y2="32"><stop offset="0" stop-color="#5bb4f6"/><stop offset=".61" stop-color="#2191e5"/><stop offset="1" stop-color="#007edb"/></linearGradient><g id="Layer_63" data-name="Layer 63"><rect fill="url(#linear-gradient)" height="57.5" rx="12.75" width="57.5" x="3.25" y="3.25"/><path d="m49.26 37.82s0 0 0-.07v-21.46a.76.76 0 0 0 -.75-.75h-30.94v-3.54a.75.75 0 0 0 -1.5 0v39.25h-3a.75.75 0 1 0 0 1.5h7.53a.75.75 0 0 0 0-1.5h-3v-12.75h31a.76.76 0 0 0 .66-.68zm-1.49-1.49-28.5-19.33h28.5zm-30.2-18.63 28.5 19.3h-28.5z" fill="#fff"/></g></svg>