<svg height="512" viewBox="0 0 64 64" width="512" xmlns="http://www.w3.org/2000/svg" xmlns:xlink="http://www.w3.org/1999/xlink"><linearGradient id="linear-gradient" gradientUnits="userSpaceOnUse" x1="3.25" x2="60.75" y1="32" y2="32"><stop offset="0" stop-color="#5bb4f6"/><stop offset=".61" stop-color="#2191e5"/><stop offset="1" stop-color="#007edb"/></linearGradient><g id="Layer_52" data-name="Layer 52"><rect fill="url(#linear-gradient)" height="57.5" rx="12.75" width="57.5" x="3.25" y="3.25"/><path d="m52.61 29.48a.75.75 0 0 0 -.61-.32h-5.82v-8.67a.74.74 0 0 0 -.75-.75h-14.13l-6.95-5.47a.7.7 0 0 0 -.46-.16h-11.89a.75.75 0 0 0 -.75.75v34.28a.78.78 0 0 0 .75.75h33.43a.74.74 0 0 0 .71-.51l6.57-19.23a.73.73 0 0 0 -.1-.67zm-7.93-.32h-26.11a.75.75 0 0 0 -.71.51l-5.11 15v-23.43h31.93zm-21-13.55 5.25 4.13h-16.18v-4.13zm21.22 32.78h-31.85l6.05-17.73h31.9z" fill="#fff"/></g></svg>