<svg height="512" viewBox="0 0 64 64" width="512" xmlns="http://www.w3.org/2000/svg" xmlns:xlink="http://www.w3.org/1999/xlink"><linearGradient id="linear-gradient" gradientUnits="userSpaceOnUse" x1="3.25" x2="60.75" y1="32" y2="32"><stop offset="0" stop-color="#5bb4f6"/><stop offset=".61" stop-color="#2191e5"/><stop offset="1" stop-color="#007edb"/></linearGradient><g id="Layer_3" data-name="Layer 3"><rect fill="url(#linear-gradient)" height="57.5" rx="12.75" width="57.5" x="3.25" y="3.25"/><g fill="#fff"><path d="m36.81 24.42a.75.75 0 0 0 -.65-.38h-8.32a.75.75 0 0 0 -.65.38l-4.19 7.21a.77.77 0 0 0 0 .75l4.16 7.2a.75.75 0 0 0 .65.38h8.32a.75.75 0 0 0 .65-.38l4.22-7.2a.77.77 0 0 0 0-.75zm-1.08 14h-7.46l-3.72-6.42 3.72-6.46h7.46l3.72 6.46z"/><path d="m52.67 30.2a20.34 20.34 0 0 0 -1-4.84c-3.33-10.6-15.85-16.79-26.29-13-10.61 3.34-16.81 15.84-13 26.3 3.33 10.6 15.84 16.8 26.29 13a20.84 20.84 0 0 0 14-21.46zm-1.48 3.27a18.94 18.94 0 0 1 -.7 3.81l-4.35-2.51v-5.54l4.35-2.51a18.79 18.79 0 0 1 .7 6.75zm-2.85 8.69a19.08 19.08 0 0 1 -7 6.65l-1.34-4.81 4-4 4.85 1.3c-.18.32-.34.59-.51.86zm-4.41-3.68a.74.74 0 0 0 -.72.2l-4.53 4.53a.74.74 0 0 0 -.2.72l1.52 5.58c-.42.19-.83.36-1.24.51l-2.88-5a.76.76 0 0 0 -.65-.38h-6.44a.76.76 0 0 0 -.65.38l-2.88 5c-.41-.15-.82-.32-1.24-.51l1.5-5.58a.74.74 0 0 0 -.2-.72l-4.53-4.53a.74.74 0 0 0 -.72-.2l-5.58 1.52c-.19-.42-.36-.83-.51-1.24l5-2.88a.76.76 0 0 0 .38-.65v-6.44a.76.76 0 0 0 -.38-.65l-5-2.88c.15-.41.32-.82.51-1.24l5.58 1.5a.74.74 0 0 0 .72-.2l4.53-4.53a.74.74 0 0 0 .2-.72l-1.52-5.58c.42-.19.83-.36 1.24-.51l2.88 5a.76.76 0 0 0 .65.38h6.42a.76.76 0 0 0 .65-.38l2.88-5c.41.15.82.32 1.24.51l-1.5 5.58a.74.74 0 0 0 .2.72l4.53 4.53a.74.74 0 0 0 .72.2l5.6-1.52c.19.42.36.83.51 1.24l-5 2.88a.76.76 0 0 0 -.38.65v6.42a.76.76 0 0 0 .38.65l5 2.88c-.15.41-.32.82-.51 1.24zm-7 12.13a19.12 19.12 0 0 1 -10.18-.12l2.51-4.35h5.54l2.51 4.35zm-15.09-2.27a19.08 19.08 0 0 1 -6.65-7l4.81-1.34 4 4-1.3 4.85c-.32-.18-.59-.34-.86-.51zm-8.57-12a18.87 18.87 0 0 1 .24-9.67l4.35 2.51v5.54l-4.35 2.51a9 9 0 0 1 -.24-.84zm28.89-20.68a19.08 19.08 0 0 1 6.65 7l-4.81 1.34-4-4 1.3-4.85c.32.18.59.34.86.51zm-10.16-2.91a18.78 18.78 0 0 1 5.28.76l-2.51 4.35h-5.54l-2.51-4.35a18.78 18.78 0 0 1 5.28-.76zm-9.34 2.44 1.34 4.81-4 4-4.85-1.3a19.29 19.29 0 0 1 7.51-7.51z"/></g></g></svg>