<svg height="512" viewBox="0 0 64 64" width="512" xmlns="http://www.w3.org/2000/svg" xmlns:xlink="http://www.w3.org/1999/xlink"><linearGradient id="linear-gradient" gradientUnits="userSpaceOnUse" x1="3.25" x2="60.75" y1="32" y2="32"><stop offset="0" stop-color="#5bb4f6"/><stop offset=".61" stop-color="#2191e5"/><stop offset="1" stop-color="#007edb"/></linearGradient><g id="Layer_85" data-name="Layer 85"><rect fill="url(#linear-gradient)" height="57.5" rx="12.75" width="57.5" x="3.25" y="3.25"/><path d="m52.75 18.07a6.82 6.82 0 1 0 -7.6 6.76 7.14 7.14 0 0 1 -7.08 6.42h-12.14a7.14 7.14 0 0 1 -7.08-6.42 6.8 6.8 0 1 0 -1.5 0 8.63 8.63 0 0 0 8.58 7.91h5.32v6.41a6.82 6.82 0 1 0 1.5 0v-6.4h5.32a8.63 8.63 0 0 0 8.58-7.91 6.82 6.82 0 0 0 6.1-6.77zm-40 0a5.32 5.32 0 1 1 5.32 5.31 5.32 5.32 0 0 1 -5.32-5.31zm24.57 27.86a5.32 5.32 0 1 1 -5.32-5.31 5.32 5.32 0 0 1 5.32 5.31zm8.61-22.55a5.32 5.32 0 1 1 5.32-5.31 5.31 5.31 0 0 1 -5.32 5.31z" fill="#fff"/></g></svg>