<svg height="512" viewBox="0 0 64 64" width="512" xmlns="http://www.w3.org/2000/svg" xmlns:xlink="http://www.w3.org/1999/xlink"><linearGradient id="linear-gradient" gradientUnits="userSpaceOnUse" x1="3.25" x2="60.75" y1="32" y2="32"><stop offset="0" stop-color="#5bb4f6"/><stop offset=".61" stop-color="#2191e5"/><stop offset="1" stop-color="#007edb"/></linearGradient><g id="Layer_89" data-name="Layer 89"><rect fill="url(#linear-gradient)" height="57.5" rx="12.75" width="57.5" x="3.25" y="3.25"/><g fill="#fff"><path d="m32 27a5 5 0 1 0 5 5 5 5 0 0 0 -5-5zm0 8.52a3.51 3.51 0 1 1 3.51-3.52 3.52 3.52 0 0 1 -3.51 3.51z"/><path d="m52 21.7a.76.76 0 0 0 -.75.75 8.84 8.84 0 0 1 -8.84 8.84h-.11a10.32 10.32 0 0 0 -20.6 0h-.11a10.35 10.35 0 0 0 -10.34 10.3.75.75 0 0 0 1.5 0 8.84 8.84 0 0 1 8.84-8.84h.11a10.33 10.33 0 0 0 20.6 0h.11a10.35 10.35 0 0 0 10.34-10.3.76.76 0 0 0 -.75-.75zm-20 19.14a8.84 8.84 0 1 1 8.84-8.84 8.86 8.86 0 0 1 -8.84 8.84z"/></g></g></svg>