<svg height="512" viewBox="0 0 64 64" width="512" xmlns="http://www.w3.org/2000/svg" xmlns:xlink="http://www.w3.org/1999/xlink"><linearGradient id="linear-gradient" gradientUnits="userSpaceOnUse" x1="3.25" x2="60.75" y1="32" y2="32"><stop offset="0" stop-color="#5bb4f6"/><stop offset=".61" stop-color="#2191e5"/><stop offset="1" stop-color="#007edb"/></linearGradient><g id="Layer_88" data-name="Layer 88"><rect fill="url(#linear-gradient)" height="57.5" rx="12.75" width="57.5" x="3.25" y="3.25"/><g fill="#fff"><path d="m47 39.87v-11.44a11.48 11.48 0 0 0 -10.71-11.43v-5a.75.75 0 0 0 -1.29-.53l-5.7 5.71a.74.74 0 0 0 0 1.06l5.7 5.76a.75.75 0 0 0 1.28-.53v-4.97a10 10 0 0 1 9.22 9.93v11.44a6.46 6.46 0 1 0 1.5 0zm-12.21-18.25-3.9-3.91 3.9-3.9zm11.47 29.63a5 5 0 1 1 5-5 5 5 0 0 1 -5 5z"/><path d="m28.78 40a.75.75 0 0 0 -1.28.53v4.97a10 10 0 0 1 -9.22-9.93v-11.44a6.46 6.46 0 1 0 -1.5 0v11.44a11.48 11.48 0 0 0 10.72 11.43v5a.75.75 0 0 0 1.28.53l5.71-5.71a.75.75 0 0 0 0-1.06zm-16.21-22.29a5 5 0 1 1 5 5 5 5 0 0 1 -5-5zm16.43 32.48v-7.81l3.9 3.91z"/></g></g></svg>