<svg height="512" viewBox="0 0 64 64" width="512" xmlns="http://www.w3.org/2000/svg" xmlns:xlink="http://www.w3.org/1999/xlink"><linearGradient id="linear-gradient" gradientUnits="userSpaceOnUse" x1="3.25" x2="60.75" y1="32" y2="32"><stop offset="0" stop-color="#5bb4f6"/><stop offset=".61" stop-color="#2191e5"/><stop offset="1" stop-color="#007edb"/></linearGradient><g id="Layer_87" data-name="Layer 87"><rect fill="url(#linear-gradient)" height="57.5" rx="12.75" width="57.5" x="3.25" y="3.25"/><path d="m46.29 25.54a6.47 6.47 0 0 0 -6.42 5.71h-13.58a7.83 7.83 0 0 1 -7.79-7.12 6.48 6.48 0 1 0 -1.54 0v15.74a6.47 6.47 0 1 0 1.5 0v-11.37a9.35 9.35 0 0 0 7.83 4.25h13.58a6.46 6.46 0 1 0 6.42-7.21zm-33.54-7.83a5 5 0 1 1 5 5 5 5 0 0 1 -5-5zm9.93 28.58a5 5 0 1 1 -5-5 5 5 0 0 1 5 5zm23.61-9.29a5 5 0 1 1 5-5 5 5 0 0 1 -5 5z" fill="#fff"/></g></svg>