<svg height="512" viewBox="0 0 64 64" width="512" xmlns="http://www.w3.org/2000/svg" xmlns:xlink="http://www.w3.org/1999/xlink"><linearGradient id="linear-gradient" gradientUnits="userSpaceOnUse" x1="3.25" x2="60.75" y1="32" y2="32"><stop offset="0" stop-color="#5bb4f6"/><stop offset=".61" stop-color="#2191e5"/><stop offset="1" stop-color="#007edb"/></linearGradient><g id="Layer_43" data-name="Layer 43"><rect fill="url(#linear-gradient)" height="57.5" rx="12.75" width="57.5" x="3.25" y="3.25"/><g fill="#fff"><path d="m50.39 35.32a.76.76 0 0 0 -1 .3 18.45 18.45 0 1 1 -28-23 .75.75 0 1 0 -1-1.16 19.95 19.95 0 0 0 10.8 35.22v4.61h-5.7a.75.75 0 1 0 0 1.5h13a.75.75 0 0 0 0-1.5h-5.74v-4.58h.42a19.94 19.94 0 0 0 17.51-10.37.75.75 0 0 0 -.29-1.02z"/><path d="m33.17 41.24a14.45 14.45 0 1 0 -14.45-14.45 14.47 14.47 0 0 0 14.45 14.45zm0-27.4a13 13 0 1 1 -13 13 13 13 0 0 1 13-13z"/></g></g></svg>