<svg height="512" viewBox="0 0 64 64" width="512" xmlns="http://www.w3.org/2000/svg" xmlns:xlink="http://www.w3.org/1999/xlink"><linearGradient id="linear-gradient" gradientUnits="userSpaceOnUse" x1="3.25" x2="60.75" y1="32" y2="32"><stop offset="0" stop-color="#5bb4f6"/><stop offset=".61" stop-color="#2191e5"/><stop offset="1" stop-color="#007edb"/></linearGradient><g id="Layer_31" data-name="Layer 31"><rect fill="url(#linear-gradient)" height="57.5" rx="12.75" width="57.5" x="3.25" y="3.25"/><g fill="#fff"><path d="m27.63 11.25h-15.63a.76.76 0 0 0 -.75.75v15.63a.75.75 0 0 0 .75.75h15.63a.74.74 0 0 0 .75-.75v-15.63a.75.75 0 0 0 -.75-.75zm-.75 15.63h-14.13v-14.13h14.13z"/><path d="m52 11.25h-15.63a.75.75 0 0 0 -.75.75v15.63a.74.74 0 0 0 .75.75h15.63a.75.75 0 0 0 .75-.75v-15.63a.76.76 0 0 0 -.75-.75zm-.75 15.63h-14.13v-14.13h14.13z"/><path d="m27.63 35.62h-15.63a.75.75 0 0 0 -.75.75v15.63a.76.76 0 0 0 .75.75h15.63a.75.75 0 0 0 .75-.75v-15.63a.74.74 0 0 0 -.75-.75zm-.75 15.63h-14.13v-14.13h14.13z"/><path d="m52 35.62h-15.63a.74.74 0 0 0 -.75.75v15.63a.75.75 0 0 0 .75.75h15.63a.76.76 0 0 0 .75-.75v-15.63a.75.75 0 0 0 -.75-.75zm-.75 15.63h-14.13v-14.13h14.13z"/></g></g></svg>