<svg height="512" viewBox="0 0 64 64" width="512" xmlns="http://www.w3.org/2000/svg" xmlns:xlink="http://www.w3.org/1999/xlink"><linearGradient id="linear-gradient" gradientUnits="userSpaceOnUse" x1="3.25" x2="60.75" y1="32" y2="32"><stop offset="0" stop-color="#5bb4f6"/><stop offset=".61" stop-color="#2191e5"/><stop offset="1" stop-color="#007edb"/></linearGradient><g id="Layer_62" data-name="Layer 62"><rect fill="url(#linear-gradient)" height="57.5" rx="12.75" width="57.5" x="3.25" y="3.25"/><g fill="#fff"><path d="m35.33 14.58a17.43 17.43 0 0 0 -17.33 16.67h-6a.74.74 0 0 0 -.69.46.75.75 0 0 0 .16.82l6.67 6.67a.75.75 0 0 0 .53.22.79.79 0 0 0 .53-.22l6.66-6.67a.75.75 0 0 0 -.53-1.28h-5.88a15.91 15.91 0 1 1 15.88 16.67.75.75 0 0 0 0 1.5 17.42 17.42 0 0 0 0-34.84zm-16.66 23-4.86-4.86h9.71z"/><path d="m35.33 23.87a.75.75 0 0 0 -.75.75v7.38a.76.76 0 0 0 .38.65l9.23 5.35a.76.76 0 0 0 1-.27.74.74 0 0 0 -.27-1l-8.87-5.15v-6.96a.74.74 0 0 0 -.72-.75z"/></g></g></svg>