<svg height="512" viewBox="0 0 64 64" width="512" xmlns="http://www.w3.org/2000/svg" xmlns:xlink="http://www.w3.org/1999/xlink"><linearGradient id="linear-gradient" gradientUnits="userSpaceOnUse" x1="3.25" x2="60.75" y1="32" y2="32"><stop offset="0" stop-color="#5bb4f6"/><stop offset=".61" stop-color="#2191e5"/><stop offset="1" stop-color="#007edb"/></linearGradient><g id="Layer_48" data-name="Layer 48"><rect fill="url(#linear-gradient)" height="57.5" rx="12.75" width="57.5" x="3.25" y="3.25"/><g fill="#fff"><path d="m21.28 24.16a.75.75 0 0 0 -1.28.53v6.55h-8a.75.75 0 0 0 0 1.5h8v6.57a.75.75 0 0 0 1.28.53l7.31-7.31a.74.74 0 0 0 0-1.06zm.22 13.34v-11l5.5 5.5z"/><path d="m52 31.25h-8v-6.56a.75.75 0 0 0 -1.28-.53l-7.31 7.31a.74.74 0 0 0 0 1.06l7.31 7.31a.75.75 0 0 0 1.28-.53v-6.55h8a.75.75 0 0 0 0-1.5zm-9.5 6.25-5.5-5.5 5.5-5.5z"/><path d="m32 13.13a.75.75 0 0 0 -.75.75v4.46a.75.75 0 1 0 1.5 0v-4.46a.75.75 0 0 0 -.75-.75z"/><path d="m32 23.72a.76.76 0 0 0 -.75.75v4.47a.75.75 0 0 0 1.5 0v-4.47a.76.76 0 0 0 -.75-.75z"/><path d="m32 34.31a.76.76 0 0 0 -.75.75v4.47a.75.75 0 0 0 1.5 0v-4.47a.76.76 0 0 0 -.75-.75z"/><path d="m32 44.91a.75.75 0 0 0 -.75.75v4.46a.75.75 0 1 0 1.5 0v-4.46a.75.75 0 0 0 -.75-.75z"/></g></g></svg>