<svg height="512" viewBox="0 0 64 64" width="512" xmlns="http://www.w3.org/2000/svg" xmlns:xlink="http://www.w3.org/1999/xlink"><linearGradient id="linear-gradient" gradientUnits="userSpaceOnUse" x1="3.25" x2="60.75" y1="32" y2="32"><stop offset="0" stop-color="#5bb4f6"/><stop offset=".61" stop-color="#2191e5"/><stop offset="1" stop-color="#007edb"/></linearGradient><g id="Layer_35" data-name="Layer 35"><rect fill="url(#linear-gradient)" height="57.5" rx="12.75" width="57.5" x="3.25" y="3.25"/><path d="m47 51.25h-5.21a12.21 12.21 0 0 0 -1.3-15.77l-3.49-3.48 3.48-3.48a12.21 12.21 0 0 0 1.3-15.77h5.22a.75.75 0 0 0 0-1.5h-30a.75.75 0 0 0 0 1.5h4.83a12.18 12.18 0 0 0 1.3 15.77l3.51 3.48-3.48 3.48a12.18 12.18 0 0 0 -1.3 15.77h-4.86a.75.75 0 0 0 0 1.5h30a.75.75 0 0 0 0-1.5zm-22.78-14.71 4-4a.74.74 0 0 0 0-1.06l-4-4a10.7 10.7 0 0 1 -.45-14.71h16.11a10.73 10.73 0 0 1 -.45 14.71l-4 4a.75.75 0 0 0 0 1.06l4 4a10.73 10.73 0 0 1 .45 14.71h-16.11a10.7 10.7 0 0 1 .45-14.71z" fill="#fff"/></g></svg>