<svg height="512" viewBox="0 0 64 64" width="512" xmlns="http://www.w3.org/2000/svg" xmlns:xlink="http://www.w3.org/1999/xlink"><linearGradient id="linear-gradient" gradientUnits="userSpaceOnUse" x1="3.25" x2="60.75" y1="32" y2="32"><stop offset="0" stop-color="#5bb4f6"/><stop offset=".61" stop-color="#2191e5"/><stop offset="1" stop-color="#007edb"/></linearGradient><g id="Layer_84" data-name="Layer 84"><rect fill="url(#linear-gradient)" height="57.5" rx="12.75" width="57.5" x="3.25" y="3.25"/><path d="m52 49.82h-3.24v-22.11a.74.74 0 0 0 -.26-.56l-16-14.28a.76.76 0 0 0 -1 0l-16 14.28a.81.81 0 0 0 -.25.56v22.11h-3.25a.75.75 0 0 0 0 1.5h40a.75.75 0 0 0 0-1.5zm-25.86 0v-15h11.72v15zm13.22 0v-15.77a.76.76 0 0 0 -.75-.75h-13.22a.76.76 0 0 0 -.75.75v15.77h-7.9v-21.77l15.26-13.62 15.26 13.62v21.77z" fill="#fff"/></g></svg>