<svg height="512" viewBox="0 0 64 64" width="512" xmlns="http://www.w3.org/2000/svg" xmlns:xlink="http://www.w3.org/1999/xlink"><linearGradient id="linear-gradient" gradientUnits="userSpaceOnUse" x1="3.25" x2="60.75" y1="32" y2="32"><stop offset="0" stop-color="#5bb4f6"/><stop offset=".61" stop-color="#2191e5"/><stop offset="1" stop-color="#007edb"/></linearGradient><g id="Layer_41" data-name="Layer 41"><rect fill="url(#linear-gradient)" height="57.5" rx="12.75" width="57.5" x="3.25" y="3.25"/><g fill="#fff"><path d="m43.49 51.25h-23.92a7 7 0 0 1 -1.45-.15 6.82 6.82 0 0 1 -5.21-5.23 6.17 6.17 0 0 1 -.16-1.44v-23.92a.75.75 0 0 0 -1.5 0v23.92a7.87 7.87 0 0 0 .2 1.77 8.31 8.31 0 0 0 6.35 6.36 8.13 8.13 0 0 0 1.77.19h23.92a.75.75 0 1 0 0-1.5z"/><path d="m48.54 11.25h-27.12a4.21 4.21 0 0 0 -4.21 4.21v27.12a4.21 4.21 0 0 0 4.21 4.21h27.12a4.22 4.22 0 0 0 4.21-4.21v-27.12a4.22 4.22 0 0 0 -4.21-4.21zm-27.12 1.5h27.12a2.71 2.71 0 0 1 2.71 2.71v10.32l-6-5.94a.74.74 0 0 0 -1-.05l-10.25 8.7-2.83-4.12a.76.76 0 0 0 -.51-.32.72.72 0 0 0 -.57.15c-.07.05-6.3 4.9-11.36 8.69v-17.43a2.71 2.71 0 0 1 2.69-2.71zm27.12 32.54h-27.12a2.71 2.71 0 0 1 -2.71-2.71v-7.81c4.29-3.2 9.81-7.47 11.65-8.9l6.14 9a.75.75 0 0 0 1.23-.87l-2.9-4.23 9.9-8.36 6.52 6.52v14.65a2.71 2.71 0 0 1 -2.71 2.71z"/></g></g></svg>