<svg height="512" viewBox="0 0 64 64" width="512" xmlns="http://www.w3.org/2000/svg" xmlns:xlink="http://www.w3.org/1999/xlink"><linearGradient id="linear-gradient" gradientUnits="userSpaceOnUse" x1="3.25" x2="60.75" y1="32" y2="32"><stop offset="0" stop-color="#5bb4f6"/><stop offset=".61" stop-color="#2191e5"/><stop offset="1" stop-color="#007edb"/></linearGradient><g id="Layer_50" data-name="Layer 50"><rect fill="url(#linear-gradient)" height="57.5" rx="12.75" width="57.5" x="3.25" y="3.25"/><g fill="#fff"><path d="m52 25.26h-11.24a.75.75 0 0 0 0 1.5h10.49v21.63h-38.5v-21.63h10.49a.75.75 0 0 0 0-1.5h-11.24a.76.76 0 0 0 -.75.75v23.13a.75.75 0 0 0 .75.75h40a.75.75 0 0 0 .75-.75v-23.14a.76.76 0 0 0 -.75-.74z"/><path d="m24.16 33.63 7.31 7.31a.75.75 0 0 0 1.06 0l7.31-7.31a.75.75 0 0 0 -.53-1.28h-6.55v-17.49a.75.75 0 0 0 -1.5 0v17.49h-6.57a.75.75 0 0 0 -.53 1.28zm13.34.22-5.5 5.5-5.5-5.5z"/></g></g></svg>