<svg height="512" viewBox="0 0 64 64" width="512" xmlns="http://www.w3.org/2000/svg" xmlns:xlink="http://www.w3.org/1999/xlink"><linearGradient id="linear-gradient" gradientUnits="userSpaceOnUse" x1="3.25" x2="60.75" y1="32" y2="32"><stop offset="0" stop-color="#5bb4f6"/><stop offset=".61" stop-color="#2191e5"/><stop offset="1" stop-color="#007edb"/></linearGradient><g id="Layer_61" data-name="Layer 61"><rect fill="url(#linear-gradient)" height="57.5" rx="12.75" width="57.5" x="3.25" y="3.25"/><g fill="#fff"><path d="m43.07 22.21h-22.14a9.68 9.68 0 1 0 9.65 10.44h2.84a9.68 9.68 0 1 0 9.65-10.44zm0 17.86a8.19 8.19 0 0 1 -8.18-8.18.76.76 0 0 0 -.75-.75h-4.2a.76.76 0 0 0 -.83.74 8.18 8.18 0 1 1 -8.25-8.18h22.28a8.18 8.18 0 0 1 -.07 16.36z"/><path d="m23.15 31.14h-1.47v-1.47a.75.75 0 0 0 -1.5 0v1.47h-1.47a.75.75 0 0 0 0 1.5h1.47v1.48a.75.75 0 0 0 1.5 0v-1.48h1.47a.75.75 0 0 0 0-1.5z"/><path d="m41.17 32.83a.78.78 0 0 0 -.24.16.75.75 0 1 0 .24-.16z"/><path d="m45.31 29.67a.75.75 0 0 0 -1.22.24.74.74 0 0 0 .16.82.63.63 0 0 0 .24.16.75.75 0 0 0 .29.06.72.72 0 0 0 .29-.06.63.63 0 0 0 .24-.16.81.81 0 0 0 .17-.24.93.93 0 0 0 .05-.29.75.75 0 0 0 -.06-.29.63.63 0 0 0 -.16-.24z"/></g></g></svg>