<svg height="512" viewBox="0 0 64 64" width="512" xmlns="http://www.w3.org/2000/svg" xmlns:xlink="http://www.w3.org/1999/xlink"><linearGradient id="linear-gradient" gradientUnits="userSpaceOnUse" x1="3.25" x2="60.75" y1="32" y2="32"><stop offset="0" stop-color="#5bb4f6"/><stop offset=".61" stop-color="#2191e5"/><stop offset="1" stop-color="#007edb"/></linearGradient><g id="Layer_27" data-name="Layer 27"><rect fill="url(#linear-gradient)" height="57.5" rx="12.75" width="57.5" x="3.25" y="3.25"/><path d="m52 11.25h-40a.76.76 0 0 0 -.75.75v40a.76.76 0 0 0 .75.75h40a.76.76 0 0 0 .75-.75v-40a.76.76 0 0 0 -.75-.75zm-.75 14.22h-26.76v-12.72h26.76zm-38.5 25.78v-38.5h10.25v38.5zm11.74 0v-24.25h26.76v24.25z" fill="#fff"/></g></svg>