<svg height="512" viewBox="0 0 64 64" width="512" xmlns="http://www.w3.org/2000/svg" xmlns:xlink="http://www.w3.org/1999/xlink"><linearGradient id="linear-gradient" gradientUnits="userSpaceOnUse" x1="3.25" x2="60.75" y1="32" y2="32"><stop offset="0" stop-color="#5bb4f6"/><stop offset=".61" stop-color="#2191e5"/><stop offset="1" stop-color="#007edb"/></linearGradient><g id="Layer_56" data-name="Layer 56"><rect fill="url(#linear-gradient)" height="57.5" rx="12.75" width="57.5" x="3.25" y="3.25"/><g fill="#fff"><path d="m12 12.75h40a.75.75 0 0 0 0-1.5h-40a.75.75 0 0 0 0 1.5z"/><path d="m52 21.25h-40a.75.75 0 0 0 0 1.5h40a.75.75 0 0 0 0-1.5z"/><path d="m52 31.25h-40a.75.75 0 0 0 0 1.5h40a.75.75 0 0 0 0-1.5z"/><path d="m32 41.25h-20a.75.75 0 0 0 0 1.5h20a.75.75 0 0 0 0-1.5z"/><path d="m32 51.25h-20a.75.75 0 0 0 0 1.5h20a.75.75 0 0 0 0-1.5z"/><path d="m51.5 42.32-9.58 8.58-3.87-5a.75.75 0 0 0 -1-.14.76.76 0 0 0 -.14 1.06l4.37 5.67a.74.74 0 0 0 .52.29h.07a.78.78 0 0 0 .5-.19l10.13-9.16a.75.75 0 1 0 -1-1.11z"/></g></g></svg>