<svg height="512" viewBox="0 0 64 64" width="512" xmlns="http://www.w3.org/2000/svg" xmlns:xlink="http://www.w3.org/1999/xlink"><linearGradient id="linear-gradient" gradientUnits="userSpaceOnUse" x1="3.25" x2="60.75" y1="32" y2="32"><stop offset="0" stop-color="#5bb4f6"/><stop offset=".61" stop-color="#2191e5"/><stop offset="1" stop-color="#007edb"/></linearGradient><g id="Layer_29" data-name="Layer 29"><rect fill="url(#linear-gradient)" height="57.5" rx="12.75" width="57.5" x="3.25" y="3.25"/><g fill="#fff"><path d="m32 21.35a.75.75 0 0 1 -.75-.75v-8.6a.75.75 0 0 1 1.5 0v8.6a.75.75 0 0 1 -.75.75z"/><path d="m40.06 24.69a.74.74 0 0 1 -.53-.22.75.75 0 0 1 0-1.06l6.08-6.08a.75.75 0 0 1 1.06 1.06l-6.08 6.08a.74.74 0 0 1 -.53.22z"/><path d="m52 32.75h-8.6a.75.75 0 0 1 0-1.5h8.6a.75.75 0 0 1 0 1.5z"/><path d="m46.14 46.89a.74.74 0 0 1 -.53-.22l-6.08-6.08a.75.75 0 0 1 1.06-1.06l6.08 6.08a.74.74 0 0 1 0 1.06.73.73 0 0 1 -.53.22z"/><path d="m32 52.75a.76.76 0 0 1 -.75-.75v-8.6a.75.75 0 0 1 1.5 0v8.6a.76.76 0 0 1 -.75.75z"/><path d="m17.86 46.89a.73.73 0 0 1 -.53-.22.74.74 0 0 1 0-1.06l6.08-6.08a.75.75 0 0 1 1.06 1.06l-6.08 6.08a.74.74 0 0 1 -.53.22z"/><path d="m20.6 32.75h-8.6a.75.75 0 0 1 0-1.5h8.6a.75.75 0 0 1 0 1.5z"/><path d="m23.94 24.69a.74.74 0 0 1 -.53-.22l-6.08-6.08a.75.75 0 0 1 1.06-1.06l6.08 6.08a.75.75 0 0 1 0 1.06.74.74 0 0 1 -.53.22z"/></g></g></svg>