<svg height="512" viewBox="0 0 64 64" width="512" xmlns="http://www.w3.org/2000/svg" xmlns:xlink="http://www.w3.org/1999/xlink"><linearGradient id="linear-gradient" gradientUnits="userSpaceOnUse" x1="3.25" x2="60.75" y1="32" y2="32"><stop offset="0" stop-color="#5bb4f6"/><stop offset=".61" stop-color="#2191e5"/><stop offset="1" stop-color="#007edb"/></linearGradient><g id="Layer_82" data-name="Layer 82"><rect fill="url(#linear-gradient)" height="57.5" rx="12.75" width="57.5" x="3.25" y="3.25"/><g fill="#fff"><path d="m49.14 11.25h-23.14a.76.76 0 0 0 -.75.75v11.24a.75.75 0 0 0 1.5 0v-10.49h21.64v38.5h-21.63v-10.49a.75.75 0 0 0 -1.5 0v11.24a.76.76 0 0 0 .75.75h23.13a.75.75 0 0 0 .75-.75v-40a.75.75 0 0 0 -.75-.75z"/><path d="m32.35 39.31a.75.75 0 0 0 .46.7.93.93 0 0 0 .29.05.74.74 0 0 0 .53-.22l7.31-7.31a.75.75 0 0 0 0-1.06l-7.31-7.31a.75.75 0 0 0 -1.28.53v6.55h-17.49a.75.75 0 0 0 0 1.5h17.49zm1.5-12.81 5.5 5.5-5.5 5.5z"/></g></g></svg>