<svg height="512" viewBox="0 0 64 64" width="512" xmlns="http://www.w3.org/2000/svg" xmlns:xlink="http://www.w3.org/1999/xlink"><linearGradient id="linear-gradient" gradientUnits="userSpaceOnUse" x1="3.25" x2="60.75" y1="32" y2="32"><stop offset="0" stop-color="#5bb4f6"/><stop offset=".61" stop-color="#2191e5"/><stop offset="1" stop-color="#007edb"/></linearGradient><g id="Layer_83" data-name="Layer 83"><rect fill="url(#linear-gradient)" height="57.5" rx="12.75" width="57.5" x="3.25" y="3.25"/><g fill="#fff"><path d="m38 40a.75.75 0 0 0 -.75.75v10.5h-21.64v-38.5h21.63v10.49a.75.75 0 1 0 1.5 0v-11.24a.76.76 0 0 0 -.75-.75h-23.13a.75.75 0 0 0 -.75.75v40a.75.75 0 0 0 .75.75h23.14a.76.76 0 0 0 .75-.75v-11.24a.76.76 0 0 0 -.75-.76z"/><path d="m49.14 31.25h-17.49v-6.56a.75.75 0 0 0 -1.28-.53l-7.31 7.31a.75.75 0 0 0 0 1.06l7.31 7.31a.74.74 0 0 0 .53.22.93.93 0 0 0 .29-.05.75.75 0 0 0 .46-.7v-6.55h17.49a.75.75 0 0 0 0-1.5zm-19 6.25-5.49-5.5 5.5-5.5z"/></g></g></svg>