<svg height="512" viewBox="0 0 64 64" width="512" xmlns="http://www.w3.org/2000/svg" xmlns:xlink="http://www.w3.org/1999/xlink"><linearGradient id="linear-gradient" gradientUnits="userSpaceOnUse" x1="3.25" x2="60.75" y1="32" y2="32"><stop offset="0" stop-color="#5bb4f6"/><stop offset=".61" stop-color="#2191e5"/><stop offset="1" stop-color="#007edb"/></linearGradient><g id="Layer_101" data-name="Layer 101"><rect fill="url(#linear-gradient)" height="57.5" rx="12.75" width="57.5" x="3.25" y="3.25"/><path d="m42.59 11.25h-21.18a3.75 3.75 0 0 0 -3.75 3.75v34a3.75 3.75 0 0 0 3.75 3.75h21.18a3.75 3.75 0 0 0 3.75-3.75v-34a3.75 3.75 0 0 0 -3.75-3.75zm-21.18 1.5h21.18a2.25 2.25 0 0 1 2.25 2.25v29.82h-25.68v-29.82a2.25 2.25 0 0 1 2.25-2.25zm21.18 38.5h-21.18a2.25 2.25 0 0 1 -2.25-2.25v-2.68h25.68v2.68a2.25 2.25 0 0 1 -2.25 2.25z" fill="#fff"/></g></svg>