<svg height="512" viewBox="0 0 64 64" width="512" xmlns="http://www.w3.org/2000/svg" xmlns:xlink="http://www.w3.org/1999/xlink"><linearGradient id="linear-gradient" gradientUnits="userSpaceOnUse" x1="3.25" x2="60.75" y1="32" y2="32"><stop offset="0" stop-color="#5bb4f6"/><stop offset=".61" stop-color="#2191e5"/><stop offset="1" stop-color="#007edb"/></linearGradient><g id="Layer_13" data-name="Layer 13"><rect fill="url(#linear-gradient)" height="57.5" rx="12.75" width="57.5" x="3.25" y="3.25"/><path d="m50.7 32h-30.44l28.13-11.61a.77.77 0 0 0 .4-1l-3.19-7.7a.71.71 0 0 0 -.4-.4.71.71 0 0 0 -.57 0l-31.63 13.1a.75.75 0 0 0 -.41 1l3.13 7.56v19.05a.75.75 0 0 0 .75.75h34.23a.76.76 0 0 0 .75-.75v-19.22a.76.76 0 0 0 -.75-.78zm-29.14-9.52 8.92 3.7-6.3 2.6-8.92-3.69zm7.69-3.19 8.93 3.71-5.74 2.38-8.92-3.7zm8-3.29 8.92 3.69-6 2.49-8.93-3.7zm-15 13.6-5.33 2.2-2.2-5.33zm24.46-11.29-7.53-3.12 5.33-2.19zm3.29 32.94h-32.76v-17.72h32.76z" fill="#fff"/></g></svg>