<svg height="512" viewBox="0 0 64 64" width="512" xmlns="http://www.w3.org/2000/svg" xmlns:xlink="http://www.w3.org/1999/xlink"><linearGradient id="linear-gradient" gradientUnits="userSpaceOnUse" x1="3.25" x2="60.75" y1="32" y2="32"><stop offset="0" stop-color="#5bb4f6"/><stop offset=".61" stop-color="#2191e5"/><stop offset="1" stop-color="#007edb"/></linearGradient><g id="Layer_80" data-name="Layer 80"><rect fill="url(#linear-gradient)" height="57.5" rx="12.75" width="57.5" x="3.25" y="3.25"/><g fill="#fff"><path d="m46.43 28.1a.75.75 0 0 0 -.75.75v22.4h-32.93v-32.93h22.4a.75.75 0 0 0 0-1.5h-23.15a.76.76 0 0 0 -.75.75v34.43a.76.76 0 0 0 .75.75h34.43a.76.76 0 0 0 .75-.75v-23.15a.76.76 0 0 0 -.75-.75z"/><path d="m46.43 11.25a6.32 6.32 0 1 0 6.32 6.32 6.33 6.33 0 0 0 -6.32-6.32zm0 11.14a4.82 4.82 0 1 1 4.82-4.82 4.82 4.82 0 0 1 -4.82 4.82z"/></g></g></svg>