<svg height="512" viewBox="0 0 64 64" width="512" xmlns="http://www.w3.org/2000/svg" xmlns:xlink="http://www.w3.org/1999/xlink"><linearGradient id="linear-gradient" gradientUnits="userSpaceOnUse" x1="3.25" x2="60.75" y1="32" y2="32"><stop offset="0" stop-color="#5bb4f6"/><stop offset=".61" stop-color="#2191e5"/><stop offset="1" stop-color="#007edb"/></linearGradient><g id="Layer_79" data-name="Layer 79"><rect fill="url(#linear-gradient)" height="57.5" rx="12.75" width="57.5" x="3.25" y="3.25"/><path d="m50.41 22.16a.75.75 0 0 0 -.37-.61l-17.66-10.2a.77.77 0 0 0 -.75 0l-17.63 10.2a.8.8 0 0 0 -.38.65v19.6a.75.75 0 0 0 .38.65l17.67 10.2a.77.77 0 0 0 .75 0l17.58-10.2a.75.75 0 0 0 .38-.65v-19.6s.03-.02.03-.04zm-18.41-9.29 16.17 9.33-6.58 3.8-16.17-9.34zm0 18.66-16.17-9.33 8.1-4.67 16.16 9.33zm-16.92-8 16.17 9.33v17.84l-16.17-9.33zm17.67 27.17v-17.87l8.09-4.67v6.48a.75.75 0 0 0 1.5 0v-7.34l6.58-3.8v17.87z" fill="#fff"/></g></svg>