<svg height="512" viewBox="0 0 64 64" width="512" xmlns="http://www.w3.org/2000/svg" xmlns:xlink="http://www.w3.org/1999/xlink"><linearGradient id="linear-gradient" gradientUnits="userSpaceOnUse" x1="3.25" x2="60.75" y1="32" y2="32"><stop offset="0" stop-color="#5bb4f6"/><stop offset=".61" stop-color="#2191e5"/><stop offset="1" stop-color="#007edb"/></linearGradient><g id="Layer_40" data-name="Layer 40"><rect fill="url(#linear-gradient)" height="57.5" rx="12.75" width="57.5" x="3.25" y="3.25"/><path d="m30.13 48.76a.76.76 0 0 1 -.54-.23.75.75 0 0 1 0-1.06l15.6-14.86a14.84 14.84 0 0 0 4.4-8.91 9.77 9.77 0 0 0 -2.63-8 9.78 9.78 0 0 0 -8-2.62 14.82 14.82 0 0 0 -8.96 4.37l-13.51 13.55c-3.36 3.36-3.89 8.3-1.19 11a6.3 6.3 0 0 0 5.18 1.69 9.7 9.7 0 0 0 5.83-2.88l11.46-11.5c1.56-1.56 1.83-3.83.6-5.06a2.8 2.8 0 0 0 -2.37-.74 4.5 4.5 0 0 0 -2.73 1.35l-11.15 11.19a.74.74 0 0 1 -1.06 0 .75.75 0 0 1 0-1.06l11.19-11.19a6.06 6.06 0 0 1 3.64-1.8 4.17 4.17 0 0 1 4.72 4.72 6 6 0 0 1 -1.78 3.64l-11.46 11.47c-3.95 4-9.84 4.49-13.13 1.19s-2.75-9.18 1.19-13.13l13.51-13.5a16.32 16.32 0 0 1 9.84-4.84 11.2 11.2 0 0 1 9.24 3 11.23 11.23 0 0 1 3.06 9.25 16.35 16.35 0 0 1 -4.84 9.83l-15.59 14.92a.75.75 0 0 1 -.52.21z" fill="#fff"/></g></svg>