<svg height="512" viewBox="0 0 64 64" width="512" xmlns="http://www.w3.org/2000/svg" xmlns:xlink="http://www.w3.org/1999/xlink"><linearGradient id="linear-gradient" gradientUnits="userSpaceOnUse" x1="3.25" x2="60.75" y1="32" y2="32"><stop offset="0" stop-color="#5bb4f6"/><stop offset=".61" stop-color="#2191e5"/><stop offset="1" stop-color="#007edb"/></linearGradient><g id="Layer_78" data-name="Layer 78"><rect fill="url(#linear-gradient)" height="57.5" rx="12.75" width="57.5" x="3.25" y="3.25"/><path d="m50.6 13.4a6.75 6.75 0 0 0 -9.52 0l-26.9 26.89a.75.75 0 0 0 -.2.37l-2.53 11a.75.75 0 0 0 .73.92.52.52 0 0 0 .17 0l11-2.53a.75.75 0 0 0 .37-.2l26.88-26.93a6.73 6.73 0 0 0 0-9.52zm-27.8 35.2-9.62 2.22 2.22-9.62 21.32-21.32 3.7 3.7 3.7 3.7zm26.74-26.74-4.36 4.36-3.7-3.7-3.7-3.7 4.36-4.36a5.23 5.23 0 1 1 7.4 7.4z" fill="#fff"/></g></svg>