<svg height="512" viewBox="0 0 64 64" width="512" xmlns="http://www.w3.org/2000/svg" xmlns:xlink="http://www.w3.org/1999/xlink"><linearGradient id="linear-gradient" gradientUnits="userSpaceOnUse" x1="3.25" x2="60.75" y1="32" y2="32"><stop offset="0" stop-color="#5bb4f6"/><stop offset=".61" stop-color="#2191e5"/><stop offset="1" stop-color="#007edb"/></linearGradient><g id="Layer_42" data-name="Layer 42"><rect fill="url(#linear-gradient)" height="57.5" rx="12.75" width="57.5" x="3.25" y="3.25"/><g fill="#fff"><path d="m27 32 16.31-16.31a.72.72 0 0 0 .21-.61.75.75 0 0 0 -.33-.55 20.75 20.75 0 1 0 0 34.94.75.75 0 0 0 .33-.55.72.72 0 0 0 -.21-.61zm5 19.25a19.25 19.25 0 0 1 0-38.5 19.05 19.05 0 0 1 9.57 2.56l-16.16 16.16a.75.75 0 0 0 0 1.06l16.16 16.16a19.05 19.05 0 0 1 -9.57 2.56z"/><path d="m46.67 17.33a.75.75 0 0 0 -.53-.22.75.75 0 0 0 -.53.22l-14.14 14.14a.75.75 0 0 0 0 1.06l14.14 14.14a.74.74 0 0 0 .53.22.71.71 0 0 0 .53-.22 20.74 20.74 0 0 0 0-29.34zm-.54 27.74-13.07-13.07 13.07-13.07a19.24 19.24 0 0 1 0 26.14z"/></g></g></svg>