<svg height="512" viewBox="0 0 64 64" width="512" xmlns="http://www.w3.org/2000/svg" xmlns:xlink="http://www.w3.org/1999/xlink"><linearGradient id="linear-gradient" gradientUnits="userSpaceOnUse" x1="3.25" x2="60.75" y1="32" y2="32"><stop offset="0" stop-color="#5bb4f6"/><stop offset=".61" stop-color="#2191e5"/><stop offset="1" stop-color="#007edb"/></linearGradient><g id="Layer_12" data-name="Layer 12"><rect fill="url(#linear-gradient)" height="57.5" rx="12.75" width="57.5" x="3.25" y="3.25"/><path d="m50.47 38.12a19.44 19.44 0 0 0 -24.59-24.59c-5.82-2.79-10.53-3-12.95-.6s-2.19 7.13.6 13a19.44 19.44 0 0 0 24.59 24.54 19.92 19.92 0 0 0 8.25 2.27 6.44 6.44 0 0 0 4.7-1.67c2.41-2.42 2.19-7.13-.6-12.95zm-.47-6.12a18 18 0 0 1 -11.79 16.84 53.92 53.92 0 0 1 -13.21-9.84 53.92 53.92 0 0 1 -9.86-13.19 18 18 0 0 1 34.86 6.19zm-36-18c1.77-1.78 5.35-1.65 9.93.3a19.62 19.62 0 0 0 -9.63 9.63c-1.95-4.58-2.08-8.16-.3-9.93zm0 18a17.9 17.9 0 0 1 .51-4.17 57.51 57.51 0 0 0 9.49 12.17 57.51 57.51 0 0 0 12.21 9.42 17.9 17.9 0 0 1 -22.21-17.42zm36 18c-1.77 1.78-5.35 1.65-9.93-.3a19.62 19.62 0 0 0 9.63-9.63c1.95 4.58 2.08 8.16.3 9.93z" fill="#fff"/></g></svg>