<svg height="512" viewBox="0 0 64 64" width="512" xmlns="http://www.w3.org/2000/svg" xmlns:xlink="http://www.w3.org/1999/xlink"><linearGradient id="linear-gradient" gradientUnits="userSpaceOnUse" x1="3.25" x2="60.75" y1="32" y2="32"><stop offset="0" stop-color="#5bb4f6"/><stop offset=".61" stop-color="#2191e5"/><stop offset="1" stop-color="#007edb"/></linearGradient><g id="Layer_33" data-name="Layer 33"><rect fill="url(#linear-gradient)" height="57.5" rx="12.75" width="57.5" x="3.25" y="3.25"/><path d="m48.66 19h-7.94v-7a.75.75 0 0 0 -1.5 0v7h-14.44v-7a.75.75 0 0 0 -1.5 0v7h-7.94a.75.75 0 0 0 0 1.5h1.66v6.93a15 15 0 0 0 14.29 15v9.57a.75.75 0 0 0 1.5 0v-9.59a15 15 0 0 0 14.21-15v-6.93h1.62a.75.75 0 0 0 0-1.5zm-3.12 8.43a13.54 13.54 0 0 1 -27.08 0v-6.95h27.08z" fill="#fff"/></g></svg>