<svg height="512" viewBox="0 0 64 64" width="512" xmlns="http://www.w3.org/2000/svg" xmlns:xlink="http://www.w3.org/1999/xlink"><linearGradient id="linear-gradient" gradientUnits="userSpaceOnUse" x1="3.25" x2="60.75" y1="32" y2="32"><stop offset="0" stop-color="#5bb4f6"/><stop offset=".61" stop-color="#2191e5"/><stop offset="1" stop-color="#007edb"/></linearGradient><g id="Layer_77" data-name="Layer 77"><rect fill="url(#linear-gradient)" height="57.5" rx="12.75" width="57.5" x="3.25" y="3.25"/><g fill="#fff"><path d="m32 52.75a18.44 18.44 0 0 1 -5.76-36 .74.74 0 0 1 .94.48.75.75 0 0 1 -.47.95 16.94 16.94 0 1 0 10.58 0 .75.75 0 0 1 .47-1.43 18.44 18.44 0 0 1 -5.76 36z"/><path d="m32 26.37a.76.76 0 0 1 -.75-.75v-13.62a.75.75 0 0 1 1.5 0v13.62a.76.76 0 0 1 -.75.75z"/></g></g></svg>