<svg height="512" viewBox="0 0 64 64" width="512" xmlns="http://www.w3.org/2000/svg" xmlns:xlink="http://www.w3.org/1999/xlink"><linearGradient id="linear-gradient" gradientUnits="userSpaceOnUse" x1="3.25" x2="60.75" y1="32" y2="32"><stop offset="0" stop-color="#5bb4f6"/><stop offset=".61" stop-color="#2191e5"/><stop offset="1" stop-color="#007edb"/></linearGradient><g id="Layer_76" data-name="Layer 76"><rect fill="url(#linear-gradient)" height="57.5" rx="12.75" width="57.5" x="3.25" y="3.25"/><path d="m32 51.05a.74.74 0 0 1 -.74-.63l-2.75-17h-3.27a.75.75 0 0 1 -.74-.59l-3.5-15.75-3.73 15.8a.75.75 0 0 1 -.73.58h-4.54a.75.75 0 0 1 0-1.46h4l4.35-18.44a.74.74 0 0 1 .73-.57.75.75 0 0 1 .73.59l4 18.42h3.3a.74.74 0 0 1 .74.63l2.12 13 2.12-13a.74.74 0 0 1 .74-.63h3.38l4-10.93a.74.74 0 0 1 .69-.49.78.78 0 0 1 .71.47l4.3 11h4.09a.75.75 0 0 1 0 1.5h-4.58a.75.75 0 0 1 -.7-.47l-3.72-9.67-3.53 9.59a.76.76 0 0 1 -.71.49h-3.27l-2.75 17a.74.74 0 0 1 -.74.56z" fill="#fff"/></g></svg>