<svg height="512" viewBox="0 0 64 64" width="512" xmlns="http://www.w3.org/2000/svg" xmlns:xlink="http://www.w3.org/1999/xlink"><linearGradient id="linear-gradient" gradientUnits="userSpaceOnUse" x1="3.25" x2="60.75" y1="32" y2="32"><stop offset="0" stop-color="#5bb4f6"/><stop offset=".61" stop-color="#2191e5"/><stop offset="1" stop-color="#007edb"/></linearGradient><g id="Layer_54" data-name="Layer 54"><rect fill="url(#linear-gradient)" height="57.5" rx="12.75" width="57.5" x="3.25" y="3.25"/><path d="m52.53 23.78-8.22-8.22a.72.72 0 0 0 -.81-.16.75.75 0 0 0 -.47.69v7.47h-19.23a12.55 12.55 0 0 0 0 25.1h7.25a.75.75 0 0 0 0-1.5h-7.25a11 11 0 0 1 0-22.1h19.2v7.46a.76.76 0 0 0 .47.7.92.92 0 0 0 .28.05.71.71 0 0 0 .53-.22l8.22-8.21a.75.75 0 0 0 .03-1.06zm-8 6.93v-12.81l6.41 6.41z" fill="#fff"/></g></svg>