<svg height="512" viewBox="0 0 64 64" width="512" xmlns="http://www.w3.org/2000/svg" xmlns:xlink="http://www.w3.org/1999/xlink"><linearGradient id="linear-gradient" gradientUnits="userSpaceOnUse" x1="3.25" x2="60.75" y1="32" y2="32"><stop offset="0" stop-color="#5bb4f6"/><stop offset=".61" stop-color="#2191e5"/><stop offset="1" stop-color="#007edb"/></linearGradient><g id="Layer_86" data-name="Layer 86"><rect fill="url(#linear-gradient)" height="57.5" rx="12.75" width="57.5" x="3.25" y="3.25"/><g fill="#fff"><path d="m24.18 17.71a6.47 6.47 0 1 0 -7.18 6.42v15.74a6.47 6.47 0 1 0 1.5 0v-15.74a6.47 6.47 0 0 0 5.68-6.42zm-11.43 0a5 5 0 1 1 5 5 5 5 0 0 1 -5-5zm9.93 28.58a5 5 0 1 1 -5-5 5 5 0 0 1 5 5z"/><path d="m47 39.87v-11.44a11.48 11.48 0 0 0 -10.68-11.43v-5a.75.75 0 0 0 -1.32-.53l-5.71 5.71a.74.74 0 0 0 0 1.06l5.71 5.76a.77.77 0 0 0 .53.22.72.72 0 0 0 .29-.06.75.75 0 0 0 .46-.69v-4.97a10 10 0 0 1 9.22 9.93v11.44a6.46 6.46 0 1 0 1.5 0zm-12.18-18.25-3.9-3.91 3.9-3.9zm11.47 29.63a5 5 0 1 1 5-5 5 5 0 0 1 -5 5z"/></g></g></svg>