<svg height="512" viewBox="0 0 64 64" width="512" xmlns="http://www.w3.org/2000/svg" xmlns:xlink="http://www.w3.org/1999/xlink"><linearGradient id="linear-gradient" gradientUnits="userSpaceOnUse" x1="3.25" x2="60.75" y1="32" y2="32"><stop offset="0" stop-color="#5bb4f6"/><stop offset=".61" stop-color="#2191e5"/><stop offset="1" stop-color="#007edb"/></linearGradient><g id="Layer_22" data-name="Layer 22"><rect fill="url(#linear-gradient)" height="57.5" rx="12.75" width="57.5" x="3.25" y="3.25"/><g fill="#fff"><path d="m52.48 11.47c-.34-.44-1.61 0-2.19 0a50.87 50.87 0 0 0 -29.6 14.39l-8.69 1.91a.74.74 0 0 0 -.56.52.73.73 0 0 0 .19.74l23.5 23.5a.75.75 0 0 0 .53.22.75.75 0 0 0 .73-.59l1.93-8.73a50.43 50.43 0 0 0 14.2-29.75c.01-.68.4-1.88-.04-2.21zm-1.45 2a48.88 48.88 0 0 1 -14 29 .75.75 0 0 0 -.2.37l-1.65 7.66-21.57-21.56 7.49-1.66a1.1 1.1 0 0 0 .58-.31 49.3 49.3 0 0 1 28.79-14l.63-.08z"/><path d="m35.76 22.44a4.19 4.19 0 1 0 5.92 0 4.18 4.18 0 0 0 -5.92 0zm4.86 4.86a2.69 2.69 0 1 1 -1.9-4.59 2.69 2.69 0 0 1 1.9 4.59z"/><path d="m16.16 40.35a.78.78 0 0 0 -.73-.2.76.76 0 0 0 -.53.53l-2.72 10.17a.75.75 0 0 0 .19.73.77.77 0 0 0 .53.22.69.69 0 0 0 .2 0l10.17-2.72a.75.75 0 0 0 .33-1.26zm-2.16 9.65 2-7.67 5.6 5.6z"/></g></g></svg>