<svg height="512" viewBox="0 0 64 64" width="512" xmlns="http://www.w3.org/2000/svg" xmlns:xlink="http://www.w3.org/1999/xlink"><linearGradient id="linear-gradient" gradientUnits="userSpaceOnUse" x1="3.25" x2="60.75" y1="32" y2="32"><stop offset="0" stop-color="#5bb4f6"/><stop offset=".61" stop-color="#2191e5"/><stop offset="1" stop-color="#007edb"/></linearGradient><g id="Layer_49" data-name="Layer 49"><rect fill="url(#linear-gradient)" height="57.5" rx="12.75" width="57.5" x="3.25" y="3.25"/><path d="m52.53 43.57-32.1-32.1a.75.75 0 0 0 -1.06 0l-7.9 7.9a.75.75 0 0 0 0 1.06l32.1 32.1a.71.71 0 0 0 .53.22.74.74 0 0 0 .53-.22l7.9-7.9a.75.75 0 0 0 0-1.06zm-8.43 7.37-31-31 6.84-6.84 3.53 3.53-4.08 4.07a.77.77 0 0 0 0 1.07.77.77 0 0 0 1.06 0l4.08-4.08 4.67 4.67-2.42 2.34a.74.74 0 0 0 0 1.06.71.71 0 0 0 .53.22.74.74 0 0 0 .53-.22l2.38-2.38 4.67 4.67-4.08 4.08a.75.75 0 0 0 0 1.06.79.79 0 0 0 .53.22.77.77 0 0 0 .53-.22l4.13-4.08 4.67 4.67-2.38 2.38a.75.75 0 0 0 0 1.06.73.73 0 0 0 .53.22.74.74 0 0 0 .53-.22l2.38-2.38 4.67 4.67-4.07 4.08a.74.74 0 0 0 0 1.06.71.71 0 0 0 .53.22.74.74 0 0 0 .53-.22l4.08-4.08 3.52 3.53z" fill="#fff"/></g></svg>