<svg height="512" viewBox="0 0 64 64" width="512" xmlns="http://www.w3.org/2000/svg" xmlns:xlink="http://www.w3.org/1999/xlink"><linearGradient id="linear-gradient" gradientUnits="userSpaceOnUse" x1="3.25" x2="60.75" y1="32" y2="32"><stop offset="0" stop-color="#5bb4f6"/><stop offset=".61" stop-color="#2191e5"/><stop offset="1" stop-color="#007edb"/></linearGradient><g id="Layer_4" data-name="Layer 4"><rect fill="url(#linear-gradient)" height="57.5" rx="12.75" width="57.5" x="3.25" y="3.25"/><g fill="#fff"><path d="m52.21 51.15-10-10a17.31 17.31 0 1 0 -1.06 1.06l10 10a.73.73 0 0 0 .53.22.74.74 0 0 0 .53-.22.75.75 0 0 0 0-1.06zm-33.89-10.48a15.8 15.8 0 1 1 22.35 0 15.81 15.81 0 0 1 -22.35 0z"/><path d="m22.71 21.65a.75.75 0 0 0 -1.06 0 11.1 11.1 0 0 0 0 15.69.73.73 0 0 0 .53.22.74.74 0 0 0 .53-.22.75.75 0 0 0 0-1.06 9.61 9.61 0 0 1 0-13.57.75.75 0 0 0 0-1.06z"/></g></g></svg>