<svg height="512" viewBox="0 0 64 64" width="512" xmlns="http://www.w3.org/2000/svg" xmlns:xlink="http://www.w3.org/1999/xlink"><linearGradient id="linear-gradient" gradientUnits="userSpaceOnUse" x1="3.25" x2="60.75" y1="32" y2="32"><stop offset="0" stop-color="#5bb4f6"/><stop offset=".61" stop-color="#2191e5"/><stop offset="1" stop-color="#007edb"/></linearGradient><g id="Layer_28" data-name="Layer 28"><rect fill="url(#linear-gradient)" height="57.5" rx="12.75" width="57.5" x="3.25" y="3.25"/><path d="m52 20.72a.76.76 0 0 0 .75-.75v-7.97a.76.76 0 0 0 -.75-.75h-8a.76.76 0 0 0 -.75.75v3.23h-22.53v-3.23a.76.76 0 0 0 -.75-.75h-7.97a.76.76 0 0 0 -.75.75v8a.76.76 0 0 0 .75.75h3.23v22.53h-3.23a.76.76 0 0 0 -.75.75v8a.76.76 0 0 0 .75.75h8a.76.76 0 0 0 .75-.75v-3.26h22.53v3.23a.76.76 0 0 0 .75.75h8a.76.76 0 0 0 .75-.75v-8a.76.76 0 0 0 -.75-.75h-3.26v-22.53zm-7.22-8h6.47v6.47h-6.47zm-32 0h6.47v6.47h-6.5zm6.47 38.5h-6.5v-6.44h6.47zm32 0h-6.47v-6.44h6.47zm-4-8h-3.25a.76.76 0 0 0 -.75.75v3.24h-22.53v-3.21a.76.76 0 0 0 -.75-.75h-3.24v-22.53h3.27a.76.76 0 0 0 .75-.75v-3.24h22.53v3.27a.76.76 0 0 0 .75.75h3.24z" fill="#fff"/></g></svg>