<svg height="512" viewBox="0 0 64 64" width="512" xmlns="http://www.w3.org/2000/svg" xmlns:xlink="http://www.w3.org/1999/xlink"><linearGradient id="linear-gradient" gradientUnits="userSpaceOnUse" x1="3.25" x2="60.75" y1="32" y2="32"><stop offset="0" stop-color="#5bb4f6"/><stop offset=".61" stop-color="#2191e5"/><stop offset="1" stop-color="#007edb"/></linearGradient><g id="Layer_60" data-name="Layer 60"><rect fill="url(#linear-gradient)" height="57.5" rx="12.75" width="57.5" x="3.25" y="3.25"/><g fill="#fff"><path d="m51 23.24a.75.75 0 0 0 .75-.75v-10.49a.75.75 0 0 0 -.75-.75h-38a.75.75 0 0 0 -.75.75v10.49a.75.75 0 0 0 .75.75h6v6.55h-6a.75.75 0 0 0 -.75.75v10.46a.74.74 0 0 0 .75.75h18.25v9.47h-3.46a.75.75 0 1 0 0 1.5h8.42a.75.75 0 1 0 0-1.5h-3.46v-9.44h18.25a.74.74 0 0 0 .75-.75v-10.49a.75.75 0 0 0 -.75-.75h-6v-6.55zm-37.26-10.49h36.52v9h-36.52zm36.52 27.53h-36.52v-9h36.52zm-6.76-10.49h-23v-6.55h23z"/><path d="m35.87 18.17a.93.93 0 0 0 .29 0 .87.87 0 0 0 .28 0 .74.74 0 0 0 .25-.17.75.75 0 0 0 0-1.06.77.77 0 0 0 -1.06 0 .75.75 0 0 0 0 1.06.81.81 0 0 0 .24.17z"/><path d="m40.69 18.17a.87.87 0 0 0 .28 0 .93.93 0 0 0 .29 0 .81.81 0 0 0 .24-.17.71.71 0 0 0 .22-.53.75.75 0 0 0 -.22-.53.77.77 0 0 0 -1.06 0 .75.75 0 0 0 0 1.06.85.85 0 0 0 .25.17z"/><path d="m45.5 18.17a.93.93 0 0 0 .29 0 1 1 0 0 0 .29 0 .81.81 0 0 0 .24-.17.78.78 0 0 0 .16-.24.72.72 0 0 0 .06-.29.75.75 0 0 0 -1-.69.78.78 0 0 0 -.24.16.75.75 0 0 0 0 1.06.81.81 0 0 0 .2.17z"/><path d="m36.69 35.77a.74.74 0 0 0 -.25-.17.72.72 0 0 0 -.81.17.75.75 0 0 0 -.22.53.75.75 0 0 0 1.28.52.74.74 0 0 0 .22-.52.72.72 0 0 0 -.06-.29.78.78 0 0 0 -.16-.24z"/><path d="m41.26 35.6a.8.8 0 0 0 -.57 0 .74.74 0 0 0 -.25.17.78.78 0 0 0 -.16.24.72.72 0 0 0 -.06.29.67.67 0 0 0 .06.28.78.78 0 0 0 .16.24.7.7 0 0 0 .25.17.66.66 0 0 0 .31.01.71.71 0 0 0 .29 0 .66.66 0 0 0 .24-.17.71.71 0 0 0 .23-.52.76.76 0 0 0 -.23-.53.7.7 0 0 0 -.27-.18z"/><path d="m45.79 37a.71.71 0 0 0 .53-.22.78.78 0 0 0 .16-.24.67.67 0 0 0 .06-.28.72.72 0 0 0 -.06-.29.78.78 0 0 0 -.16-.24.76.76 0 0 0 -1.06 0 .74.74 0 0 0 0 1 .71.71 0 0 0 .53.27z"/></g></g></svg>