<svg height="512" viewBox="0 0 64 64" width="512" xmlns="http://www.w3.org/2000/svg" xmlns:xlink="http://www.w3.org/1999/xlink"><linearGradient id="linear-gradient" gradientUnits="userSpaceOnUse" x1="3.25" x2="60.75" y1="32" y2="32"><stop offset="0" stop-color="#5bb4f6"/><stop offset=".61" stop-color="#2191e5"/><stop offset="1" stop-color="#007edb"/></linearGradient><g id="Layer_81" data-name="Layer 81"><rect fill="url(#linear-gradient)" height="57.5" rx="12.75" width="57.5" x="3.25" y="3.25"/><g fill="#fff"><path d="m48.81 20-16.46-8.67a.78.78 0 0 0 -.7 0l-16.46 8.67a.74.74 0 0 0 -.41.66v5.54a27.87 27.87 0 0 0 11.22 22.31l5.52 4.09a.75.75 0 0 0 .9 0l5.58-4.09a27.87 27.87 0 0 0 11.22-22.31v-5.59a.74.74 0 0 0 -.41-.61zm-1.09 6.2a26.37 26.37 0 0 1 -10.64 21.11l-5.08 3.76-5.08-3.76a26.37 26.37 0 0 1 -10.64-21.11v-5.13l15.72-8.22 15.72 8.22z"/><path d="m32 17.7a1 1 0 0 0 -.35.08l-10.75 5.63a.74.74 0 0 0 -.4.66v2.13a22.14 22.14 0 0 0 8.93 17.72l2.12 1.57a.78.78 0 0 0 .9 0l2.12-1.57a22.14 22.14 0 0 0 8.93-17.72v-2.13a.74.74 0 0 0 -.4-.66l-10.75-5.63a1 1 0 0 0 -.35-.08zm-10 8.5v-1.67l9.25-4.84v23.71l-.93-.69a20.6 20.6 0 0 1 -8.32-16.51zm20 0a20.6 20.6 0 0 1 -8.32 16.51l-.93.69v-23.71l9.25 4.84z"/></g></g></svg>