<svg height="512" viewBox="0 0 64 64" width="512" xmlns="http://www.w3.org/2000/svg" xmlns:xlink="http://www.w3.org/1999/xlink"><linearGradient id="linear-gradient" gradientUnits="userSpaceOnUse" x1="3.25" x2="60.75" y1="32" y2="32"><stop offset="0" stop-color="#5bb4f6"/><stop offset=".61" stop-color="#2191e5"/><stop offset="1" stop-color="#007edb"/></linearGradient><g id="Layer_75" data-name="Layer 75"><rect fill="url(#linear-gradient)" height="57.5" rx="12.75" width="57.5" x="3.25" y="3.25"/><path d="m48.5 25.34a3.66 3.66 0 0 0 -3.63-3.34h-2.87c-.34-6-4.68-10.72-10-10.72s-9.68 4.72-10 10.72h-2.87a3.66 3.66 0 0 0 -3.63 3.37l-1.72 23.48a3.66 3.66 0 0 0 1 2.74 3.62 3.62 0 0 0 2.66 1.16h29.15a3.62 3.62 0 0 0 2.66-1.16 3.66 3.66 0 0 0 1-2.74zm-16.5-12.59c4.49 0 8.16 4.07 8.49 9.22h-17c.32-5.15 4-9.22 8.51-9.22zm16.15 37.82a2.09 2.09 0 0 1 -1.56.68h-29.18a2.14 2.14 0 0 1 -2.13-2.25l1.72-23.55a2.15 2.15 0 0 1 2.13-2h2.87v4a.75.75 0 0 0 1.5 0v-4h17v4a.75.75 0 1 0 1.5 0v-4h2.87a2.15 2.15 0 0 1 2.13 2l1.72 23.55a2.1 2.1 0 0 1 -.57 1.57z" fill="#fff"/></g></svg>