<svg height="512" viewBox="0 0 64 64" width="512" xmlns="http://www.w3.org/2000/svg" xmlns:xlink="http://www.w3.org/1999/xlink"><linearGradient id="linear-gradient" gradientUnits="userSpaceOnUse" x1="3.25" x2="60.75" y1="32" y2="32"><stop offset="0" stop-color="#5bb4f6"/><stop offset=".61" stop-color="#2191e5"/><stop offset="1" stop-color="#007edb"/></linearGradient><g id="Layer_38" data-name="Layer 38"><rect fill="url(#linear-gradient)" height="57.5" rx="12.75" width="57.5" x="3.25" y="3.25"/><g fill="#fff"><path d="m46.69 14.42a.75.75 0 1 0 -1.06 1.06 19.26 19.26 0 0 1 0 27.19.75.75 0 0 0 0 1.06.75.75 0 0 0 1.06 0 20.75 20.75 0 0 0 0-29.31z"/><path d="m42.69 18.42a.74.74 0 0 0 -1.06 0 .75.75 0 0 0 0 1.06 13.58 13.58 0 0 1 0 19.19.75.75 0 0 0 0 1.06.74.74 0 0 0 .53.22.71.71 0 0 0 .53-.22 15.08 15.08 0 0 0 0-21.31z"/><path d="m38.7 22.41a.75.75 0 1 0 -1.06 1.06 7.94 7.94 0 0 1 0 11.21.75.75 0 0 0 0 1.06.73.73 0 0 0 .53.22.74.74 0 0 0 .53-.22 9.43 9.43 0 0 0 0-13.33z"/><path d="m18.37 15.48a.75.75 0 1 0 -1.06-1.06 20.75 20.75 0 0 0 0 29.31.75.75 0 0 0 1.06 0 .75.75 0 0 0 0-1.06 19.26 19.26 0 0 1 0-27.19z"/><path d="m18.4 29.08a13.47 13.47 0 0 1 4-9.6.75.75 0 0 0 0-1.06.74.74 0 0 0 -1.06 0 15.08 15.08 0 0 0 0 21.31.71.71 0 0 0 .53.22.74.74 0 0 0 .53-.22.75.75 0 0 0 0-1.06 13.46 13.46 0 0 1 -4-9.59z"/><path d="m26.36 22.41a.75.75 0 0 0 -1.06 0 9.43 9.43 0 0 0 0 13.33.74.74 0 0 0 .53.22.73.73 0 0 0 .53-.22.75.75 0 0 0 0-1.06 7.94 7.94 0 0 1 0-11.21.75.75 0 0 0 0-1.06z"/><path d="m32 25.3a3.78 3.78 0 1 0 3.77 3.77 3.77 3.77 0 0 0 -3.77-3.77zm0 6.05a2.28 2.28 0 1 1 2.27-2.28 2.28 2.28 0 0 1 -2.27 2.28z"/><path d="m32 37.71a.74.74 0 0 0 -.75.75v10.59a.75.75 0 0 0 1.5 0v-10.59a.75.75 0 0 0 -.75-.75z"/></g></g></svg>