<svg height="512" viewBox="0 0 64 64" width="512" xmlns="http://www.w3.org/2000/svg" xmlns:xlink="http://www.w3.org/1999/xlink"><linearGradient id="linear-gradient" gradientUnits="userSpaceOnUse" x1="3.25" x2="60.75" y1="32" y2="32"><stop offset="0" stop-color="#5bb4f6"/><stop offset=".61" stop-color="#2191e5"/><stop offset="1" stop-color="#007edb"/></linearGradient><g id="Layer_23" data-name="Layer 23"><rect fill="url(#linear-gradient)" height="57.5" rx="12.75" width="57.5" x="3.25" y="3.25"/><g fill="#fff"><path d="m52 46.05h-6.8a6.23 6.23 0 0 0 -12.38 0h-20.82a.75.75 0 0 0 0 1.5h20.82a6.23 6.23 0 0 0 12.38 0h6.8a.75.75 0 0 0 0-1.5zm-13 5.5a4.75 4.75 0 0 1 -4.74-4.74 4.74 4.74 0 0 1 9.48 0 4.75 4.75 0 0 1 -4.74 4.74z"/><path d="m52 31.25h-23.11a6.24 6.24 0 0 0 -12.39 0h-4.5a.75.75 0 0 0 0 1.5h4.5a6.24 6.24 0 0 0 12.39 0h23.11a.75.75 0 0 0 0-1.5zm-29.31 5.49a4.74 4.74 0 1 1 4.74-4.74 4.74 4.74 0 0 1 -4.74 4.74z"/><path d="m12 18h13.81a6.23 6.23 0 0 0 12.38 0h13.81a.75.75 0 0 0 0-1.5h-13.81a6.23 6.23 0 0 0 -12.38 0h-13.81a.75.75 0 0 0 0 1.5zm20-5.5a4.75 4.75 0 0 1 4.74 4.74 4.74 4.74 0 0 1 -9.48 0 4.75 4.75 0 0 1 4.74-4.79z"/></g></g></svg>