<svg height="512" viewBox="0 0 64 64" width="512" xmlns="http://www.w3.org/2000/svg" xmlns:xlink="http://www.w3.org/1999/xlink"><linearGradient id="linear-gradient" gradientUnits="userSpaceOnUse" x1="3.25" x2="60.75" y1="32" y2="32"><stop offset="0" stop-color="#5bb4f6"/><stop offset=".61" stop-color="#2191e5"/><stop offset="1" stop-color="#007edb"/></linearGradient><g id="Layer_74" data-name="Layer 74"><rect fill="url(#linear-gradient)" height="57.5" rx="12.75" width="57.5" x="3.25" y="3.25"/><g fill="#fff"><path d="m32 21.25a10.76 10.76 0 0 0 -10.75 10.75.75.75 0 0 0 1.5 0 9.26 9.26 0 0 1 9.25-9.25.75.75 0 0 0 0-1.5z"/><path d="m52 31.25h-5a15 15 0 0 0 -3.87-9.32l3.54-3.54a.75.75 0 0 0 -1.06-1.06l-3.54 3.54a15 15 0 0 0 -9.32-3.87v-5a.75.75 0 0 0 -1.5 0v5a15 15 0 0 0 -9.32 3.87l-3.54-3.54a.75.75 0 0 0 -1.06 1.06l3.54 3.54a15 15 0 0 0 -3.87 9.32h-5a.75.75 0 0 0 0 1.5h5a15 15 0 0 0 3.87 9.32l-3.54 3.54a.74.74 0 0 0 0 1.06.73.73 0 0 0 .53.22.74.74 0 0 0 .53-.22l3.54-3.54a15 15 0 0 0 9.32 3.87v5a.75.75 0 0 0 1.5 0v-5a15 15 0 0 0 9.32-3.87l3.54 3.54a.74.74 0 0 0 .53.22.73.73 0 0 0 .53-.22.74.74 0 0 0 0-1.06l-3.54-3.54a15 15 0 0 0 3.87-9.32h5a.75.75 0 0 0 0-1.5zm-20 14.29a13.54 13.54 0 1 1 13.54-13.54 13.56 13.56 0 0 1 -13.54 13.54z"/></g></g></svg>