<svg height="512" viewBox="0 0 64 64" width="512" xmlns="http://www.w3.org/2000/svg" xmlns:xlink="http://www.w3.org/1999/xlink"><linearGradient id="linear-gradient" gradientUnits="userSpaceOnUse" x1="3.25" x2="60.75" y1="32" y2="32"><stop offset="0" stop-color="#5bb4f6"/><stop offset=".61" stop-color="#2191e5"/><stop offset="1" stop-color="#007edb"/></linearGradient><g id="Layer_100" data-name="Layer 100"><rect fill="url(#linear-gradient)" height="57.5" rx="12.75" width="57.5" x="3.25" y="3.25"/><path d="m45 11.25h-26a3.76 3.76 0 0 0 -3.73 3.75v34a3.76 3.76 0 0 0 3.73 3.75h26a3.76 3.76 0 0 0 3.73-3.75v-34a3.76 3.76 0 0 0 -3.73-3.75zm-26 1.5h26a2.25 2.25 0 0 1 2.23 2.25v29.82h-30.46v-29.82a2.25 2.25 0 0 1 2.23-2.25zm26 38.5h-26a2.25 2.25 0 0 1 -2.23-2.25v-2.68h30.46v2.68a2.25 2.25 0 0 1 -2.23 2.25z" fill="#fff"/></g></svg>