<svg height="512" viewBox="0 0 64 64" width="512" xmlns="http://www.w3.org/2000/svg" xmlns:xlink="http://www.w3.org/1999/xlink"><linearGradient id="linear-gradient" gradientUnits="userSpaceOnUse" x1="3.25" x2="60.75" y1="32" y2="32"><stop offset="0" stop-color="#5bb4f6"/><stop offset=".61" stop-color="#2191e5"/><stop offset="1" stop-color="#007edb"/></linearGradient><g id="Layer_57" data-name="Layer 57"><rect fill="url(#linear-gradient)" height="57.5" rx="12.75" width="57.5" x="3.25" y="3.25"/><g fill="#fff"><path d="m52.51 12a.8.8 0 0 0 -.51-.2l-19.47.27a.73.73 0 0 0 -.52.22l-20.88 20.84a.75.75 0 0 0 0 1.06l19.2 19.2a.74.74 0 0 0 .53.22.73.73 0 0 0 .53-.22l20.84-20.84a.73.73 0 0 0 .22-.52l.28-19.47a.76.76 0 0 0 -.22-.56zm-1.51 19.71-20.14 20.09-18.14-18.14 20.1-20.1 18.39-.25z"/><path d="m41.62 27.92a5 5 0 1 0 -3.56-1.46 5 5 0 0 0 3.56 1.46zm-2.49-7.5a3.52 3.52 0 0 1 5 0 3.52 3.52 0 1 1 -5 0z"/></g></g></svg>