<svg height="512" viewBox="0 0 64 64" width="512" xmlns="http://www.w3.org/2000/svg" xmlns:xlink="http://www.w3.org/1999/xlink"><linearGradient id="linear-gradient" gradientUnits="userSpaceOnUse" x1="3.25" x2="60.75" y1="32" y2="32"><stop offset="0" stop-color="#5bb4f6"/><stop offset=".61" stop-color="#2191e5"/><stop offset="1" stop-color="#007edb"/></linearGradient><g id="Layer_14" data-name="Layer 14"><rect fill="url(#linear-gradient)" height="57.5" rx="12.75" width="57.5" x="3.25" y="3.25"/><g fill="#fff"><path d="m47.76 33-1-10.77a6.58 6.58 0 0 0 -6.5-6.05h-1v-3.93a.76.76 0 0 0 -.75-.75h-13.09a.76.76 0 0 0 -.75.75v3.88h-1a6.58 6.58 0 0 0 -6.5 6l-.93 10.87a7.29 7.29 0 0 0 -5 6.9v3a4.25 4.25 0 0 0 4.24 4.25h1.52v2.47a3.24 3.24 0 0 0 6.48 0v-2.54h17.08v2.47a3.24 3.24 0 0 0 6.48 0v-2.47h1.47a4.25 4.25 0 0 0 4.24-4.25v-3a7.29 7.29 0 0 0 -4.99-6.83zm-21.59-20h11.66v3.13h-11.66zm-8.39 19.59.93-10.29a5.06 5.06 0 0 1 5-4.67h16.58a5.07 5.07 0 0 1 5 4.68l.93 10.28zm4.16 17a1.74 1.74 0 0 1 -3.48 0v-2.51h3.48zm23.6 0a1.74 1.74 0 0 1 -3.48 0v-2.51h3.48zm5.71-6.72a2.75 2.75 0 0 1 -2.74 2.75h-33a2.75 2.75 0 0 1 -2.74-2.75v-3a5.77 5.77 0 0 1 5.76-5.76h27a5.77 5.77 0 0 1 5.76 5.76z"/><path d="m20.2 36.68a3.15 3.15 0 1 0 3.15 3.15 3.16 3.16 0 0 0 -3.15-3.15zm0 4.8a1.65 1.65 0 1 1 1.65-1.65 1.65 1.65 0 0 1 -1.65 1.65z"/><path d="m43.8 36.68a3.15 3.15 0 1 0 3.2 3.15 3.15 3.15 0 0 0 -3.2-3.15zm0 4.8a1.65 1.65 0 1 1 1.65-1.65 1.65 1.65 0 0 1 -1.65 1.65z"/></g></g></svg>