<svg height="512" viewBox="0 0 64 64" width="512" xmlns="http://www.w3.org/2000/svg" xmlns:xlink="http://www.w3.org/1999/xlink"><linearGradient id="linear-gradient" gradientUnits="userSpaceOnUse" x1="3.25" x2="60.75" y1="32" y2="32"><stop offset="0" stop-color="#5bb4f6"/><stop offset=".61" stop-color="#2191e5"/><stop offset="1" stop-color="#007edb"/></linearGradient><g id="Layer_47" data-name="Layer 47"><rect fill="url(#linear-gradient)" height="57.5" rx="12.75" width="57.5" x="3.25" y="3.25"/><path d="m52 22.2h-9.5v-3.74h3.79a.75.75 0 0 0 0-1.5h-9.15a.75.75 0 0 0 0 1.5h3.86v3.74h-29a.75.75 0 0 0 -.75.75v18.1a.75.75 0 0 0 .75.75h29v3.74h-3.86a.75.75 0 0 0 0 1.5h9.15a.75.75 0 0 0 0-1.5h-3.79v-3.74h9.5a.75.75 0 0 0 .75-.75v-18.05a.75.75 0 0 0 -.75-.8zm-39.25 18.1v-16.6h28.25v3.56h-23.29a.75.75 0 0 0 -.71.74v8a.75.75 0 0 0 .75.75h23.25v3.55zm28.25-11.54v6.48h-22.54v-6.48zm10.25 11.54h-8.75v-16.6h8.75z" fill="#fff"/></g></svg>