<svg height="512" viewBox="0 0 64 64" width="512" xmlns="http://www.w3.org/2000/svg" xmlns:xlink="http://www.w3.org/1999/xlink"><linearGradient id="linear-gradient" gradientUnits="userSpaceOnUse" x1="3.25" x2="60.75" y1="32" y2="32"><stop offset="0" stop-color="#5bb4f6"/><stop offset=".61" stop-color="#2191e5"/><stop offset="1" stop-color="#007edb"/></linearGradient><g id="Layer_55" data-name="Layer 55"><rect fill="url(#linear-gradient)" height="57.5" rx="12.75" width="57.5" x="3.25" y="3.25"/><g fill="#fff"><path d="m52.53 20.86a.75.75 0 0 0 0-1.06.74.74 0 0 0 -1.06 0l-3.81 3.81a15 15 0 0 0 -9.22-3.76v-4.28h3.56a.75.75 0 0 0 0-1.5h-8.61a.75.75 0 0 0 0 1.5h3.55v4.28a15.08 15.08 0 1 0 11.79 4.81zm-14.84 27.57a13.56 13.56 0 0 1 0-27.12 13.56 13.56 0 0 1 0 27.12z"/><path d="m38.44 31.59v-5.87a.75.75 0 0 0 -1.5 0v6.08a.72.72 0 0 0 .12.4l5.66 9.07a.74.74 0 0 0 .64.35.79.79 0 0 0 .39-.11.76.76 0 0 0 .24-1z"/><path d="m12 21.31h11.39a.75.75 0 0 0 0-1.5h-11.39a.75.75 0 0 0 0 1.5z"/><path d="m12 28.47h7.08a.75.75 0 0 0 0-1.5h-7.08a.75.75 0 0 0 0 1.5z"/><path d="m12 35.62h5.94a.75.75 0 1 0 0-1.5h-5.94a.75.75 0 0 0 0 1.5z"/><path d="m12 42.77h7.08a.75.75 0 0 0 0-1.5h-7.08a.75.75 0 0 0 0 1.5z"/><path d="m23.39 48.43h-11.39a.75.75 0 0 0 0 1.5h11.39a.75.75 0 0 0 0-1.5z"/></g></g></svg>