<svg height="512" viewBox="0 0 64 64" width="512" xmlns="http://www.w3.org/2000/svg" xmlns:xlink="http://www.w3.org/1999/xlink"><linearGradient id="linear-gradient" gradientUnits="userSpaceOnUse" x1="3.25" x2="60.75" y1="32" y2="32"><stop offset="0" stop-color="#5bb4f6"/><stop offset=".61" stop-color="#2191e5"/><stop offset="1" stop-color="#007edb"/></linearGradient><g id="Layer_15" data-name="Layer 15"><rect fill="url(#linear-gradient)" height="57.5" rx="12.75" width="57.5" x="3.25" y="3.25"/><g fill="#fff"><path d="m47.88 18.93v-.11a11.39 11.39 0 0 0 -10.71-7.57h-10.31a11.39 11.39 0 0 0 -10.71 7.57v.11a11.06 11.06 0 0 0 -.63 3.7v20.44a.75.75 0 0 0 .75.75h5.19l-4.37 7.81a.75.75 0 0 0 .29 1 .74.74 0 0 0 1-.28l2.28-4.09h22.7l2.28 4.09a.76.76 0 0 0 .66.38.68.68 0 0 0 .36-.1.75.75 0 0 0 .29-1l-4.37-7.81h5.19a.75.75 0 0 0 .75-.75v-20.44a11.06 11.06 0 0 0 -.64-3.7zm-30.88 3.7a9.84 9.84 0 0 1 .39-2.73h13.86v9h-14.25zm15.75-2.73h13.87a9.84 9.84 0 0 1 .38 2.73v6.28h-14.25zm-5.89-7.15h10.28a9.89 9.89 0 0 1 8.91 5.65h-28.05a9.89 9.89 0 0 1 8.86-5.65zm15.65 34h-21l1.66-3h17.7zm-25.51-4.43v-11.91h30v11.91z"/><path d="m40.67 33.21a3.15 3.15 0 1 0 3.15 3.15 3.16 3.16 0 0 0 -3.15-3.15zm0 4.8a1.65 1.65 0 1 1 1.65-1.65 1.65 1.65 0 0 1 -1.65 1.64z"/><path d="m23.33 33.21a3.15 3.15 0 1 0 3.15 3.15 3.15 3.15 0 0 0 -3.15-3.15zm0 4.8a1.65 1.65 0 1 1 1.67-1.65 1.65 1.65 0 0 1 -1.67 1.64z"/></g></g></svg>