<svg height="512" viewBox="0 0 64 64" width="512" xmlns="http://www.w3.org/2000/svg" xmlns:xlink="http://www.w3.org/1999/xlink"><linearGradient id="linear-gradient" gradientUnits="userSpaceOnUse" x1="3.25" x2="60.75" y1="32" y2="32"><stop offset="0" stop-color="#5bb4f6"/><stop offset=".61" stop-color="#2191e5"/><stop offset="1" stop-color="#007edb"/></linearGradient><g id="Layer_6" data-name="Layer 6"><rect fill="url(#linear-gradient)" height="57.5" rx="12.75" width="57.5" x="3.25" y="3.25"/><g fill="#fff"><path d="m28.07 43.22h-7.29v-31.22a.75.75 0 0 0 -1.5 0v31.22h-7.28a.75.75 0 0 0 -.53 1.28l8 8a.74.74 0 0 0 .53.22.71.71 0 0 0 .53-.22l8-8a.75.75 0 0 0 -.53-1.28zm-8 7.72-6.22-6.22h12.41z"/><path d="m52.53 19.5-8-8a.75.75 0 0 0 -1.06 0l-8 8a.78.78 0 0 0 -.16.82.75.75 0 0 0 .69.46h7.29v31.22a.75.75 0 0 0 1.5 0v-31.22h7.21a.75.75 0 0 0 .53-1.28zm-14.79-.22 6.26-6.22 6.22 6.22z"/></g></g></svg>