<svg height="512" viewBox="0 0 64 64" width="512" xmlns="http://www.w3.org/2000/svg" xmlns:xlink="http://www.w3.org/1999/xlink"><linearGradient id="linear-gradient" gradientUnits="userSpaceOnUse" x1="3.25" x2="60.75" y1="32" y2="32"><stop offset="0" stop-color="#5bb4f6"/><stop offset=".61" stop-color="#2191e5"/><stop offset="1" stop-color="#007edb"/></linearGradient><g id="Layer_7" data-name="Layer 7"><rect fill="url(#linear-gradient)" height="57.5" rx="12.75" width="57.5" x="3.25" y="3.25"/><g fill="#fff"><path d="m19.5 28.6a.79.79 0 0 0 .53.22.72.72 0 0 0 .29-.06.75.75 0 0 0 .46-.69v-7.29h31.22a.75.75 0 0 0 0-1.5h-31.22v-7.28a.75.75 0 0 0 -1.28-.53l-8 8a.75.75 0 0 0 0 1.06zm-.22-14.79v12.45l-6.22-6.26z"/><path d="m44.5 35.4a.75.75 0 0 0 -1.28.53v7.29h-31.22a.75.75 0 0 0 0 1.5h31.22v7.28a.74.74 0 0 0 .46.69.72.72 0 0 0 .29.06.79.79 0 0 0 .53-.22l8-8a.75.75 0 0 0 0-1.06zm.22 14.79v-12.45l6.22 6.26z"/></g></g></svg>