<svg height="512" viewBox="0 0 64 64" width="512" xmlns="http://www.w3.org/2000/svg" xmlns:xlink="http://www.w3.org/1999/xlink"><linearGradient id="linear-gradient" gradientUnits="userSpaceOnUse" x1="3.25" x2="60.75" y1="32" y2="32"><stop offset="0" stop-color="#5bb4f6"/><stop offset=".61" stop-color="#2191e5"/><stop offset="1" stop-color="#007edb"/></linearGradient><g id="Layer_30" data-name="Layer 30"><rect fill="url(#linear-gradient)" height="57.5" rx="12.75" width="57.5" x="3.25" y="3.25"/><path d="m49.61 18.49h-8.61v-3.31a3.93 3.93 0 0 0 -3.93-3.93h-10.17a3.93 3.93 0 0 0 -3.9 3.93v3.31h-8.61a.75.75 0 1 0 0 1.5h3.24v28.83a3.93 3.93 0 0 0 3.92 3.93h20.9a3.93 3.93 0 0 0 3.92-3.93v-28.82h3.24a.75.75 0 0 0 0-1.5zm-25.14-3.31a2.43 2.43 0 0 1 2.43-2.43h10.2a2.43 2.43 0 0 1 2.43 2.43v3.31h-15.06zm20.4 33.64a2.43 2.43 0 0 1 -2.42 2.43h-20.9a2.43 2.43 0 0 1 -2.42-2.43v-28.82h25.74z" fill="#fff"/></g></svg>