<svg height="512" viewBox="0 0 64 64" width="512" xmlns="http://www.w3.org/2000/svg" xmlns:xlink="http://www.w3.org/1999/xlink"><linearGradient id="linear-gradient" gradientUnits="userSpaceOnUse" x1="3.25" x2="60.75" y1="32" y2="32"><stop offset="0" stop-color="#5bb4f6"/><stop offset=".61" stop-color="#2191e5"/><stop offset="1" stop-color="#007edb"/></linearGradient><g id="Layer_53" data-name="Layer 53"><rect fill="url(#linear-gradient)" height="57.5" rx="12.75" width="57.5" x="3.25" y="3.25"/><path d="m40.2 23.56h-19.2v-7.47a.75.75 0 0 0 -.47-.69.74.74 0 0 0 -.81.16l-8.22 8.22a.75.75 0 0 0 0 1.06l8.22 8.21a.71.71 0 0 0 .53.22.92.92 0 0 0 .28-.05.76.76 0 0 0 .47-.7v-7.46h19.2a11 11 0 0 1 0 22.1h-7.2a.75.75 0 0 0 0 1.5h7.2a12.55 12.55 0 0 0 0-25.1zm-27.14.75 6.41-6.41v12.81z" fill="#fff"/></g></svg>