<svg height="512" viewBox="0 0 64 64" width="512" xmlns="http://www.w3.org/2000/svg" xmlns:xlink="http://www.w3.org/1999/xlink"><linearGradient id="linear-gradient" gradientUnits="userSpaceOnUse" x1="3.25" x2="60.75" y1="32" y2="32"><stop offset="0" stop-color="#5bb4f6"/><stop offset=".61" stop-color="#2191e5"/><stop offset="1" stop-color="#007edb"/></linearGradient><g id="Layer_58" data-name="Layer 58"><rect fill="url(#linear-gradient)" height="57.5" rx="12.75" width="57.5" x="3.25" y="3.25"/><path d="m41.21 52.75h-17.53a.75.75 0 0 1 -.75-.75v-21.27h-8.93a.75.75 0 0 1 -.75-.75.76.76 0 0 1 .27-.57l17.95-17.94a.77.77 0 0 1 1.06 0l17.94 17.94a.76.76 0 0 1 .27.57.75.75 0 0 1 -.75.75h-7.99v21.27a.76.76 0 0 1 -.79.75zm-16.78-1.5h16v-21.25a.76.76 0 0 1 .75-.75h7l-16.18-16.19-16.17 16.17h7.85a.76.76 0 0 1 .75.75z" fill="#fff"/></g></svg>