<svg height="512" viewBox="0 0 64 64" width="512" xmlns="http://www.w3.org/2000/svg" xmlns:xlink="http://www.w3.org/1999/xlink"><linearGradient id="linear-gradient" gradientUnits="userSpaceOnUse" x1="3.25" x2="60.75" y1="32" y2="32"><stop offset="0" stop-color="#5bb4f6"/><stop offset=".61" stop-color="#2191e5"/><stop offset="1" stop-color="#007edb"/></linearGradient><g id="Layer_37" data-name="Layer 37"><rect fill="url(#linear-gradient)" height="57.5" rx="12.75" width="57.5" x="3.25" y="3.25"/><path d="m49.72 20.74h-2v-6.46a3 3 0 0 0 -3-3h-28a5.51 5.51 0 0 0 -5.5 5.5v31.22a3 3 0 0 0 3 3h35.5a3 3 0 0 0 3-3v-24.23a3 3 0 0 0 -3-3.03zm-33-8h28a1.54 1.54 0 0 1 1.53 1.53v6.46h-29.5a4 4 0 0 1 0-8zm33 36.8h-35.44a1.54 1.54 0 0 1 -1.53-1.54v-27.49a5.46 5.46 0 0 0 4 1.74h33a1.54 1.54 0 0 1 1.53 1.53v9h-8.54a4.57 4.57 0 1 0 0 9.13h8.51v6.09a1.54 1.54 0 0 1 -1.53 1.55zm1.53-9.15h-8.51a3.07 3.07 0 1 1 0-6.13h8.51z" fill="#fff"/></g></svg>