<svg height="512" viewBox="0 0 64 64" width="512" xmlns="http://www.w3.org/2000/svg" xmlns:xlink="http://www.w3.org/1999/xlink"><linearGradient id="linear-gradient" gradientUnits="userSpaceOnUse" x1="3.25" x2="60.75" y1="32" y2="32"><stop offset="0" stop-color="#5bb4f6"/><stop offset=".61" stop-color="#2191e5"/><stop offset="1" stop-color="#007edb"/></linearGradient><g id="Layer_11" data-name="Layer 11"><rect fill="url(#linear-gradient)" height="57.5" rx="12.75" width="57.5" x="3.25" y="3.25"/><g fill="#fff"><path d="m12 14.5c3.79.1 3.82 3.39 8 3.32s4.21-3.22 8-3.32c3.79.1 3.82 3.39 8 3.32s4.22-3.22 8-3.32c3.79.1 3.82 3.39 8 3.32a.75.75 0 0 0 0-1.5 4.9 4.9 0 0 1 -3.52-1.48 6.41 6.41 0 0 0 -9 0 4.92 4.92 0 0 1 -3.48 1.48c-3.78-.09-3.82-3.39-8-3.31-4.18-.08-4.21 3.22-8 3.31-3.79-.09-3.82-3.39-8-3.31a.75.75 0 0 0 0 1.49z"/><path d="m52 27.38c-3.79-.1-3.83-3.39-8-3.32s-4.21 3.22-8 3.32c-3.78-.1-3.82-3.39-8-3.32s-4.21 3.22-8 3.32c-3.79-.1-3.82-3.39-8-3.32a.75.75 0 0 0 0 1.5 4.87 4.87 0 0 1 3.52 1.49 6.43 6.43 0 0 0 9 0 4.87 4.87 0 0 1 3.48-1.49c3.79.1 3.82 3.39 8 3.32s4.22-3.22 8-3.32c3.79.1 3.82 3.39 8 3.32a.75.75 0 0 0 0-1.5z"/><path d="m52 38.44c-3.79-.1-3.83-3.39-8-3.32s-4.21 3.22-8 3.32c-3.78-.1-3.82-3.39-8-3.32s-4.21 3.22-8 3.32c-3.79-.1-3.82-3.39-8-3.32a.75.75 0 0 0 0 1.5 4.87 4.87 0 0 1 3.52 1.49 6.43 6.43 0 0 0 9 0 4.87 4.87 0 0 1 3.48-1.49c3.79.1 3.82 3.39 8 3.32s4.22-3.22 8-3.32c3.79.1 3.82 3.39 8 3.32a.75.75 0 0 0 0-1.5z"/><path d="m52 49.5c-3.79-.1-3.83-3.39-8-3.32s-4.21 3.22-8 3.32c-3.78-.1-3.82-3.39-8-3.32s-4.21 3.22-8 3.32c-3.79-.1-3.82-3.39-8-3.32a.75.75 0 0 0 0 1.5 4.9 4.9 0 0 1 3.52 1.48 6.42 6.42 0 0 0 9 0 4.9 4.9 0 0 1 3.48-1.48c3.79.09 3.82 3.39 8 3.31 4.18.08 4.22-3.22 8-3.31 3.79.09 3.82 3.39 8 3.31a.75.75 0 0 0 0-1.49z"/></g></g></svg>