<svg height="512" viewBox="0 0 64 64" width="512" xmlns="http://www.w3.org/2000/svg" xmlns:xlink="http://www.w3.org/1999/xlink"><linearGradient id="linear-gradient" gradientUnits="userSpaceOnUse" x1="3.25" x2="60.75" y1="32" y2="32"><stop offset="0" stop-color="#5bb4f6"/><stop offset=".61" stop-color="#2191e5"/><stop offset="1" stop-color="#007edb"/></linearGradient><g id="Layer_99" data-name="Layer 99"><rect fill="url(#linear-gradient)" height="57.5" rx="12.75" width="57.5" x="3.25" y="3.25"/><g fill="#fff"><path d="m52.53 23.46a29.07 29.07 0 0 0 -41.06 0 .75.75 0 0 0 0 1.06.74.74 0 0 0 1.06 0 27.58 27.58 0 0 1 38.94 0 .75.75 0 0 0 1.06 0 .75.75 0 0 0 0-1.06z"/><path d="m32 23a20.91 20.91 0 0 0 -14.87 6.15.75.75 0 0 0 1.06 1.06 19.56 19.56 0 0 1 27.62 0 .74.74 0 0 0 .53.22.71.71 0 0 0 .53-.22.74.74 0 0 0 0-1.06 20.91 20.91 0 0 0 -14.87-6.15z"/><path d="m32 31a13 13 0 0 0 -9.22 3.81.75.75 0 0 0 0 1.06.76.76 0 0 0 1.07 0 11.55 11.55 0 0 1 16.31 0 .75.75 0 0 0 1.06-1.06 12.94 12.94 0 0 0 -9.22-3.81z"/><path d="m32 39a5 5 0 1 0 5 5 5 5 0 0 0 -5-5zm0 8.57a3.54 3.54 0 1 1 3.53-3.57 3.54 3.54 0 0 1 -3.53 3.53z"/></g></g></svg>