<svg height="512" viewBox="0 0 64 64" width="512" xmlns="http://www.w3.org/2000/svg" xmlns:xlink="http://www.w3.org/1999/xlink"><linearGradient id="linear-gradient" gradientUnits="userSpaceOnUse" x1="3.25" x2="60.75" y1="32" y2="32"><stop offset="0" stop-color="#5bb4f6"/><stop offset=".61" stop-color="#2191e5"/><stop offset="1" stop-color="#007edb"/></linearGradient><g id="Layer_10" data-name="Layer 10"><rect fill="url(#linear-gradient)" height="57.5" rx="12.75" width="57.5" x="3.25" y="3.25"/><g fill="#fff"><path d="m15.63 22.06h19.87a5.27 5.27 0 1 0 -5.26-5.27.75.75 0 0 0 1.5 0 3.77 3.77 0 1 1 3.76 3.77h-19.87a.75.75 0 1 0 0 1.5z"/><path d="m43 25.29a.76.76 0 0 0 .75-.75 3.77 3.77 0 1 1 3.77 3.76h-24.84a.75.75 0 0 0 0 1.5h24.81a5.27 5.27 0 1 0 -5.27-5.26.76.76 0 0 0 .78.75z"/><path d="m35.5 41.94h-19.87a.75.75 0 0 0 0 1.5h19.87a3.77 3.77 0 1 1 -3.76 3.77.75.75 0 0 0 -1.5 0 5.27 5.27 0 1 0 5.26-5.27z"/><path d="m47.49 34.2h-19.88a.75.75 0 0 0 0 1.5h19.88a3.77 3.77 0 1 1 -3.77 3.76.75.75 0 0 0 -1.5 0 5.27 5.27 0 1 0 5.27-5.26z"/></g></g></svg>