<svg height="512" viewBox="0 0 64 64" width="512" xmlns="http://www.w3.org/2000/svg" xmlns:xlink="http://www.w3.org/1999/xlink"><linearGradient id="linear-gradient" gradientUnits="userSpaceOnUse" x1="3.25" x2="60.75" y1="32" y2="32"><stop offset="0" stop-color="#5bb4f6"/><stop offset=".61" stop-color="#2191e5"/><stop offset="1" stop-color="#007edb"/></linearGradient><g id="Layer_98" data-name="Layer 98"><rect fill="url(#linear-gradient)" height="57.5" rx="12.75" width="57.5" x="3.25" y="3.25"/><g fill="#fff"><path d="m48.82 11.25h-21.82a.75.75 0 0 0 0 1.5h21.82a2.43 2.43 0 0 1 2.43 2.43v21.82a.75.75 0 0 0 1.5 0v-21.82a3.93 3.93 0 0 0 -3.93-3.93z"/><path d="m41.83 17h-25.38a5.21 5.21 0 0 0 -5.2 5.21v25.34a5.2 5.2 0 0 0 5.2 5.2h25.38a5.21 5.21 0 0 0 5.17-5.2v-25.38a5.22 5.22 0 0 0 -5.17-5.17zm0 34.29h-25.38a3.7 3.7 0 0 1 -3.7-3.7v-21.59h32.79v21.55a3.71 3.71 0 0 1 -3.71 3.7zm3.71-26.79h-32.79v-2.33a3.71 3.71 0 0 1 3.7-3.71h25.38a3.71 3.71 0 0 1 3.71 3.71z"/></g></g></svg>