<svg height="512" viewBox="0 0 64 64" width="512" xmlns="http://www.w3.org/2000/svg" xmlns:xlink="http://www.w3.org/1999/xlink"><linearGradient id="linear-gradient" gradientUnits="userSpaceOnUse" x1="3.25" x2="60.75" y1="32" y2="32"><stop offset="0" stop-color="#5bb4f6"/><stop offset=".61" stop-color="#2191e5"/><stop offset="1" stop-color="#007edb"/></linearGradient><g id="Layer_26" data-name="Layer 26"><rect fill="url(#linear-gradient)" height="57.5" rx="12.75" width="57.5" x="3.25" y="3.25"/><path d="m50.51 23.35a.76.76 0 0 0 -.53-.58.72.72 0 0 0 -.75.2l-6.57 6.86-7.66-2.13-2-8 6.59-6.89a.75.75 0 0 0 -.4-1.25 13.92 13.92 0 0 0 -12.9 4.12 15.36 15.36 0 0 0 -3.29 15.65l-11.77 12.27a.74.74 0 0 0 0 1l7.54 7.89a.76.76 0 0 0 .55.23.74.74 0 0 0 .54-.23l11.69-12.21a13.88 13.88 0 0 0 15-3.51 15.36 15.36 0 0 0 3.96-13.42zm-5 12.38a12.37 12.37 0 0 1 -13.87 3 .75.75 0 0 0 -.8.19l-11.5 12-6.51-6.8 11.53-12.12a.76.76 0 0 0 .15-.8 13.89 13.89 0 0 1 2.85-14.55 12.48 12.48 0 0 1 10.13-3.85l-5.87 6.13a.77.77 0 0 0 -.19.71l2.27 8.85a.75.75 0 0 0 .52.54l8.47 2.36a.73.73 0 0 0 .74-.2l5.8-6.06a13.8 13.8 0 0 1 -3.74 10.6z" fill="#fff"/></g></svg>