<svg height="512" viewBox="0 0 64 64" width="512" xmlns="http://www.w3.org/2000/svg" xmlns:xlink="http://www.w3.org/1999/xlink"><linearGradient id="linear-gradient" gradientUnits="userSpaceOnUse" x1="3.25" x2="60.75" y1="32" y2="32"><stop offset="0" stop-color="#5bb4f6"/><stop offset=".61" stop-color="#2191e5"/><stop offset="1" stop-color="#007edb"/></linearGradient><g id="Layer_39" data-name="Layer 39"><rect fill="url(#linear-gradient)" height="57.5" rx="12.75" width="57.5" x="3.25" y="3.25"/><path d="m52 11.25h-2.86a.75.75 0 0 0 0 1.5h2.11v6.31h-6.48v-3.3a.75.75 0 1 0 -1.5 0v3.3h-7.07v-3.3a.75.75 0 1 0 -1.5 0v3.3h-11.08v-3.3a.75.75 0 0 0 -1.5 0v3.3h-9.37v-6.31h2.11a.75.75 0 0 0 0-1.5h-2.86a.76.76 0 0 0 -.75.75v40a.76.76 0 0 0 .75.75h2.86a.75.75 0 0 0 0-1.5h-2.11v-6.31h9.37v3.3a.75.75 0 0 0 1.5 0v-3.3h8.67v3.3a.75.75 0 0 0 1.5 0v-3.3h3.27v3.3a.75.75 0 1 0 1.5 0v-3.3h12.69v6.31h-2.11a.75.75 0 0 0 0 1.5h2.86a.76.76 0 0 0 .75-.75v-40a.76.76 0 0 0 -.75-.75zm-29.88 9.31v3.29a.75.75 0 0 0 1.5 0v-3.29h11.08v3.29a.75.75 0 0 0 1.5 0v-3.29h7.07v3.29a.75.75 0 0 0 1.5 0v-3.29h6.48v11h-6.48v-3.25a.75.75 0 1 0 -1.5 0v3.29h-15.7v-3.29a.75.75 0 1 0 -1.5 0v3.29h-7.54v-3.29a.75.75 0 0 0 -1.5 0v3.29h-4.28v-11zm16.44 22.88v-3.29a.75.75 0 0 0 -1.5 0v3.29h-3.27v-3.29a.75.75 0 0 0 -1.5 0v3.29h-8.67v-3.29a.75.75 0 0 0 -1.5 0v3.29h-9.37v-10.34h4.25v3.3a.75.75 0 0 0 1.5 0v-3.3h7.54v3.3a.75.75 0 0 0 1.5 0v-3.3h15.7v3.3a.75.75 0 0 0 1.5 0v-3.3h6.48v10.34z" fill="#fff"/></g></svg>