<svg height="512" viewBox="0 0 64 64" width="512" xmlns="http://www.w3.org/2000/svg" xmlns:xlink="http://www.w3.org/1999/xlink"><linearGradient id="linear-gradient" gradientUnits="userSpaceOnUse" x1="3.25" x2="60.75" y1="32" y2="32"><stop offset="0" stop-color="#5bb4f6"/><stop offset=".61" stop-color="#2191e5"/><stop offset="1" stop-color="#007edb"/></linearGradient><g id="Layer_71" data-name="Layer 71"><rect fill="url(#linear-gradient)" height="57.5" rx="12.75" width="57.5" x="3.25" y="3.25"/><path d="m52.34 18a.74.74 0 0 0 -.37-.62l-6.3-3.64a.77.77 0 0 0 -.75 0l-12.92 7.44-12.94-7.45a.76.76 0 0 0 -.82 0l-6.24 3.62a.87.87 0 0 0 -.38.65v22.67a.78.78 0 0 0 .38.65l5.65 3.26a.74.74 0 0 0 .9-.12c.22-.22.22-.22.22-9.78.16-1.32 1.43-.45 2 0a5.79 5.79 0 0 1 2.59 4.82v7.9a.78.78 0 0 0 .37.72l7.86 4.53a.8.8 0 0 0 .75 0l7.66-4.44c.54 0 .54-.48.54-4.72v-4a5.77 5.77 0 0 1 2.6-4.82c.6-.45 1.87-1.32 2 0v9.2a.75.75 0 0 0 1.15.68l5.71-3.23a.76.76 0 0 0 .38-.65v-22.67s-.04 0-.04 0zm-33.69-2.77 13 7.47a.73.73 0 0 0 .74 0l12.91-7.47 4.8 2.77-18.1 10.47-18.16-10.47zm3 18.2c-1.45-1.5-4.32-1.16-4.36 1.25v8l-4.15-2.4v-20.98l18.08 10.47v20.93l-6.35-3.7v-7.5a7.27 7.27 0 0 0 -3.27-6.07zm25.1 9.2v-8c0-2.42-2.91-2.75-4.36-1.25a7.27 7.27 0 0 0 -3.27 6.07v7.55l-6.4 3.7v-20.93l18.13-10.47v20.93z" fill="#fff"/></g></svg>