<svg height="512" viewBox="0 0 64 64" width="512" xmlns="http://www.w3.org/2000/svg" xmlns:xlink="http://www.w3.org/1999/xlink"><linearGradient id="linear-gradient" gradientUnits="userSpaceOnUse" x1="3.25" x2="60.75" y1="32" y2="32"><stop offset="0" stop-color="#5bb4f6"/><stop offset=".61" stop-color="#2191e5"/><stop offset="1" stop-color="#007edb"/></linearGradient><g id="Layer_57" data-name="Layer 57"><rect fill="url(#linear-gradient)" height="57.5" rx="12.75" width="57.5" x="3.25" y="3.25"/><g fill="#fff"><path d="m52 11.25h-40a.75.75 0 0 0 0 1.5h40a.75.75 0 0 0 0-1.5z"/><path d="m45.2 37.74-12.45 12.45v-31.92a.75.75 0 1 0 -1.5 0v31.92l-12.45-12.45a.75.75 0 1 0 -1.06 1.06l13.73 13.73a.75.75 0 0 0 1 0l13.79-13.73a.74.74 0 0 0 .22-.53.73.73 0 0 0 -.22-.53.74.74 0 0 0 -1.06 0z"/></g></g></svg>