<svg height="512" viewBox="0 0 64 64" width="512" xmlns="http://www.w3.org/2000/svg" xmlns:xlink="http://www.w3.org/1999/xlink"><linearGradient id="linear-gradient" gradientUnits="userSpaceOnUse" x1="3.25" x2="60.75" y1="32" y2="32"><stop offset="0" stop-color="#5bb4f6"/><stop offset=".61" stop-color="#2191e5"/><stop offset="1" stop-color="#007edb"/></linearGradient><g id="Layer_54" data-name="Layer 54"><rect fill="url(#linear-gradient)" height="57.5" rx="12.75" width="57.5" x="3.25" y="3.25"/><g fill="#fff"><path d="m12 52.75a.76.76 0 0 1 -.75-.75v-40a.75.75 0 0 1 1.5 0v40a.76.76 0 0 1 -.75.75z"/><path d="m32 46.48a.74.74 0 0 1 -.53-.22l-13.73-13.73s0 0 0 0a.7.7 0 0 1 -.21-.46v-.17a.74.74 0 0 1 .18-.39s0 0 0 0l13.76-13.77a.74.74 0 0 1 1.06 0 .75.75 0 0 1 0 1.06l-12.45 12.45h31.92a.75.75 0 0 1 0 1.5h-31.92l12.45 12.45a.74.74 0 0 1 .22.53.73.73 0 0 1 -.22.53.74.74 0 0 1 -.53.22z"/></g></g></svg>