<svg height="512" viewBox="0 0 64 64" width="512" xmlns="http://www.w3.org/2000/svg" xmlns:xlink="http://www.w3.org/1999/xlink"><linearGradient id="linear-gradient" gradientUnits="userSpaceOnUse" x1="3.25" x2="60.75" y1="32" y2="32"><stop offset="0" stop-color="#5bb4f6"/><stop offset=".61" stop-color="#2191e5"/><stop offset="1" stop-color="#007edb"/></linearGradient><g id="Layer_58" data-name="Layer 58"><rect fill="url(#linear-gradient)" height="57.5" rx="12.75" width="57.5" x="3.25" y="3.25"/><g fill="#fff"><path d="m52 11.25a.76.76 0 0 0 -.75.75v40a.75.75 0 0 0 1.5 0v-40a.76.76 0 0 0 -.75-.75z"/><path d="m45.73 31.25h-31.92l12.45-12.45a.75.75 0 0 0 -1.06-1.06l-13.77 13.77a.78.78 0 0 0 -.18.55.81.81 0 0 0 .21.46l13.74 13.74a.74.74 0 0 0 .53.22.75.75 0 0 0 .75-.75.74.74 0 0 0 -.22-.53l-12.45-12.45h31.92a.75.75 0 0 0 0-1.5z"/></g></g></svg>