<svg height="512" viewBox="0 0 64 64" width="512" xmlns="http://www.w3.org/2000/svg" xmlns:xlink="http://www.w3.org/1999/xlink"><linearGradient id="linear-gradient" gradientUnits="userSpaceOnUse" x1="3.25" x2="60.75" y1="32" y2="32"><stop offset="0" stop-color="#5bb4f6"/><stop offset=".61" stop-color="#2191e5"/><stop offset="1" stop-color="#007edb"/></linearGradient><g id="Layer_56" data-name="Layer 56"><rect fill="url(#linear-gradient)" height="57.5" rx="12.75" width="57.5" x="3.25" y="3.25"/><g fill="#fff"><path d="m52 11.25a.76.76 0 0 0 -.75.75v40a.75.75 0 0 0 1.5 0v-40a.76.76 0 0 0 -.75-.75z"/><path d="m46.27 31.47-13.74-13.73a.74.74 0 0 0 -1.06 0 .73.73 0 0 0 -.22.53.74.74 0 0 0 .22.53l12.45 12.45h-31.92a.75.75 0 0 0 0 1.5h31.92l-12.45 12.45a.75.75 0 0 0 0 1.06.75.75 0 0 0 1.06 0l13.73-13.73a.74.74 0 0 0 .18-.39v-.16a.7.7 0 0 0 -.21-.46z"/></g></g></svg>