<svg height="512" viewBox="0 0 64 64" width="512" xmlns="http://www.w3.org/2000/svg" xmlns:xlink="http://www.w3.org/1999/xlink"><linearGradient id="linear-gradient" gradientUnits="userSpaceOnUse" x1="3.25" x2="60.75" y1="32" y2="32"><stop offset="0" stop-color="#5bb4f6"/><stop offset=".61" stop-color="#2191e5"/><stop offset="1" stop-color="#007edb"/></linearGradient><g id="Layer_55" data-name="Layer 55"><rect fill="url(#linear-gradient)" height="57.5" rx="12.75" width="57.5" x="3.25" y="3.25"/><g fill="#fff"><path d="m52 11.25h-40a.75.75 0 0 0 0 1.5h40a.75.75 0 0 0 0-1.5z"/><path d="m32.53 17.74a.74.74 0 0 0 -.39-.18h-.16a.74.74 0 0 0 -.47.22l-13.77 13.69a.75.75 0 0 0 0 1.06.75.75 0 0 0 1.06 0l12.45-12.45v31.92a.75.75 0 0 0 1.5 0v-31.92l12.45 12.45a.75.75 0 0 0 1.06 0 .74.74 0 0 0 0-1.06z"/></g></g></svg>