<svg height="512" viewBox="0 0 64 64" width="512" xmlns="http://www.w3.org/2000/svg" xmlns:xlink="http://www.w3.org/1999/xlink"><linearGradient id="linear-gradient" gradientUnits="userSpaceOnUse" x1="3.25" x2="60.75" y1="32" y2="32"><stop offset="0" stop-color="#5bb4f6"/><stop offset=".61" stop-color="#2191e5"/><stop offset="1" stop-color="#007edb"/></linearGradient><g id="Layer_99" data-name="Layer 99"><rect fill="url(#linear-gradient)" height="57.5" rx="12.75" width="57.5" x="3.25" y="3.25"/><path d="m52.49 31.43-8.24-7.11a.75.75 0 0 0 -1.24.57v6.36h-22.01v-6.36a.75.75 0 0 0 -1.24-.57l-8.24 7.11a.75.75 0 0 0 0 1.14l8.24 7.11a.76.76 0 0 0 1.24-.57v-6.36h22v6.36a.76.76 0 0 0 1.24.57l8.24-7.11a.75.75 0 0 0 0-1.14zm-33 6-6.34-5.43 6.34-5.47zm25 0v-10.9l6.36 5.47z" fill="#fff"/></g></svg>