<svg height="512" viewBox="0 0 64 64" width="512" xmlns="http://www.w3.org/2000/svg" xmlns:xlink="http://www.w3.org/1999/xlink"><linearGradient id="linear-gradient" gradientUnits="userSpaceOnUse" x1="3.25" x2="60.75" y1="32" y2="32"><stop offset="0" stop-color="#5bb4f6"/><stop offset=".61" stop-color="#2191e5"/><stop offset="1" stop-color="#007edb"/></linearGradient><g id="Layer_100" data-name="Layer 100"><rect fill="url(#linear-gradient)" height="57.5" rx="12.75" width="57.5" x="3.25" y="3.25"/><path d="m39.11 43h-6.36v-22h6.36a.75.75 0 0 0 .57-1.24l-7.11-8.24a.78.78 0 0 0 -1.14 0l-7.11 8.24a.75.75 0 0 0 .57 1.24h6.36v22h-6.36a.75.75 0 0 0 -.57 1.24l7.11 8.24a.75.75 0 0 0 1.14 0l7.11-8.24a.75.75 0 0 0 -.57-1.24zm-7.11-29.85 5.47 6.34h-10.94zm0 37.7-5.47-6.34h10.94z" fill="#fff"/></g></svg>