<svg height="512" viewBox="0 0 64 64" width="512" xmlns="http://www.w3.org/2000/svg" xmlns:xlink="http://www.w3.org/1999/xlink"><linearGradient id="linear-gradient" gradientUnits="userSpaceOnUse" x1="3.25" x2="60.75" y1="32" y2="32"><stop offset="0" stop-color="#5bb4f6"/><stop offset=".61" stop-color="#2191e5"/><stop offset="1" stop-color="#007edb"/></linearGradient><g id="Layer_37" data-name="Layer 37"><rect fill="url(#linear-gradient)" height="57.5" rx="12.75" width="57.5" x="3.25" y="3.25"/><g fill="#fff"><path d="m22.21 14.82h-5.62a5.35 5.35 0 0 0 -5.34 5.34v5.62a.75.75 0 0 0 1.5 0v-5.62a3.84 3.84 0 0 1 3.84-3.84h5.62a.75.75 0 0 0 0-1.5z"/><path d="m47.41 14.82h-5.62a.75.75 0 0 0 0 1.5h5.62a3.84 3.84 0 0 1 3.84 3.84v5.62a.75.75 0 0 0 1.5 0v-5.62a5.35 5.35 0 0 0 -5.34-5.34z"/><path d="m22.21 47.68h-5.62a3.84 3.84 0 0 1 -3.84-3.84v-5.62a.75.75 0 0 0 -1.5 0v5.62a5.35 5.35 0 0 0 5.34 5.34h5.62a.75.75 0 0 0 0-1.5z"/><path d="m52 37.47a.75.75 0 0 0 -.75.75v5.62a3.84 3.84 0 0 1 -3.84 3.84h-5.62a.75.75 0 0 0 0 1.5h5.62a5.35 5.35 0 0 0 5.34-5.34v-5.62a.75.75 0 0 0 -.75-.75z"/><path d="m21.08 43.37a.74.74 0 0 0 .75-.75v-21.24a.74.74 0 0 0 -.75-.75h-4.49a.74.74 0 0 0 -.75.75v21.24a.74.74 0 0 0 .75.75zm-3.74-21.24h3v19.74h-3z"/><path d="m34.25 20.63h-4.5a.75.75 0 0 0 -.75.75v21.24a.75.75 0 0 0 .75.75h4.5a.75.75 0 0 0 .75-.75v-21.24a.75.75 0 0 0 -.75-.75zm-.75 21.24h-3v-19.74h3z"/><path d="m25.61 20.63a.75.75 0 0 0 -.75.75v21.24a.75.75 0 0 0 1.5 0v-21.24a.74.74 0 0 0 -.75-.75z"/><path d="m47.64 43.21a.75.75 0 0 0 .75-.75v-21.25a.75.75 0 0 0 -.75-.75h-4.49a.75.75 0 0 0 -.75.75v21.25a.75.75 0 0 0 .75.75zm-3.74-21.21h3v19.71h-3z"/><path d="m38.62 20.46a.76.76 0 0 0 -.75.75v21.25a.75.75 0 0 0 1.5 0v-21.25a.76.76 0 0 0 -.75-.75z"/></g></g></svg>