<svg height="512" viewBox="0 0 64 64" width="512" xmlns="http://www.w3.org/2000/svg" xmlns:xlink="http://www.w3.org/1999/xlink"><linearGradient id="linear-gradient" gradientUnits="userSpaceOnUse" x1="3.25" x2="60.75" y1="32" y2="32"><stop offset="0" stop-color="#5bb4f6"/><stop offset=".61" stop-color="#2191e5"/><stop offset="1" stop-color="#007edb"/></linearGradient><g id="Layer_70" data-name="Layer 70"><rect fill="url(#linear-gradient)" height="57.5" rx="12.75" width="57.5" x="3.25" y="3.25"/><g fill="#fff"><path d="m51.56 20.7h-8.28v-8.7a.75.75 0 0 0 -.75-.75h-30.09a.75.75 0 0 0 -.75.75v35.77a5 5 0 0 0 5 5h21.61a5 5 0 0 0 5-5v-.77h8.28a.75.75 0 0 0 .75-.75v-24.8a.74.74 0 0 0 -.77-.75zm-9.78 27.07a3.48 3.48 0 0 1 -3.48 3.48h-21.63a3.48 3.48 0 0 1 -3.48-3.48v-35h28.59zm9-2.28h-7.5v-23.29h7.53z"/><path d="m36.59 19.49a.75.75 0 0 0 -.75.75v23.52a.75.75 0 0 0 1.5 0v-23.52a.76.76 0 0 0 -.75-.75z"/><path d="m27.49 19.49a.75.75 0 0 0 -.75.75v23.52a.75.75 0 0 0 1.5 0v-23.52a.76.76 0 0 0 -.75-.75z"/><path d="m18.38 19.49a.76.76 0 0 0 -.75.75v23.52a.75.75 0 0 0 1.5 0v-23.52a.75.75 0 0 0 -.75-.75z"/></g></g></svg>