<svg height="512" viewBox="0 0 64 64" width="512" xmlns="http://www.w3.org/2000/svg" xmlns:xlink="http://www.w3.org/1999/xlink"><linearGradient id="linear-gradient" gradientUnits="userSpaceOnUse" x1="3.25" x2="60.75" y1="32" y2="32"><stop offset="0" stop-color="#5bb4f6"/><stop offset=".61" stop-color="#2191e5"/><stop offset="1" stop-color="#007edb"/></linearGradient><g id="Layer_79" data-name="Layer 79"><rect fill="url(#linear-gradient)" height="57.5" rx="12.75" width="57.5" x="3.25" y="3.25"/><g fill="#fff"><path d="m31.05 25.55a.75.75 0 0 0 -.34-1 10 10 0 0 0 -11.52 1.91.75.75 0 0 0 0 1.06.74.74 0 0 0 .53.22.71.71 0 0 0 .53-.22 8.53 8.53 0 0 1 9.75-1.63.75.75 0 0 0 1.05-.34z"/><path d="m52 47.11h-19.2a15.27 15.27 0 0 0 4.13-2.91 15 15 0 0 0 3.07-16.77l4.21-4.22a.75.75 0 0 0 0-1.06l-2.71-2.71a7.42 7.42 0 0 1 9.92.5.74.74 0 0 0 .53.22.71.71 0 0 0 .53-.22.74.74 0 0 0 0-1.06 8.91 8.91 0 0 0 -12-.5l-2.78-2.77a.77.77 0 0 0 -1.06 0l-4.21 4.22a15 15 0 1 0 -6.19 28.76h.05 25.71a.75.75 0 0 0 0-1.5zm-35.28-23.11a13.5 13.5 0 0 1 15.53-2.58.75.75 0 0 0 .86-.15l4.06-4.05 5.48 5.47-4.06 4.06a.75.75 0 0 0 -.14.86 13.54 13.54 0 1 1 -21.73-3.61z"/></g></g></svg>