<svg height="512" viewBox="0 0 64 64" width="512" xmlns="http://www.w3.org/2000/svg" xmlns:xlink="http://www.w3.org/1999/xlink"><linearGradient id="linear-gradient" gradientUnits="userSpaceOnUse" x1="3.25" x2="60.75" y1="32" y2="32"><stop offset="0" stop-color="#5bb4f6"/><stop offset=".61" stop-color="#2191e5"/><stop offset="1" stop-color="#007edb"/></linearGradient><g id="Layer_36" data-name="Layer 36"><rect fill="url(#linear-gradient)" height="57.5" rx="12.75" width="57.5" x="3.25" y="3.25"/><path d="m50.67 20.48a5.78 5.78 0 0 0 -4.1-1.71 6 6 0 0 0 -1.57.23 5.82 5.82 0 1 0 -8.86 3.25l-13.91 13.91a5.8 5.8 0 1 0 -4.8 9.07 6 6 0 0 0 1.57-.23 5.62 5.62 0 0 0 -.25 1.59 5.81 5.81 0 1 0 9.92-4.1 6 6 0 0 0 -.73-.62l13.91-13.87a6 6 0 0 0 .62.73 5.8 5.8 0 1 0 8.2-8.21zm-1.06 7.14a4.31 4.31 0 0 1 -6.08 0 3.86 3.86 0 0 1 -.83-1.2.78.78 0 0 0 -.55-.43.76.76 0 0 0 -.67.21l-15.28 15.28a.77.77 0 0 0 0 1.07.92.92 0 0 0 .3.18 4 4 0 0 1 1.13.8 4.3 4.3 0 0 1 -6.09 6.08 4.33 4.33 0 0 1 -1.27-3 4.27 4.27 0 0 1 1.26-3 .74.74 0 0 0 0-1.06.75.75 0 0 0 -1.06 0 4.27 4.27 0 0 1 -3 1.26 4.33 4.33 0 0 1 -3-1.27 4.27 4.27 0 0 1 0-6.08 4.31 4.31 0 0 1 6.08 0 4.22 4.22 0 0 1 .88 1.29.78.78 0 0 0 .17.26.74.74 0 0 0 .83.16.47.47 0 0 0 .09-.06 1 1 0 0 0 .13-.09l15.27-15.43a.79.79 0 0 0 .21-.67.75.75 0 0 0 -.44-.55 4.3 4.3 0 0 1 -1.31-7 4.3 4.3 0 1 1 6.09 6.08.74.74 0 0 0 -.22.53.73.73 0 0 0 .22.53.74.74 0 0 0 1.06 0 4.27 4.27 0 0 1 3-1.26 4.33 4.33 0 0 1 3 1.27 4.27 4.27 0 0 1 0 6.08z" fill="#fff"/></g></svg>