<svg height="512" viewBox="0 0 64 64" width="512" xmlns="http://www.w3.org/2000/svg" xmlns:xlink="http://www.w3.org/1999/xlink"><linearGradient id="linear-gradient" gradientUnits="userSpaceOnUse" x1="3.25" x2="60.75" y1="32" y2="32"><stop offset="0" stop-color="#5bb4f6"/><stop offset=".61" stop-color="#2191e5"/><stop offset="1" stop-color="#007edb"/></linearGradient><g id="Layer_35" data-name="Layer 35"><rect fill="url(#linear-gradient)" height="57.5" rx="12.75" width="57.5" x="3.25" y="3.25"/><path d="m49.83 21.21a.74.74 0 0 0 -1.06 0l-5.22 5.22a15 15 0 0 0 -6.18-4.06v-9.62h1.74a.75.75 0 0 0 0-1.5h-13.22a.75.75 0 0 0 0 1.5h1.75v9.62a15.11 15.11 0 0 0 -10 12s0 0 0 0a15.47 15.47 0 0 0 -.16 2.16 15 15 0 0 0 11.72 14.72h-11a.75.75 0 0 0 0 1.5h28.59a.75.75 0 0 0 0-1.5h-11a15 15 0 0 0 8.7-23.66l5.32-5.32a.74.74 0 0 0 .02-1.06zm-21.23 2.42a.74.74 0 0 0 .54-.72v-10.16h6.73v10.16a.73.73 0 0 0 .53.72 13.59 13.59 0 0 1 9.3 10h-26.4a13.59 13.59 0 0 1 9.3-10zm3.9 26.5a13.55 13.55 0 0 1 -13.5-13.54 13.37 13.37 0 0 1 .08-1.42h26.92a13.36 13.36 0 0 1 0 1.42 13.55 13.55 0 0 1 -13.5 13.54z" fill="#fff"/></g></svg>