<svg height="512" viewBox="0 0 64 64" width="512" xmlns="http://www.w3.org/2000/svg" xmlns:xlink="http://www.w3.org/1999/xlink"><linearGradient id="linear-gradient" gradientUnits="userSpaceOnUse" x1="3.25" x2="60.75" y1="32" y2="32"><stop offset="0" stop-color="#5bb4f6"/><stop offset=".61" stop-color="#2191e5"/><stop offset="1" stop-color="#007edb"/></linearGradient><g id="Layer_50" data-name="Layer 50"><rect fill="url(#linear-gradient)" height="57.5" rx="12.75" width="57.5" x="3.25" y="3.25"/><g fill="#fff"><path d="m52 52.75h-3.5a.75.75 0 0 1 0-1.5h2.75v-2.75a.75.75 0 0 1 1.5 0v3.5a.76.76 0 0 1 -.75.75z"/><path d="m41.9 52.75h-6.6a.75.75 0 0 1 0-1.5h6.6a.75.75 0 1 1 0 1.5zm-13.2 0h-6.6a.75.75 0 1 1 0-1.5h6.6a.75.75 0 1 1 0 1.5z"/><path d="m15.5 52.75h-3.5a.76.76 0 0 1 -.75-.75v-3.5a.75.75 0 0 1 1.5 0v2.75h2.75a.75.75 0 0 1 0 1.5z"/><path d="m12 42.65a.76.76 0 0 1 -.75-.75v-6.6a.75.75 0 0 1 1.5 0v6.6a.76.76 0 0 1 -.75.75zm0-13.2a.76.76 0 0 1 -.75-.75v-6.6a.75.75 0 0 1 1.5 0v6.6a.76.76 0 0 1 -.75.75z"/><path d="m12 16.25a.76.76 0 0 1 -.75-.75v-3.5a.76.76 0 0 1 .75-.75h3.5a.75.75 0 0 1 0 1.5h-2.75v2.75a.76.76 0 0 1 -.75.75z"/><path d="m41.9 12.75h-6.6a.75.75 0 0 1 0-1.5h6.6a.75.75 0 0 1 0 1.5zm-13.2 0h-6.6a.75.75 0 0 1 0-1.5h6.6a.75.75 0 1 1 0 1.5z"/><path d="m52 16.25a.76.76 0 0 1 -.75-.75v-2.75h-2.75a.75.75 0 0 1 0-1.5h3.5a.76.76 0 0 1 .75.75v3.5a.76.76 0 0 1 -.75.75z"/><path d="m52 42.65a.76.76 0 0 1 -.75-.75v-6.6a.75.75 0 0 1 1.5 0v6.6a.76.76 0 0 1 -.75.75zm0-13.2a.76.76 0 0 1 -.75-.75v-6.6a.75.75 0 1 1 1.5 0v6.6a.76.76 0 0 1 -.75.75z"/><path d="m32 48a.75.75 0 0 1 -.75-.75v-30.45a.75.75 0 1 1 1.5 0v30.4a.75.75 0 0 1 -.75.8z"/><path d="m47.2 32.75h-30.4a.75.75 0 1 1 0-1.5h30.4a.75.75 0 0 1 0 1.5z"/></g></g></svg>