<svg height="512" viewBox="0 0 64 64" width="512" xmlns="http://www.w3.org/2000/svg" xmlns:xlink="http://www.w3.org/1999/xlink"><linearGradient id="linear-gradient" gradientUnits="userSpaceOnUse" x1="3.25" x2="60.75" y1="32" y2="32"><stop offset="0" stop-color="#5bb4f6"/><stop offset=".61" stop-color="#2191e5"/><stop offset="1" stop-color="#007edb"/></linearGradient><g id="Layer_33" data-name="Layer 33"><rect fill="url(#linear-gradient)" height="57.5" rx="12.75" width="57.5" x="3.25" y="3.25"/><g fill="#fff"><path d="m15.71 20.16a4.46 4.46 0 1 0 -4.46-4.45 4.46 4.46 0 0 0 4.46 4.45zm0-7.41a3 3 0 1 1 -3 3 3 3 0 0 1 3-3z"/><path d="m48.29 20.16a4.46 4.46 0 1 0 -4.45-4.45 4.46 4.46 0 0 0 4.45 4.45zm0-7.41a3 3 0 1 1 -2.95 3 3 3 0 0 1 2.95-3z"/><path d="m15.71 43.84a4.46 4.46 0 1 0 4.45 4.45 4.46 4.46 0 0 0 -4.45-4.45zm0 7.41a3 3 0 1 1 2.95-3 3 3 0 0 1 -2.95 3z"/><path d="m48.29 43.84a4.46 4.46 0 1 0 4.46 4.45 4.46 4.46 0 0 0 -4.46-4.45zm0 7.41a3 3 0 1 1 3-3 3 3 0 0 1 -3 3z"/><path d="m20.09 27.5a4.46 4.46 0 1 0 4.45 4.5 4.46 4.46 0 0 0 -4.45-4.5zm0 7.41a3 3 0 1 1 2.91-2.91 3 3 0 0 1 -2.91 2.91z"/><path d="m48.37 32a4.46 4.46 0 1 0 -4.46 4.46 4.46 4.46 0 0 0 4.46-4.46zm-7.37 0a3 3 0 1 1 2.95 3 2.95 2.95 0 0 1 -2.95-3z"/><path d="m32 36.46a4.46 4.46 0 1 0 -4.46-4.46 4.46 4.46 0 0 0 4.46 4.46zm0-7.46a3 3 0 1 1 -3 3 3 3 0 0 1 3-3z"/><path d="m32 15.61a4.46 4.46 0 1 0 4.46 4.46 4.46 4.46 0 0 0 -4.46-4.46zm0 7.39a3 3 0 1 1 3-2.95 2.95 2.95 0 0 1 -3 2.95z"/><path d="m32 39.43a4.46 4.46 0 1 0 4.46 4.46 4.46 4.46 0 0 0 -4.46-4.46zm0 7.41a3 3 0 1 1 3-3 2.95 2.95 0 0 1 -3 3z"/></g></g></svg>