<svg height="512" viewBox="0 0 64 64" width="512" xmlns="http://www.w3.org/2000/svg" xmlns:xlink="http://www.w3.org/1999/xlink"><linearGradient id="linear-gradient" gradientUnits="userSpaceOnUse" x1="3.25" x2="60.75" y1="32" y2="32"><stop offset="0" stop-color="#5bb4f6"/><stop offset=".61" stop-color="#2191e5"/><stop offset="1" stop-color="#007edb"/></linearGradient><g id="Layer_34" data-name="Layer 34"><rect fill="url(#linear-gradient)" height="57.5" rx="12.75" width="57.5" x="3.25" y="3.25"/><path d="m48.41 32.83a4.91 4.91 0 0 0 -1.36-9.09 4.74 4.74 0 0 0 -4.36-6.65 4.56 4.56 0 0 0 -1.11.14 4.9 4.9 0 0 0 .08-.77 5.19 5.19 0 0 0 -9.66-2.65 5.19 5.19 0 0 0 -9.66 2.65 6.48 6.48 0 0 0 .07.77 4.48 4.48 0 0 0 -1.1-.14 4.74 4.74 0 0 0 -4.31 6.65 4.91 4.91 0 0 0 -1.36 9.09 4.63 4.63 0 0 0 1.69 8.27 5.14 5.14 0 0 0 6.23 7.43 4.62 4.62 0 0 0 8.44 2.09 4.62 4.62 0 0 0 8.49-2.09 5.13 5.13 0 0 0 6.23-7.43 4.63 4.63 0 0 0 1.69-8.27zm-20.3 18.42a3.15 3.15 0 0 1 -3.11-3.14 2.88 2.88 0 0 1 .08-.68 3.12 3.12 0 0 1 1.35-2 .77.77 0 0 0 .22-1 .76.76 0 0 0 -1-.22 4.63 4.63 0 0 0 -1.89 2.56 3.63 3.63 0 0 1 -2 .58 3.66 3.66 0 0 1 -2.65-6.19 4.68 4.68 0 0 0 2.09-.92.75.75 0 1 0 -.92-1.18 3.11 3.11 0 0 1 -1.93.66 3.15 3.15 0 0 1 -.26-6.28.76.76 0 0 0 .61-.41.79.79 0 0 0 0-.73.76.76 0 0 0 -.7-.3 3.41 3.41 0 0 1 -.1-6.82 4.72 4.72 0 0 0 3.42 1.47.75.75 0 0 0 0-1.5 3.26 3.26 0 1 1 0-6.51 3.13 3.13 0 0 1 1.79.55 5.22 5.22 0 0 0 4.44 2.52.75.75 0 0 0 0-1.5 3.71 3.71 0 1 1 3.71-3.7v31.6a3.15 3.15 0 0 1 -3.15 3.14zm17.58-11.52a3.11 3.11 0 0 1 -1.93-.66.75.75 0 1 0 -.92 1.18 4.65 4.65 0 0 0 2.08.92 3.65 3.65 0 0 1 -4.6 5.61 4.69 4.69 0 0 0 -1.89-2.56.75.75 0 0 0 -1 .22.77.77 0 0 0 .22 1 3.11 3.11 0 0 1 1.35 2 2.65 2.65 0 0 1 .08.66 3.15 3.15 0 0 1 -6.29 0v-31.64a3.71 3.71 0 1 1 3.71 3.7.75.75 0 0 0 0 1.5 5.22 5.22 0 0 0 4.44-2.52 3.13 3.13 0 0 1 1.79-.55 3.26 3.26 0 1 1 0 6.51.75.75 0 0 0 0 1.5 4.72 4.72 0 0 0 3.42-1.47 3.41 3.41 0 0 1 -.15 6.87.77.77 0 0 0 -.66.4.76.76 0 0 0 0 .77.72.72 0 0 0 .56.33 3.15 3.15 0 0 1 -.26 6.28z" fill="#fff"/></g></svg>