<svg height="512" viewBox="0 0 64 64" width="512" xmlns="http://www.w3.org/2000/svg" xmlns:xlink="http://www.w3.org/1999/xlink"><linearGradient id="linear-gradient" gradientUnits="userSpaceOnUse" x1="3.25" x2="60.75" y1="32" y2="32"><stop offset="0" stop-color="#5bb4f6"/><stop offset=".61" stop-color="#2191e5"/><stop offset="1" stop-color="#007edb"/></linearGradient><g id="Layer_75" data-name="Layer 75"><rect fill="url(#linear-gradient)" height="57.5" rx="12.75" width="57.5" x="3.25" y="3.25"/><g fill="#fff"><path d="m50.78 40.51-7.21-2.51v-8.73l7.21-2.52a.75.75 0 1 0 -.5-1.42l-6.71 2.35v-.6a11.72 11.72 0 0 0 -5.1-9.67l4.88-4.88a.74.74 0 0 0 0-1.06.75.75 0 0 0 -1.06 0l-5.15 5.16a11.55 11.55 0 0 0 -10.45-.06l-5.1-5.1a.75.75 0 0 0 -1.06 1.06l4.81 4.8a11.72 11.72 0 0 0 -5.22 9.75v.6l-6.7-2.35a.76.76 0 0 0 -1 .46.75.75 0 0 0 .46 1l7.2 2.52v8.69l-7.2 2.52a.75.75 0 0 0 .29 1.48.77.77 0 0 0 .25 0l6.76-2.37a12.31 12.31 0 0 0 5.54 9.38l5.55 3.64a1.12 1.12 0 0 0 .58.17 1.06 1.06 0 0 0 .57-.17l5.58-3.71a12.31 12.31 0 0 0 5.54-9.38l6.77 2.37a.73.73 0 0 0 .25 0 .75.75 0 0 0 .71-.5.76.76 0 0 0 -.49-.92zm-8.71-1.93a10.87 10.87 0 0 1 -4.92 9.11l-5.3 3.47-5.31-3.47a10.87 10.87 0 0 1 -4.92-9.11v-11.5a10.23 10.23 0 1 1 20.45 0z"/><path d="m36.1 27.87h-8.51a.75.75 0 0 0 0 1.5h8.51a.75.75 0 0 0 0-1.5z"/><path d="m36.1 37.07h-8.51a.75.75 0 1 0 0 1.5h8.51a.75.75 0 0 0 0-1.5z"/></g></g></svg>