<svg height="512" viewBox="0 0 64 64" width="512" xmlns="http://www.w3.org/2000/svg" xmlns:xlink="http://www.w3.org/1999/xlink"><linearGradient id="linear-gradient" gradientUnits="userSpaceOnUse" x1="3.25" x2="60.75" y1="32" y2="32"><stop offset="0" stop-color="#5bb4f6"/><stop offset=".61" stop-color="#2191e5"/><stop offset="1" stop-color="#007edb"/></linearGradient><g id="Layer_84" data-name="Layer 84"><rect fill="url(#linear-gradient)" height="57.5" rx="12.75" width="57.5" x="3.25" y="3.25"/><g fill="#fff"><path d="m27 17h-4.65a.76.76 0 0 0 -.75.75v5.25a.76.76 0 0 0 .75.75h4.65a.76.76 0 0 0 .75-.75v-5.29a.76.76 0 0 0 -.75-.71zm-.75 5.26h-3.15v-3.8h3.11z"/><path d="m27 28.62h-4.65a.76.76 0 0 0 -.75.75v5.26a.76.76 0 0 0 .75.75h4.65a.76.76 0 0 0 .75-.75v-5.26a.76.76 0 0 0 -.75-.75zm-.75 5.26h-3.15v-3.76h3.11z"/><path d="m27 40.28h-4.65a.76.76 0 0 0 -.75.75v5.26a.76.76 0 0 0 .75.75h4.65a.76.76 0 0 0 .75-.75v-5.29a.76.76 0 0 0 -.75-.72zm-.75 5.26h-3.15v-3.76h3.11z"/><path d="m52 51.25h-4.21v-23.46a.75.75 0 0 0 -.79-.79h-4.22v-15a.76.76 0 0 0 -.75-.75h-25.03a.76.76 0 0 0 -.75.75v39.25h-4.25a.75.75 0 0 0 0 1.5h40a.75.75 0 0 0 0-1.5zm-34.29-38.5h23.57v14.25h-9a.75.75 0 0 0 -.75.75v23.5h-13.82zm15.29 38.5v-22.71h13.29v22.71z"/></g></g></svg>