<svg height="512" viewBox="0 0 64 64" width="512" xmlns="http://www.w3.org/2000/svg" xmlns:xlink="http://www.w3.org/1999/xlink"><linearGradient id="linear-gradient" gradientUnits="userSpaceOnUse" x1="3.25" x2="60.75" y1="32" y2="32"><stop offset="0" stop-color="#5bb4f6"/><stop offset=".61" stop-color="#2191e5"/><stop offset="1" stop-color="#007edb"/></linearGradient><g id="Layer_68" data-name="Layer 68"><rect fill="url(#linear-gradient)" height="57.5" rx="12.75" width="57.5" x="3.25" y="3.25"/><g fill="#fff"><path d="m50.24 11.25h-36.48a.76.76 0 0 0 -.76.75v34.22a.76.76 0 0 0 .75.75h5.71v5a.75.75 0 0 0 1.54.03v-5h22v5a.75.75 0 0 0 1.5 0v-5h5.71a.76.76 0 0 0 .75-.75v-34.25a.76.76 0 0 0 -.72-.75zm-35.73 1.5h35v15.61h-35zm35 32.72h-35v-15.61h35z"/><path d="m39.89 17.41a.75.75 0 0 0 -.75.75v3.41h-14.28v-3.41a.75.75 0 1 0 -1.5 0v4.16a.76.76 0 0 0 .75.75h15.78a.76.76 0 0 0 .75-.75v-4.16a.76.76 0 0 0 -.75-.75z"/><path d="m24.11 40.18h15.78a.76.76 0 0 0 .75-.75v-4.16a.75.75 0 1 0 -1.5 0v3.41h-14.28v-3.41a.75.75 0 0 0 -1.5 0v4.16a.76.76 0 0 0 .75.75z"/></g></g></svg>