<?xml version="1.0" encoding="UTF-8"?>
<svg xmlns="http://www.w3.org/2000/svg" xmlns:xlink="http://www.w3.org/1999/xlink" viewBox="0 0 64 64" width="512" height="512"><defs><style>.cls-1{fill:url(#linear-gradient);}.cls-2{fill:#fff;}</style><linearGradient id="linear-gradient" x1="3.25" y1="32" x2="60.75" y2="32" gradientUnits="userSpaceOnUse"><stop offset="0" stop-color="#5bb4f6"/><stop offset="0.61" stop-color="#2191e5"/><stop offset="1" stop-color="#007edb"/></linearGradient></defs><g id="Layer_25" data-name="Layer 25"><rect class="cls-1" x="3.25" y="3.25" width="57.5" height="57.5" rx="12.75"/><path class="cls-2" d="M46.89,17H44.76V12.22a.75.75,0,1,0-1.5,0V17H20.74V12.22a.75.75,0,0,0-1.5,0V17H17.11a5.65,5.65,0,0,0-5.65,5.64V46.89a5.65,5.65,0,0,0,5.65,5.64H46.89a5.65,5.65,0,0,0,5.65-5.64V22.61A5.65,5.65,0,0,0,46.89,17ZM51,46.89A4.14,4.14,0,0,1,46.89,51H17.11A4.14,4.14,0,0,1,13,46.89V25H51Zm0-23.36H13v-.92a4.15,4.15,0,0,1,4.15-4.14H46.89A4.15,4.15,0,0,1,51,22.61Z"/><path class="cls-2" d="M32,41.26a.75.75,0,0,0,.75-.75V31.59a.75.75,0,0,0-1.5,0v8.92A.75.75,0,0,0,32,41.26Z"/><path class="cls-2" d="M32,44.79a.72.72,0,1,0,.71.71A.71.71,0,0,0,32,44.79Z"/></g></svg>
