<svg height="512" viewBox="0 0 64 64" width="512" xmlns="http://www.w3.org/2000/svg" xmlns:xlink="http://www.w3.org/1999/xlink"><linearGradient id="linear-gradient" gradientUnits="userSpaceOnUse" x1="3.25" x2="60.75" y1="32" y2="32"><stop offset="0" stop-color="#5bb4f6"/><stop offset=".61" stop-color="#2191e5"/><stop offset="1" stop-color="#007edb"/></linearGradient><g id="Layer_32" data-name="Layer 32"><rect fill="url(#linear-gradient)" height="57.5" rx="12.75" width="57.5" x="3.25" y="3.25"/><g fill="#fff"><path d="m47.11 16.81h-2.22v-4.81a.75.75 0 0 0 -1.5 0v4.81h-22.78v-4.81a.75.75 0 0 0 -1.5 0v4.81h-2.22a5.65 5.65 0 0 0 -5.64 5.65v24.65a5.65 5.65 0 0 0 5.64 5.64h30.22a5.65 5.65 0 0 0 5.64-5.64v-24.65a5.65 5.65 0 0 0 -5.64-5.65zm-30.22 1.5h30.22a4.15 4.15 0 0 1 4.14 4.15v1h-38.5v-1a4.15 4.15 0 0 1 4.14-4.15zm30.22 32.94h-30.22a4.15 4.15 0 0 1 -4.14-4.14v-22.17h38.5v22.17a4.15 4.15 0 0 1 -4.14 4.14z"/><path d="m33.73 31.14-1.73 1.73-1.73-1.73c-4.92-4.63-11.87 2.31-7.27 7.24l8.44 8.44a.79.79 0 0 0 .56.18.77.77 0 0 0 .53-.22l8.47-8.4c4.6-4.93-2.33-11.87-7.27-7.24zm6.18 6.18-7.91 7.91-7.9-7.91a3.62 3.62 0 0 1 5.11-5.12l2.26 2.27a.77.77 0 0 0 1.06 0l2.26-2.27a3.62 3.62 0 0 1 5.12 5.12z"/></g></g></svg>