<svg height="512" viewBox="0 0 64 64" width="512" xmlns="http://www.w3.org/2000/svg" xmlns:xlink="http://www.w3.org/1999/xlink"><linearGradient id="linear-gradient" gradientUnits="userSpaceOnUse" x1="3.25" x2="60.75" y1="32" y2="32"><stop offset="0" stop-color="#5bb4f6"/><stop offset=".61" stop-color="#2191e5"/><stop offset="1" stop-color="#007edb"/></linearGradient><g id="Layer_24" data-name="Layer 24"><rect fill="url(#linear-gradient)" height="57.5" rx="12.75" width="57.5" x="3.25" y="3.25"/><g fill="#fff"><path d="m47.11 16.81h-2.22v-4.81a.75.75 0 0 0 -1.5 0v4.81h-22.78v-4.81a.75.75 0 0 0 -1.5 0v4.81h-2.22a5.65 5.65 0 0 0 -5.64 5.65v24.65a5.65 5.65 0 0 0 5.64 5.64h30.22a5.65 5.65 0 0 0 5.64-5.64v-24.65a5.65 5.65 0 0 0 -5.64-5.65zm-30.22 1.5h30.22a4.15 4.15 0 0 1 4.14 4.15v1h-38.5v-1a4.15 4.15 0 0 1 4.14-4.15zm30.22 32.94h-30.22a4.15 4.15 0 0 1 -4.14-4.14v-22.17h38.5v22.17a4.15 4.15 0 0 1 -4.14 4.14z"/><path d="m41 35.14-5.73-.84-2.56-5.19a.78.78 0 0 0 -1.34 0l-2.6 5.19-5.77.84a.75.75 0 0 0 -.61.51.74.74 0 0 0 .19.76l4.15 4-1 5.71a.75.75 0 0 0 .3.73.71.71 0 0 0 .44.15.73.73 0 0 0 .35-.09l5.18-2.65 5.12 2.74a.75.75 0 0 0 1.09-.79l-1-5.71 4.15-4a.74.74 0 0 0 .19-.76.75.75 0 0 0 -.55-.6zm-5.1 4.52a.76.76 0 0 0 -.21.66l.79 4.59-4.13-2.17a.81.81 0 0 0 -.7 0l-4.13 2.17.79-4.59a.76.76 0 0 0 -.21-.66l-3.34-3.26 4.61-.67a.76.76 0 0 0 .57-.41l2.06-4.18 2.06 4.18a.76.76 0 0 0 .57.41l4.61.67z"/></g></g></svg>