<svg height="512" viewBox="0 0 64 64" width="512" xmlns="http://www.w3.org/2000/svg" xmlns:xlink="http://www.w3.org/1999/xlink"><linearGradient id="linear-gradient" gradientUnits="userSpaceOnUse" x1="3.25" x2="60.75" y1="32" y2="32"><stop offset="0" stop-color="#5bb4f6"/><stop offset=".61" stop-color="#2191e5"/><stop offset="1" stop-color="#007edb"/></linearGradient><g id="Layer_23" data-name="Layer 23"><rect fill="url(#linear-gradient)" height="57.5" rx="12.75" width="57.5" x="3.25" y="3.25"/><g fill="#fff"><path d="m52.36 32.45a.74.74 0 0 0 -.76 0l-6.6 4.16v-3.83a3.68 3.68 0 0 0 -3.67-3.68h-26.4a3.68 3.68 0 0 0 -3.68 3.68v14.85a3.68 3.68 0 0 0 3.68 3.67h26.44a3.68 3.68 0 0 0 3.63-3.67v-3.84l6.56 4.14a.71.71 0 0 0 .44.07.77.77 0 0 0 .36-.09.75.75 0 0 0 .39-.66v-14.14a.77.77 0 0 0 -.39-.66zm-8.82 15.18a2.17 2.17 0 0 1 -2.17 2.17h-26.44a2.18 2.18 0 0 1 -2.18-2.17v-14.85a2.19 2.19 0 0 1 2.18-2.18h26.44a2.18 2.18 0 0 1 2.17 2.18zm7.71-1.7-6.25-3.93v-3.61l6.21-3.92z"/><path d="m32.26 28.61a4.6 4.6 0 1 0 -4.59-4.61 4.6 4.6 0 0 0 4.59 4.61zm0-7.69a3.1 3.1 0 1 1 -3.09 3.08 3.09 3.09 0 0 1 3.09-3.08z"/><path d="m20.41 28.61a6.54 6.54 0 1 0 -6.53-6.54 6.54 6.54 0 0 0 6.53 6.54zm0-11.57a5 5 0 1 1 -5 5 5 5 0 0 1 5-5.04z"/></g></g></svg>