<svg height="512" viewBox="0 0 64 64" width="512" xmlns="http://www.w3.org/2000/svg" xmlns:xlink="http://www.w3.org/1999/xlink"><linearGradient id="linear-gradient" gradientUnits="userSpaceOnUse" x1="3.25" x2="60.75" y1="32" y2="32"><stop offset="0" stop-color="#5bb4f6"/><stop offset=".61" stop-color="#2191e5"/><stop offset="1" stop-color="#007edb"/></linearGradient><g id="Layer_90" data-name="Layer 90"><rect fill="url(#linear-gradient)" height="57.5" rx="12.75" width="57.5" x="3.25" y="3.25"/><path d="m32 42.79a.75.75 0 0 1 -.57-.26l-20-23.17a.75.75 0 0 1 -.11-.8.75.75 0 0 1 .68-.44h40a.75.75 0 0 1 .68.44.75.75 0 0 1 -.11.8l-20 23.17a.75.75 0 0 1 -.57.26zm-18.36-23.17 18.36 21.27 18.36-21.27z" fill="#fff"/></g></svg>