<svg height="512" viewBox="0 0 64 64" width="512" xmlns="http://www.w3.org/2000/svg" xmlns:xlink="http://www.w3.org/1999/xlink"><linearGradient id="linear-gradient" gradientUnits="userSpaceOnUse" x1="3.25" x2="60.75" y1="32" y2="32"><stop offset="0" stop-color="#5bb4f6"/><stop offset=".61" stop-color="#2191e5"/><stop offset="1" stop-color="#007edb"/></linearGradient><g id="Layer_89" data-name="Layer 89"><rect fill="url(#linear-gradient)" height="57.5" rx="12.75" width="57.5" x="3.25" y="3.25"/><path d="m42.53 31.43-23.17-20a.75.75 0 0 0 -.8-.11.75.75 0 0 0 -.44.68v40a.75.75 0 0 0 .44.68.67.67 0 0 0 .31.07.74.74 0 0 0 .49-.18l23.17-20a.75.75 0 0 0 0-1.14zm-22.91 18.93v-36.72l21.27 18.36z" fill="#fff"/></g></svg>