<svg height="512" viewBox="0 0 64 64" width="512" xmlns="http://www.w3.org/2000/svg" xmlns:xlink="http://www.w3.org/1999/xlink"><linearGradient id="linear-gradient" gradientUnits="userSpaceOnUse" x1="3.25" x2="60.75" y1="32" y2="32"><stop offset="0" stop-color="#5bb4f6"/><stop offset=".61" stop-color="#2191e5"/><stop offset="1" stop-color="#007edb"/></linearGradient><g id="Layer_28" data-name="Layer 28"><rect fill="url(#linear-gradient)" height="57.5" rx="12.75" width="57.5" x="3.25" y="3.25"/><path d="m52.44 37.57-3.09-2.24 1.38-1.91a.75.75 0 0 0 -.17-1.05l-25.62-18.57a.7.7 0 0 0 -.56-.13.75.75 0 0 0 -.49.3l-9.32 12.86a.75.75 0 0 0 .17 1.05l12.81 9.28-6 8.3h-8.8v-2.63a.75.75 0 0 0 -1.5 0v6.76a.75.75 0 0 0 1.5 0v-2.59h9.17a.74.74 0 0 0 .61-.31l6.24-8.69 11.59 8.41a.76.76 0 0 0 1-.17l1.38-1.91 3.1 2.24a.74.74 0 0 0 1-.16l5.68-7.83a.78.78 0 0 0 .13-.56.75.75 0 0 0 -.21-.45zm-11.81 7.22-24.41-17.69 8.44-11.65 24.42 17.7zm5.53.17-2.49-1.8.7-1 4.1-5.65 2.53 1.83z" fill="#fff"/></g></svg>