<svg height="512" viewBox="0 0 64 64" width="512" xmlns="http://www.w3.org/2000/svg" xmlns:xlink="http://www.w3.org/1999/xlink"><linearGradient id="linear-gradient" gradientUnits="userSpaceOnUse" x1="3.25" x2="60.75" y1="32" y2="32"><stop offset="0" stop-color="#5bb4f6"/><stop offset=".61" stop-color="#2191e5"/><stop offset="1" stop-color="#007edb"/></linearGradient><g id="Layer_27" data-name="Layer 27"><rect fill="url(#linear-gradient)" height="57.5" rx="12.75" width="57.5" x="3.25" y="3.25"/><path d="m45.44 33.6h-2.22v-21.6a.75.75 0 0 0 -.75-.75h-20.94a.75.75 0 0 0 -.75.75v21.6h-2.22a.76.76 0 0 0 -.75.75v4a.76.76 0 0 0 .75.75h2.22v12.9a.75.75 0 0 0 1.5 0v-12.85h19.44v12.85a.75.75 0 0 0 1.5 0v-12.85h2.22a.76.76 0 0 0 .75-.75v-4a.76.76 0 0 0 -.75-.8zm-3.72 0h-5v-20.85h5zm-6.54-20.85v20.85h-6.28v-20.85zm-12.9 0h5.12v20.85h-5.12zm22.41 24.9h-25.38v-2.55h25.38z" fill="#fff"/></g></svg>