<svg height="512" viewBox="0 0 64 64" width="512" xmlns="http://www.w3.org/2000/svg" xmlns:xlink="http://www.w3.org/1999/xlink"><linearGradient id="linear-gradient" gradientUnits="userSpaceOnUse" x1="3.25" x2="60.75" y1="32" y2="32"><stop offset="0" stop-color="#5bb4f6"/><stop offset=".61" stop-color="#2191e5"/><stop offset="1" stop-color="#007edb"/></linearGradient><g id="Layer_83" data-name="Layer 83"><rect fill="url(#linear-gradient)" height="57.5" rx="12.75" width="57.5" x="3.25" y="3.25"/><path d="m52 14.43h-13.33a.74.74 0 0 0 -.75.75v9.63h-12.59a.76.76 0 0 0 -.75.75v12.29h-12.58a.75.75 0 0 0 -.75.75v10.22a.75.75 0 0 0 .75.75h40a.75.75 0 0 0 .75-.75v-33.64a.75.75 0 0 0 -.75-.75zm-39.25 24.92h11.83v8.72h-11.83zm13.33-13h11.84v21.72h-11.84zm25.17 21.72h-11.83v-32.14h11.83z" fill="#fff"/></g></svg>