<svg height="512" viewBox="0 0 64 64" width="512" xmlns="http://www.w3.org/2000/svg" xmlns:xlink="http://www.w3.org/1999/xlink"><linearGradient id="linear-gradient" gradientUnits="userSpaceOnUse" x1="3.25" x2="60.75" y1="32" y2="32"><stop offset="0" stop-color="#5bb4f6"/><stop offset=".61" stop-color="#2191e5"/><stop offset="1" stop-color="#007edb"/></linearGradient><g id="Layer_21" data-name="Layer 21"><rect fill="url(#linear-gradient)" height="57.5" rx="12.75" width="57.5" x="3.25" y="3.25"/><g fill="#fff"><path d="m52 51.24h-39.24v-39.24a.75.75 0 0 0 -1.5 0v40a.74.74 0 0 0 .75.75h39.99a.75.75 0 0 0 0-1.5z"/><path d="m26.72 34.45a.74.74 0 0 0 .81.16l9-3.65 9 9a.73.73 0 0 0 .53.22.74.74 0 0 0 .53-.22.75.75 0 0 0 0-1.06l-9.31-9.31a.74.74 0 0 0 -.81-.16l-9 3.65-9-9a.74.74 0 0 0 -1.06 0 .75.75 0 0 0 0 1.06z"/></g></g></svg>