<svg height="512" viewBox="0 0 64 64" width="512" xmlns="http://www.w3.org/2000/svg" xmlns:xlink="http://www.w3.org/1999/xlink"><linearGradient id="linear-gradient" gradientUnits="userSpaceOnUse" x1="3.25" x2="60.75" y1="32" y2="32"><stop offset="0" stop-color="#5bb4f6"/><stop offset=".61" stop-color="#2191e5"/><stop offset="1" stop-color="#007edb"/></linearGradient><g id="Layer_22" data-name="Layer 22"><rect fill="url(#linear-gradient)" height="57.5" rx="12.75" width="57.5" x="3.25" y="3.25"/><g fill="#fff"><path d="m52 52.75h-40a.76.76 0 0 1 -.75-.75v-40a.75.75 0 0 1 1.5 0v39.25h39.25a.75.75 0 0 1 0 1.5z"/><path d="m18.81 44.5a.75.75 0 0 1 -.31-1.43l12.88-5.86-.27-10.88a.73.73 0 0 1 .44-.7l13.33-6.06a.75.75 0 1 1 .62 1.36l-12.88 5.86.27 10.88a.73.73 0 0 1 -.44.7l-13.33 6.06a.67.67 0 0 1 -.31.07z"/></g></g></svg>