<svg height="512" viewBox="0 0 64 64" width="512" xmlns="http://www.w3.org/2000/svg" xmlns:xlink="http://www.w3.org/1999/xlink"><linearGradient id="linear-gradient" gradientUnits="userSpaceOnUse" x1="3.25" x2="60.75" y1="32" y2="32"><stop offset="0" stop-color="#5bb4f6"/><stop offset=".61" stop-color="#2191e5"/><stop offset="1" stop-color="#007edb"/></linearGradient><g id="Layer_78" data-name="Layer 78"><rect fill="url(#linear-gradient)" height="57.5" rx="12.75" width="57.5" x="3.25" y="3.25"/><g fill="#fff"><path d="m44.45 11.61h-17.36a.75.75 0 0 0 0 1.5h17.36a6.8 6.8 0 0 1 6.8 6.79v17.36a.75.75 0 0 0 1.5 0v-17.36a8.3 8.3 0 0 0 -8.3-8.29z"/><path d="m44.45 16.89h-30.19a3 3 0 0 0 -3 3v29.49a3 3 0 0 0 5.08 2.19l5.14-4.84a1.49 1.49 0 0 1 1-.42h21.97a3 3 0 0 0 3-3v-23.41a3 3 0 0 0 -3-3.01zm1.55 26.41a1.52 1.52 0 0 1 -1.52 1.51h-21.97a3 3 0 0 0 -2.07.82l-5.14 4.85a1.52 1.52 0 0 1 -2.55-1.1v-29.48a1.52 1.52 0 0 1 1.51-1.51h30.19a1.52 1.52 0 0 1 1.55 1.51z"/></g></g></svg>