<svg height="512" viewBox="0 0 64 64" width="512" xmlns="http://www.w3.org/2000/svg" xmlns:xlink="http://www.w3.org/1999/xlink"><linearGradient id="linear-gradient" gradientUnits="userSpaceOnUse" x1="3.25" x2="60.75" y1="32" y2="32"><stop offset="0" stop-color="#5bb4f6"/><stop offset=".61" stop-color="#2191e5"/><stop offset="1" stop-color="#007edb"/></linearGradient><g id="Layer_73" data-name="Layer 73"><rect fill="url(#linear-gradient)" height="57.5" rx="12.75" width="57.5" x="3.25" y="3.25"/><path d="m52 27.27h-3a17.76 17.76 0 0 0 -12.27-12.22v-3.05a.76.76 0 0 0 -.75-.75h-7.98a.76.76 0 0 0 -.75.75v3.05a17.76 17.76 0 0 0 -12.2 12.22h-3.05a.76.76 0 0 0 -.75.75v8a.76.76 0 0 0 .75.75h3.05a17.76 17.76 0 0 0 12.22 12.23v3a.76.76 0 0 0 .75.75h8a.76.76 0 0 0 .75-.75v-3a17.76 17.76 0 0 0 12.23-12.27h3a.76.76 0 0 0 .75-.75v-7.98a.76.76 0 0 0 -.75-.73zm-23.23-14.52h6.46v6.45h-6.46zm-16 16h6.43v6.46h-6.45zm22.46 22.5h-6.46v-6.45h6.46zm1.5-3.86v-3.34a.75.75 0 0 0 -.73-.75h-8a.75.75 0 0 0 -.75.75v3.34a16.27 16.27 0 0 1 -10.64-10.66h3.39a.75.75 0 0 0 .7-.73v-8a.75.75 0 0 0 -.75-.75h-3.34a16.27 16.27 0 0 1 10.66-10.64v3.39a.75.75 0 0 0 .75.75h8a.75.75 0 0 0 .75-.75v-3.39a16.27 16.27 0 0 1 10.62 10.66h-3.34a.75.75 0 0 0 -.75.75v8a.75.75 0 0 0 .75.75h3.34a16.27 16.27 0 0 1 -10.66 10.62zm14.52-12.16h-6.45v-6.46h6.45z" fill="#fff"/></g></svg>