<svg height="512" viewBox="0 0 64 64" width="512" xmlns="http://www.w3.org/2000/svg" xmlns:xlink="http://www.w3.org/1999/xlink"><linearGradient id="linear-gradient" gradientUnits="userSpaceOnUse" x1="3.25" x2="60.75" y1="32" y2="32"><stop offset="0" stop-color="#5bb4f6"/><stop offset=".61" stop-color="#2191e5"/><stop offset="1" stop-color="#007edb"/></linearGradient><g id="Layer_67" data-name="Layer 67"><rect fill="url(#linear-gradient)" height="57.5" rx="12.75" width="57.5" x="3.25" y="3.25"/><path d="m48.72 17.8h-3.4l-2.91-6.12a.75.75 0 0 0 -.68-.43h-19.46a.75.75 0 0 0 -.68.43l-2.91 6.12h-3.4a.75.75 0 1 0 0 1.5h3.17l2.35 32.75a.75.75 0 0 0 .75.7h20.9a.75.75 0 0 0 .75-.7l2.35-32.75h3.17a.75.75 0 0 0 0-1.5zm-5.53 13.45h-5.75a5.49 5.49 0 0 0 -10.88 0h-5.75l-.81-11.95h24zm-7.19.75a4 4 0 1 1 -4-4 4 4 0 0 1 4 4zm-13.26-19.25h18.52l2.4 5.05h-23.32zm19 38.5h-19.49l-1.33-18.5h5.64a5.49 5.49 0 0 0 10.88 0h5.64z" fill="#fff"/></g></svg>