<svg height="512" viewBox="0 0 64 64" width="512" xmlns="http://www.w3.org/2000/svg" xmlns:xlink="http://www.w3.org/1999/xlink"><linearGradient id="linear-gradient" gradientUnits="userSpaceOnUse" x1="3.25" x2="60.75" y1="32" y2="32"><stop offset="0" stop-color="#5bb4f6"/><stop offset=".61" stop-color="#2191e5"/><stop offset="1" stop-color="#007edb"/></linearGradient><g id="Layer_19" data-name="Layer 19"><rect fill="url(#linear-gradient)" height="57.5" rx="12.75" width="57.5" x="3.25" y="3.25"/><path d="m32 21.82c-10.06 0-20.75 2.32-20.75 6.62v8.72c0 3.29 6.27 5.42 13.72 6.24h.11a65.62 65.62 0 0 0 6.91.37 65.62 65.62 0 0 0 6.91-.37h.1c7.45-.82 13.72-2.95 13.72-6.24v-8.72c.03-4.3-10.66-6.62-20.72-6.62zm0 1.5c11 0 19.25 2.7 19.25 5.12s-8.25 5.11-19.25 5.11c-11 0-19.24-2.7-19.24-5.11s8.24-5.12 19.24-5.12zm-7.69 11.28v7.21a42.17 42.17 0 0 1 -5.45-1v-7.19a45.43 45.43 0 0 0 5.45.98zm1.5.16c1.78.17 3.61.27 5.44.29v7.21c-1.91 0-3.74-.12-5.44-.28zm6.94.29c1.83 0 3.66-.12 5.44-.29v7.24c-1.7.16-3.53.26-5.44.28zm6.94-.45a45.43 45.43 0 0 0 5.45-1v7.16a42.17 42.17 0 0 1 -5.45 1zm-26.94 2.56v-6.16a14.25 14.25 0 0 0 4.61 2.18v7.14c-2.89-.91-4.61-2.06-4.61-3.16zm33.89 3.19v-7.14a14.25 14.25 0 0 0 4.61-2.21v6.13c0 1.13-1.72 2.28-4.61 3.22z" fill="#fff"/></g></svg>