<svg height="512" viewBox="0 0 64 64" width="512" xmlns="http://www.w3.org/2000/svg" xmlns:xlink="http://www.w3.org/1999/xlink"><linearGradient id="linear-gradient" gradientUnits="userSpaceOnUse" x1="3.25" x2="60.75" y1="32" y2="32"><stop offset="0" stop-color="#5bb4f6"/><stop offset=".61" stop-color="#2191e5"/><stop offset="1" stop-color="#007edb"/></linearGradient><g id="Layer_4" data-name="Layer 4"><rect fill="url(#linear-gradient)" height="57.5" rx="12.75" width="57.5" x="3.25" y="3.25"/><g fill="#fff"><path d="m49.86 15.16h-35.72a2.9 2.9 0 0 0 -2.89 2.89v27.89a2.85 2.85 0 0 0 1.75 2.66 3 3 0 0 0 1.16.24 2.89 2.89 0 0 0 2-.79l4.84-4.58a1.37 1.37 0 0 1 1-.38h27.86a2.9 2.9 0 0 0 2.89-2.9v-22.14a2.9 2.9 0 0 0 -2.89-2.89zm1.39 25a1.4 1.4 0 0 1 -1.39 1.4h-27.86a2.93 2.93 0 0 0 -2 .78l-4.9 4.66a1.36 1.36 0 0 1 -1.51.26 1.34 1.34 0 0 1 -.84-1.28v-27.93a1.39 1.39 0 0 1 1.39-1.39h35.72a1.39 1.39 0 0 1 1.39 1.39z"/><path d="m36.57 28.79h-3.82v-3.79a.75.75 0 0 0 -1.5 0v3.83h-3.82a.75.75 0 0 0 0 1.5h3.82v3.82a.75.75 0 0 0 1.5 0v-3.86h3.82a.75.75 0 0 0 0-1.5z"/></g></g></svg>