<?xml version="1.0" encoding="UTF-8"?>
<svg xmlns="http://www.w3.org/2000/svg" xmlns:xlink="http://www.w3.org/1999/xlink" viewBox="0 0 64 64" width="512" height="512"><defs><style>.cls-1{fill:url(#linear-gradient);}.cls-2{fill:#fff;}</style><linearGradient id="linear-gradient" x1="3.25" y1="32" x2="60.75" y2="32" gradientUnits="userSpaceOnUse"><stop offset="0" stop-color="#5bb4f6"/><stop offset="0.61" stop-color="#2191e5"/><stop offset="1" stop-color="#007edb"/></linearGradient></defs><g id="Layer_11" data-name="Layer 11"><rect class="cls-1" x="3.25" y="3.25" width="57.5" height="57.5" rx="12.75"/><path class="cls-2" d="M49.86,15.16H14.14a2.9,2.9,0,0,0-2.89,2.89V45.94A2.85,2.85,0,0,0,13,48.6a3,3,0,0,0,1.16.24,2.89,2.89,0,0,0,2-.79L21,43.47a1.37,1.37,0,0,1,1-.38H49.86a2.9,2.9,0,0,0,2.89-2.9V18.05A2.9,2.9,0,0,0,49.86,15.16Zm1.39,25a1.4,1.4,0,0,1-1.39,1.4H22a2.93,2.93,0,0,0-2,.78L15.1,47a1.36,1.36,0,0,1-1.51.26,1.34,1.34,0,0,1-.84-1.28V18.05a1.39,1.39,0,0,1,1.39-1.39H49.86a1.39,1.39,0,0,1,1.39,1.39Z"/><path class="cls-2" d="M32,27.16a.76.76,0,0,0-.75.75v8.14a.75.75,0,0,0,1.5,0V27.91A.76.76,0,0,0,32,27.16Z"/><circle class="cls-2" cx="32" cy="23.35" r="0.75"/></g></svg>
