<svg id="Layer_2" height="512" viewBox="0 0 64 64" width="512" xmlns="http://www.w3.org/2000/svg" xmlns:xlink="http://www.w3.org/1999/xlink" data-name="Layer 2"><linearGradient id="linear-gradient" gradientUnits="userSpaceOnUse" x1="3.25" x2="60.75" y1="32" y2="32"><stop offset="0" stop-color="#5bb4f6"/><stop offset=".61" stop-color="#2191e5"/><stop offset="1" stop-color="#007edb"/></linearGradient><rect fill="url(#linear-gradient)" height="57.5" rx="12.75" width="57.5" x="3.25" y="3.25"/><g fill="#fff"><path d="m52.56 33.68a.73.73 0 0 0 -.55-.25 8.17 8.17 0 0 1 -8-7.37.73.73 0 0 0 -.32-.54.75.75 0 0 0 -.63-.1 8 8 0 0 1 -2.15.29 8.16 8.16 0 0 1 -6.35-13.28.79.79 0 0 0 .11-.77.75.75 0 0 0 -.63-.45c-.73-.07-1.4-.1-2-.1a20.89 20.89 0 1 0 20.71 23.15.77.77 0 0 0 -.19-.58zm-20.56 17.71a19.39 19.39 0 0 1 0-38.78h.6a9.66 9.66 0 0 0 8.31 14.59 9.85 9.85 0 0 0 1.73-.15 9.65 9.65 0 0 0 8.53 7.82 19.34 19.34 0 0 1 -19.17 16.52z"/><path d="m25.43 25.39a.91.91 0 1 0 .92.91.91.91 0 0 0 -.92-.91z"/><path d="m20.4 35.46a.91.91 0 1 0 .91.91.91.91 0 0 0 -.91-.91z"/><path d="m34.78 32.58a.91.91 0 1 0 0 1.82.91.91 0 1 0 0-1.82z"/><path d="m44.13 39.05a.92.92 0 1 0 .87.95.92.92 0 0 0 -.87-.95z"/><path d="m30.47 38.33a.92.92 0 1 0 .91.92.92.92 0 0 0 -.91-.92z"/><path d="m32.63 44.81a.91.91 0 1 0 .91.91.92.92 0 0 0 -.91-.91z"/></g></svg>