<svg height="512" viewBox="0 0 64 64" width="512" xmlns="http://www.w3.org/2000/svg" xmlns:xlink="http://www.w3.org/1999/xlink"><linearGradient id="linear-gradient" gradientUnits="userSpaceOnUse" x1="3.25" x2="60.75" y1="32" y2="32"><stop offset="0" stop-color="#5bb4f6"/><stop offset=".61" stop-color="#2191e5"/><stop offset="1" stop-color="#007edb"/></linearGradient><g id="Layer_18" data-name="Layer 18"><rect fill="url(#linear-gradient)" height="57.5" rx="12.75" width="57.5" x="3.25" y="3.25"/><path d="m32 7c-10.06 0-20.75 2.47-20.75 7.06v35.88c0 4.59 10.69 7.06 20.75 7.06s20.75-2.48 20.75-7.07v-35.87c0-4.59-10.69-7.06-20.75-7.06zm-19.25 9.83c3.25 2.8 11.46 4.29 19.25 4.29s16-1.49 19.25-4.29v9.17c0 2.63-7.91 5.56-19.25 5.56s-19.25-2.91-19.25-5.56zm0 12c3.25 2.77 11.46 4.25 19.25 4.25s16-1.48 19.25-4.29v9.21c0 2.63-7.91 5.57-19.25 5.57s-19.25-2.96-19.25-5.57zm19.25-20.34c11.34 0 19.25 2.93 19.25 5.57s-7.91 5.56-19.25 5.56-19.25-2.93-19.25-5.56 7.91-5.57 19.25-5.57zm0 47c-11.34 0-19.25-2.93-19.25-5.57v-9.17c3.25 2.81 11.46 4.3 19.25 4.3s16-1.49 19.25-4.3v9.19c0 2.64-7.91 5.57-19.25 5.57z" fill="#fff"/></g></svg>