<svg height="512" viewBox="0 0 64 64" width="512" xmlns="http://www.w3.org/2000/svg" xmlns:xlink="http://www.w3.org/1999/xlink"><linearGradient id="linear-gradient" gradientUnits="userSpaceOnUse" x1="3.25" x2="60.75" y1="32" y2="32"><stop offset="0" stop-color="#5bb4f6"/><stop offset=".61" stop-color="#2191e5"/><stop offset="1" stop-color="#007edb"/></linearGradient><g id="Layer_46" data-name="Layer 46"><rect fill="url(#linear-gradient)" height="57.5" rx="12.75" width="57.5" x="3.25" y="3.25"/><g fill="#fff"><path d="m43.84 52.76h-23.68a8.93 8.93 0 0 1 -8.92-8.92v-23.68a8.93 8.93 0 0 1 8.92-8.92h23.68a8.93 8.93 0 0 1 8.92 8.92v23.68a8.93 8.93 0 0 1 -8.92 8.92zm-23.68-40a7.43 7.43 0 0 0 -7.42 7.42v23.66a7.43 7.43 0 0 0 7.42 7.42h23.68a7.43 7.43 0 0 0 7.42-7.42v-23.68a7.43 7.43 0 0 0 -7.42-7.42z"/><path d="m43.35 39.67a3.7 3.7 0 1 0 3.7 3.69 3.7 3.7 0 0 0 -3.7-3.69zm0 5.89a2.2 2.2 0 1 1 2.2-2.2 2.2 2.2 0 0 1 -2.2 2.2z"/><path d="m43.35 24.34a3.7 3.7 0 1 0 -3.69-3.69 3.7 3.7 0 0 0 3.69 3.69zm0-5.89a2.2 2.2 0 1 1 -2.19 2.2 2.21 2.21 0 0 1 2.19-2.2z"/><path d="m20.65 39.67a3.7 3.7 0 1 0 3.69 3.69 3.7 3.7 0 0 0 -3.69-3.69zm0 5.89a2.2 2.2 0 1 1 2.19-2.2 2.21 2.21 0 0 1 -2.19 2.2z"/><path d="m20.65 17a3.7 3.7 0 1 0 3.69 3.7 3.7 3.7 0 0 0 -3.69-3.7zm0 5.89a2.2 2.2 0 1 1 2.19-2.19 2.2 2.2 0 0 1 -2.19 2.14z"/></g></g></svg>