<svg height="512" viewBox="0 0 64 64" width="512" xmlns="http://www.w3.org/2000/svg" xmlns:xlink="http://www.w3.org/1999/xlink"><linearGradient id="linear-gradient" gradientUnits="userSpaceOnUse" x1="3.25" x2="60.75" y1="32" y2="32"><stop offset="0" stop-color="#5bb4f6"/><stop offset=".61" stop-color="#2191e5"/><stop offset="1" stop-color="#007edb"/></linearGradient><g id="Layer_49" data-name="Layer 49"><rect fill="url(#linear-gradient)" height="57.5" rx="12.75" width="57.5" x="3.25" y="3.25"/><g fill="#fff"><path d="m43.82 52.75h-23.64a8.93 8.93 0 0 1 -8.93-8.93v-23.64a8.93 8.93 0 0 1 8.93-8.93h23.64a8.93 8.93 0 0 1 8.93 8.93v23.64a8.93 8.93 0 0 1 -8.93 8.93zm-23.64-40a7.43 7.43 0 0 0 -7.43 7.43v23.64a7.43 7.43 0 0 0 7.43 7.43h23.64a7.43 7.43 0 0 0 7.43-7.43v-23.64a7.43 7.43 0 0 0 -7.43-7.43z"/><path d="m32 40.85a8.85 8.85 0 1 1 8.85-8.85 8.86 8.86 0 0 1 -8.85 8.85zm0-16.2a7.35 7.35 0 1 0 7.35 7.35 7.36 7.36 0 0 0 -7.35-7.35z"/></g></g></svg>