<svg height="512" viewBox="0 0 64 64" width="512" xmlns="http://www.w3.org/2000/svg" xmlns:xlink="http://www.w3.org/1999/xlink"><linearGradient id="linear-gradient" gradientUnits="userSpaceOnUse" x1="3.25" x2="60.75" y1="32" y2="32"><stop offset="0" stop-color="#5bb4f6"/><stop offset=".61" stop-color="#2191e5"/><stop offset="1" stop-color="#007edb"/></linearGradient><g id="Layer_17" data-name="Layer 17"><rect fill="url(#linear-gradient)" height="57.5" rx="12.75" width="57.5" x="3.25" y="3.25"/><g fill="#fff"><path d="m40.57 22.68h-17.14a.74.74 0 0 0 -.75.75v17.14a.74.74 0 0 0 .75.75h17.14a.74.74 0 0 0 .75-.75v-17.14a.74.74 0 0 0 -.75-.75zm-16.39 17.14v-15.64h15.64v15.64z"/><path d="m52 22.68h-7.14a.75.75 0 0 0 -.75.75v20.68h-20.68a.75.75 0 0 0 -.75.75v7.14a.75.75 0 0 0 .75.75h28.57a.76.76 0 0 0 .75-.75v-28.57a.75.75 0 0 0 -.75-.75zm-.75 28.57h-27.07v-5.64h20.68a.74.74 0 0 0 .75-.75v-20.68h5.64z"/><path d="m41.32 19.14v-7.14a.75.75 0 0 0 -.75-.75h-28.57a.76.76 0 0 0 -.75.75v28.57a.75.75 0 0 0 .75.75h7.14a.75.75 0 0 0 .75-.75v-20.68h20.68a.75.75 0 0 0 .75-.75zm-1.5-.75h-20.68a.74.74 0 0 0 -.75.75v20.68h-5.64v-27.07h27.07z"/></g></g></svg>