<svg height="512" viewBox="0 0 64 64" width="512" xmlns="http://www.w3.org/2000/svg" xmlns:xlink="http://www.w3.org/1999/xlink"><linearGradient id="linear-gradient" gradientUnits="userSpaceOnUse" x1="3.25" x2="60.75" y1="32" y2="32"><stop offset="0" stop-color="#5bb4f6"/><stop offset=".61" stop-color="#2191e5"/><stop offset="1" stop-color="#007edb"/></linearGradient><g id="Layer_3" data-name="Layer 3"><rect fill="url(#linear-gradient)" height="57.5" rx="12.75" width="57.5" x="3.25" y="3.25"/><g fill="#fff"><path d="m46.44 13.54-20.44-2.29a.77.77 0 0 0 -.58.19.75.75 0 0 0 -.25.56v2h-7.52a.74.74 0 0 0 -.75.75v34.46a.74.74 0 0 0 .75.75h7.54v2a.75.75 0 0 0 .25.56.78.78 0 0 0 .5.19h.06l20.42-2.29a.74.74 0 0 0 .66-.75v-35.38a.74.74 0 0 0 -.64-.75zm-28 34.92v-32.92h6.79v32.92zm27.16.54-18.91 2.16v-38.32l18.91 2.16z"/><path d="m32 34.59a.76.76 0 0 0 .75-.75v-3.68a.75.75 0 1 0 -1.5 0v3.68a.76.76 0 0 0 .75.75z"/></g></g></svg>