<svg height="512" viewBox="0 0 64 64" width="512" xmlns="http://www.w3.org/2000/svg" xmlns:xlink="http://www.w3.org/1999/xlink"><linearGradient id="linear-gradient" gradientUnits="userSpaceOnUse" x1="3.25" x2="60.75" y1="32" y2="32"><stop offset="0" stop-color="#5bb4f6"/><stop offset=".61" stop-color="#2191e5"/><stop offset="1" stop-color="#007edb"/></linearGradient><g id="Layer_29" data-name="Layer 29"><rect fill="url(#linear-gradient)" height="57.5" rx="12.75" width="57.5" x="3.25" y="3.25"/><path d="m51.14 12.47a.75.75 0 0 0 -.58-1.22h-37.12a.75.75 0 0 0 -.58 1.22l18.39 22.65v16.13h-5.07a.75.75 0 0 0 0 1.5h11.64a.75.75 0 0 0 0-1.5h-5.07v-16.13zm-30.36 7.37h22.44l-11.22 13.82zm28.22-7.09-4.54 5.59h-24.9l-4.56-5.59z" fill="#fff"/></g></svg>