<svg height="512" viewBox="0 0 64 64" width="512" xmlns="http://www.w3.org/2000/svg" xmlns:xlink="http://www.w3.org/1999/xlink"><linearGradient id="linear-gradient" gradientUnits="userSpaceOnUse" x1="3.25" x2="60.75" y1="32" y2="32"><stop offset="0" stop-color="#5bb4f6"/><stop offset=".61" stop-color="#2191e5"/><stop offset="1" stop-color="#007edb"/></linearGradient><g id="Layer_77" data-name="Layer 77"><rect fill="url(#linear-gradient)" height="57.5" rx="12.75" width="57.5" x="3.25" y="3.25"/><g fill="#fff"><path d="m12.59 46.42 7.32-.19a.72.72 0 0 0 .51-.22l23.86-23.86a5.78 5.78 0 0 0 -8.17-8.15l-23.86 23.84a.82.82 0 0 0 -.22.52l-.18 7.29a.75.75 0 0 0 .74.77zm24.59-31.42a4.27 4.27 0 0 1 6 6.05l-2.67 2.67-6-6zm-23.66 23.69 19.92-19.91 6.05 6-19.92 19.96-6.21.16z"/><path d="m52 50.21h-40a.75.75 0 0 0 0 1.5h40a.75.75 0 0 0 0-1.5z"/></g></g></svg>