<svg height="512" viewBox="0 0 64 64" width="512" xmlns="http://www.w3.org/2000/svg" xmlns:xlink="http://www.w3.org/1999/xlink"><linearGradient id="linear-gradient" gradientUnits="userSpaceOnUse" x1="3.25" x2="60.75" y1="32" y2="32"><stop offset="0" stop-color="#5bb4f6"/><stop offset=".61" stop-color="#2191e5"/><stop offset="1" stop-color="#007edb"/></linearGradient><g id="Layer_13" data-name="Layer 13"><rect fill="url(#linear-gradient)" height="57.5" rx="12.75" width="57.5" x="3.25" y="3.25"/><path d="m52.66 26.46a1.08 1.08 0 0 0 -.32-.32l-20-11.93a.74.74 0 0 0 -.76 0l-20 12a.84.84 0 0 0 -.37.65v22.28a.77.77 0 0 0 .75.75h40.04a.77.77 0 0 0 .75-.75v-22.33a.82.82 0 0 0 -.09-.35zm-25.54 10.22 4.5 2.68a.71.71 0 0 0 .76 0l4.5-2.68 13.12 11.71h-36zm-14.37 10.79v-19.34l13 7.75zm25.48-11.59 13-7.75v19.34zm-6.23-20.15 18.53 11.08-18.53 11.03-18.54-11z" fill="#fff"/></g></svg>