<svg height="512" viewBox="0 0 64 64" width="512" xmlns="http://www.w3.org/2000/svg" xmlns:xlink="http://www.w3.org/1999/xlink"><linearGradient id="linear-gradient" gradientUnits="userSpaceOnUse" x1="3.25" x2="60.75" y1="32" y2="32"><stop offset="0" stop-color="#5bb4f6"/><stop offset=".61" stop-color="#2191e5"/><stop offset="1" stop-color="#007edb"/></linearGradient><g id="Layer_101" data-name="Layer 101"><rect fill="url(#linear-gradient)" height="57.5" rx="12.75" width="57.5" x="3.25" y="3.25"/><g fill="#fff"><path d="m52 26a.76.76 0 0 0 -.75.75v10.25a.75.75 0 0 0 1.5 0v-10.22a.76.76 0 0 0 -.75-.78z"/><path d="m46.29 14.21a.75.75 0 0 0 -.75.75v33.9a.75.75 0 0 0 1.5 0v-33.86a.76.76 0 0 0 -.75-.79z"/><path d="m40.57 19.73a.75.75 0 0 0 -.75.75v22.86a.75.75 0 0 0 1.5 0v-22.86a.75.75 0 0 0 -.75-.75z"/><path d="m34.86 26a.75.75 0 0 0 -.75.75v10.25a.75.75 0 0 0 1.5 0v-10.22a.76.76 0 0 0 -.75-.78z"/><path d="m29.14 22.57a.75.75 0 0 0 -.75.75v17.18a.75.75 0 0 0 1.5 0v-17.18a.75.75 0 0 0 -.75-.75z"/><path d="m23.43 17.21a.74.74 0 0 0 -.75.75v27.9a.75.75 0 0 0 1.5 0v-27.86a.75.75 0 0 0 -.75-.79z"/><path d="m17.71 22.57a.75.75 0 0 0 -.75.75v17.18a.75.75 0 0 0 1.5 0v-17.18a.74.74 0 0 0 -.75-.75z"/><path d="m12 26.73a.75.75 0 0 0 -.75.75v8.85a.75.75 0 0 0 1.5 0v-8.85a.76.76 0 0 0 -.75-.75z"/></g></g></svg>