<svg height="512" viewBox="0 0 64 64" width="512" xmlns="http://www.w3.org/2000/svg" xmlns:xlink="http://www.w3.org/1999/xlink"><linearGradient id="linear-gradient" gradientUnits="userSpaceOnUse" x1="3.25" x2="60.75" y1="32" y2="32"><stop offset="0" stop-color="#5bb4f6"/><stop offset=".61" stop-color="#2191e5"/><stop offset="1" stop-color="#007edb"/></linearGradient><g id="Layer_30" data-name="Layer 30"><rect fill="url(#linear-gradient)" height="57.5" rx="12.75" width="57.5" x="3.25" y="3.25"/><path d="m52 49.62h-20.95l19.75-19.74a3.22 3.22 0 0 0 0-4.53l-11.43-11.42a3.2 3.2 0 0 0 -4.53 0l-22.65 22.66a3.19 3.19 0 0 0 0 4.52l9.81 9.79a.77.77 0 0 0 .53.22h29.47a.75.75 0 0 0 0-1.5zm-16.1-34.62a1.71 1.71 0 0 1 2.41 0l11.43 11.41a1.71 1.71 0 0 1 0 2.41l-6 6-13.74-13.88zm-23.15 23.85a1.7 1.7 0 0 1 .5-1.2l15.64-15.65 13.83 13.83-13.79 13.79h-6.11l-9.57-9.57a1.7 1.7 0 0 1 -.5-1.2z" fill="#fff"/></g></svg>