<svg height="512" viewBox="0 0 64 64" width="512" xmlns="http://www.w3.org/2000/svg" xmlns:xlink="http://www.w3.org/1999/xlink"><linearGradient id="linear-gradient" gradientUnits="userSpaceOnUse" x1="3.25" x2="60.75" y1="32" y2="32"><stop offset="0" stop-color="#5bb4f6"/><stop offset=".61" stop-color="#2191e5"/><stop offset="1" stop-color="#007edb"/></linearGradient><g id="Layer_87" data-name="Layer 87"><rect fill="url(#linear-gradient)" height="57.5" rx="12.75" width="57.5" x="3.25" y="3.25"/><g fill="#fff"><path d="m52.56 31.5c-.37-.42-9.31-10.33-20.56-10.33s-20.19 9.91-20.56 10.33a.76.76 0 0 0 0 1c.37.42 9.31 10.33 20.56 10.33s20.19-9.91 20.56-10.33a.76.76 0 0 0 0-1zm-20.56 9.83c-9.17 0-17-7.33-19-9.33 2-2 9.8-9.33 19-9.33s17 7.33 19 9.33c-2 2-9.83 9.33-19 9.33z"/><path d="m26.55 32a5.45 5.45 0 0 0 10.9 0 .76.76 0 0 0 -.75-.75 4 4 0 0 1 -4-3.95.76.76 0 0 0 -.75-.75 5.46 5.46 0 0 0 -5.4 5.45zm9.33.68a3.94 3.94 0 1 1 -4.56-4.56 5.43 5.43 0 0 0 4.56 4.56z"/></g></g></svg>