<svg height="512" viewBox="0 0 64 64" width="512" xmlns="http://www.w3.org/2000/svg" xmlns:xlink="http://www.w3.org/1999/xlink"><linearGradient id="linear-gradient" gradientUnits="userSpaceOnUse" x1="3.25" x2="60.75" y1="32" y2="32"><stop offset="0" stop-color="#5bb4f6"/><stop offset=".61" stop-color="#2191e5"/><stop offset="1" stop-color="#007edb"/></linearGradient><g id="Layer_51" data-name="Layer 51"><rect fill="url(#linear-gradient)" height="57.5" rx="12.75" width="57.5" x="3.25" y="3.25"/><path d="m52.69 32.74-5.69-14.58a.74.74 0 0 0 -.69-.48h-5.45a.75.75 0 0 0 0 1.5h4.91l5.13 13.11h-10.9a5.08 5.08 0 0 0 -5.08 5.07v1.19h-5.84v-1.19a5.08 5.08 0 0 0 -5.08-5.07h-10.9l5.13-13.11h4.91a.75.75 0 0 0 0-1.5h-5.43a.74.74 0 0 0 -.69.48l-5.71 14.58c0 .1 0 .2-.06.3v8.21a5.08 5.08 0 0 0 5.07 5.07h7.68a5.08 5.08 0 0 0 5.08-5.07v-1.2h5.84v1.2a5.08 5.08 0 0 0 5.08 5.07h7.68a5.08 5.08 0 0 0 5.07-5.07v-8.25a1.59 1.59 0 0 0 -.06-.26zm-25.11 8.51a3.58 3.58 0 0 1 -3.58 3.57h-7.68a3.57 3.57 0 0 1 -3.57-3.57v-7.46h11.25a3.58 3.58 0 0 1 3.58 3.57zm23.67 0a3.57 3.57 0 0 1 -3.57 3.57h-7.68a3.58 3.58 0 0 1 -3.58-3.57v-3.89a3.58 3.58 0 0 1 3.58-3.57h11.25z" fill="#fff"/></g></svg>