<svg height="512" viewBox="0 0 64 64" width="512" xmlns="http://www.w3.org/2000/svg" xmlns:xlink="http://www.w3.org/1999/xlink"><linearGradient id="linear-gradient" gradientUnits="userSpaceOnUse" x1="3.25" x2="60.75" y1="32" y2="32"><stop offset="0" stop-color="#5bb4f6"/><stop offset=".61" stop-color="#2191e5"/><stop offset="1" stop-color="#007edb"/></linearGradient><g id="Layer_66" data-name="Layer 66"><rect fill="url(#linear-gradient)" height="57.5" rx="12.75" width="57.5" x="3.25" y="3.25"/><g fill="#fff"><path d="m52.46 29.3-20-15.75a.75.75 0 0 0 -.92 0l-20 15.75a.74.74 0 0 0 -.13 1.05.75.75 0 0 0 1.05.12l4.21-3.31v22.7a.76.76 0 0 0 .75.75h29.16a.76.76 0 0 0 .75-.75v-22.7l4.21 3.31a.72.72 0 0 0 .46.16.74.74 0 0 0 .46-1.33zm-6.63 19.81h-27.66v-23.11l13.83-10.9 13.83 10.9z"/><path d="m26.66 29.65a5.14 5.14 0 0 0 -3.66 8.73l8.44 8.44a.75.75 0 0 0 1.06 0l8.5-8.44c4.63-4.93-2.3-11.87-7.24-7.24l-1.76 1.73c-1.43-1.48-3.07-3.35-5.34-3.22zm5.87 4.81 2.26-2.26a3.62 3.62 0 0 1 5.12 5.12l-7.91 7.91-7.91-7.91c-3.29-3.46 1.67-8.4 5.12-5.12l2.26 2.26a.74.74 0 0 0 1.06 0z"/></g></g></svg>