<svg height="512" viewBox="0 0 64 64" width="512" xmlns="http://www.w3.org/2000/svg" xmlns:xlink="http://www.w3.org/1999/xlink"><linearGradient id="linear-gradient" gradientUnits="userSpaceOnUse" x1="3.25" x2="60.75" y1="32" y2="32"><stop offset="0" stop-color="#5bb4f6"/><stop offset=".61" stop-color="#2191e5"/><stop offset="1" stop-color="#007edb"/></linearGradient><g id="Layer_65" data-name="Layer 65"><rect fill="url(#linear-gradient)" height="57.5" rx="12.75" width="57.5" x="3.25" y="3.25"/><g fill="#fff"><path d="m11.7 28.55 20 9.82a.72.72 0 0 0 .66 0l20-9.82a.73.73 0 0 0 .42-.67.74.74 0 0 0 -.42-.67l-20-9.82a.76.76 0 0 0 -.66 0l-20 9.82a.74.74 0 0 0 -.42.67.73.73 0 0 0 .42.67zm20.3-9.65 18.27 9-18.27 8.96-18.27-9z"/><path d="m11.7 34.27 20 9.81a.72.72 0 0 0 .66 0l20-9.81a.75.75 0 1 0 -.66-1.35l-19.7 9.65-19.64-9.65a.75.75 0 1 0 -.66 1.35z"/><path d="m51.64 38.63-19.64 9.66-19.64-9.66a.75.75 0 0 0 -.67 1.37l20 9.81a.72.72 0 0 0 .66 0l20-9.81a.75.75 0 0 0 -.67-1.35z"/><path d="m42.53 15.63h7.47a.75.75 0 0 0 0-1.5h-7.47a.75.75 0 0 0 0 1.5z"/></g></g></svg>