<svg height="512" viewBox="0 0 64 64" width="512" xmlns="http://www.w3.org/2000/svg" xmlns:xlink="http://www.w3.org/1999/xlink"><linearGradient id="linear-gradient" gradientUnits="userSpaceOnUse" x1="3.25" x2="60.75" y1="32" y2="32"><stop offset="0" stop-color="#5bb4f6"/><stop offset=".61" stop-color="#2191e5"/><stop offset="1" stop-color="#007edb"/></linearGradient><g id="Layer_64" data-name="Layer 64"><rect fill="url(#linear-gradient)" height="57.5" rx="12.75" width="57.5" x="3.25" y="3.25"/><g fill="#fff"><path d="m11.67 30.42 20 9.83a.72.72 0 0 0 .66 0l20-9.83a.75.75 0 0 0 .42-.67.73.73 0 0 0 -.42-.67l-20-9.83a.7.7 0 0 0 -.66 0l-20 9.83a.73.73 0 0 0 -.42.67.75.75 0 0 0 .42.67zm20.33-9.67 18.3 9-18.3 9-18.3-9z"/><path d="m11.67 36.14 20 9.83a.72.72 0 0 0 .66 0l20-9.83a.74.74 0 0 0 .34-1 .75.75 0 0 0 -1-.35l-19.67 9.67-19.67-9.67a.75.75 0 0 0 -1 .35.74.74 0 0 0 .34 1z"/><path d="m51.67 40.51-19.67 9.67-19.67-9.67a.75.75 0 0 0 -.66 1.35l20 9.83a.81.81 0 0 0 .66 0l20-9.83a.74.74 0 0 0 .34-1 .75.75 0 0 0 -1-.35z"/><path d="m42.54 17.48h3v3a.75.75 0 0 0 1.5 0v-3h3a.75.75 0 0 0 -.04-1.48h-3v-3a.75.75 0 0 0 -1.5 0v3h-3a.75.75 0 0 0 0 1.5z"/></g></g></svg>