<svg height="512" viewBox="0 0 64 64" width="512" xmlns="http://www.w3.org/2000/svg" xmlns:xlink="http://www.w3.org/1999/xlink"><linearGradient id="linear-gradient" gradientUnits="userSpaceOnUse" x1="3.25" x2="60.75" y1="32" y2="32"><stop offset="0" stop-color="#5bb4f6"/><stop offset=".61" stop-color="#2191e5"/><stop offset="1" stop-color="#007edb"/></linearGradient><g id="Layer_62" data-name="Layer 62"><rect fill="url(#linear-gradient)" height="57.5" rx="12.75" width="57.5" x="3.25" y="3.25"/><g fill="#fff"><path d="m32 25.85a6.15 6.15 0 1 0 6.15 6.15 6.16 6.16 0 0 0 -6.15-6.15zm0 10.8a4.65 4.65 0 1 1 4.65-4.65 4.65 4.65 0 0 1 -4.65 4.65z"/><path d="m52 31.25h-5a15 15 0 0 0 -14.25-14.25v-5a.75.75 0 0 0 -1.5 0v5a15 15 0 0 0 -14.25 14.25h-5a.75.75 0 0 0 0 1.5h5a15 15 0 0 0 14.25 14.25v5a.75.75 0 0 0 1.5 0v-5a15 15 0 0 0 14.25-14.25h5a.75.75 0 0 0 0-1.5zm-20 14.29a13.54 13.54 0 1 1 13.54-13.54 13.56 13.56 0 0 1 -13.54 13.54z"/></g></g></svg>