<svg height="512" viewBox="0 0 64 64" width="512" xmlns="http://www.w3.org/2000/svg" xmlns:xlink="http://www.w3.org/1999/xlink"><linearGradient id="linear-gradient" gradientUnits="userSpaceOnUse" x1="3.25" x2="60.75" y1="32" y2="32"><stop offset="0" stop-color="#5bb4f6"/><stop offset=".61" stop-color="#2191e5"/><stop offset="1" stop-color="#007edb"/></linearGradient><g id="Layer_92" data-name="Layer 92"><rect fill="url(#linear-gradient)" height="57.5" rx="12.75" width="57.5" x="3.25" y="3.25"/><g fill="#fff"><path d="m52 11.25h-10.71a.75.75 0 0 0 -.75.75v20a8.54 8.54 0 0 1 -17.08 0v-20a.75.75 0 0 0 -.75-.75h-10.71a.76.76 0 0 0 -.75.75v20a20.75 20.75 0 0 0 41.5 0v-20a.76.76 0 0 0 -.75-.75zm-.75 20h-9.25v-18.5h9.21zm-29.25-18.5v18.5h-9.25v-18.5zm10 38.5a19.25 19.25 0 0 1 -19.21-18.5h9.21a10 10 0 0 0 20 0h9.21a19.25 19.25 0 0 1 -19.21 18.5z"/><path d="m33.43 29.76a.74.74 0 0 0 .6.3.82.82 0 0 0 .45-.14.76.76 0 0 0 .16-1.05l-3.19-4.33h2.55a.75.75 0 0 0 .67-.4.73.73 0 0 0 -.06-.78l-4-5.52a.74.74 0 0 0 -1-.17.73.73 0 0 0 -.17 1l3.13 4.33h-2.57a.76.76 0 0 0 -.61 1.2z"/></g></g></svg>