<svg height="512" viewBox="0 0 64 64" width="512" xmlns="http://www.w3.org/2000/svg" xmlns:xlink="http://www.w3.org/1999/xlink"><linearGradient id="linear-gradient" gradientUnits="userSpaceOnUse" x1="3.25" x2="60.75" y1="32" y2="32"><stop offset="0" stop-color="#5bb4f6"/><stop offset=".61" stop-color="#2191e5"/><stop offset="1" stop-color="#007edb"/></linearGradient><g id="Layer_61" data-name="Layer 61"><rect fill="url(#linear-gradient)" height="57.5" rx="12.75" width="57.5" x="3.25" y="3.25"/><g fill="#fff"><path d="m49.7 11.39a.73.73 0 0 0 -.67-.1l-5.33 1.71a38.47 38.47 0 0 1 -23.4 0l-5.3-1.71a.73.73 0 0 0 -.67.1.78.78 0 0 0 -.33.61v17.33a25.89 25.89 0 0 0 9.45 20l3.89 3.21a.74.74 0 0 0 .48.17h8.38a.74.74 0 0 0 .48-.17l3.89-3.21a25.89 25.89 0 0 0 9.45-20v-17.33a.78.78 0 0 0 -.32-.61zm-1.19 17.94a24.43 24.43 0 0 1 -8.9 18.88l-3.69 3h-7.84l-3.69-3a24.43 24.43 0 0 1 -8.9-18.88v-16.33l4.36 1.38a40 40 0 0 0 24.3 0l4.36-1.38z"/><path d="m26.86 26.88a.75.75 0 0 0 1.5 0 4.27 4.27 0 0 0 -8.53 0 .75.75 0 0 0 1.5 0 2.77 2.77 0 0 1 5.53 0z"/><path d="m39.9 22.62a4.26 4.26 0 0 0 -4.26 4.26.75.75 0 0 0 1.5 0 2.77 2.77 0 0 1 5.53 0 .75.75 0 0 0 1.5 0 4.27 4.27 0 0 0 -4.27-4.26z"/><path d="m39.28 34.35a.79.79 0 0 0 -.57.35 8.16 8.16 0 0 1 -13.42 0 .79.79 0 0 0 -.57-.35.72.72 0 0 0 -.62.25 4.74 4.74 0 0 0 -1.34 3.22c0 3.47 4.06 6.18 9.24 6.18s9.24-2.71 9.24-6.18a4.74 4.74 0 0 0 -1.34-3.22.71.71 0 0 0 -.62-.25zm-7.28 8.15c-4.2 0-7.74-2.14-7.74-4.68a3 3 0 0 1 .39-1.45 9.74 9.74 0 0 0 14.7 0 3 3 0 0 1 .39 1.45c0 2.54-3.54 4.68-7.74 4.68z"/></g></g></svg>