<svg height="512" viewBox="0 0 64 64" width="512" xmlns="http://www.w3.org/2000/svg" xmlns:xlink="http://www.w3.org/1999/xlink"><linearGradient id="linear-gradient" gradientUnits="userSpaceOnUse" x1="3.25" x2="60.75" y1="32" y2="32"><stop offset="0" stop-color="#5bb4f6"/><stop offset=".61" stop-color="#2191e5"/><stop offset="1" stop-color="#007edb"/></linearGradient><g id="Layer_38" data-name="Layer 38"><rect fill="url(#linear-gradient)" height="57.5" rx="12.75" width="57.5" x="3.25" y="3.25"/><g fill="#fff"><path d="m32.75 23.86v-2.8a16.88 16.88 0 0 1 6.93 1.79.76.76 0 0 0 .33.08.8.8 0 0 0 .4-.11.75.75 0 0 0 .35-.64v-10.18a.75.75 0 0 0 -.75-.75h-16.01a.75.75 0 0 0 -.75.75v10.18a.74.74 0 0 0 1.08.67 16.88 16.88 0 0 1 6.93-1.79v2.8a14.46 14.46 0 1 0 1.5 0zm-8-11.11h14.51v8.25a18.78 18.78 0 0 0 -14.52 0zm7.25 38.5a13 13 0 1 1 13-13 13 13 0 0 1 -13 13z"/><path d="m40.26 35.71-5.26-.71-2.33-4.8a.78.78 0 0 0 -1.34 0l-2.33 4.8-5.24.76a.75.75 0 0 0 -.44 1.24l3.8 3.7-.9 5.22a.75.75 0 0 0 1.09.8l4.69-2.48 4.69 2.47a.85.85 0 0 0 .35.08.79.79 0 0 0 .44-.14.75.75 0 0 0 .3-.74l-.9-5.22 3.8-3.7a.75.75 0 0 0 -.42-1.28zm-4.71 4.18a.77.77 0 0 0 -.21.67l.7 4.11-3.69-1.94a.73.73 0 0 0 -.7 0l-3.65 1.94.7-4.11a.77.77 0 0 0 -.21-.67l-3-2.91 4.13-.6a.76.76 0 0 0 .56-.41l1.82-3.74 1.85 3.77a.76.76 0 0 0 .56.41l4.13.6z"/></g></g></svg>