<svg height="512" viewBox="0 0 64 64" width="512" xmlns="http://www.w3.org/2000/svg" xmlns:xlink="http://www.w3.org/1999/xlink"><linearGradient id="linear-gradient" gradientUnits="userSpaceOnUse" x1="3.25" x2="60.75" y1="32" y2="32"><stop offset="0" stop-color="#5bb4f6"/><stop offset=".61" stop-color="#2191e5"/><stop offset="1" stop-color="#007edb"/></linearGradient><g id="Layer_82" data-name="Layer 82"><rect fill="url(#linear-gradient)" height="57.5" rx="12.75" width="57.5" x="3.25" y="3.25"/><g fill="#fff"><path d="m48.52 22.58-11.11-11.11a.75.75 0 0 0 -.53-.22h-20.88a.76.76 0 0 0 -.75.75v40a.76.76 0 0 0 .75.75h32a.76.76 0 0 0 .75-.75v-28.89a.75.75 0 0 0 -.23-.53zm-1.28 28.67h-30.48v-38.5h19.81l10.67 10.67z"/><path d="m21.39 15.69a.74.74 0 0 0 -.75.75v6.67a.75.75 0 0 0 1.5 0v-6.67a.75.75 0 0 0 -.75-.75z"/><path d="m27.66 15.69a.75.75 0 0 0 -.75.75v6.67a.75.75 0 0 0 1.5 0v-6.67a.74.74 0 0 0 -.75-.75z"/><path d="m33.94 15.69a.75.75 0 0 0 -.75.75v6.67a.75.75 0 0 0 1.5 0v-6.67a.74.74 0 0 0 -.75-.75z"/></g></g></svg>