<svg height="512" viewBox="0 0 64 64" width="512" xmlns="http://www.w3.org/2000/svg" xmlns:xlink="http://www.w3.org/1999/xlink"><linearGradient id="linear-gradient" gradientUnits="userSpaceOnUse" x1="3.25" x2="60.75" y1="32" y2="32"><stop offset="0" stop-color="#5bb4f6"/><stop offset=".61" stop-color="#2191e5"/><stop offset="1" stop-color="#007edb"/></linearGradient><g id="Layer_14" data-name="Layer 14"><rect fill="url(#linear-gradient)" height="57.5" rx="12.75" width="57.5" x="3.25" y="3.25"/><g fill="#fff"><path d="m19 37.4a5.41 5.41 0 1 0 7.65 0 5.41 5.41 0 0 0 -7.65 0zm6.54 6.6a3.91 3.91 0 1 1 0-5.53 3.92 3.92 0 0 1 0 5.53z"/><path d="m52.64 18.8a.75.75 0 0 0 -.93-.3l-10.91 4.5 4.7-10.7a.75.75 0 0 0 -1.26-.79l-12.75 14.77c.88-3.14 2.44-8.28 3.51-11.81a.75.75 0 0 0 -1.31-.69l-11.58 14.8-.11-4.29a.75.75 0 0 0 -1.37-.39l-7.4 11a11.49 11.49 0 0 0 1.37 14.5 11.47 11.47 0 0 0 14.46 1.41l11-7.4a.75.75 0 0 0 -.36-1.41l-4.28-.14 14.8-11.62a.77.77 0 0 0 .2-.94.75.75 0 0 0 -.89-.36c-3.54 1.1-8.66 2.66-11.8 3.54l14.76-12.72a.75.75 0 0 0 .15-.96zm-18.15 14.53a.81.81 0 0 0 -.19 1c.35.61.45.8 11.79-2.7l-13.21 10.37a.74.74 0 0 0 -.25.82.75.75 0 0 0 .69.52l4 .13-9.09 6.11a10 10 0 0 1 -12.57-1.22 10 10 0 0 1 -1.22-12.58l6.1-9.1.14 4a.75.75 0 0 0 1.34.44l10.38-13.22c-3.5 11.35-3.31 11.46-2.7 11.8a.82.82 0 0 0 1-.18l11.42-13.26-3.44 7.86a.75.75 0 0 0 .15.83.67.67 0 0 0 .17.05s.05.06.09.07a.73.73 0 0 0 .58 0l8.33-3.4z"/></g></g></svg>