<svg height="512" viewBox="0 0 64 64" width="512" xmlns="http://www.w3.org/2000/svg" xmlns:xlink="http://www.w3.org/1999/xlink"><linearGradient id="linear-gradient" gradientUnits="userSpaceOnUse" x1="3.25" x2="60.75" y1="32" y2="32"><stop offset="0" stop-color="#5bb4f6"/><stop offset=".61" stop-color="#2191e5"/><stop offset="1" stop-color="#007edb"/></linearGradient><g id="Layer_85" data-name="Layer 85"><rect fill="url(#linear-gradient)" height="57.5" rx="12.75" width="57.5" x="3.25" y="3.25"/><g fill="#fff"><path d="m52 12.94h-40a.75.75 0 0 0 -.75.75v24.5a.76.76 0 0 0 .75.75h40a.76.76 0 0 0 .75-.75v-24.5a.75.75 0 0 0 -.75-.75zm-39.25 10.19a9.05 9.05 0 0 0 8.36-8.69h21.89a9.06 9.06 0 0 0 8.3 8.69v6a9.09 9.09 0 0 0 -8.3 8.31h-21.91a9.07 9.07 0 0 0 -8.34-8.29zm38.5-1.5a7.58 7.58 0 0 1 -6.8-7.19h6.8zm-31.64-7.19a7.57 7.57 0 0 1 -6.86 7.19v-7.19zm-6.86 16.21a7.58 7.58 0 0 1 6.84 6.79h-6.84zm38.5 6.79h-6.78a7.6 7.6 0 0 1 6.78-6.79z"/><path d="m32 32.34a6.41 6.41 0 1 0 -6.4-6.4 6.41 6.41 0 0 0 6.4 6.4zm0-11.34a4.91 4.91 0 1 1 -4.9 4.91 4.91 4.91 0 0 1 4.9-4.91z"/><path d="m47.16 44h-30.32a.75.75 0 0 0 0 1.5h30.32a.75.75 0 0 0 0-1.5z"/><path d="m41.73 49.56h-19.46a.75.75 0 1 0 0 1.5h19.46a.75.75 0 0 0 0-1.5z"/></g></g></svg>