<svg height="512" viewBox="0 0 64 64" width="512" xmlns="http://www.w3.org/2000/svg" xmlns:xlink="http://www.w3.org/1999/xlink"><linearGradient id="linear-gradient" gradientUnits="userSpaceOnUse" x1="3.25" x2="60.75" y1="32" y2="32"><stop offset="0" stop-color="#5bb4f6"/><stop offset=".61" stop-color="#2191e5"/><stop offset="1" stop-color="#007edb"/></linearGradient><g id="Layer_81" data-name="Layer 81"><rect fill="url(#linear-gradient)" height="57.5" rx="12.75" width="57.5" x="3.25" y="3.25"/><g fill="#fff"><path d="m52 14.11h-40a.75.75 0 0 0 -.75.75v27.42a.75.75 0 0 0 .75.72h19.25v5.36h-7.47a.75.75 0 0 0 0 1.5h16.44a.75.75 0 0 0 0-1.5h-7.47v-5.36h19.25a.75.75 0 0 0 .75-.75v-27.39a.75.75 0 0 0 -.75-.75zm-.75 27.42h-38.5v-25.92h38.5z"/><path d="m32 37.56a8.55 8.55 0 0 0 5.64-15 .75.75 0 1 0 -1 1.13 7.05 7.05 0 1 1 -9.3 0 .75.75 0 0 0 -1-1.13 8.55 8.55 0 0 0 5.64 15z"/><path d="m32 29.76a.76.76 0 0 0 .75-.75v-8.68a.75.75 0 0 0 -1.5 0v8.67a.76.76 0 0 0 .75.76z"/></g></g></svg>