<svg height="512" viewBox="0 0 64 64" width="512" xmlns="http://www.w3.org/2000/svg" xmlns:xlink="http://www.w3.org/1999/xlink"><linearGradient id="linear-gradient" gradientUnits="userSpaceOnUse" x1="3.25" x2="60.75" y1="32" y2="32"><stop offset="0" stop-color="#5bb4f6"/><stop offset=".61" stop-color="#2191e5"/><stop offset="1" stop-color="#007edb"/></linearGradient><g id="Layer_20" data-name="Layer 20"><rect fill="url(#linear-gradient)" height="57.5" rx="12.75" width="57.5" x="3.25" y="3.25"/><path d="m52 51.25h-1.91v-12.72a4.73 4.73 0 0 0 -8-3.44v-2.24a10.1 10.1 0 0 0 -9.35-10.06v-2.79a4.43 4.43 0 0 0 1.62-.51.75.75 0 0 0 -.72-1.32 2.87 2.87 0 1 1 -.11-5.17.74.74 0 0 0 1-.35.75.75 0 0 0 -.35-1 4.37 4.37 0 1 0 -2.93 8.17v2.93a10.1 10.1 0 0 0 -9.35 10.1v2.24a4.73 4.73 0 0 0 -8 3.44v12.72h-1.9a.75.75 0 0 0 0 1.5h40a.75.75 0 0 0 0-1.5zm-36.59-12.72a3.25 3.25 0 0 1 6.49 0v12.72h-6.49zm8-5.68a8.6 8.6 0 1 1 17.2 0v18.4h-4.61v-7.48a4 4 0 0 0 -7.92 0v7.48h-4.68zm6.14 18.4v-7.48a2.46 2.46 0 0 1 4.92 0v7.48zm12.56 0v-12.72a3.25 3.25 0 0 1 6.49 0v12.72z" fill="#fff"/></g></svg>