<svg height="512" viewBox="0 0 64 64" width="512" xmlns="http://www.w3.org/2000/svg" xmlns:xlink="http://www.w3.org/1999/xlink"><linearGradient id="linear-gradient" gradientUnits="userSpaceOnUse" x1="3.25" x2="60.75" y1="32" y2="32"><stop offset="0" stop-color="#5bb4f6"/><stop offset=".61" stop-color="#2191e5"/><stop offset="1" stop-color="#007edb"/></linearGradient><g id="Layer_76" data-name="Layer 76"><rect fill="url(#linear-gradient)" height="57.5" rx="12.75" width="57.5" x="3.25" y="3.25"/><path d="m32 11.25a14.42 14.42 0 0 0 -14.41 14.41v12.68a14.41 14.41 0 0 0 28.82 0v-12.68a14.43 14.43 0 0 0 -14.41-14.41zm12.87 13.66h-12.14v-12.12a12.89 12.89 0 0 1 12.14 12.12zm-13.62-12.12v12.12h-12.12a12.9 12.9 0 0 1 12.12-12.12zm.75 38.46a12.92 12.92 0 0 1 -12.91-12.91v-11.93h25.82v11.93a12.92 12.92 0 0 1 -12.91 12.91z" fill="#fff"/></g></svg>