<svg height="512" viewBox="0 0 64 64" width="512" xmlns="http://www.w3.org/2000/svg" xmlns:xlink="http://www.w3.org/1999/xlink"><linearGradient id="linear-gradient" gradientUnits="userSpaceOnUse" x1="3.25" x2="60.75" y1="32" y2="32"><stop offset="0" stop-color="#5bb4f6"/><stop offset=".61" stop-color="#2191e5"/><stop offset="1" stop-color="#007edb"/></linearGradient><g id="Layer_96" data-name="Layer 96"><rect fill="url(#linear-gradient)" height="57.5" rx="12.75" width="57.5" x="3.25" y="3.25"/><path d="m52 11.25h-40a.76.76 0 0 0 -.75.75v40a.76.76 0 0 0 .75.75h26.6a.83.83 0 0 0 .54-.23l13.39-13.39a.81.81 0 0 0 .22-.53v-26.6a.76.76 0 0 0 -.75-.75zm-.75 1.5v4.25h-38.5v-4.25zm-38.5 5.72h38.5v19.38h-12.65a.76.76 0 0 0 -.75.75v12.65h-25.1zm27.41 30.9-.81.82v-10.84h10.84z" fill="#fff"/></g></svg>