<svg height="512" viewBox="0 0 64 64" width="512" xmlns="http://www.w3.org/2000/svg" xmlns:xlink="http://www.w3.org/1999/xlink"><linearGradient id="linear-gradient" gradientUnits="userSpaceOnUse" x1="3.25" x2="60.75" y1="32" y2="32"><stop offset="0" stop-color="#5bb4f6"/><stop offset=".61" stop-color="#2191e5"/><stop offset="1" stop-color="#007edb"/></linearGradient><g id="Layer_74" data-name="Layer 74"><rect fill="url(#linear-gradient)" height="57.5" rx="12.75" width="57.5" x="3.25" y="3.25"/><g fill="#fff"><path d="m44.85 15.15h-5.4v-3.15a.76.76 0 0 0 -.75-.75h-13.4a.76.76 0 0 0 -.75.75v3.15h-5.4a4.42 4.42 0 0 0 -4.41 4.41v28.78a4.42 4.42 0 0 0 4.41 4.41h25.7a4.42 4.42 0 0 0 4.41-4.41v-28.78a4.42 4.42 0 0 0 -4.41-4.41zm-6.85-2.4v4.51h-11.95v-4.51zm-18.8 3.9h5.4v1.35a.76.76 0 0 0 .75.75h13.35a.76.76 0 0 0 .75-.75v-1.35h5.4a2.92 2.92 0 0 1 2.91 2.91v2.54h-31.52v-2.54a2.92 2.92 0 0 1 2.91-2.91zm25.7 34.6h-25.75a2.92 2.92 0 0 1 -2.91-2.91v-24.74h31.52v24.74a2.92 2.92 0 0 1 -2.91 2.91z"/><path d="m41.49 29.45h-19.2a.75.75 0 0 0 0 1.5h19.2a.75.75 0 0 0 0-1.5z"/><path d="m41.49 44.45h-19.2a.75.75 0 0 0 0 1.5h19.2a.75.75 0 0 0 0-1.5z"/><path d="m22.29 38.45h9.6a.75.75 0 0 0 0-1.5h-9.6a.75.75 0 0 0 0 1.5z"/></g></g></svg>