<svg height="512" viewBox="0 0 64 64" width="512" xmlns="http://www.w3.org/2000/svg" xmlns:xlink="http://www.w3.org/1999/xlink"><linearGradient id="linear-gradient" gradientUnits="userSpaceOnUse" x1="3.25" x2="60.75" y1="32" y2="32"><stop offset="0" stop-color="#5bb4f6"/><stop offset=".61" stop-color="#2191e5"/><stop offset="1" stop-color="#007edb"/></linearGradient><g id="Layer_86" data-name="Layer 86"><rect fill="url(#linear-gradient)" height="57.5" rx="12.75" width="57.5" x="3.25" y="3.25"/><path d="m52 19.82h-10.71a.75.75 0 0 0 0 1.5h10v27.07h-38.54v-27.07h17.44l-4.43 4.44a.74.74 0 0 0 0 1.06.75.75 0 0 0 .53.22.79.79 0 0 0 .53-.22l5.71-5.72a.75.75 0 0 0 0-1.06l-5.71-5.71a.75.75 0 1 0 -1.06 1.06l4.43 4.43h-18.19a.76.76 0 0 0 -.75.75v28.57a.75.75 0 0 0 .75.75h40a.75.75 0 0 0 .75-.75v-28.57a.76.76 0 0 0 -.75-.75z" fill="#fff"/></g></svg>