<svg height="512" viewBox="0 0 64 64" width="512" xmlns="http://www.w3.org/2000/svg" xmlns:xlink="http://www.w3.org/1999/xlink"><linearGradient id="linear-gradient" gradientUnits="userSpaceOnUse" x1="3.25" x2="60.75" y1="32" y2="32"><stop offset="0" stop-color="#5bb4f6"/><stop offset=".61" stop-color="#2191e5"/><stop offset="1" stop-color="#007edb"/></linearGradient><g id="Layer_94" data-name="Layer 94"><rect fill="url(#linear-gradient)" height="57.5" rx="12.75" width="57.5" x="3.25" y="3.25"/><g fill="#fff"><path d="m32 11.25a20.75 20.75 0 1 0 20.75 20.75 20.78 20.78 0 0 0 -20.75-20.75zm0 40a19.25 19.25 0 1 1 19.25-19.25 19.28 19.28 0 0 1 -19.25 19.25z"/><path d="m28.47 22.3a.76.76 0 0 0 -.8.12l-10.45 9a.75.75 0 0 0 0 1.14l10.45 9a.75.75 0 0 0 1.24-.56v-18a.76.76 0 0 0 -.44-.7zm-1.06 17.08-8.55-7.38 8.55-7.38z"/><path d="m42.76 22.3a.77.77 0 0 0 -.81.12l-10.44 9a.75.75 0 0 0 0 1.14l10.44 9a.75.75 0 0 0 1.24-.56v-18a.77.77 0 0 0 -.43-.7zm-1.07 17.08-8.54-7.38 8.54-7.38z"/></g></g></svg>