<svg height="512" viewBox="0 0 64 64" width="512" xmlns="http://www.w3.org/2000/svg" xmlns:xlink="http://www.w3.org/1999/xlink"><linearGradient id="linear-gradient" gradientUnits="userSpaceOnUse" x1="3.25" x2="60.75" y1="32" y2="32"><stop offset="0" stop-color="#5bb4f6"/><stop offset=".61" stop-color="#2191e5"/><stop offset="1" stop-color="#007edb"/></linearGradient><g id="Layer_95" data-name="Layer 95"><rect fill="url(#linear-gradient)" height="57.5" rx="12.75" width="57.5" x="3.25" y="3.25"/><g fill="#fff"><path d="m32 11.25a20.75 20.75 0 1 0 20.75 20.75 20.78 20.78 0 0 0 -20.75-20.75zm0 40a19.25 19.25 0 1 1 19.25-19.25 19.28 19.28 0 0 1 -19.25 19.25z"/><path d="m46.78 31.43-10.45-9a.75.75 0 0 0 -1.24.57v18a.75.75 0 0 0 1.24.57l10.45-9a.75.75 0 0 0 0-1.14zm-10.19 8v-14.81l8.55 7.38z"/><path d="m22.05 22.42a.74.74 0 0 0 -1.24.57v18.01a.77.77 0 0 0 .43.69.87.87 0 0 0 .32.06.76.76 0 0 0 .49-.18l10.44-9a.75.75 0 0 0 0-1.14zm.26 17v-14.8l8.54 7.38z"/></g></g></svg>