<svg height="512" viewBox="0 0 64 64" width="512" xmlns="http://www.w3.org/2000/svg" xmlns:xlink="http://www.w3.org/1999/xlink"><linearGradient id="linear-gradient" gradientUnits="userSpaceOnUse" x1="3.25" x2="60.75" y1="32" y2="32"><stop offset="0" stop-color="#5bb4f6"/><stop offset=".61" stop-color="#2191e5"/><stop offset="1" stop-color="#007edb"/></linearGradient><g id="Layer_52" data-name="Layer 52"><rect fill="url(#linear-gradient)" height="57.5" rx="12.75" width="57.5" x="3.25" y="3.25"/><g fill="#fff"><path d="m14.14 26.57a.74.74 0 0 0 .75-.75v-10.93h10.93a.75.75 0 0 0 0-1.5h-11.68a.76.76 0 0 0 -.75.75v11.68a.75.75 0 0 0 .75.75z"/><path d="m25.82 49.11h-10.93v-10.93a.75.75 0 0 0 -1.5 0v11.68a.76.76 0 0 0 .75.75h11.68a.75.75 0 1 0 0-1.5z"/><path d="m38.18 14.89h10.93v10.93a.75.75 0 1 0 1.5 0v-11.68a.76.76 0 0 0 -.75-.75h-11.68a.75.75 0 0 0 0 1.5z"/><path d="m49.86 37.43a.74.74 0 0 0 -.75.75v10.93h-10.93a.75.75 0 1 0 0 1.5h11.68a.76.76 0 0 0 .75-.75v-11.68a.75.75 0 0 0 -.75-.75z"/><path d="m52 31.25h-40a.75.75 0 0 0 0 1.5h40a.75.75 0 0 0 0-1.5z"/></g></g></svg>