<svg height="512" viewBox="0 0 64 64" width="512" xmlns="http://www.w3.org/2000/svg" xmlns:xlink="http://www.w3.org/1999/xlink"><linearGradient id="linear-gradient" gradientUnits="userSpaceOnUse" x1="3.25" x2="60.75" y1="32" y2="32"><stop offset="0" stop-color="#5bb4f6"/><stop offset=".61" stop-color="#2191e5"/><stop offset="1" stop-color="#007edb"/></linearGradient><g id="Layer_72" data-name="Layer 72"><rect fill="url(#linear-gradient)" height="57.5" rx="12.75" width="57.5" x="3.25" y="3.25"/><path d="m52 43.3h-7.64l-23.66-23.66v-7.64a.75.75 0 0 0 -.75-.75h-7.95a.76.76 0 0 0 -.75.75v8a.75.75 0 0 0 .75.75h3.23v22.55h-3.23a.75.75 0 0 0 -.75.75v8a.76.76 0 0 0 .75.75h8a.75.75 0 0 0 .7-.8v-3.23h22.6v3.23a.75.75 0 0 0 .75.75h8a.76.76 0 0 0 .75-.75v-8a.75.75 0 0 0 -.8-.7zm-39.25-30.55h6.45v6.45h-6.45zm0 38.5v-6.45h6.45v6.45zm8-4v-3.2a.74.74 0 0 0 -.75-.75h-3.27v-22.6h2.91l23.66 23.66v2.91zm30.55 4h-6.5v-6.45h6.45z" fill="#fff"/></g></svg>