<svg height="512" viewBox="0 0 64 64" width="512" xmlns="http://www.w3.org/2000/svg" xmlns:xlink="http://www.w3.org/1999/xlink"><linearGradient id="linear-gradient" gradientUnits="userSpaceOnUse" x1="3.25" x2="60.75" y1="32" y2="32"><stop offset="0" stop-color="#5bb4f6"/><stop offset=".61" stop-color="#2191e5"/><stop offset="1" stop-color="#007edb"/></linearGradient><g id="Layer_98" data-name="Layer 98"><rect fill="url(#linear-gradient)" height="57.5" rx="12.75" width="57.5" x="3.25" y="3.25"/><g fill="#fff"><path d="m24.14 23.16a1 1 0 0 0 -.16-.24l-5.74-5.74a.75.75 0 0 0 -1.06 0l-5.74 5.74a.75.75 0 0 0 .56 1.28h5v22.09a.75.75 0 0 0 1.5 0v-22.09h5a.76.76 0 0 0 .64-1.04zm-6.43-4.39 3.92 3.93h-7.85z"/><path d="m33.06 45.54h-4.92a.75.75 0 0 0 0 1.5h4.92a.75.75 0 0 0 0-1.5z"/><path d="m38 38.39h-9.86a.75.75 0 0 0 0 1.5h9.86a.75.75 0 1 0 0-1.5z"/><path d="m43.35 31.25h-15.21a.75.75 0 0 0 0 1.5h15.21a.75.75 0 0 0 0-1.5z"/><path d="m47.81 24.11h-19.67a.75.75 0 0 0 0 1.5h19.67a.75.75 0 0 0 0-1.5z"/><path d="m52 17h-23.86a.75.75 0 0 0 0 1.5h23.86a.75.75 0 0 0 0-1.5z"/></g></g></svg>