<?xml version="1.0" encoding="UTF-8"?>
<svg xmlns="http://www.w3.org/2000/svg" xmlns:xlink="http://www.w3.org/1999/xlink" viewBox="0 0 64 64" width="512" height="512"><defs><style>.cls-1{fill:url(#linear-gradient);}.cls-2{fill:#fff;}</style><linearGradient id="linear-gradient" x1="3.25" y1="32" x2="60.75" y2="32" gradientUnits="userSpaceOnUse"><stop offset="0" stop-color="#5bb4f6"/><stop offset="0.61" stop-color="#2191e5"/><stop offset="1" stop-color="#007edb"/></linearGradient></defs><g id="Layer_42" data-name="Layer 42"><rect class="cls-1" x="3.25" y="3.25" width="57.5" height="57.5" rx="12.75"/><path class="cls-2" d="M32.67,24.12H28.62v-5.8a.75.75,0,0,0-.75-.75H19.59a.75.75,0,0,0-.75.75v5.8H14.77a.75.75,0,0,0-.75.75V48.32a4.44,4.44,0,0,0,4.44,4.44H29a4.45,4.45,0,0,0,4.45-4.44V24.87A.76.76,0,0,0,32.67,24.12ZM20.34,19.07h6.78v5.05H20.34ZM31.92,48.32a3,3,0,0,1-3,2.94H18.46a2.94,2.94,0,0,1-2.94-2.94V32.75h16.4Zm0-17.07H15.52V25.62h16.4Z"/><path class="cls-2" d="M33.81,18.69a.9.9,0,1,0,.9.9A.89.89,0,0,0,33.81,18.69Z"/><path class="cls-2" d="M37.59,15.62a.9.9,0,1,0,.89.89A.89.89,0,0,0,37.59,15.62Z"/><circle class="cls-2" cx="37.59" cy="22.69" r="0.9"/><circle class="cls-2" cx="41.48" cy="14.14" r="0.9"/><path class="cls-2" d="M41.48,24.17a.9.9,0,1,0,.9.9A.89.89,0,0,0,41.48,24.17Z"/><circle class="cls-2" cx="45.25" cy="11.79" r="0.9"/><circle class="cls-2" cx="45.25" cy="27.42" r="0.9"/><circle class="cls-2" cx="45.25" cy="19.56" r="0.9"/><circle class="cls-2" cx="49.88" cy="19.56" r="0.9"/><path class="cls-2" d="M42.07,19.56a.9.9,0,1,0-.9.9A.9.9,0,0,0,42.07,19.56Z"/></g></svg>
