<svg height="512" viewBox="0 0 64 64" width="512" xmlns="http://www.w3.org/2000/svg" xmlns:xlink="http://www.w3.org/1999/xlink"><linearGradient id="linear-gradient" gradientUnits="userSpaceOnUse" x1="3.25" x2="60.75" y1="32" y2="32"><stop offset="0" stop-color="#5bb4f6"/><stop offset=".61" stop-color="#2191e5"/><stop offset="1" stop-color="#007edb"/></linearGradient><g id="Layer_93" data-name="Layer 93"><rect fill="url(#linear-gradient)" height="57.5" rx="12.75" width="57.5" x="3.25" y="3.25"/><path d="m52.69 25.89-1.69-7.11a.75.75 0 0 0 -.73-.58h-10.27v-6.2a.75.75 0 0 0 -.75-.75h-14.66a.76.76 0 0 0 -.75.75v6.2h-10.27a.75.75 0 0 0 -.73.58l-1.69 7.22a5.62 5.62 0 0 0 5.34 6.18v19.82a.75.75 0 0 0 .75.75h29.38a.76.76 0 0 0 .75-.75v-19.83a5.61 5.61 0 0 0 3.9-1.84 5.68 5.68 0 0 0 1.42-4.44zm-11.23.4a4.39 4.39 0 1 1 -8.78 0v-6.59h8.78zm-10.28 0a4.39 4.39 0 1 1 -8.78 0v-6.59h8.78zm-5.84-13.54h13.17v5.45h-13.17zm-12.71 13.49 1.53-6.54h6.74v6.85a4.14 4.14 0 1 1 -8.27-.31zm14.91 25v-11.53h8.78v11.54zm10.28 0v-12.24a.75.75 0 0 0 -.75-.75h-10.28a.74.74 0 0 0 -.79.75v12.25h-8v-19.2a5.68 5.68 0 0 0 3.71-2.79 5.88 5.88 0 0 0 10.23-.1 5.87 5.87 0 0 0 10.22.1 5.7 5.7 0 0 0 3.72 2.79v19.2zm12.34-21.91a4.13 4.13 0 0 1 -7.16-2.78v-6.85h6.73l1.52 6.44a4.19 4.19 0 0 1 -1.09 3.19z" fill="#fff"/></g></svg>