<svg height="512" viewBox="0 0 64 64" width="512" xmlns="http://www.w3.org/2000/svg" xmlns:xlink="http://www.w3.org/1999/xlink"><linearGradient id="linear-gradient" gradientUnits="userSpaceOnUse" x1="3.25" x2="60.75" y1="32" y2="32"><stop offset="0" stop-color="#5bb4f6"/><stop offset=".61" stop-color="#2191e5"/><stop offset="1" stop-color="#007edb"/></linearGradient><g id="Layer_41" data-name="Layer 41"><rect fill="url(#linear-gradient)" height="57.5" rx="12.75" width="57.5" x="3.25" y="3.25"/><g fill="#fff"><path d="m52.75 33.44a20.75 20.75 0 1 0 -38.62 10.56l1.41 6.73a.75.75 0 0 0 .73.6h31.46a.75.75 0 0 0 .73-.6l1.41-6.73a20.71 20.71 0 0 0 2.88-10.56zm-20.75-19.25a19.24 19.24 0 0 1 16.72 28.81h-33.44a19.24 19.24 0 0 1 16.72-28.81zm15.12 35.62h-30.24l-1.11-5.34h32.46z"/><path d="m32 37.47a4 4 0 0 0 4-4 4 4 0 0 0 -.45-1.81l5.79-4.45a.75.75 0 1 0 -.89-1.21l-5.78 4.45a4 4 0 1 0 -2.67 7zm0-6.56a2.53 2.53 0 1 1 -2.53 2.53 2.54 2.54 0 0 1 2.53-2.53z"/></g></g></svg>