<svg height="512" viewBox="0 0 64 64" width="512" xmlns="http://www.w3.org/2000/svg" xmlns:xlink="http://www.w3.org/1999/xlink"><linearGradient id="linear-gradient" gradientUnits="userSpaceOnUse" x1="3.25" x2="60.75" y1="32" y2="32"><stop offset="0" stop-color="#5bb4f6"/><stop offset=".61" stop-color="#2191e5"/><stop offset="1" stop-color="#007edb"/></linearGradient><g id="Layer_63" data-name="Layer 63"><rect fill="url(#linear-gradient)" height="57.5" rx="12.75" width="57.5" x="3.25" y="3.25"/><path d="m52 51.25h-5.13l-9.87-39.43a.74.74 0 0 0 -.72-.57h-8.57a.74.74 0 0 0 -.72.57l-9.86 39.43h-5.13a.75.75 0 0 0 0 1.5h40a.75.75 0 0 0 0-1.5zm-30.14-12.74h20.28l.79 3.17h-21.86zm2.5-10h15.28l2.12 8.49h-19.52zm1.17-4.67h12.94l.79 3.16h-14.52zm2.77-11.09h7.4l2.39 9.58h-12.18zm-9.63 38.5 2-8.07h22.64l2 8.07z" fill="#fff"/></g></svg>