<svg height="512" viewBox="0 0 64 64" width="512" xmlns="http://www.w3.org/2000/svg" xmlns:xlink="http://www.w3.org/1999/xlink"><linearGradient id="linear-gradient" gradientUnits="userSpaceOnUse" x1="3.25" x2="60.75" y1="32" y2="32"><stop offset="0" stop-color="#5bb4f6"/><stop offset=".61" stop-color="#2191e5"/><stop offset="1" stop-color="#007edb"/></linearGradient><g id="Layer_16" data-name="Layer 16"><rect fill="url(#linear-gradient)" height="57.5" rx="12.75" width="57.5" x="3.25" y="3.25"/><path d="m52 22.68h-10.68v-10.68a.75.75 0 0 0 -.75-.75h-28.57a.76.76 0 0 0 -.75.75v28.57a.75.75 0 0 0 .75.75h10.68v10.68a.75.75 0 0 0 .75.75h28.57a.76.76 0 0 0 .75-.75v-28.57a.75.75 0 0 0 -.75-.75zm-39.25 17.14v-27.07h27.07v9.93h-16.39a.74.74 0 0 0 -.75.75v16.39zm38.5 11.43h-27.07v-27.07h27.07z" fill="#fff"/></g></svg>