<svg height="512" viewBox="0 0 64 64" width="512" xmlns="http://www.w3.org/2000/svg" xmlns:xlink="http://www.w3.org/1999/xlink"><linearGradient id="linear-gradient" gradientUnits="userSpaceOnUse" x1="3.25" x2="60.75" y1="32" y2="32"><stop offset="0" stop-color="#5bb4f6"/><stop offset=".61" stop-color="#2191e5"/><stop offset="1" stop-color="#007edb"/></linearGradient><g id="Layer_26" data-name="Layer 26"><rect fill="url(#linear-gradient)" height="57.5" rx="12.75" width="57.5" x="3.25" y="3.25"/><path d="m52 38.12h-2.91a17.2 17.2 0 0 0 -10.09-14.87h9.42v1a.75.75 0 1 0 1.5 0v-3.54a.75.75 0 1 0 -1.5 0v1h-11v-3.84a.74.74 0 0 0 -.75-.75h-9.3a.74.74 0 0 0 -.75.75v3.88h-11v-1a.75.75 0 0 0 -1.5 0v3.58a.75.75 0 0 0 1.5 0v-1h9.38a17.2 17.2 0 0 0 -10.09 14.79h-2.91a.76.76 0 0 0 -.75.75v7.26a.75.75 0 0 0 .75.75h7.26a.74.74 0 0 0 .75-.75v-7.26a.75.75 0 0 0 -.75-.75h-2.85a15.69 15.69 0 0 1 10.21-13.9v2.91a.74.74 0 0 0 .75.75h9.26a.74.74 0 0 0 .75-.75v-2.91a15.69 15.69 0 0 1 10.21 13.9h-2.85a.75.75 0 0 0 -.75.75v7.26a.74.74 0 0 0 .75.75h7.26a.75.75 0 0 0 .75-.75v-7.26a.76.76 0 0 0 -.75-.75zm-33.49 7.26h-5.76v-5.76h5.76zm17.37-19h-7.76v-7.76h7.76zm15.37 19h-5.76v-5.76h5.76z" fill="#fff"/></g></svg>