<svg height="512" viewBox="0 0 64 64" width="512" xmlns="http://www.w3.org/2000/svg" xmlns:xlink="http://www.w3.org/1999/xlink"><linearGradient id="linear-gradient" gradientUnits="userSpaceOnUse" x1="3.25" x2="60.75" y1="32" y2="32"><stop offset="0" stop-color="#5bb4f6"/><stop offset=".61" stop-color="#2191e5"/><stop offset="1" stop-color="#007edb"/></linearGradient><g id="Layer_80" data-name="Layer 80"><rect fill="url(#linear-gradient)" height="57.5" rx="12.75" width="57.5" x="3.25" y="3.25"/><path d="m52 15h-40a.75.75 0 0 0 -.75.75v32.92a.75.75 0 0 0 .75.75h40a.75.75 0 0 0 .75-.75v-32.89a.75.75 0 0 0 -.75-.78zm-39.25 1.5h4.25v31.42h-4.25zm38.5 22.21h-14.08v-13.32h14.08zm0-14.85h-14.83a.75.75 0 0 0 -.75.75v14.88a.75.75 0 0 0 .75.75h14.83v7.68h-32.79v-31.39h32.79z" fill="#fff"/></g></svg>