<svg height="512" viewBox="0 0 64 64" width="512" xmlns="http://www.w3.org/2000/svg" xmlns:xlink="http://www.w3.org/1999/xlink"><linearGradient id="linear-gradient" gradientUnits="userSpaceOnUse" x1="3.25" x2="60.75" y1="32" y2="32"><stop offset="0" stop-color="#5bb4f6"/><stop offset=".61" stop-color="#2191e5"/><stop offset="1" stop-color="#007edb"/></linearGradient><g id="Layer_43" data-name="Layer 43"><rect fill="url(#linear-gradient)" height="57.5" rx="12.75" width="57.5" x="3.25" y="3.25"/><g fill="#fff"><path d="m32 33.36a7.13 7.13 0 1 0 -7.13-7.12 7.14 7.14 0 0 0 7.13 7.12zm0-12.75a5.63 5.63 0 1 1 -5.63 5.63 5.64 5.64 0 0 1 5.63-5.63z"/><path d="m52 45.14h-4.74a15.14 15.14 0 0 0 -3.76-9.31 15 15 0 1 0 -23 0 15.14 15.14 0 0 0 -3.76 9.31h-4.74a.76.76 0 0 0 -.75.75v6.11a.76.76 0 0 0 .75.75h40a.76.76 0 0 0 .75-.75v-6.11a.76.76 0 0 0 -.75-.75zm-20-32.39a13.49 13.49 0 1 1 -13.49 13.49 13.5 13.5 0 0 1 13.49-13.49zm-10.47 24.18a14.92 14.92 0 0 0 20.94 0 13.69 13.69 0 0 1 3.29 8.21h-27.52a13.69 13.69 0 0 1 3.29-8.21zm29.72 14.32h-38.5v-4.61h38.5z"/></g></g></svg>