<svg id="Capa_1" enable-background="new 0 0 512 512" height="512" viewBox="0 0 512 512" width="512" xmlns="http://www.w3.org/2000/svg"><g><path d="m501 261.5c0 135.31-109.69 245-245 245s-245-109.69-245-245 109.69-245 245-245 245 109.69 245 245z" fill="#acd1fd"/><path d="m431 310.5c0 96.65-78.35 175-175 175s-175-78.35-175-175 78.35-175 175-175 175 78.35 175 175z" fill="#bbe0fb"/><path d="m310 253.3c0 35.899-24.624 60-55 60s-55-24.101-55-60 24.624-80 55-80 55 44.102 55 80z" fill="#e31e7f"/><path d="m284 288.3c-30.376 0-55-24.102-55-60 0-17.937 6.148-37.922 16.089-53.43 3.215-1.022 6.527-1.57 9.911-1.57 30.376 0 55 44.102 55 80 0 12.14-2.816 22.931-7.719 31.897-5.72 2.03-11.872 3.103-18.281 3.103z" fill="#fd3d96"/><path d="m443.5 194.666v170.834c0 6.903-5.597 12.5-12.5 12.5s-12.5-5.597-12.5-12.5v-170.834c0-64.33-72.897-116.666-162.5-116.666s-162.5 52.336-162.5 116.666v170.834c0 6.903-5.597 12.5-12.5 12.5s-12.5-5.597-12.5-12.5v-170.834c0-38.571 20.006-74.579 56.333-101.392 35.188-25.971 81.77-40.274 131.167-40.274s95.979 14.303 131.167 40.275c36.327 26.812 56.333 62.821 56.333 101.391z" fill="#c64b1a"/><path d="m438.923 213.192h-97.846c-11.046 0-20-8.954-20-20v-9.231c0-11.046 8.954-20 20-20h97.846c11.046 0 20 8.954 20 20v9.231c0 11.046-8.954 20-20 20z" fill="#463b83"/><path d="m438.923 213.192h-73.231c-11.046 0-20-8.954-20-20v-9.231c0-11.046 8.954-20 20-20h73.231c11.046 0 20 8.954 20 20v9.231c0 11.046-8.954 20-20 20z" fill="#6354b0"/><path d="m450 348.577h-120c-11.046 0-20-8.954-20-20v-107.692c0-11.046 8.954-20 20-20h120c11.046 0 20 8.954 20 20v107.692c0 11.046-8.954 20-20 20z" fill="#0280e3"/><path d="m450 348.577h-84.308c-11.046 0-20-8.954-20-20v-107.692c0-11.046 8.954-20 20-20h84.308c11.046 0 20 8.954 20 20v107.692c0 11.046-8.954 20-20 20z" fill="#0191f8"/><path d="m447.154 323.962h-114.308c-2.761 0-5-2.239-5-5v-88.462c0-2.761 2.239-5 5-5h114.308c2.761 0 5 2.239 5 5v88.462c0 2.761-2.239 5-5 5z" fill="#fdf7bd"/><path d="m405 277.5h-30c-2.761 0-5-2.239-5-5 0-2.761 2.239-5 5-5h30c2.761 0 5 2.239 5 5 0 2.761-2.239 5-5 5zm-10 20h-10c-2.761 0-5-2.239-5-5 0-2.761 2.239-5 5-5h10c2.761 0 5 2.239 5 5 0 2.761-2.239 5-5 5zm30-57h-70c-5.514 0-10 4.486-10 10v60c0 5.514 4.486 10 10 10h70c5.514 0 10-4.486 10-10v-60c0-5.514-4.486-10-10-10zm-70 70v-60h70l.006 60z" fill="#f3d373"/><path d="m192.681 138.112 20.92-78.073 47.091 12.618-27.729 103.485c-.607 2.267-3.465 2.99-5.078 1.285l-34.486-36.477c-.716-.757-.987-1.831-.718-2.838z" fill="#e12929"/><path d="m318.601 140.95-34.486 36.477c-1.612 1.705-4.47.982-5.078-1.285l-27.729-103.485 47.091-12.618 20.92 78.073c.269 1.007-.002 2.081-.718 2.838z" fill="#fd4343"/><path d="m158.037 45.901c-.128-.183-.256-.366-.385-.549-10.671-15.135-2.399-39.732 13.343-39.851.185-.001.371-.002.556-.002 35.443 0 66.331 25.502 82.519 63.239-15.575 40.324-47.542 67.975-84.449 67.975-.185 0-.37-.001-.555-.002-15.857-.119-23.898-24.803-13.179-40.085 1.043-1.487 2.058-3.007 3.045-4.559 8.565-13.469 8.127-33.215-.895-46.166zm195.031 4.245c.987-1.552 2.002-3.072 3.045-4.559 10.719-15.281 2.679-39.965-13.179-40.085-.185-.001-.37-.002-.555-.002-36.906 0-68.874 27.651-84.449 67.975 16.189 37.737 47.076 63.239 82.519 63.239.185 0 .371-.001.556-.002 15.742-.119 24.014-24.716 13.343-39.851-.129-.182-.257-.365-.385-.549-9.022-12.949-9.46-32.696-.895-46.166z" fill="#c92c2c"/><path d="m245.417 87c-12.408 11.805-27.483 19.526-44.3 21.589-.184.023-.368.044-.552.066-15.754 1.812-26.74-21.71-17.961-38.182.854-1.603 1.677-3.235 2.467-4.895 6.861-14.413 4.022-33.959-6.509-45.715-.149-.167-.299-.333-.449-.498-3.565-3.935-5.68-8.832-6.514-13.863 35.422.023 66.289 25.519 82.471 63.239-2.483 6.427-5.383 12.534-8.653 18.259zm58.073-14.44c13.947 21.573 33.444 36.814 55.609 41.956.358-6.082-1.069-12.432-4.751-17.654-.129-.182-.257-.365-.385-.549-9.022-12.95-9.46-32.696-.895-46.167.987-1.552 2.002-3.072 3.045-4.559 10.719-15.281 2.679-39.966-13.179-40.085-.185-.001-.37-.002-.555-.002-6.725 0-13.285.918-19.613 2.664-7.553 7.054-14.279 15.525-19.951 25.116-7.2 12.176-7.006 27.401.675 39.28z" fill="#fd4343"/><path d="m264.468 93.137h-16.935c-5.612 0-10.161-4.549-10.161-10.161v-23.738c0-5.612 4.549-10.161 10.161-10.161h16.935c5.612 0 10.161 4.549 10.161 10.161v23.737c0 5.613-4.549 10.162-10.161 10.162z" fill="#f52c2c"/><path d="m264.468 72.9h-16.935c-5.612 0-10.161-4.549-10.161-10.161v-3.5c0-5.612 4.549-10.161 10.161-10.161h16.935c5.612 0 10.161 4.549 10.161 10.161v3.5c0 5.611-4.549 10.161-10.161 10.161z" fill="#fd7a7a"/><path d="m119.179 126.607 5.68 5.68c.186.186.323.417.396.67l6.14 21.148c.074.253.21.484.396.67l1.082 1.082c7.056 7.056 7.056 18.496 0 25.551l-9.804 9.804c-7.056 7.056-18.496 7.056-25.551 0l-1.082-1.082c-.186-.186-.417-.323-.67-.396l-21.148-6.14c-.253-.074-.484-.21-.67-.396l-5.68-5.68c-.611-.611-.611-1.602 0-2.213.293-.293.692-.458 1.107-.458h11.929c.864 0 1.565-.701 1.565-1.565v-11.929c0-.415.165-.813.458-1.107l1.761-1.761c.293-.293.692-.458 1.107-.458h11.929c.864 0 1.565-.701 1.565-1.565v-11.929c0-.415.165-.813.458-1.107l1.761-1.761c.293-.293.692-.458 1.107-.458h11.929c.864 0 1.565-.701 1.565-1.565v-11.929c0-.415.165-.813.458-1.107.61-.611 1.601-.611 2.212.001z" fill="#8279c0"/><path d="m280 302.984-35.355 35.355-147.649-147.648 35.355-35.355z" fill="#463b83"/><path d="m272.575 310.408c-4.101 4.101-10.749 4.101-14.849 0l-126.572-126.572c-4.1-4.101-4.1-10.749 0-14.849 4.101-4.101 10.749-4.101 14.849 0l126.572 126.572c4.101 4.101 4.101 10.749 0 14.849z" fill="#6354b0"/><path d="m25.453 215.597c.318-.804 1.227-1.197 2.031-.879l7.843 3.104 14.058 16.994c.322.39.738.691 1.208.877 9.875 3.908 14.712 15.081 10.804 24.956l-4.247 10.731c-3.908 9.875-15.081 14.712-24.956 10.804-.47-.186-.979-.25-1.481-.187l-21.88 2.772-7.843-3.104c-.804-.318-1.197-1.227-.879-2.031.153-.386.453-.695.833-.86l9.63-4.169c1.52-.658 2.219-2.424 1.561-3.945l-4.169-9.63c-.165-.381-.172-.812-.019-1.198l.917-2.316c.153-.386.453-.695.833-.86l9.63-4.169c1.521-.658 2.22-2.424 1.561-3.945l-4.169-9.63c-.165-.381-.172-.812-.019-1.198l.917-2.316c.153-.386.453-.695.833-.86l9.63-4.169c1.52-.658 2.219-2.424 1.561-3.945l-4.169-9.63c-.164-.381-.171-.811-.019-1.197z" fill="#d98800"/><path d="m223.718 304.208-18.399 46.492-172.94-68.442 18.399-46.492z" fill="#ecb700"/><path d="m204.977 308.084c-2.134 5.392-8.235 8.033-13.627 5.899l-130.14-51.504c-5.392-2.134-8.033-8.235-5.899-13.627 2.134-5.392 8.235-8.033 13.627-5.899l130.14 51.504c5.392 2.134 8.033 8.235 5.899 13.627z" fill="#fded32"/><path d="m385.881 261.786c2.641 7.337 4.092 15.241 4.119 23.482.122 37.617-30.066 68.971-67.664 70.194-40.446 1.316-73.516-31.692-72.303-72.116 1.118-37.253 31.845-67.396 69.112-67.841 3.525-.042 6.991.177 10.379.638 1.249.17 2.064 1.434 1.639 2.621-.753 2.105-1.163 4.373-1.163 6.736 0 10.46 8.03 19.044 18.261 19.925.968.083 1.73.846 1.813 1.813.882 10.232 9.466 18.262 19.926 18.262 4.836 0 9.27-1.716 12.728-4.573 1.066-.88 2.685-.442 3.153.859z" fill="#c98001"/><path d="m382.728 260.928c1.068-.883 2.687-.438 3.156.866 2.664 7.403 4.116 15.385 4.116 23.706 0 12.916-3.499 25.015-9.599 35.401-11.193 6.574-24.375 10.127-38.425 9.535-36.09-1.519-65.395-30.826-66.913-66.915-.591-14.049 2.961-27.23 9.535-38.422 10.386-6.1 22.485-9.599 35.401-9.599 3.232 0 6.414.219 9.53.644 1.246.17 2.057 1.436 1.633 2.62-.753 2.105-1.163 4.373-1.163 6.736 0 10.46 8.03 19.044 18.261 19.925.968.083 1.73.846 1.813 1.813.883 10.232 9.467 18.262 19.927 18.262 4.835 0 9.27-1.716 12.728-4.572z" fill="#f19b0b"/><path d="m300 300.5c0 8.284-6.716 15-15 15s-15-6.716-15-15 6.716-15 15-15 15 6.716 15 15zm45-25c-8.284 0-15 6.716-15 15s6.716 15 15 15 15-6.716 15-15-6.716-15-15-15zm-45-30c-5.523 0-10 4.477-10 10s4.477 10 10 10 10-4.477 10-10-4.477-10-10-10z" fill="#a62b2b"/><path d="m206.073 253.792c25.384 25.384 25.014 59.838 3.536 81.317-21.479 21.479-55.933 21.849-81.317-3.536-25.384-25.384-39.157-73.981-17.678-95.459s70.075-7.706 95.459 17.678z" fill="#01988c"/><path d="m212.437 296.925c-21.479 21.479-55.933 21.849-81.317-3.536-12.683-12.683-22.468-31.162-26.404-49.157 1.551-2.996 3.505-5.726 5.898-8.119 21.479-21.479 70.075-7.706 95.459 17.678 8.584 8.584 14.223 18.206 17.097 28.013-2.609 5.48-6.201 10.589-10.733 15.121z" fill="#0ab59e"/><path d="m492.402 326.07c-28.335 103.981-123.441 180.43-236.402 180.43s-208.067-76.449-236.402-180.43z" fill="#c64b1a"/><path d="m162.593 454.443c34.495 27.035 76.421 45.02 122.206 50.381-9.446 1.106-19.056 1.675-28.799 1.675-112.961 0-208.067-76.449-236.402-180.43h57.598c.864 3.17 1.79 6.313 2.776 9.43h189.684c5.326 0 9.977 4.019 10.321 9.335.377 5.824-4.235 10.665-9.978 10.665h-175.09c-3.622 0-6.065 3.742-4.57 7.041 9.149 20.183 20.953 38.905 34.968 55.721 3.814 4.576 9.452 7.238 15.409 7.238h38.941c5.326 0 9.977 4.019 10.321 9.335.377 5.824-4.235 10.665-9.978 10.665h-14.32c-4.753.001-6.828 6.013-3.087 8.944zm127.407-28.943h-30c-5.523 0-10 4.477-10 10s4.477 10 10 10h30c5.523 0 10-4.477 10-10s-4.477-10-10-10zm70-50h-30c-5.523 0-10 4.477-10 10s4.477 10 10 10h30c5.523 0 10-4.477 10-10s-4.477-10-10-10zm-210 0c-5.523 0-10 4.477-10 10s4.477 10 10 10h50c5.523 0 10-4.477 10-10s-4.477-10-10-10z" fill="#a62b2b"/><path d="m96 335.5h-71c-8.284 0-15-6.716-15-15 0-8.284 6.716-15 15-15h71c8.284 0 15 6.716 15 15 0 8.284-6.716 15-15 15z" fill="#e55920"/><path d="m497 335.5h-426c-8.284 0-15-6.716-15-15 0-8.284 6.716-15 15-15h426c8.284 0 15 6.716 15 15 0 8.284-6.716 15-15 15z" fill="#f16b38"/></g></svg>