<svg id="SvgjsSvg1001" width="288" height="288" xmlns="http://www.w3.org/2000/svg" version="1.1" xmlns:xlink="http://www.w3.org/1999/xlink" xmlns:svgjs="http://svgjs.com/svgjs"><defs id="SvgjsDefs1002"></defs><g id="SvgjsG1008" transform="matrix(1,0,0,1,0,0)"><svg xmlns="http://www.w3.org/2000/svg" width="288" height="288" viewBox="0 0 512 512"><g data-name="13-car" fill="#005476" class="color000 svgShape"><g data-name="linear color" fill="#005476" class="color000 svgShape"><circle cx="120" cy="288" r="12" fill="#005476" class="color000 svgShape"></circle><circle cx="408" cy="288" r="12" fill="#005476" class="color000 svgShape"></circle><path d="M477.4,193.036l-88.329-13.4L304.479,110.02A44.128,44.128,0,0,0,276.53,100H159.38a43.778,43.778,0,0,0-34.36,16.514L74.232,180H40A36.04,36.04,0,0,0,4,216v40a44.049,44.049,0,0,0,44,44H69.413a51.988,51.988,0,0,0,101.174,0H357.413a51.988,51.988,0,0,0,101.174,0H472a36.04,36.04,0,0,0,36-36V228.63A35.794,35.794,0,0,0,477.4,193.036Zm-188.165-64.48L351.748,180H236V124h40.53A20.068,20.068,0,0,1,289.235,128.556ZM143.762,131.5A19.9,19.9,0,0,1,159.38,124H164v56H104.967ZM120,316a28,28,0,1,1,28-28A28.032,28.032,0,0,1,120,316Zm288,0a28,28,0,1,1,28-28A28.032,28.032,0,0,1,408,316Zm76-52a12.013,12.013,0,0,1-12,12H458.587a51.988,51.988,0,0,0-101.174,0H170.587a51.988,51.988,0,0,0-101.174,0H48a20.023,20.023,0,0,1-20-20V216a12.013,12.013,0,0,1,12-12H176a12,12,0,0,0,12-12V124h24v68a12,12,0,0,0,12,12H389.684L473.8,216.764A12.081,12.081,0,0,1,484,228.63Z" fill="#005476" class="color000 svgShape"></path><path d="M240,212H224a12,12,0,0,0,0,24h16a12,12,0,0,0,0-24Z" fill="#005476" class="color000 svgShape"></path><circle cx="120" cy="288" r="12" fill="#005476" class="color000 svgShape"></circle><circle cx="408" cy="288" r="12" fill="#005476" class="color000 svgShape"></circle></g></g></svg></g></svg>