<svg id="SvgjsSvg1001" width="288" height="288" xmlns="http://www.w3.org/2000/svg" version="1.1" xmlns:xlink="http://www.w3.org/1999/xlink" xmlns:svgjs="http://svgjs.com/svgjs"><defs id="SvgjsDefs1002"></defs><g id="SvgjsG1008" transform="matrix(1,0,0,1,0,0)"><svg xmlns="http://www.w3.org/2000/svg" width="288" height="288" viewBox="0 0 512 512"><path d="m437.019531 74.980469c-48.351562-48.351563-112.640625-74.980469-181.019531-74.980469s-132.667969 26.628906-181.019531 74.980469c-48.351563 48.351562-74.980469 112.640625-74.980469 181.019531s26.628906 132.667969 74.980469 181.019531c48.351562 48.351563 112.640625 74.980469 181.019531 74.980469s132.667969-26.628906 181.019531-74.980469c48.351563-48.351562 74.980469-112.640625 74.980469-181.019531s-26.628906-132.667969-74.980469-181.019531zm-21.214843 340.824219c-42.683594 42.6875-99.4375 66.195312-159.804688 66.195312s-117.121094-23.507812-159.804688-66.195312c-42.6875-42.683594-66.195312-99.4375-66.195312-159.804688s23.507812-117.121094 66.195312-159.804688c42.683594-42.6875 99.4375-66.195312 159.804688-66.195312s117.121094 23.507812 159.804688 66.195312c42.6875 42.683594 66.195312 99.4375 66.195312 159.804688s-23.507812 117.121094-66.195312 159.804688zm0 0" fill="#005476" class="color000 svgShape"></path><path d="m256 60c-108.074219 0-196 87.925781-196 196s87.925781 196 196 196 196-87.925781 196-196-87.925781-196-196-196zm0 362c-91.53125 0-166-74.46875-166-166s74.46875-166 166-166 166 74.46875 166 166-74.46875 166-166 166zm0 0" fill="#005476" class="color000 svgShape"></path><path d="m248.554688 190.570312h14.890624c13.902344 0 25.214844 11.3125 25.214844 25.214844h30c0-27.878906-20.777344-50.988281-47.660156-54.683594v-30.566406h-30v30.566406c-26.882812 3.699219-47.660156 26.804688-47.660156 54.683594 0 30.445313 24.769531 55.214844 55.214844 55.214844h14.890624c13.902344 0 25.214844 11.3125 25.214844 25.214844s-11.3125 25.214844-25.214844 25.214844h-14.890624c-13.902344 0-25.214844-11.3125-25.214844-25.214844h-30c0 27.878906 20.777344 50.988281 47.660156 54.683594v30.566406h30v-30.566406c26.882812-3.699219 47.660156-26.804688 47.660156-54.683594 0-30.445313-24.769531-55.214844-55.214844-55.214844h-14.890624c-13.902344 0-25.214844-11.3125-25.214844-25.214844s11.3125-25.214844 25.214844-25.214844zm0 0" fill="#005476" class="color000 svgShape"></path></svg></g></svg>