<svg width="24" height="26" viewBox="0 0 24 26" fill="none" xmlns="http://www.w3.org/2000/svg">
<path d="M21.9553 20.7512C19.6396 20.7251 17.3946 19.9504 15.5556 18.5429C13.7166 17.1354 12.3824 15.1707 11.7523 12.9423C11.1221 10.7139 11.23 8.34141 12.0596 6.17933C12.8893 4.01726 14.3962 2.18165 16.3553 0.946775C15.3654 0.689447 14.3469 0.558039 13.3241 0.555664C10.0237 0.555664 6.85838 1.86677 4.52459 4.20056C2.19081 6.53434 0.8797 9.69964 0.8797 13.0001C0.8797 16.3006 2.19081 19.4659 4.52459 21.7997C6.85838 24.1334 10.0237 25.4446 13.3241 25.4446C15.1939 25.4429 17.0385 25.0144 18.7176 24.1918C20.3966 23.3692 21.8658 22.1742 23.013 20.6979C22.6616 20.7336 22.3085 20.7514 21.9553 20.7512Z" fill="#333333"/>
</svg>
