<svg width="32" height="30" viewBox="0 0 32 30" fill="none" xmlns="http://www.w3.org/2000/svg">
<path d="M24.958 0.125488V5.08712H20.3722C18.9213 5.08712 17.3193 5.79536 15.9794 7.14898C14.6397 8.50261 13.1837 10.5107 10.8721 13.8131C8.55003 17.1303 7.25693 19.1348 6.45053 20.0357C5.64413 20.9365 5.77384 20.8592 4.60019 20.8592H0V24.8022H4.60019C6.36227 24.8022 8.13459 24.0657 9.38725 22.6664C10.6399 21.267 11.8222 19.3287 14.1004 16.0742C16.3889 12.8048 17.8439 10.8699 18.7807 9.92346C19.7175 8.97704 19.7578 9.03013 20.3723 9.03013H24.9581V14.2074L32 7.16744L24.958 0.125488ZM0 5.08709V9.0301H4.60019C5.77384 9.0301 5.64413 8.95077 6.45053 9.85157C6.96936 10.4311 7.82405 11.6603 8.89027 13.2093C9.03477 13.002 9.10288 12.9021 9.25581 12.6835C9.83661 11.8538 10.3642 11.1052 10.8515 10.4225C11.0211 10.1849 11.1632 9.99744 11.3239 9.77557C10.6033 8.73453 10.0032 7.90888 9.38725 7.22082C8.13459 5.82152 6.36227 5.08709 4.60019 5.08709H0ZM24.958 15.7928V20.8591H20.3722C19.7577 20.8591 19.7174 20.9102 18.7806 19.9638C18.161 19.3377 17.2834 18.2279 16.1191 16.6368C15.9782 16.8366 15.8643 16.9946 15.7165 17.2057C14.9013 18.3703 14.3393 19.2106 13.7491 20.0808C14.5863 21.1895 15.299 22.0508 15.9795 22.7382C17.3193 24.0919 18.9213 24.8021 20.3722 24.8021H24.9581V29.8746L32 22.8348L24.958 15.7928Z" fill="#EB5757"/>
</svg>
