<svg width="17" height="24" viewBox="0 0 17 24" fill="none" xmlns="http://www.w3.org/2000/svg">
<path fill-rule="evenodd" clip-rule="evenodd" d="M0.968916 23.9468C1.50404 23.9468 1.93784 23.513 1.93784 22.9779L1.93784 13.9403L15.2944 21.9003C15.4136 21.9713 15.5488 22.0088 15.6866 22.0089C15.8243 22.0091 15.9597 21.9719 16.079 21.9011C16.1983 21.8303 16.2975 21.7284 16.3664 21.6056C16.4353 21.4829 16.4717 21.3436 16.4717 21.2018L16.4717 3.43785C16.4717 3.2237 16.3891 3.01832 16.242 2.86689C16.0949 2.71546 15.8954 2.63039 15.6873 2.63039C15.5493 2.63043 15.4137 2.66803 15.2944 2.7394L1.93784 10.6994L1.93784 1.66147C1.93784 1.12634 1.50404 0.692541 0.968914 0.692541C0.43379 0.692541 -1.34391e-05 1.12634 -1.33923e-05 1.66147L-1.05532e-05 12.3198L-1.15288e-05 22.9779C-1.1482e-05 23.513 0.433792 23.9468 0.968916 23.9468Z" fill="#EB5757"/>
</svg>
