<svg width="18" height="24" viewBox="0 0 18 24" fill="none" xmlns="http://www.w3.org/2000/svg">
<path fill-rule="evenodd" clip-rule="evenodd" d="M16.1893 0.692383C15.6542 0.692383 15.2204 1.12619 15.2204 1.66131V10.6989L1.86384 2.73888C1.74464 2.66785 1.60937 2.63038 1.47163 2.63024C1.33389 2.6301 1.19855 2.6673 1.07921 2.73809C0.959866 2.80889 0.86074 2.91078 0.791797 3.03353C0.722853 3.15627 0.686524 3.29554 0.686462 3.43733V21.2013C0.686462 21.4155 0.769104 21.6208 0.916207 21.7723C1.06331 21.9237 1.26283 22.0088 1.47086 22.0088C1.6089 22.0087 1.74448 21.9711 1.86384 21.8998L15.2204 13.9398V22.9777C15.2204 23.5128 15.6542 23.9466 16.1893 23.9466C16.7244 23.9466 17.1582 23.5128 17.1582 22.9777V12.3211C17.1582 12.3205 17.1582 12.3199 17.1582 12.3193C17.1582 12.3187 17.1582 12.3181 17.1582 12.3175V1.66131C17.1582 1.12619 16.7244 0.692383 16.1893 0.692383Z" fill="#EB5757"/>
</svg>
