<svg width="24" height="24" viewBox="0 0 24 24" fill="none" xmlns="http://www.w3.org/2000/svg">
<g clip-path="url(#clip0_35_21108)">
<path d="M20.4853 3.51471C18.2188 1.24823 15.2053 0 12 0C8.79474 0 5.78119 1.24823 3.51471 3.51471C1.24823 5.78119 0 8.79474 0 12C0 15.2053 1.24823 18.2188 3.51471 20.4853C5.78119 22.7518 8.79474 24 12 24C15.2053 24 18.2188 22.7518 20.4853 20.4853C22.7518 18.2188 24 15.2053 24 12C24 8.79474 22.7518 5.78119 20.4853 3.51471ZM19.4908 19.4908C17.4901 21.4918 14.8297 22.5938 12 22.5938C9.17029 22.5938 6.50995 21.4918 4.50916 19.4908C2.50818 17.4901 1.40625 14.8297 1.40625 12C1.40625 9.17029 2.50818 6.50995 4.50916 4.50916C6.50995 2.50818 9.17029 1.40625 12 1.40625C14.8297 1.40625 17.4901 2.50818 19.4908 4.50916C21.4918 6.50995 22.5938 9.17029 22.5938 12C22.5938 14.8297 21.4918 17.4901 19.4908 19.4908Z" fill="#FF5C63"/>
<path d="M12 2.8125C6.93402 2.8125 2.8125 6.93402 2.8125 12C2.8125 17.066 6.93402 21.1875 12 21.1875C17.066 21.1875 21.1875 17.066 21.1875 12C21.1875 6.93402 17.066 2.8125 12 2.8125ZM12 19.7812C7.70947 19.7812 4.21875 16.2905 4.21875 12C4.21875 7.70947 7.70947 4.21875 12 4.21875C16.2905 4.21875 19.7812 7.70947 19.7812 12C19.7812 16.2905 16.2905 19.7812 12 19.7812Z" fill="#FF5C63"/>
<path d="M11.651 8.93329H12.349C13.0007 8.93329 13.5309 9.46356 13.5309 10.1152H14.9372C14.9372 8.80841 13.9633 7.72516 12.7031 7.55194V6.11914H11.2969V7.55194C10.0367 7.72534 9.06281 8.80841 9.06281 10.1152C9.06281 11.5424 10.2239 12.7034 11.651 12.7034H12.349C13.0007 12.7034 13.5309 13.2337 13.5309 13.8854C13.5309 14.537 13.0007 15.0673 12.349 15.0673H11.651C10.9993 15.0673 10.4691 14.537 10.4691 13.8854H9.06281C9.06281 15.1922 10.0367 16.2755 11.2969 16.4487V17.8815H12.7031V16.4487C13.9633 16.2753 14.9372 15.1922 14.9372 13.8854C14.9372 12.4583 13.7761 11.2972 12.349 11.2972H11.651C10.9993 11.2972 10.4691 10.7669 10.4691 10.1152C10.4691 9.46356 10.9993 8.93329 11.651 8.93329Z" fill="#FF5C63"/>
</g>
<defs>
<clipPath id="clip0_35_21108">
<rect width="24" height="24" fill="white"/>
</clipPath>
</defs>
</svg>
