<svg width="38" height="38" viewBox="0 0 38 38" fill="none" xmlns="http://www.w3.org/2000/svg">
<circle cx="19" cy="19" r="19" fill="#EAF1FE"/>
<path d="M23.9957 24.4079V25.5453H13.3794V12.654H23.9958V24.4079H23.9957Z" fill="white"/>
<path d="M23.9957 11.896V12.6543H13.3794V11.896C13.3794 11.0584 14.0584 10.3794 14.896 10.3794H22.4791C23.3167 10.3794 23.9957 11.0584 23.9957 11.896Z" fill="#87D2F3"/>
<path d="M23.9962 25.5462V26.3045C23.9962 27.1421 23.3171 27.8212 22.4795 27.8212H14.8964C14.0588 27.8212 13.3798 27.1421 13.3798 26.3045V25.5462H23.9962V25.5462Z" fill="#87D2F3"/>
<path d="M18.6878 21.7546C20.7818 21.7546 22.4794 20.057 22.4794 17.963C22.4794 15.869 20.7818 14.1714 18.6878 14.1714C16.5938 14.1714 14.8962 15.869 14.8962 17.963C14.8962 20.057 16.5938 21.7546 18.6878 21.7546Z" fill="#87D2F3"/>
<path d="M15.2756 23.2711H22.1004V24.4086H15.2756V23.2711Z" fill="#87D2F3"/>
<path d="M22.4789 10H14.8958C13.8493 10.0012 13.0012 10.8493 13 11.8958V26.3037C13.0012 27.3502 13.8493 28.1982 14.8958 28.1995H22.4789C23.5254 28.1982 24.3734 27.3502 24.3747 26.3037V11.8958C24.3735 10.8493 23.5254 10.0012 22.4789 10ZM14.8958 10.7583H22.4789C23.1071 10.7583 23.6164 11.2676 23.6164 11.8958V12.2749H13.7583V11.8958C13.7583 11.2676 14.2676 10.7583 14.8958 10.7583ZM23.6164 13.0332V25.1662H13.7583V13.0332H23.6164ZM22.4789 27.4412H14.8958C14.2676 27.4412 13.7583 26.9319 13.7583 26.3037V25.9246H23.6164V26.3037C23.6164 26.9319 23.1071 27.4412 22.4789 27.4412Z" fill="#2170A6"/>
<path d="M18.6871 22.133C20.9906 22.133 22.8579 20.2657 22.8579 17.9623C22.8579 15.6589 20.9906 13.7916 18.6871 13.7916C16.3837 13.7916 14.5164 15.6589 14.5164 17.9623C14.5191 20.2646 16.3848 22.1303 18.6871 22.133ZM18.6871 14.5499C20.5718 14.5499 22.0996 16.0777 22.0996 17.9623C22.0996 19.8469 20.5718 21.3747 18.6871 21.3747C16.8025 21.3747 15.2747 19.8469 15.2747 17.9623C15.2768 16.0786 16.8034 14.552 18.6871 14.5499Z" fill="#2170A6"/>
<path d="M22.0998 22.8913H15.275C15.0656 22.8913 14.8958 23.0611 14.8958 23.2705V24.4079H15.6541V23.6496H21.7206V24.4079H22.4789V23.2704C22.4789 23.061 22.3092 22.8913 22.0998 22.8913Z" fill="#2170A6"/>
<path d="M17.9293 19.8579H18.3084V20.6162H19.0667V19.8579H19.4459C19.8647 19.8579 20.2042 19.5184 20.2042 19.0996V18.3413C20.2042 17.9225 19.8647 17.583 19.4459 17.583H17.9293V16.8247H19.4459V17.2038H20.2042V16.8247C20.2042 16.4059 19.8647 16.0664 19.4459 16.0664H19.0667V15.3081H18.3084V16.0664H17.9293C17.5104 16.0664 17.1709 16.4059 17.1709 16.8247V17.583C17.1709 18.0018 17.5104 18.3413 17.9293 18.3413H19.4459V19.0996H17.9293V18.7204H17.1709V19.0996C17.1709 19.5184 17.5104 19.8579 17.9293 19.8579Z" fill="#2170A6"/>
</svg>
