<svg width="19" height="18" viewBox="0 0 19 18" fill="none" xmlns="http://www.w3.org/2000/svg">
<path d="M6.17499 8.07499C6.26894 8.07499 6.36077 8.10285 6.43888 8.15504C6.517 8.20724 6.57788 8.28142 6.61383 8.36822C6.64978 8.45501 6.65919 8.55052 6.64086 8.64266C6.62253 8.7348 6.57729 8.81943 6.51086 8.88586C6.44443 8.95229 6.3598 8.99753 6.26766 9.01586C6.17552 9.03419 6.08001 9.02478 5.99322 8.98883C5.90642 8.95288 5.83224 8.892 5.78004 8.81388C5.72785 8.73577 5.69999 8.64393 5.69999 8.54999C5.70009 8.42404 5.75017 8.30328 5.83923 8.21422C5.92828 8.12517 6.04904 8.07509 6.17499 8.07499ZM6.17499 7.125C5.89315 7.125 5.61765 7.20857 5.38331 7.36515C5.14897 7.52173 4.96633 7.74429 4.85847 8.00467C4.75062 8.26505 4.7224 8.55157 4.77738 8.82799C4.83236 9.10441 4.96808 9.35832 5.16737 9.55761C5.36666 9.7569 5.62057 9.89261 5.89699 9.9476C6.17341 10.0026 6.45993 9.97436 6.72031 9.86651C6.98069 9.75865 7.20325 9.57601 7.35983 9.34167C7.51641 9.10733 7.59998 8.83183 7.59998 8.54999C7.59998 8.17206 7.44985 7.80961 7.18261 7.54237C6.91537 7.27513 6.55292 7.125 6.17499 7.125Z" fill="black"/>
<path d="M9.49994 8.07499C9.59389 8.07499 9.68572 8.10285 9.76383 8.15504C9.84195 8.20724 9.90283 8.28142 9.93878 8.36822C9.97473 8.45501 9.98414 8.55052 9.96581 8.64266C9.94748 8.7348 9.90224 8.81943 9.83581 8.88586C9.76938 8.95229 9.68475 8.99753 9.59261 9.01586C9.50047 9.03419 9.40496 9.02478 9.31817 8.98883C9.23137 8.95288 9.15719 8.892 9.105 8.81388C9.0528 8.73577 9.02494 8.64393 9.02494 8.54999C9.02504 8.42404 9.07512 8.30328 9.16418 8.21422C9.25323 8.12517 9.37399 8.07509 9.49994 8.07499ZM9.49994 7.125C9.2181 7.125 8.9426 7.20857 8.70826 7.36515C8.47392 7.52173 8.29128 7.74429 8.18342 8.00467C8.07557 8.26505 8.04735 8.55157 8.10233 8.82799C8.15732 9.10441 8.29303 9.35832 8.49232 9.55761C8.69161 9.7569 8.94552 9.89261 9.22194 9.9476C9.49836 10.0026 9.78488 9.97436 10.0453 9.86651C10.3056 9.75865 10.5282 9.57601 10.6848 9.34167C10.8414 9.10733 10.9249 8.83183 10.9249 8.54999C10.9249 8.17206 10.7748 7.80961 10.5076 7.54237C10.2403 7.27513 9.87787 7.125 9.49994 7.125Z" fill="black"/>
<path d="M12.825 8.07499C12.9189 8.07499 13.0107 8.10285 13.0888 8.15504C13.167 8.20724 13.2278 8.28142 13.2638 8.36822C13.2997 8.45501 13.3092 8.55052 13.2908 8.64266C13.2725 8.7348 13.2273 8.81943 13.1608 8.88586C13.0944 8.95229 13.0098 8.99753 12.9176 9.01586C12.8255 9.03419 12.73 9.02478 12.6432 8.98883C12.5564 8.95288 12.4822 8.892 12.43 8.81388C12.3778 8.73577 12.35 8.64393 12.35 8.54999C12.3501 8.42404 12.4001 8.30328 12.4892 8.21422C12.5782 8.12517 12.699 8.07509 12.825 8.07499ZM12.825 7.125C12.5431 7.125 12.2676 7.20857 12.0333 7.36515C11.7989 7.52173 11.6163 7.74429 11.5084 8.00467C11.4006 8.26505 11.3724 8.55157 11.4273 8.82799C11.4823 9.10441 11.618 9.35832 11.8173 9.55761C12.0166 9.7569 12.2705 9.89261 12.547 9.9476C12.8234 10.0026 13.1099 9.97436 13.3703 9.86651C13.6307 9.75865 13.8532 9.57601 14.0098 9.34167C14.1664 9.10733 14.2499 8.83183 14.2499 8.54999C14.2499 8.17206 14.0998 7.80961 13.8326 7.54237C13.5653 7.27513 13.2029 7.125 12.825 7.125Z" fill="black"/>
<path d="M9.49993 0.949993C14.2128 0.949993 18.0499 4.35921 18.0499 8.54994C18.0499 9.97641 17.5997 11.3702 16.7481 12.5763L16.4093 13.0587L16.6883 13.5782L18.0154 16.0389L18.0257 16.0582L18.0369 16.0768C18.0418 16.0851 18.0461 16.0938 18.0499 16.1027C18.041 16.1254 18.0237 16.1436 18.0016 16.1536C17.9915 16.1508 17.9818 16.1464 17.973 16.1406L17.9545 16.1295L17.9352 16.1191L15.3721 14.7368L14.8852 14.4744L14.4165 14.7683C12.9693 15.6745 11.27 16.154 9.49956 16.154C4.78707 16.1499 0.949993 12.7407 0.949993 8.54994C0.949993 4.35921 4.78707 0.949993 9.49993 0.949993ZM9.49993 0C4.25307 0 0 3.8278 0 8.54994C0 13.2721 4.25307 17.0999 9.49993 17.0999C11.5157 17.0999 13.3838 16.5332 14.9212 15.5695L17.4843 16.9514C17.6396 17.0472 17.8181 17.0986 18.0005 17.0999C18.7056 17.0999 19.2826 16.3024 18.8518 15.5843L17.5248 13.1236C18.4573 11.8007 18.9999 10.2328 18.9999 8.54994C18.9999 3.8278 14.7464 0 9.49993 0Z" fill="black"/>
</svg>
