<svg width="53" height="53" viewBox="0 0 53 53" fill="none" xmlns="http://www.w3.org/2000/svg">
<path d="M44.7133 8.46667H39.6333V5.92667C39.6333 5.45909 39.2542 5.08 38.7867 5.08H33.7067V0.846667C33.7067 0.379095 33.3276 0 32.86 0H22.7C22.2324 0 21.8533 0.379095 21.8533 0.846667V5.08H16.7733C16.3058 5.08 15.9267 5.45909 15.9267 5.92667V8.46667H10.8467C10.3791 8.46667 10 8.84576 10 9.31333V49.9533C10 50.4209 10.3791 50.8 10.8467 50.8H44.7133C45.1809 50.8 45.56 50.4209 45.56 49.9533V9.31333C45.56 8.84576 45.1809 8.46667 44.7133 8.46667ZM23.5467 1.69333H32.0133V5.08H23.5467V1.69333ZM17.62 6.77333H37.94V13.5467H17.62V6.77333ZM16.7733 15.24H38.7867C39.2542 15.24 39.6333 14.8609 39.6333 14.3933V13.5467H40.48V45.72H15.08V13.5467H15.9267V14.3933C15.9267 14.8609 16.3058 15.24 16.7733 15.24ZM43.8667 49.1067H11.6933V10.16H15.9267V11.8533H14.2333C13.7658 11.8533 13.3867 12.2324 13.3867 12.7V46.5667C13.3867 47.0342 13.7658 47.4133 14.2333 47.4133H41.3267C41.7942 47.4133 42.1733 47.0342 42.1733 46.5667V12.7C42.1733 12.2324 41.7942 11.8533 41.3267 11.8533H39.6333V10.16H43.8667V49.1067Z" fill="black"/>
<path d="M20.1601 18.627H17.6201C17.1525 18.627 16.7734 19.006 16.7734 19.4736C16.7734 19.9412 17.1525 20.3203 17.6201 20.3203H20.1601C20.6277 20.3203 21.0068 19.9412 21.0068 19.4736C21.0068 19.006 20.6277 18.627 20.1601 18.627Z" fill="black"/>
<path d="M31.1666 18.627H23.5466C23.079 18.627 22.7 19.006 22.7 19.4736C22.7 19.9412 23.079 20.3203 23.5466 20.3203H31.1666C31.6342 20.3203 32.0133 19.9412 32.0133 19.4736C32.0133 19.006 31.6342 18.627 31.1666 18.627Z" fill="black"/>
<path d="M37.9399 16.9336H34.5532C34.0856 16.9336 33.7065 17.3127 33.7065 17.7803V21.1669C33.7065 21.6345 34.0856 22.0136 34.5532 22.0136H37.9399C38.4074 22.0136 38.7865 21.6345 38.7865 21.1669V17.7803C38.7865 17.3127 38.4074 16.9336 37.9399 16.9336ZM37.0932 20.3203H35.3999V18.6269H37.0932V20.3203Z" fill="black"/>
<path d="M20.1601 25.4004H17.6201C17.1525 25.4004 16.7734 25.7795 16.7734 26.2471C16.7734 26.7146 17.1525 27.0937 17.6201 27.0937H20.1601C20.6277 27.0937 21.0068 26.7146 21.0068 26.2471C21.0068 25.7795 20.6277 25.4004 20.1601 25.4004Z" fill="black"/>
<path d="M31.1666 25.4004H23.5466C23.079 25.4004 22.7 25.7795 22.7 26.2471C22.7 26.7146 23.079 27.0937 23.5466 27.0937H31.1666C31.6342 27.0937 32.0133 26.7146 32.0133 26.2471C32.0133 25.7795 31.6342 25.4004 31.1666 25.4004Z" fill="black"/>
<path d="M37.9399 23.707H34.5532C34.0856 23.707 33.7065 24.0861 33.7065 24.5537V27.9404C33.7065 28.4079 34.0856 28.787 34.5532 28.787H37.9399C38.4074 28.787 38.7865 28.4079 38.7865 27.9404V24.5537C38.7865 24.0861 38.4074 23.707 37.9399 23.707ZM37.0932 27.0937H35.3999V25.4004H37.0932V27.0937Z" fill="black"/>
<path d="M20.1601 32.1738H17.6201C17.1525 32.1738 16.7734 32.5529 16.7734 33.0205C16.7734 33.4881 17.1525 33.8672 17.6201 33.8672H20.1601C20.6277 33.8672 21.0068 33.4881 21.0068 33.0205C21.0068 32.5529 20.6277 32.1738 20.1601 32.1738Z" fill="black"/>
<path d="M31.1666 32.1738H23.5466C23.079 32.1738 22.7 32.5529 22.7 33.0205C22.7 33.4881 23.079 33.8672 23.5466 33.8672H31.1666C31.6342 33.8672 32.0133 33.4881 32.0133 33.0205C32.0133 32.5529 31.6342 32.1738 31.1666 32.1738Z" fill="black"/>
<path d="M37.9399 30.4795H34.5532C34.0856 30.4795 33.7065 30.8586 33.7065 31.3262V34.7128C33.7065 35.1804 34.0856 35.5595 34.5532 35.5595H37.9399C38.4074 35.5595 38.7865 35.1804 38.7865 34.7128V31.3262C38.7865 30.8586 38.4074 30.4795 37.9399 30.4795ZM37.0932 33.8662H35.3999V32.1728H37.0932V33.8662Z" fill="black"/>
<path d="M20.1601 38.9463H17.6201C17.1525 38.9463 16.7734 39.3254 16.7734 39.793C16.7734 40.2605 17.1525 40.6396 17.6201 40.6396H20.1601C20.6277 40.6396 21.0068 40.2605 21.0068 39.793C21.0068 39.3254 20.6277 38.9463 20.1601 38.9463Z" fill="black"/>
<path d="M31.1666 38.9463H23.5466C23.079 38.9463 22.7 39.3254 22.7 39.793C22.7 40.2605 23.079 40.6396 23.5466 40.6396H31.1666C31.6342 40.6396 32.0133 40.2605 32.0133 39.793C32.0133 39.3254 31.6342 38.9463 31.1666 38.9463Z" fill="black"/>
<path d="M37.9399 37.2529H34.5532C34.0856 37.2529 33.7065 37.632 33.7065 38.0996V41.4863C33.7065 41.9538 34.0856 42.3329 34.5532 42.3329H37.9399C38.4074 42.3329 38.7865 41.9538 38.7865 41.4863V38.0996C38.7865 37.632 38.4074 37.2529 37.9399 37.2529ZM37.0932 40.6396H35.3999V38.9463H37.0932V40.6396Z" fill="black"/>
<path d="M51.4868 25.4004H50.6401V23.707C50.6401 23.2394 50.261 22.8604 49.7934 22.8604C49.3258 22.8604 48.9468 23.2394 48.9468 23.707V25.4004H48.1001C47.6325 25.4004 47.2534 25.7794 47.2534 26.247V49.9537C47.2534 50.4213 47.6325 50.8004 48.1001 50.8004H51.4868C51.9543 50.8004 52.3334 50.4213 52.3334 49.9537V26.247C52.3334 25.7794 51.9543 25.4004 51.4868 25.4004ZM50.6401 49.107H48.9468V32.1737H50.6401V49.107ZM50.6401 30.4804H48.9468V27.0937H50.6401V30.4804Z" fill="black"/>
<path d="M13.5 31.5L9.5 38.5H9V50L10.5 50.5L15.5 51H20.5L25 50.5L26 49L25.5 47.5L26 47L27 45.5L26.5 44L27.5 43L28 41L27.5 39.5L28.5 38L28 36.5L26.5 35H17.5L18.5 29L17.5 26.5L15.5 25.5L13.5 26.5V31.5Z" fill="#DFEDFC"/>
<path d="M29 41.6146C29 40.8884 28.7112 40.2117 28.2134 39.7126C28.7777 39.0952 29.0653 38.2674 28.9867 37.4059C28.8453 35.8701 27.4618 34.6666 25.8354 34.6666H18.3715C18.7412 33.5441 19.3333 31.4863 19.3333 29.8333C19.3333 27.2124 17.1064 25 15.7083 25C14.4541 25 13.5563 25.7069 13.5188 25.7359C13.375 25.8507 13.2916 26.0247 13.2916 26.2083V30.3058L9.81044 37.8446L9.66663 37.9183V37.6874C9.66663 37.3539 9.39594 37.0833 9.06244 37.0833H3.02081C1.35456 37.0833 0 38.4379 0 40.1041V49.7708C0 51.4371 1.35456 52.7916 3.02081 52.7916H6.64581C7.952 52.7916 9.0685 51.9579 9.489 50.7943C10.4944 51.3114 11.8477 51.5833 12.6875 51.5833H23.7788C25.0947 51.5833 26.2462 50.6964 26.5169 49.4736C26.6558 48.8428 26.5749 48.2084 26.2994 47.6574C27.1911 47.2091 27.7917 46.2872 27.7917 45.2396C27.7917 44.8118 27.6938 44.4022 27.5089 44.0324C28.4007 43.5829 29 42.6622 29 41.6146ZM26.4516 43.1056C26.2184 43.1334 26.0214 43.2917 25.9466 43.5153C25.8729 43.7388 25.9345 43.9841 26.1061 44.146C26.413 44.4348 26.5834 44.8239 26.5834 45.2396C26.5834 46.002 26.007 46.6424 25.2446 46.7306C25.0114 46.7584 24.8144 46.9167 24.7395 47.1403C24.6658 47.3638 24.7274 47.6091 24.899 47.771C25.2966 48.1456 25.4561 48.6712 25.3364 49.2126C25.1878 49.8868 24.5329 50.375 23.7789 50.375H12.6875C11.7063 50.375 10.0606 49.9146 9.49025 49.3431C9.31744 49.1715 9.05644 49.1208 8.83169 49.2126C8.60575 49.3056 8.45831 49.5268 8.45831 49.7708C8.45831 50.7701 7.64512 51.5833 6.64581 51.5833H3.02081C2.0215 51.5833 1.20831 50.7701 1.20831 49.7708V40.1041C1.20831 39.1048 2.0215 38.2916 3.02081 38.2916H8.45831V38.8958C8.45831 39.1049 8.56706 39.2994 8.74588 39.4106C8.92231 39.5169 9.14463 39.5278 9.33313 39.4359L10.5414 38.8318C10.6635 38.7713 10.7614 38.6698 10.8194 38.5454L14.4444 30.6912C14.4806 30.6114 14.4999 30.5244 14.4999 30.4374V26.5358C14.7513 26.3968 15.1876 26.2083 15.7083 26.2083C16.3705 26.2083 18.125 27.8541 18.125 29.8333C18.125 31.96 16.9674 35.0255 16.9566 35.0558C16.8865 35.2406 16.9106 35.4497 17.023 35.614C17.1366 35.7771 17.3227 35.875 17.5208 35.875H25.8354C26.8431 35.875 27.6986 36.5964 27.7832 37.5171C27.8472 38.2059 27.5161 38.8608 26.9229 39.2269C26.738 39.3405 26.6281 39.5459 26.6365 39.7646C26.6449 39.9833 26.7706 40.1791 26.9639 40.2794C27.4751 40.5392 27.7916 41.0515 27.7916 41.6146C27.7917 42.377 27.2153 43.0174 26.4516 43.1056Z" fill="black"/>
<path d="M9.06244 38.292C8.72894 38.292 8.45825 38.5627 8.45825 38.8962V49.7712C8.45825 50.1047 8.72894 50.3754 9.06244 50.3754C9.39594 50.3754 9.66662 50.1047 9.66662 49.7712V38.8962C9.66662 38.5627 9.39594 38.292 9.06244 38.292Z" fill="black"/>
</svg>
