<svg width="21" height="20" viewBox="0 0 21 20" fill="none" xmlns="http://www.w3.org/2000/svg">
<path d="M10.8721 0.5C13.3879 0.5 15.7515 1.48653 17.5317 3.28106C19.312 5.07572 20.2921 7.46027 20.2921 10C20.2921 12.5397 19.312 14.9243 17.5317 16.7189C15.7515 18.5135 13.3879 19.5 10.8721 19.5C8.35637 19.5 5.99278 18.5135 4.21261 16.7189C2.43231 14.9243 1.45215 12.5397 1.45215 10C1.45215 7.46027 2.43231 5.07572 4.21261 3.28106C5.99278 1.48653 8.35637 0.5 10.8721 0.5ZM10.8721 19.3281C13.3453 19.3281 15.6721 18.3562 17.4196 16.5945C19.167 14.8331 20.1296 12.4894 20.1296 10C20.1296 7.51061 19.167 5.16692 17.4196 3.40551C15.6721 1.64381 13.3453 0.671875 10.8721 0.671875C8.39901 0.671875 6.07218 1.64381 4.32473 3.40551C2.57727 5.16692 1.61465 7.51061 1.61465 10C1.61465 12.4894 2.57727 14.8331 4.32473 16.5945C6.07218 18.3562 8.39901 19.3281 10.8721 19.3281Z" fill="white" stroke="black"/>
<path d="M3.77734 10C3.77734 6.0507 6.96439 2.84375 10.8723 2.84375C14.7803 2.84375 17.9673 6.0507 17.9673 10C17.9673 13.9493 14.7803 17.1562 10.8723 17.1562C6.96439 17.1562 3.77734 13.9493 3.77734 10ZM3.93984 10C3.93984 13.8478 7.04559 16.9844 10.8723 16.9844C14.6991 16.9844 17.8048 13.8478 17.8048 10C17.8048 6.15221 14.6991 3.01562 10.8723 3.01562C7.04559 3.01562 3.93984 6.15221 3.93984 10Z" fill="white" stroke="black"/>
<path d="M10.9532 6.29263V6.72813L11.3846 6.7879C12.0145 6.8752 12.5346 7.32761 12.7236 7.92871H12.5513C12.3473 7.35659 11.8033 6.94376 11.1604 6.94376H10.5834C9.76479 6.94376 9.10635 7.6133 9.10635 8.42871C9.10635 9.24412 9.76479 9.91367 10.5834 9.91367H11.1604C12.0603 9.91367 12.8 10.6536 12.8 11.5705C12.8 12.409 12.1799 13.101 11.3845 13.2113L10.9532 13.2711V13.7066V14.4006H10.7907V13.7066V13.2711L10.3593 13.2113C9.72932 13.124 9.20923 12.6716 9.02023 12.0705H9.19252C9.39656 12.6426 9.9406 13.0555 10.5834 13.0555H11.1604C11.9791 13.0555 12.6375 12.3859 12.6375 11.5705C12.6375 10.7551 11.9791 10.0855 11.1604 10.0855H10.5834C9.68359 10.0855 8.94385 9.34563 8.94385 8.42871C8.94385 7.59023 9.56396 6.89823 10.3594 6.78789L10.7907 6.72806V6.29263V5.59863H10.9532V6.29263Z" fill="white" stroke="black"/>
</svg>
