<svg width="28" height="20" viewBox="0 0 28 20" fill="none" xmlns="http://www.w3.org/2000/svg">
<path d="M20.7626 12.1279C18.8518 12.1279 17.2974 13.6824 17.2974 15.5932C17.2974 17.504 18.8518 19.0585 20.7626 19.0585C22.6737 19.0585 24.2279 17.504 24.2279 15.5932C24.2279 13.6824 22.6734 12.1279 20.7626 12.1279ZM20.7626 17.3258C19.8071 17.3258 19.03 16.5487 19.03 15.5932C19.03 14.6377 19.8071 13.8606 20.7626 13.8606C21.7182 13.8606 22.4953 14.6377 22.4953 15.5932C22.4953 16.5488 21.7182 17.3258 20.7626 17.3258Z" fill="black"/>
<path d="M8.92303 12.1279C7.01224 12.1279 5.45776 13.6824 5.45776 15.5932C5.45776 17.504 7.01224 19.0585 8.92303 19.0585C10.8338 19.0585 12.3883 17.504 12.3883 15.5932C12.3883 13.6824 10.8338 12.1279 8.92303 12.1279ZM8.92303 17.3258C7.9675 17.3258 7.19039 16.5487 7.19039 15.5932C7.19039 14.6377 7.9675 13.8606 8.92303 13.8606C9.87828 13.8606 10.6557 14.6377 10.6557 15.5932C10.6557 16.5488 9.87855 17.3258 8.92303 17.3258Z" fill="black"/>
<path d="M23.0962 2.20949C22.9489 1.91697 22.6495 1.73242 22.322 1.73242H17.7594V3.46505H21.7877L24.1467 8.15699L25.6951 7.37844L23.0962 2.20949Z" fill="black"/>
<path d="M18.1637 14.7559H11.6086V16.4885H18.1637V14.7559Z" fill="black"/>
<path d="M6.32405 14.7559H3.32088C2.84236 14.7559 2.45459 15.1437 2.45459 15.6221C2.45459 16.1007 2.84242 16.4884 3.32088 16.4884H6.32411C6.80262 16.4884 7.1904 16.1006 7.1904 15.6221C7.1904 15.1436 6.80257 14.7559 6.32405 14.7559Z" fill="black"/>
<path d="M27.3091 9.46012L25.6051 7.26546C25.4414 7.05407 25.1887 6.93047 24.921 6.93047H18.6257V0.866288C18.6257 0.387773 18.2379 0 17.7595 0H3.32088C2.84236 0 2.45459 0.387827 2.45459 0.866288C2.45459 1.34475 2.84242 1.73258 3.32088 1.73258H16.8931V7.79676C16.8931 8.27527 17.2809 8.66305 17.7594 8.66305H24.4967L25.7584 10.2882V14.7561H23.3615C22.883 14.7561 22.4953 15.1439 22.4953 15.6224C22.4953 16.1009 22.8831 16.4887 23.3615 16.4887H26.6247C27.1032 16.4887 27.4909 16.1009 27.491 15.6224V9.99147C27.491 9.79914 27.4269 9.61202 27.3091 9.46012Z" fill="black"/>
<path d="M6.26633 10.3672H2.28127C1.80275 10.3672 1.41498 10.755 1.41498 11.2335C1.41498 11.712 1.80281 12.0998 2.28127 12.0998H6.26628C6.7448 12.0998 7.13257 11.7119 7.13257 11.2335C7.13262 10.755 6.74479 10.3672 6.26633 10.3672Z" fill="black"/>
<path d="M8.25884 6.95898H0.866289C0.387827 6.95898 0 7.34681 0 7.82533C0 8.30384 0.387827 8.69161 0.866289 8.69161H8.25884C8.73736 8.69161 9.12513 8.30379 9.12513 7.82533C9.12513 7.34686 8.73736 6.95898 8.25884 6.95898Z" fill="black"/>
<path d="M9.67382 3.55176H2.28127C1.80275 3.55176 1.41498 3.93959 1.41498 4.41805C1.41498 4.89656 1.80281 5.28434 2.28127 5.28434H9.67382C10.1523 5.28434 10.5401 4.89651 10.5401 4.41805C10.5402 3.93959 10.1523 3.55176 9.67382 3.55176Z" fill="black"/>
</svg>
