<svg id="Layer_1" data-name="Layer 1" xmlns="http://www.w3.org/2000/svg" viewBox="0 0 24 24"><defs><style>.cls-1{fill:#ff5d63;}</style></defs><path class="cls-1" d="M4,6.43c-.1-.37-.22-.69-.28-1A3.74,3.74,0,0,1,6.91,1,4,4,0,0,1,11,3c.28.51.59,1,.91,1.55a1.86,1.86,0,0,0,.25-.26c.27-.46.52-.92.79-1.37a3.88,3.88,0,0,1,3.72-2,3.64,3.64,0,0,1,3.44,2.71A3.57,3.57,0,0,1,20.09,6l-.17.44c.21,0,.37,0,.54,0,.49,0,1,0,1.48,0A1.22,1.22,0,0,1,23.1,7.67q0,1.53,0,3.06a1.24,1.24,0,0,1-1.18,1.21H2.13A1.25,1.25,0,0,1,.88,10.65c0-.94,0-1.89,0-2.83a1.26,1.26,0,0,1,1.3-1.34c.44,0,.89,0,1.34,0A4.92,4.92,0,0,0,4,6.43Zm6.66.05c-.41-.73-.75-1.35-1.11-1.95a5.57,5.57,0,0,0-.72-1.07,1.92,1.92,0,0,0-2.26-.34,1.79,1.79,0,0,0-.86,2.07A1.87,1.87,0,0,0,7.58,6.47H10.7Zm2.59-.06c.24,0,.37,0,.5,0,.9,0,1.79,0,2.69,0a1.84,1.84,0,0,0,1.79-1.4,1.83,1.83,0,0,0-1-2,1.85,1.85,0,0,0-2.2.47C14.45,4.43,13.91,5.4,13.29,6.42Z"/><path class="cls-1" d="M10.51,23.1c-2.1,0-4.19,0-6.28,0a2,2,0,0,1-2-2.26c0-2.35,0-4.7,0-7.06,0-.28.11-.37.38-.37H10.2c.23,0,.37,0,.37.32q0,4.62,0,9.24S10.54,23,10.51,23.1Z"/><path class="cls-1" d="M13.41,23.11V22.6c0-2.89,0-5.79,0-8.69,0-.41.12-.51.52-.51,2.45,0,4.9,0,7.34,0,.37,0,.48.1.47.47,0,2.31,0,4.61,0,6.92a2.08,2.08,0,0,1-2.34,2.31Z"/></svg>