<svg width="28" height="9" viewBox="0 0 28 9" fill="none" xmlns="http://www.w3.org/2000/svg">
<path d="M10.0376 8.0821L11.4281 0.260742H13.6007L12.2537 8.0821H10.0376Z" fill="#3C58BF"/>
<path d="M10.0376 8.0821L11.8191 0.260742H13.6007L12.2537 8.0821H10.0376Z" fill="#293688"/>
<path d="M20.1184 0.347616C19.6839 0.173808 18.9886 0 18.1196 0C15.947 0 14.3827 1.0863 14.3827 2.65057C14.3827 3.82378 15.469 4.43211 16.338 4.82317C17.2071 5.21424 17.4678 5.47495 17.4678 5.82257C17.4678 6.34399 16.7726 6.60471 16.1642 6.60471C15.2952 6.60471 14.8172 6.47435 14.0785 6.17019L13.7744 6.03983L13.4702 7.82136C13.9916 8.03862 14.9476 8.25588 15.947 8.25588C18.2499 8.25588 19.7708 7.16958 19.7708 5.51841C19.7708 4.60591 19.2059 3.91068 17.9023 3.3458C17.1202 2.95474 16.6422 2.73748 16.6422 2.34641C16.6422 1.99879 17.0333 1.65118 17.9023 1.65118C18.641 1.65118 19.1624 1.78153 19.5535 1.95534L19.7708 2.04224L20.1184 0.347616Z" fill="#3C58BF"/>
<path d="M20.1184 0.347616C19.6839 0.173808 18.9886 0 18.1196 0C15.947 0 14.7738 1.0863 14.7738 2.65057C14.7738 3.82378 15.469 4.43211 16.338 4.82317C17.2071 5.21424 17.4678 5.47495 17.4678 5.82257C17.4678 6.34399 16.7726 6.60471 16.1642 6.60471C15.2952 6.60471 14.8172 6.47435 14.0785 6.17019L13.7744 6.03983L13.4702 7.82136C13.9916 8.03862 14.9476 8.25588 15.947 8.25588C18.2499 8.25588 19.7708 7.16958 19.7708 5.51841C19.7708 4.60591 19.2059 3.91068 17.9023 3.3458C17.1202 2.95474 16.6422 2.73748 16.6422 2.34641C16.6422 1.99879 17.0333 1.65118 17.9023 1.65118C18.641 1.65118 19.1624 1.78153 19.5535 1.95534L19.7708 2.04224L20.1184 0.347616Z" fill="#293688"/>
<path d="M23.855 0.260742C23.3335 0.260742 22.9425 0.304195 22.7252 0.825619L19.4663 8.0821H21.8127L22.2472 6.77854H25.0282L25.2889 8.0821H27.3746L25.5496 0.260742H23.855ZM22.8556 5.47498C22.9859 5.08392 23.7246 3.17203 23.7246 3.17203C23.7246 3.17203 23.8984 2.69406 24.0288 2.38989L24.1591 3.12858C24.1591 3.12858 24.5936 5.08392 24.6805 5.51844H22.8556V5.47498Z" fill="#3C58BF"/>
<path d="M24.3764 0.260742C23.855 0.260742 23.4639 0.304195 23.2466 0.825619L19.4663 8.0821H21.8127L22.2472 6.77854H25.0282L25.2889 8.0821H27.3746L25.5496 0.260742H24.3764ZM22.8556 5.47498C23.0294 5.04046 23.7246 3.17203 23.7246 3.17203C23.7246 3.17203 23.8984 2.69406 24.0288 2.38989L24.1591 3.12858C24.1591 3.12858 24.5936 5.08392 24.6805 5.51844H22.8556V5.47498Z" fill="#293688"/>
<path d="M6.04015 5.73521L5.82289 4.60546C5.43182 3.3019 4.17171 1.86798 2.78125 1.17275L4.73659 8.12507H7.083L10.6026 0.303711H8.2562L6.04015 5.73521Z" fill="#3C58BF"/>
<path d="M6.04015 5.73521L5.82289 4.60546C5.43182 3.3019 4.17171 1.86798 2.78125 1.17275L4.73659 8.12507H7.083L10.6026 0.303711H8.69072L6.04015 5.73521Z" fill="#293688"/>
<path d="M0 0.260742L0.391068 0.347647C3.172 0.999427 5.08389 2.6506 5.82257 4.60594L5.04043 0.912522C4.91008 0.391098 4.51901 0.260742 4.04104 0.260742H0Z" fill="#FFBC00"/>
<path d="M0 0.260742C2.78093 0.912522 5.08389 2.60715 5.82257 4.56249L5.08389 1.4774C4.95353 0.955975 4.51901 0.651811 4.04104 0.651811L0 0.260742Z" fill="#F7981D"/>
<path d="M0 0.260742C2.78093 0.912522 5.08389 2.60715 5.82257 4.56249L5.30115 2.86786C5.17079 2.34644 4.99698 1.82501 4.38865 1.60775L0 0.260742Z" fill="#ED7C00"/>
<path d="M8.21227 5.47508L6.7349 3.99772L6.03967 5.64889L5.86586 4.56259C5.47479 3.25903 4.21468 1.82512 2.82422 1.12988L4.77956 8.0822H7.12597L8.21227 5.47508Z" fill="#051244"/>
<path d="M12.2537 8.08279L10.3852 6.1709L10.0376 8.08279H12.2537Z" fill="#051244"/>
<path d="M17.2505 5.3877C17.4243 5.5615 17.5113 5.69186 17.4678 5.86567C17.4678 6.38709 16.7726 6.6478 16.1642 6.6478C15.2952 6.6478 14.8172 6.51745 14.0785 6.21328L13.7744 6.08293L13.4702 7.86446C13.9916 8.08172 14.9476 8.29898 15.947 8.29898C17.3374 8.29898 18.4672 7.90791 19.119 7.21268L17.2505 5.3877Z" fill="#051244"/>
<path d="M19.771 8.08186H21.8132L22.2478 6.7783H25.0287L25.2894 8.08186H27.3751L26.6364 4.90986L24.0293 2.38965L24.1596 3.08488C24.1596 3.08488 24.5942 5.04022 24.6811 5.47474H22.8561C23.0299 5.04022 23.7251 3.17178 23.7251 3.17178C23.7251 3.17178 23.8989 2.69381 24.0293 2.38965" fill="#051244"/>
</svg>
