<svg width="18" height="12" viewBox="0 0 18 12" fill="none" xmlns="http://www.w3.org/2000/svg">
<path d="M18.0001 5.58352C18.0001 8.66722 15.5002 11.167 12.4165 11.167C9.33284 11.167 6.83301 8.66722 6.83301 5.58352C6.83301 2.49983 9.33284 0 12.4165 0C15.5002 0 18.0001 2.49983 18.0001 5.58352Z" fill="#F79F1A"/>
<path d="M11.167 5.58352C11.167 8.66722 8.66722 11.167 5.58352 11.167C2.49983 11.167 0 8.66722 0 5.58352C0 2.49983 2.49983 0 5.58352 0C8.66722 0 11.167 2.49983 11.167 5.58352Z" fill="#EA001B"/>
<path d="M18.0001 5.58352C18.0001 8.66722 15.5002 11.167 12.4165 11.167C9.33284 11.167 6.83301 8.66722 6.83301 5.58352C6.83301 2.49983 9.33284 0 12.4165 0C15.5002 0 18.0001 2.49983 18.0001 5.58352Z" fill="#F79F1A" fill-opacity="0.6"/>
</svg>
