<svg width="24" height="24" viewBox="0 0 24 24" fill="none" xmlns="http://www.w3.org/2000/svg">
<path d="M7.05058 12.085C10.9436 12.085 14.1012 9.38 14.1012 6.045C14.1012 2.71 10.9436 0 7.05058 0C3.15759 0 0 2.705 0 6.04C0 9.375 3.15759 12.085 7.05058 12.085ZM4.58755 8.43C4.65175 8.23 4.71595 8.035 4.78599 7.835C4.8677 7.605 4.94358 7.58 5.18872 7.69C5.60895 7.875 6.05253 7.98 6.51946 8.03C6.81712 8.06 7.11479 8.035 7.38911 7.93C7.90856 7.735 7.99027 7.22 7.55253 6.91C7.40078 6.805 7.23152 6.725 7.05642 6.66C6.60117 6.49 6.12841 6.36 5.6965 6.14C5.00195 5.785 4.55837 5.29 4.6109 4.565C4.66926 3.745 5.21206 3.23 6.08755 2.96C6.44942 2.845 6.44942 2.85 6.45525 2.525C6.45525 2.415 6.45525 2.305 6.45525 2.195C6.46109 1.95 6.51362 1.91 6.79377 1.9C6.88132 1.9 6.96887 1.9 7.05642 1.9C7.66342 1.9 7.66342 1.9 7.66342 2.42C7.66342 2.785 7.66342 2.79 8.08949 2.845C8.41634 2.89 8.72568 2.97 9.02918 3.085C9.19845 3.15 9.25681 3.25 9.21012 3.4C9.13424 3.625 9.0642 3.85 8.97665 4.07C8.89494 4.28 8.81907 4.31 8.5856 4.215C8.11284 4.02 7.61673 3.935 7.09144 3.96C6.95136 3.965 6.82296 3.98 6.69455 4.03C6.24514 4.2 6.16926 4.625 6.55447 4.89C6.74708 5.025 6.96887 5.12 7.20234 5.2C7.59922 5.34 8.00195 5.48 8.38716 5.66C9.59533 6.235 9.92218 7.535 9.07004 8.42C8.7607 8.74 8.36381 8.955 7.89105 9.065C7.68677 9.115 7.59338 9.205 7.60506 9.385C7.61673 9.565 7.60506 9.74 7.60506 9.92C7.60506 10.08 7.51167 10.165 7.3249 10.17C7.10311 10.175 6.87549 10.175 6.6537 10.17C6.45525 10.165 6.36187 10.07 6.36187 9.905C6.36187 9.775 6.36187 9.645 6.35603 9.515C6.35019 9.23 6.34436 9.215 6.01751 9.17C5.60311 9.115 5.20039 9.035 4.82101 8.875C4.53502 8.76 4.50584 8.695 4.58755 8.43Z" fill="#FF5C63"/>
<path d="M22.8677 12.5902H22.0448C21.502 11.1652 20.4397 9.90018 19.0214 8.92018C19.0214 8.87518 19.0097 8.82518 18.9981 8.78018C18.7004 7.88518 19.0681 7.07018 19.4942 6.48518C19.7918 6.07518 19.4066 5.55018 18.8463 5.61018C17.5914 5.74518 16.7276 6.14018 16.1323 6.58518C15.7237 6.89018 15.4319 7.30018 15.3035 7.75518C14.4047 10.9452 11.0486 13.3202 7.05059 13.3202C5.10701 13.3202 3.32102 12.7602 1.89106 11.8202C1.39495 12.7402 1.12646 13.7452 1.12646 14.8002C1.12646 15.3702 1.20818 15.9252 1.35993 16.4602C1.35993 16.4602 1.35993 16.4702 1.36576 16.4852C1.52335 17.0402 1.76265 17.5752 2.06615 18.0802C2.46888 18.8252 3.05253 19.6952 3.85798 20.4002C5.01946 21.4252 5.21791 22.6952 5.24709 23.2452V23.4802C5.24709 23.4902 5.24709 23.5002 5.24709 23.5102C5.24709 23.5152 5.24709 23.5152 5.24709 23.5152C5.27043 23.7852 5.53308 24.0002 5.85409 24.0002H9.54281C9.87549 24.0002 10.1498 23.7702 10.1498 23.4802V22.7002C10.6868 22.7602 11.2354 22.7952 11.7899 22.7952C12.2276 22.7952 12.6537 22.7752 13.0798 22.7352V23.4802C13.0798 23.7652 13.3483 24.0002 13.6868 24.0002H17.3872C17.7198 24.0002 17.9942 23.7702 17.9942 23.4802V22.7002C18 22.4402 18.1051 21.4052 19.249 20.5202C19.2899 20.4902 19.3307 20.4602 19.3716 20.4302C19.3833 20.4202 19.3949 20.4152 19.4066 20.4052C20.679 19.4352 21.6187 18.2252 22.1031 16.8752H22.8794C23.4981 16.8752 24 16.4452 24 15.9152V13.5502C23.9883 13.0202 23.4864 12.5902 22.8677 12.5902ZM18.251 12.7602C17.7432 12.7602 17.3346 12.4102 17.3346 11.9752C17.3346 11.5402 17.7432 11.1902 18.251 11.1902C18.7588 11.1902 19.1673 11.5402 19.1673 11.9752C19.1673 12.4102 18.7588 12.7602 18.251 12.7602Z" fill="#FF5C63"/>
</svg>
