<svg width="25" height="24" viewBox="0 0 25 24" fill="none" xmlns="http://www.w3.org/2000/svg">
<g clip-path="url(#clip0_31_12414)">
<path d="M11.233 16.2178V12.9366H7.96924C7.45417 12.9366 7.03674 12.5169 7.03674 11.9991C7.03674 11.4814 7.45417 11.0616 7.96924 11.0616H11.233V7.78033C11.233 7.2627 11.6504 6.84283 12.1655 6.84283C12.6805 6.84283 13.098 7.2627 13.098 7.78033V11.0616H16.3617C16.8768 11.0616 17.2942 11.4814 17.2942 11.9991C17.2942 12.5169 16.8768 12.9366 16.3617 12.9366H13.098V16.2178C13.098 16.7357 12.6805 17.1553 12.1655 17.1553C11.6504 17.1553 11.233 16.7357 11.233 16.2178ZM20.6055 3.51471C18.3511 1.24823 15.3536 0 12.1655 0C8.97732 0 5.97984 1.24823 3.72545 3.51471C1.47106 5.78119 0.229492 8.79474 0.229492 12C0.229492 15.2053 1.47106 18.2188 3.72545 20.4853C5.97984 22.7518 8.97732 24 12.1655 24C14.3481 24 16.4838 23.402 18.3415 22.2706C18.782 22.0023 18.9228 21.4259 18.656 20.9832C18.3892 20.5402 17.8157 20.3987 17.3753 20.6669C15.809 21.6207 14.0073 22.125 12.1655 22.125C6.61238 22.125 2.09449 17.5829 2.09449 12C2.09449 6.41711 6.61238 1.875 12.1655 1.875C17.7186 1.875 22.2365 6.41711 22.2365 12C22.2365 13.9964 21.646 15.9395 20.5288 17.6197C20.2425 18.05 20.3576 18.6323 20.7858 18.9201C21.2138 19.2078 21.793 19.092 22.0793 18.6617C23.4021 16.6723 24.1015 14.3687 24.1015 12C24.1015 8.79474 22.8599 5.78119 20.6055 3.51471Z" fill="#0E1242"/>
</g>
<defs>
<clipPath id="clip0_31_12414">
<rect width="23.872" height="24" fill="white" transform="translate(0.229492)"/>
</clipPath>
</defs>
</svg>
