<svg width="22" height="18" viewBox="0 0 22 18" fill="none" xmlns="http://www.w3.org/2000/svg">
<path d="M3.74951 9.1875V15.3116H12.4299V9.1875H3.74951ZM11.5615 14.4375H4.61795V10.0616H11.5615V14.4375Z" fill="#474747"/>
<path d="M10.6907 12.25C10.5705 12.25 10.4618 12.2987 10.3836 12.3782L9.51582 13.2536C9.43697 13.3324 9.38867 13.442 9.38867 13.5625C9.38867 13.8041 9.5832 13.9996 9.82224 13.9996C9.94239 13.9996 10.0511 13.9508 10.1293 13.8714L10.9971 12.9973C11.0759 12.9178 11.1242 12.8082 11.1242 12.6871C11.1242 12.4461 10.9304 12.25 10.6907 12.25Z" fill="#474747"/>
<path d="M10.6906 10.5C10.5704 10.5 10.4617 10.5487 10.3835 10.6282L7.77949 13.2525C7.70129 13.3313 7.65234 13.4416 7.65234 13.5621C7.65234 13.8037 7.84687 13.9991 8.08656 13.9991C8.2061 13.9991 8.31478 13.9504 8.39298 13.8709L10.997 11.2466C11.0758 11.1678 11.1241 11.0576 11.1241 10.9371C11.1241 10.6954 10.9303 10.5 10.6906 10.5Z" fill="#474747"/>
<path d="M21.5134 5.42173L21.4994 5.3429C21.4969 5.33072 21.4956 5.31854 21.4931 5.30668L20.0321 1.74985V0H2.19953V1.74989L0.762773 5.3064C0.7596 5.3205 0.757687 5.33461 0.755124 5.34835L0.741779 5.42173C0.722086 5.54896 0.711914 5.67939 0.711914 5.81236C0.711914 6.76343 1.23833 7.59015 2.01391 8.01277V17.937H20.2419V8.01277C21.0169 7.5901 21.5439 6.76339 21.5439 5.81236C21.5439 5.67939 21.5331 5.54896 21.5134 5.42173ZM20.5325 5.25H17.3436L16.9602 2.65223H19.4828L20.5325 5.25ZM3.06796 0.874781H19.1643V1.74989H3.06796V0.874781ZM16.5953 6.12478L16.6423 6.44232L16.3855 6.78677C16.0778 7.20013 15.6074 7.43724 15.0956 7.43724C14.5838 7.43724 14.1134 7.20013 13.8057 6.78677L13.5437 6.43494L13.5285 6.12478H16.5953ZM13.4859 5.25L13.3594 2.65223H16.0823L16.4663 5.25H13.4859ZM12.6594 6.12474L12.6747 6.44199L12.4172 6.78677C12.1095 7.20013 11.6391 7.43724 11.1279 7.43724C10.6155 7.43724 10.1457 7.20013 9.83735 6.78677L9.57414 6.43268L9.5894 6.12474H12.6594ZM9.6333 5.25L9.76362 2.65223H12.4909L12.6168 5.25H9.6333ZM5.79403 5.25L6.17291 2.65223H8.89515L8.76417 5.25H5.79403ZM8.7197 6.12478L8.70379 6.44552L8.4495 6.78677C8.14117 7.20013 7.67135 7.43724 7.15958 7.43724C6.64781 7.43724 6.17799 7.20013 5.86966 6.78677L5.61919 6.45065L5.66688 6.12478H8.7197ZM2.77237 2.65223H5.29564L4.91676 5.25H1.72279L2.77237 2.65223ZM1.60956 6.12478H4.78953L4.7215 6.46476L4.48181 6.78681C4.17348 7.20017 3.70367 7.43728 3.19125 7.43728C2.4087 7.43728 1.75453 6.87204 1.60956 6.12478ZM17.6379 17.0628H14.1655V13.9995H14.5997C14.8394 13.9995 15.0339 13.804 15.0339 13.5624C15.0339 13.3208 14.8394 13.1253 14.5997 13.1253H14.1655V10.062H17.6379V17.0628ZM19.3736 17.0628H19.3735H18.5057V9.18783H13.2977V17.0628H2.8817V8.29287C2.98276 8.30566 3.08705 8.31243 3.19129 8.31243C4.00252 8.31243 4.72342 7.91958 5.17545 7.31235C5.6281 7.91958 6.34839 8.31243 7.15962 8.31243C7.97085 8.31243 8.69114 7.91958 9.14379 7.31235C9.59578 7.91958 10.3167 8.31243 11.128 8.31243C11.9392 8.31243 12.6588 7.91958 13.1115 7.31235C13.5641 7.91958 14.2844 8.31243 15.0956 8.31243C15.9069 8.31243 16.6272 7.91958 17.0798 7.31235C17.5324 7.91958 18.2521 8.31243 19.0633 8.31243C19.1689 8.31243 19.2718 8.3057 19.3736 8.29287V17.0628ZM19.0632 7.43728C18.5521 7.43728 18.0816 7.20017 17.7739 6.78681L17.5215 6.44909L17.4726 6.12482H20.645C20.5 6.87204 19.8465 7.43728 19.0632 7.43728Z" fill="#474747"/>
</svg>
