<svg width="26" height="28" viewBox="0 0 26 28" fill="none" xmlns="http://www.w3.org/2000/svg">
<path d="M9.51058 18.2019C9.37348 18.4139 9.43338 18.6984 9.64429 18.837C9.8552 18.9757 10.1376 18.9161 10.2747 18.7041C10.4118 18.4922 10.3519 18.2076 10.141 18.069C9.93012 17.9304 9.64768 17.99 9.51058 18.2019Z" fill="black"/>
<path d="M17.2243 2.89772C17.3614 2.68555 17.3014 2.40093 17.0904 2.26212L14.7971 0.753843C14.1648 0.33801 13.3162 0.51679 12.9054 1.15237L1.68102 18.5192C1.27023 19.1548 1.45043 20.0102 2.0827 20.426L4.37602 21.9343C4.58708 22.0731 4.86942 22.0137 5.00657 21.8014C5.69121 20.7421 7.10553 20.4442 8.15931 21.1372C9.21309 21.8303 9.51342 23.2559 8.82878 24.3152C8.69163 24.5275 8.75161 24.812 8.96267 24.9508L11.256 26.4591C11.8883 26.875 12.7369 26.6962 13.1476 26.0606L24.372 8.69376C24.7828 8.05818 24.6026 7.20279 23.9704 6.78695L21.677 5.27868C21.466 5.13986 21.1836 5.19935 21.0465 5.41152C20.3618 6.47082 18.9475 6.76878 17.8937 6.07573C16.84 5.38268 16.5396 3.95702 17.2243 2.89772ZM17.3971 6.84418C18.7426 7.72911 20.5081 7.45992 21.5354 6.2806L23.4737 7.5554C23.6845 7.69401 23.7445 7.97914 23.6076 8.191L15.1148 21.3314L13.9681 20.5773C13.7571 20.4384 13.4747 20.4979 13.3376 20.7101C13.2004 20.9223 13.2604 21.2069 13.4715 21.3457L14.6181 22.0998L12.3832 25.5578C12.2463 25.7697 11.9634 25.8293 11.7527 25.6907L9.81433 24.4159C10.4696 22.9919 10.0015 21.2537 8.65597 20.3688C7.31043 19.4839 5.54498 19.753 4.51767 20.9324L2.57935 19.6576C2.3686 19.519 2.30853 19.2338 2.44546 19.022L4.6804 15.564L5.82707 16.3181C6.03813 16.4569 6.32046 16.3975 6.45761 16.1853C6.59477 15.9731 6.53478 15.6885 6.32372 15.5497L5.17706 14.7955L13.6699 1.65513C13.8068 1.44327 14.0896 1.38368 14.3004 1.52229L16.2387 2.79708C15.5835 4.2211 16.0516 5.95924 17.3971 6.84418Z" fill="black"/>
<path d="M13.4884 7.00478L9.212 13.6184C9.07469 13.8308 9.13472 14.1156 9.346 14.2545C9.55728 14.3934 9.83993 14.3338 9.97724 14.1215L14.2536 7.50784C14.3909 7.29551 14.3309 7.01069 14.1196 6.8718C13.9083 6.7329 13.6257 6.79245 13.4884 7.00478Z" fill="black"/>
<path d="M15.7774 8.50966L11.5011 15.1233C11.3638 15.3357 11.4238 15.6204 11.6351 15.7593C11.8463 15.8982 12.129 15.8387 12.2663 15.6264L16.5427 9.01272C16.68 8.80039 16.62 8.51557 16.4087 8.37668C16.1974 8.23778 15.9147 8.29733 15.7774 8.50966Z" fill="black"/>
<path d="M18.0665 10.0136L13.7901 16.6272C13.6528 16.8396 13.7128 17.1244 13.9241 17.2632C14.1354 17.4021 14.418 17.3426 14.5554 17.1303L18.8317 10.5167C18.969 10.3043 18.909 10.0195 18.6977 9.88064C18.4865 9.74174 18.2038 9.80129 18.0665 10.0136Z" fill="black"/>
<path d="M7.22124 16.6972C7.08422 16.9092 7.14414 17.1935 7.355 17.3322L8.1187 17.8344C8.32956 17.9731 8.61162 17.9137 8.74864 17.7017C8.88566 17.4897 8.82574 17.2054 8.61488 17.0668L7.85118 16.5645C7.64032 16.4258 7.35826 16.4852 7.22124 16.6972Z" fill="black"/>
<path d="M11.0367 19.2041C10.8996 19.4161 10.9596 19.7003 11.1704 19.839L11.9341 20.3412C12.145 20.4799 12.427 20.4205 12.5641 20.2085C12.7011 19.9965 12.6412 19.7122 12.4303 19.5736L11.6666 19.0713C11.4558 18.9327 11.1737 18.9921 11.0367 19.2041Z" fill="black"/>
</svg>
