<svg width="18" height="18" viewBox="0 0 18 18" fill="none" xmlns="http://www.w3.org/2000/svg">
<path d="M10.4843 15.8256C10.3404 15.8615 10.1938 15.8933 10.0482 15.9201C9.66767 15.9909 9.41609 16.3569 9.48648 16.7378C9.52124 16.9251 9.62766 17.0812 9.77214 17.1831C9.92105 17.2879 10.1106 17.3352 10.3037 17.2993C10.477 17.2671 10.6517 17.2293 10.8232 17.1865C11.199 17.093 11.4279 16.7123 11.3341 16.3367C11.2406 15.9608 10.8603 15.732 10.4843 15.8256Z" fill="#060606"/>
<path d="M15.6701 6.42626C15.7193 6.5743 15.813 6.69516 15.9315 6.77867C16.1071 6.90238 16.337 6.944 16.5563 6.87148C16.924 6.74938 17.1232 6.35287 17.0016 5.98535C16.9462 5.8178 16.8847 5.64974 16.8192 5.48609C16.6753 5.12648 16.2674 4.9514 15.9076 5.09524C15.5482 5.23901 15.373 5.64704 15.517 6.00676C15.572 6.1443 15.6236 6.28549 15.6701 6.42626Z" fill="#060606"/>
<path d="M12.763 14.8243C12.6393 14.906 12.5116 14.985 12.383 15.0591C12.0474 15.2527 11.9325 15.6816 12.126 16.017C12.1785 16.1083 12.2485 16.1829 12.3291 16.2399C12.5454 16.3921 12.8392 16.4149 13.0838 16.2739C13.2367 16.1857 13.3888 16.0919 13.5361 15.9945C13.8591 15.7811 13.9481 15.346 13.7345 15.0228C13.5211 14.6996 13.0861 14.6108 12.763 14.8243Z" fill="#060606"/>
<path d="M17.4376 8.38469C17.4224 7.99763 17.0964 7.69637 16.7092 7.71148C16.3225 7.72674 16.021 8.05287 16.0362 8.43978C16.042 8.58771 16.0435 8.73786 16.0401 8.88564C16.0347 9.12837 16.1534 9.34473 16.3379 9.47478C16.4478 9.55217 16.5812 9.59901 16.7258 9.60231C17.1129 9.6109 17.4336 9.3039 17.4422 8.91665C17.4461 8.74007 17.4446 8.56116 17.4376 8.38469Z" fill="#060606"/>
<path d="M15.5557 12.9794C15.2453 12.7465 14.8062 12.8097 14.5738 13.1196C14.4848 13.2382 14.391 13.3554 14.295 13.4682C14.0441 13.763 14.0796 14.2057 14.3743 14.4567C14.3911 14.471 14.4081 14.4841 14.4257 14.4964C14.7187 14.7029 15.126 14.6555 15.3629 14.3775C15.4775 14.2428 15.5893 14.1029 15.6957 13.9611C15.9282 13.6513 15.8652 13.2119 15.5557 12.9794Z" fill="#060606"/>
<path d="M16.5865 10.4444C16.217 10.3285 15.8234 10.5343 15.7076 10.9038C15.6633 11.045 15.6142 11.1868 15.5612 11.3258C15.4447 11.6316 15.5563 11.9681 15.812 12.1485C15.859 12.1814 15.9106 12.2094 15.9668 12.2306C16.3286 12.3687 16.7338 12.1871 16.8717 11.8251C16.9346 11.66 16.9931 11.4912 17.0459 11.3233C17.1616 10.9537 16.956 10.5603 16.5865 10.4444Z" fill="#060606"/>
<path d="M7.42467 15.9262C6.79769 15.8136 6.19625 15.6219 5.62594 15.3546C5.61919 15.351 5.61315 15.347 5.60606 15.3438C5.47167 15.2805 5.3375 15.2128 5.20745 15.142C5.207 15.1415 5.20618 15.1411 5.20546 15.1408C4.96686 15.0094 4.73399 14.864 4.50777 14.7048C1.20894 12.381 0.41577 7.80662 2.73971 4.50783C3.24504 3.79078 3.85656 3.19257 4.53833 2.71843C4.54673 2.71259 4.55513 2.70677 4.56345 2.70089C6.96587 1.04555 10.228 0.93399 12.779 2.635L12.2311 3.42663C12.0788 3.64697 12.1725 3.80754 12.4391 3.78354L14.8191 3.57048C15.086 3.54648 15.2457 3.31552 15.1739 3.05768L14.5348 0.755047C14.4633 0.496906 14.2801 0.466008 14.1276 0.686312L13.5784 1.47982C11.7064 0.223129 9.46099 -0.256065 7.23234 0.130395C7.00787 0.169244 6.78655 0.216792 6.56827 0.27214C6.56659 0.27244 6.56524 0.272627 6.56389 0.272927C6.55545 0.27499 6.5469 0.277727 6.53869 0.280015C4.61689 0.773534 2.94014 1.8944 1.74367 3.49364C1.73358 3.50561 1.7232 3.5173 1.71367 3.53032C1.67389 3.5839 1.6344 3.63873 1.59574 3.69355C1.53252 3.78339 1.47019 3.87549 1.41057 3.96759C1.40311 3.97869 1.39741 3.98997 1.39088 4.00119C0.403546 5.53117 -0.0726865 7.29997 0.00898544 9.10073C0.00917293 9.10666 0.00883545 9.11262 0.00898544 9.11869C0.0168976 9.2946 0.0308471 9.47294 0.0497839 9.64851C0.0507964 9.65983 0.0533088 9.67056 0.0552212 9.68188C0.0747955 9.85843 0.099357 10.0354 0.130143 10.2123C0.443032 12.0174 1.29455 13.6417 2.57051 14.9056C2.57348 14.9086 2.57655 14.9118 2.57955 14.9149C2.5806 14.916 2.58176 14.9166 2.58278 14.9177C2.92559 15.2559 3.29847 15.5686 3.69997 15.8514C4.75068 16.5917 5.92067 17.0811 7.17718 17.3066C7.55842 17.3751 7.92261 17.1213 7.99101 16.7403C8.05937 16.359 7.8058 15.9945 7.42467 15.9262Z" fill="#060606"/>
<path d="M8.29186 3.05664C7.97826 3.05664 7.72424 3.31088 7.72424 3.62403V9.27683L12.8942 11.9494C12.9774 11.9925 13.0665 12.0128 13.1542 12.0128C13.3595 12.0128 13.5578 11.9009 13.6587 11.7058C13.8025 11.4274 13.6936 11.0853 13.4152 10.9415L8.85884 8.58588V3.62403C8.8588 3.31088 8.60508 3.05664 8.29186 3.05664Z" fill="#060606"/>
</svg>
