<svg width="51" height="15" viewBox="0 0 51 15" fill="none" xmlns="http://www.w3.org/2000/svg">
<path d="M18.9756 14.6078L21.4753 0.47168H25.381L22.9595 14.6078H18.9756Z" fill="#3C58BF"/>
<path d="M18.9756 14.6078L22.1783 0.47168H25.381L22.9595 14.6078H18.9756Z" fill="#293688"/>
<path d="M37.0981 0.628272C36.317 0.314136 35.0671 0 33.5048 0C29.5991 0 26.7869 1.96335 26.7869 4.79058C26.7869 6.911 28.7398 8.01048 30.3021 8.71728C31.8644 9.42409 32.3331 9.89529 32.3331 10.5236C32.3331 11.466 31.0832 11.9372 29.9896 11.9372C28.4273 11.9372 27.5681 11.7016 26.2401 11.1518L25.6933 10.9162L25.1465 14.1361C26.0839 14.5288 27.8024 14.9215 29.5991 14.9215C33.7392 14.9215 36.4732 12.9581 36.4732 9.97383C36.4732 8.32461 35.4577 7.06807 33.1142 6.04712C31.7082 5.34032 30.8489 4.94765 30.8489 4.24084C30.8489 3.61257 31.5519 2.9843 33.1142 2.9843C34.4422 2.9843 35.3796 3.2199 36.0826 3.53403L36.4732 3.6911L37.0981 0.628272Z" fill="#3C58BF"/>
<path d="M37.0981 0.628272C36.317 0.314136 35.0671 0 33.5048 0C29.5991 0 27.4899 1.96335 27.4899 4.79058C27.4899 6.911 28.7398 8.01048 30.3021 8.71728C31.8644 9.42409 32.3331 9.89529 32.3331 10.5236C32.3331 11.466 31.0832 11.9372 29.9896 11.9372C28.4273 11.9372 27.5681 11.7016 26.2401 11.1518L25.6933 10.9162L25.1465 14.1361C26.0839 14.5288 27.8024 14.9215 29.5991 14.9215C33.7392 14.9215 36.4732 12.9581 36.4732 9.97383C36.4732 8.32461 35.4577 7.06807 33.1142 6.04712C31.7082 5.34032 30.8489 4.94765 30.8489 4.24084C30.8489 3.61257 31.5519 2.9843 33.1142 2.9843C34.4422 2.9843 35.3796 3.2199 36.0826 3.53403L36.4732 3.6911L37.0981 0.628272Z" fill="#293688"/>
<path d="M43.8154 0.47168C42.878 0.47168 42.175 0.550215 41.7844 1.49262L35.9258 14.6078H40.144L40.9252 12.2518H45.9245L46.3932 14.6078H50.1427L46.8619 0.47168H43.8154ZM42.0188 9.89577C42.2531 9.18896 43.5811 5.73347 43.5811 5.73347C43.5811 5.73347 43.8935 4.86959 44.1279 4.31985L44.3622 5.65493C44.3622 5.65493 45.1434 9.18897 45.2996 9.97431H42.0188V9.89577Z" fill="#3C58BF"/>
<path d="M44.7528 0.47168C43.8154 0.47168 43.1124 0.550215 42.7218 1.49262L35.9258 14.6078H40.144L40.9252 12.2518H45.9245L46.3932 14.6078H50.1427L46.8619 0.47168H44.7528ZM42.0188 9.89577C42.3312 9.11043 43.5811 5.73347 43.5811 5.73347C43.5811 5.73347 43.8935 4.86959 44.1279 4.31985L44.3622 5.65493C44.3622 5.65493 45.1434 9.18897 45.2996 9.97431H42.0188V9.89577Z" fill="#293688"/>
<path d="M11.7893 10.3666L11.3987 8.32468C10.6957 5.96866 8.43035 3.37703 5.93066 2.12049L9.44585 14.6859H13.6641L19.9914 0.549805H15.7732L11.7893 10.3666Z" fill="#3C58BF"/>
<path d="M11.7893 10.3666L11.3987 8.32468C10.6957 5.96866 8.43035 3.37703 5.93066 2.12049L9.44585 14.6859H13.6641L19.9914 0.549805H16.5543L11.7893 10.3666Z" fill="#293688"/>
<path d="M0.930664 0.47168L1.6337 0.628749C6.63308 1.80676 10.0701 4.79106 11.3981 8.3251L9.99203 1.64969C9.75769 0.707282 9.05465 0.47168 8.19538 0.47168H0.930664Z" fill="#FFBC00"/>
<path d="M0.930664 0.47168C5.93004 1.64969 10.0701 4.71253 11.3981 8.24657L10.0701 2.67064C9.8358 1.72823 9.05465 1.17849 8.19538 1.17849L0.930664 0.47168Z" fill="#F7981D"/>
<path d="M0.930664 0.47168C5.93004 1.64969 10.0701 4.71253 11.3981 8.24657L10.4607 5.18373C10.2264 4.24132 9.91392 3.29891 8.82031 2.90624L0.930664 0.47168Z" fill="#ED7C00"/>
<path d="M15.6941 9.8954L13.0382 7.22524L11.7883 10.2095L11.4759 8.24618C10.7728 5.89016 8.5075 3.29854 6.00781 2.04199L9.523 14.6074H13.7412L15.6941 9.8954Z" fill="#051244"/>
<path d="M22.9595 14.6078L19.6005 11.1523L18.9756 14.6078H22.9595Z" fill="#051244"/>
<path d="M31.9425 9.73828C32.255 10.0524 32.4112 10.288 32.3331 10.6022C32.3331 11.5446 31.0832 12.0158 29.9896 12.0158C28.4273 12.0158 27.5681 11.7802 26.2401 11.2304L25.6933 10.9948L25.1465 14.2147C26.0839 14.6074 27.8024 15.0001 29.5991 15.0001C32.0987 15.0001 34.1297 14.2933 35.3015 13.0367L31.9425 9.73828Z" fill="#051244"/>
<path d="M36.4736 14.6083H40.1451L40.9262 12.2523H45.9256L46.3943 14.6083H50.1438L48.8158 8.8753L44.1289 4.32031L44.3633 5.57686C44.3633 5.57686 45.1444 9.1109 45.3007 9.89624H42.0198C42.3323 9.1109 43.5821 5.73393 43.5821 5.73393C43.5821 5.73393 43.8946 4.87005 44.1289 4.32031" fill="#051244"/>
</svg>
