<svg width="37" height="37" viewBox="0 0 37 37" fill="none" xmlns="http://www.w3.org/2000/svg">
<path d="M8.64654 7.50118L23.3967 3.47502L22.6155 1.89613C22.1045 0.869852 20.858 0.446045 19.8317 0.957106L6.62723 7.50118H8.64654Z" fill="white"/>
<path d="M27.9751 3.5918C27.7924 3.5918 27.6095 3.61673 27.4267 3.66659L23.9615 4.61392L13.3787 7.50163H25.3907H30.626L29.9778 5.12499C29.7285 4.19842 28.8892 3.5918 27.9751 3.5918Z" fill="white"/>
<path d="M32.791 8.95508H32.3174H31.6733H31.0293H26.114H8.05233H5.684H3.68961H3.31982H2.08164C1.42515 8.95508 0.839304 9.25839 0.457047 9.73621C0.282538 9.95643 0.149579 10.2099 0.0747894 10.4883C0.0290848 10.6628 0 10.8456 0 11.0326V11.2819V13.6502V34.1799C0 35.3267 0.930713 36.2574 2.07748 36.2574H32.7869C33.9337 36.2574 34.8643 35.3267 34.8643 34.1799V28.3837H22.5366C20.5879 28.3837 19.0048 26.8007 19.0048 24.852V22.949V22.305V21.661V20.2317C19.0048 19.276 19.387 18.4077 20.0062 17.772C20.5546 17.2068 21.2901 16.8246 22.1127 16.729C22.2499 16.7124 22.3911 16.7041 22.5324 16.7041H33.1359H33.7799H34.4239H34.8643V11.0326C34.8685 9.88579 33.9378 8.95508 32.791 8.95508Z" fill="white"/>
<path d="M36.3217 18.6907C36.1139 18.4996 35.8688 18.3542 35.5945 18.2586C35.3826 18.188 35.1583 18.1465 34.9214 18.1465H34.8674H34.8259H34.1819H31.8592H22.5355C21.3887 18.1465 20.458 19.0772 20.458 20.224V21.2585V21.9025V22.5466V24.8484C20.458 25.9952 21.3887 26.9259 22.5355 26.9259H34.8674H34.9214C35.1583 26.9259 35.3826 26.8843 35.5945 26.8137C35.8688 26.7223 36.1139 26.5727 36.3217 26.3816C36.7372 26.0035 36.9989 25.455 36.9989 24.8484V20.224C36.9989 19.6173 36.7372 19.0688 36.3217 18.6907ZM26.8733 22.9496C26.8733 23.523 26.4079 23.9883 25.8346 23.9883H25.1448C24.5714 23.9883 24.1061 23.523 24.1061 22.9496V22.2599C24.1061 21.9275 24.2598 21.6324 24.505 21.4454C24.6836 21.3083 24.9039 21.2211 25.1448 21.2211H25.3193H25.8346C26.4079 21.2211 26.8733 21.6864 26.8733 22.2599V22.9496Z" fill="white"/>
</svg>
