<svg width="25" height="25" viewBox="0 0 25 25" fill="none" xmlns="http://www.w3.org/2000/svg">
<path d="M23.9729 14.5115H23.6051V11.1719C23.6051 10.6432 23.3441 10.1751 22.9454 9.89069V9.43599C22.9454 8.7764 22.4131 8.23982 21.7588 8.23982H21.4842L22.5349 6.68557C22.8871 6.16462 22.7532 5.4519 22.2364 5.09682L15.1066 0.198914C14.8563 0.0268918 14.5546 -0.0365942 14.2568 0.0203593C13.9591 0.0772161 13.7012 0.247496 13.5306 0.499892L7.37674 9.60293H5.66428L6.07743 5.38682C6.08208 5.3393 6.11271 5.29812 6.15543 5.28191C6.68772 5.0796 7.14902 4.70178 7.45431 4.21808C7.47836 4.18 7.52372 4.15823 7.57066 4.16302L10.2566 4.43051C10.4492 4.44933 10.6205 4.30794 10.6395 4.1139C10.6585 3.91986 10.5179 3.74707 10.3254 3.7279L7.6395 3.46041C7.32773 3.42964 7.03041 3.57446 6.86336 3.83905C6.6389 4.19471 6.29972 4.47246 5.90837 4.62121C5.61378 4.73318 5.4115 4.9999 5.3804 5.31738L4.96048 9.60288H4.51392L5.16732 2.93472C5.19084 2.69471 5.40334 2.51838 5.64172 2.54243L11.0695 3.08293C11.2619 3.10166 11.4334 2.96036 11.4524 2.76632C11.4714 2.57228 11.3308 2.39949 11.1383 2.38033L5.71055 1.83982C5.08826 1.77794 4.53178 2.23787 4.47029 2.86528L3.94361 8.23982H3.0467C2.39244 8.23982 1.8601 8.7764 1.8601 9.43599V9.74616C1.32483 9.99459 0.952148 10.54 0.952148 11.1719V23.206C0.952148 24.0712 1.65038 24.775 2.5087 24.775H22.0486C22.9069 24.775 23.6051 24.0712 23.6051 23.206V19.8665H23.9729C24.407 19.8665 24.7601 19.5105 24.7601 19.0729V15.3051C24.7602 14.8675 24.407 14.5115 23.9729 14.5115ZM21.7588 8.9459C22.0269 8.94586 22.245 9.16574 22.245 9.43603V9.6159C22.1806 9.60767 22.1152 9.60297 22.0486 9.60297H20.5627L21.0069 8.9459H21.7588ZM14.1094 0.897454C14.1746 0.800918 14.2733 0.735787 14.3871 0.714012C14.4144 0.708834 14.4417 0.706221 14.4688 0.706221C14.555 0.706221 14.6393 0.732255 14.7122 0.782288L21.8419 5.6802C22.0396 5.81602 22.0909 6.08865 21.9562 6.28791L19.7152 9.60283H19.1774L20.2761 7.9776C20.4543 7.71402 20.4689 7.37859 20.3143 7.10215C20.1087 6.73488 20.0254 6.30243 20.0797 5.8844C20.12 5.5734 19.9842 5.26981 19.7254 5.09203L16.0294 2.55298C15.7705 2.37515 15.4405 2.35884 15.1682 2.51044C14.8022 2.71416 14.3724 2.79415 13.9581 2.73569C13.6509 2.69224 13.3394 2.83208 13.1638 3.09169L8.76211 9.60288H8.2243L14.1094 0.897454ZM14.2636 6.89238C12.7385 6.89238 11.4866 8.09112 11.3846 9.60288H9.60958L13.7425 3.4893C13.7425 3.4893 13.7425 3.4893 13.7425 3.4893C13.766 3.45451 13.8049 3.4338 13.8449 3.4338C13.8502 3.4338 13.8556 3.43419 13.8609 3.43491C14.4243 3.51437 15.0088 3.40568 15.5066 3.12856C15.5458 3.10669 15.5961 3.10984 15.6349 3.13645L19.331 5.67555C19.3697 5.70217 19.3909 5.74823 19.3852 5.79294C19.3114 6.36146 19.4248 6.94958 19.7043 7.44905C19.7267 7.48916 19.724 7.54055 19.6974 7.57999L18.3299 9.60283H17.1427C17.0406 8.09112 15.7887 6.89238 14.2636 6.89238ZM16.4404 9.60293H12.0869C12.1872 8.48084 13.1248 7.59847 14.2636 7.59847C15.4024 7.59842 16.3401 8.48084 16.4404 9.60293ZM2.56049 9.43599C2.56049 9.16569 2.77856 8.94581 3.0467 8.94581H3.87444L3.81007 9.60288H2.56049V9.43599ZM1.65254 11.1719C1.65254 10.6961 2.0366 10.3089 2.5087 10.3089H22.0486C22.5207 10.3089 22.9047 10.6961 22.9047 11.1719V12.1515H1.65254V11.1719ZM22.9047 23.206C22.9047 23.6818 22.5207 24.069 22.0486 24.069H2.5087C2.0366 24.069 1.65254 23.6818 1.65254 23.206V22.2264H3.54102C3.73447 22.2264 3.89119 22.0684 3.89119 21.8734C3.89119 21.6784 3.73442 21.5204 3.54102 21.5204H1.65254V12.8576H22.9047V14.5115H19.575H19.575C18.5258 14.5115 17.6171 15.128 17.1858 16.0203C17.1843 16.0233 17.1827 16.0262 17.1812 16.0292C17.1776 16.0368 17.1744 16.0447 17.1708 16.0523C17.1195 16.1623 17.0748 16.2762 17.0385 16.3937C17.0384 16.394 17.0383 16.3943 17.0382 16.3946C16.9607 16.6457 16.9189 16.9125 16.9189 17.189C16.9189 18.6654 18.1104 19.8665 19.5749 19.8665H19.575H22.9046V21.5204H5.78337C5.58992 21.5204 5.4332 21.6784 5.4332 21.8734C5.4332 22.0684 5.58997 22.2264 5.78337 22.2264H22.9047V23.206ZM24.0598 19.0728C24.0598 19.1211 24.0208 19.1604 23.9729 19.1604H19.5751C18.8337 19.1604 18.1873 18.7424 17.8557 18.1279C17.8407 18.1 17.8263 18.0716 17.8125 18.0429C17.785 17.9855 17.7602 17.9265 17.7382 17.8661C17.6613 17.6549 17.6194 17.4268 17.6194 17.189C17.6194 16.9512 17.6614 16.7231 17.7382 16.5118C17.7602 16.4515 17.785 16.3925 17.8125 16.335C17.8263 16.3063 17.8407 16.278 17.8557 16.25C18.1873 15.6356 18.8337 15.2175 19.5751 15.2175H23.9729C24.0208 15.2175 24.0598 15.2568 24.0598 15.3051V19.0728Z" fill="black"/>
<path d="M19.6572 15.7568C18.8737 15.7568 18.2363 16.3994 18.2363 17.1891C18.2363 17.9789 18.8737 18.6214 19.6572 18.6214C20.4407 18.6214 21.078 17.9789 21.078 17.1891C21.078 16.3994 20.4407 15.7568 19.6572 15.7568ZM19.6572 17.9154C19.2599 17.9154 18.9367 17.5896 18.9367 17.1891C18.9367 16.7887 19.2599 16.4629 19.6572 16.4629C20.0544 16.4629 20.3776 16.7887 20.3776 17.1891C20.3776 17.5896 20.0544 17.9154 19.6572 17.9154Z" fill="black"/>
</svg>
